<?xml version="1.0" encoding="utf-8" standalone="no"?>
<!DOCTYPE svg PUBLIC "-//W3C//DTD SVG 1.1//EN"
  "http://www.w3.org/Graphics/SVG/1.1/DTD/svg11.dtd">
<!-- Created with matplotlib (https://matplotlib.org/) -->
<svg height="345.6pt" version="1.1" viewBox="0 0 460.8 345.6" width="460.8pt" xmlns="http://www.w3.org/2000/svg" xmlns:xlink="http://www.w3.org/1999/xlink">
 <defs>
  <style type="text/css">
*{stroke-linecap:butt;stroke-linejoin:round;}
  </style>
 </defs>
 <g id="figure_1">
  <g id="patch_1">
   <path d="M 0 345.6 
L 460.8 345.6 
L 460.8 0 
L 0 0 
z
" style="fill:#ffffff;"/>
  </g>
  <g id="axes_1">
   <g id="patch_2">
    <path d="M 57.6 307.584 
L 414.72 307.584 
L 414.72 41.472 
L 57.6 41.472 
z
" style="fill:#ffffff;"/>
   </g>
   <g id="PolyCollection_1">
    <defs>
     <path d="M 414.72 -38.016 
L 414.72 -112.677346 
L 399.896847 -115.478252 
L 399.122503 -116.045494 
L 398.385033 -116.160141 
L 397.758183 -116.398191 
L 396.633541 -116.686315 
L 396.356989 -116.701838 
L 396.172622 -116.750811 
L 395.730139 -116.839932 
L 395.453588 -116.86639 
L 393.573039 -117.347417 
L 392.983062 -117.325268 
L 392.595891 -117.415372 
L 391.360628 -117.540801 
L 389.682883 -117.846741 
L 389.351021 -117.88149 
L 389.166654 -117.932276 
L 388.50293 -118.717519 
L 387.912954 -118.762733 
L 379.100184 -123.043738 
L 378.915816 -123.084994 
L 378.749885 -123.134507 
L 378.362713 -123.151718 
L 378.288966 -123.145294 
L 376.777152 -124.218862 
L 375.947498 -124.242129 
L 375.744694 -124.267073 
L 372.905433 -124.718224 
L 372.702629 -124.719692 
L 372.002032 -124.702169 
L 371.651734 -124.711657 
L 370.82208 -124.715935 
L 370.785206 -124.714457 
L 370.176793 -124.706644 
L 369.605253 -124.719562 
L 368.296244 -124.69926 
L 368.185623 -124.693025 
L 366.729119 -124.914601 
L 365.936339 -125.178346 
L 365.641351 -125.269004 
L 365.364799 -125.267978 
L 365.235742 -125.278182 
L 363.576434 -125.811154 
L 363.097078 -125.833085 
L 363.078641 -125.829621 
L 362.599285 -125.800132 
L 359.372853 -126.479223 
L 357.529177 -126.970711 
L 357.492304 -126.969371 
L 357.178879 -127.043532 
L 356.681086 -127.238936 
L 355.851432 -127.509995 
L 355.832995 -127.520092 
L 352.219391 -127.690539 
L 352.05346 -127.715507 
L 349.177326 -128.491466 
L 348.845464 -128.607295 
L 347.905189 -128.661457 
L 345.324043 -128.66679 
L 344.734067 -128.692895 
L 344.697194 -128.71042 
L 343.904413 -128.664128 
L 338.170581 -129.874192 
L 338.059961 -129.868602 
L 338.041524 -129.897589 
L 332.584244 -130.942339 
L 331.662406 -131.284279 
L 330.832752 -131.357803 
L 329.744983 -131.67516 
L 328.417536 -131.89758 
L 327.256021 -131.930706 
L 327.219147 -131.944041 
L 327.20071 -131.942379 
L 326.795102 -132.034584 
L 326.647608 -132.011728 
L 326.573861 -132.021801 
L 321.282511 -132.697683 
L 320.729408 -132.669679 
L 320.286926 -132.698813 
L 320.139432 -132.692817 
L 319.918191 -132.712403 
L 319.862881 -132.714818 
L 318.535434 -132.926071 
L 318.129826 -132.894021 
L 317.853274 -133.110735 
L 316.931436 -133.160845 
L 316.28615 -133.185721 
L 316.064909 -133.213882 
L 313.963118 -133.387795 
L 313.649693 -133.408019 
L 311.031674 -133.389035 
L 306.385611 -133.640633 
L 306.016876 -133.772002 
L 305.703451 -133.729021 
L 304.85536 -133.82938 
L 304.836923 -133.824936 
L 304.634119 -133.938337 
L 302.347961 -134.326537 
L 302.311087 -134.342359 
L 302.23734 -134.329878 
L 298.937161 -134.624317 
L 290.327195 -135.275998 
L 290.253448 -135.286579 
L 289.036622 -135.432631 
L 288.64945 -135.50549 
L 284.777731 -135.487447 
L 280.481966 -135.302259 
L 279.873553 -135.457485 
L 277.808636 -135.59473 
L 277.550521 -135.596739 
L 277.347717 -135.61386 
L 277.310844 -135.647953 
L 276.64712 -135.662355 
L 275.504041 -135.87315 
L 275.301237 -135.906796 
L 275.061559 -136.020223 
L 274.379399 -136.066392 
L 273.328504 -135.997281 
L 269.899267 -136.766096 
L 268.590257 -137.024922 
L 266.728145 -137.098164 
L 263.85201 -137.581714 
L 262.856425 -137.68915 
L 262.045208 -137.636579 
L 261.528979 -137.720789 
L 257.528202 -137.968843 
L 257.177904 -138.084865 
L 256.256066 -138.354624 
L 256.163882 -138.385509 
L 253.177128 -138.678405 
L 250.079752 -138.993506 
L 249.821638 -138.946689 
L 246.392401 -138.946487 
L 244.91746 -139.439917 
L 244.677782 -139.457982 
L 244.677782 -139.481996 
L 244.659345 -139.532077 
L 244.640909 -139.534095 
L 243.571577 -139.769275 
L 240.511075 -140.05643 
L 240.363581 -140.106728 
L 238.722709 -140.384003 
L 238.353974 -140.33546 
L 235.551587 -140.230728 
L 234.279451 -140.26479 
L 233.136372 -140.365942 
L 232.159224 -140.325624 
L 231.716741 -140.384905 
L 231.034581 -140.37786 
L 224.950451 -140.88569 
L 224.913578 -140.945872 
L 221.816202 -141.272339 
L 216.322049 -141.825352 
L 212.302835 -141.940891 
L 210.920078 -141.890176 
L 210.403849 -142.15118 
L 209.482011 -142.178778 
L 208.062381 -142.308247 
L 207.085233 -142.351695 
L 202.734158 -142.203147 
L 200.927356 -142.399712 
L 199.544599 -142.510969 
L 198.991496 -142.422498 
L 198.936186 -142.465817 
L 197.66405 -142.639359 
L 195.72819 -142.908967 
L 195.543822 -142.855834 
L 189.75468 -142.517721 
L 189.607186 -142.678037 
L 189.312198 -142.619117 
L 189.146267 -142.765719 
L 189.07252 -142.779819 
L 185.680157 -142.691843 
L 184.905813 -143.444231 
L 184.813629 -143.488618 
L 181.255335 -143.529475 
L 180.591612 -143.532959 
L 179.52228 -143.643952 
L 172.995668 -144.370741 
L 172.07383 -145.488269 
L 168.404915 -145.380094 
L 167.372456 -145.287043 
L 167.224962 -145.325994 
L 165.786895 -145.510465 
L 165.270666 -145.541579 
L 164.772874 -145.599374 
L 164.533196 -145.57084 
L 162.265474 -146.32516 
L 157.803779 -145.612188 
L 157.711595 -145.580421 
L 156.863504 -145.50938 
L 156.421022 -145.837129 
L 155.665115 -145.790813 
L 150.558133 -145.86918 
L 150.336892 -146.050169 
L 150.318455 -146.037846 
L 149.285997 -145.951011 
L 146.797035 -146.457029 
L 146.243932 -146.765622 
L 145.783013 -146.753309 
L 145.11929 -147.010354 
L 144.308072 -147.307062 
L 144.179015 -147.344885 
L 140.841962 -147.307461 
L 140.45479 -147.331612 
L 140.233549 -147.491528 
L 139.459205 -147.927467 
L 138.961412 -147.935481 
L 136.380266 -147.570792 
L 135.237187 -147.712355 
L 133.965051 -147.684667 
L 132.416363 -147.648184 
L 128.28653 -146.791211 
L 128.175909 -146.864684 
L 127.788737 -146.829136 
L 127.530623 -146.883262 
L 126.995957 -146.96394 
L 126.756279 -146.998396 
L 125.410395 -146.975944 
L 125.004787 -147.26923 
L 118.95753 -146.1504 
L 118.95753 -146.178134 
L 114.477398 -146.412284 
L 112.062183 -147.023245 
L 111.988436 -147.018478 
L 111.711884 -146.924697 
L 110.034139 -147.209056 
L 97.312776 -140.303757 
L 97.183719 -140.431901 
L 96.888731 -140.245915 
L 96.870294 -140.275367 
L 95.837836 -140.478877 
L 91.708002 -137.562497 
L 91.671129 -137.624065 
L 86.195411 -133.680502 
L 84.997022 -134.262317 
L 84.812655 -134.527207 
L 84.075184 -134.194605 
L 82.968979 -133.402608 
L 82.379003 -133.02949 
L 82.323692 -133.02943 
L 82.249945 -132.984969 
L 81.696843 -132.307512 
L 81.033119 -132.396967 
L 79.650362 -131.167272 
L 78.193859 -129.60205 
L 77.659193 -130.392121 
L 77.456388 -130.230486 
L 77.272021 -130.65748 
L 77.235147 -130.70611 
L 75.889264 -129.738904 
L 75.778643 -129.618581 
L 75.299288 -129.828226 
L 74.783058 -129.074628 
L 74.617128 -129.250446 
L 73.879657 -130.52841 
L 73.824347 -130.520023 
L 73.824347 -130.558407 
L 73.658416 -130.533284 
L 73.474049 -130.16627 
L 67.887711 -114.335223 
L 67.03962 -111.785915 
L 66.910563 -111.868972 
L 66.707758 -111.662682 
L 66.689322 -111.643531 
L 66.578701 -111.658768 
L 65.601553 -108.614819 
L 64.808772 -105.473481 
L 64.790336 -105.438647 
L 64.753462 -105.230436 
L 64.624405 -104.839972 
L 64.292543 -104.345286 
L 63.315395 -100.969846 
L 63.038844 -101.376 
L 62.928223 -100.994641 
L 62.688545 -99.754252 
L 62.043259 -96.131167 
L 61.951075 -95.527385 
L 61.729834 -94.447968 
L 61.63765 -93.966968 
L 61.619213 -93.936972 
L 61.563903 -93.447943 
L 61.471719 -92.771556 
L 61.084547 -88.919464 
L 61.029237 -88.595227 
L 60.918616 -88.037053 
L 60.90018 -88.033376 
L 60.789559 -87.558508 
L 60.678939 -86.276525 
L 60.660502 -86.262606 
L 60.568318 -85.188069 
L 60.531445 -84.927478 
L 57.6 -291.456 
L 57.6 -38.016 
L 57.6 -38.016 
L 60.531445 -38.016 
L 60.568318 -38.016 
L 60.660502 -38.016 
L 60.678939 -38.016 
L 60.789559 -38.016 
L 60.90018 -38.016 
L 60.918616 -38.016 
L 61.029237 -38.016 
L 61.084547 -38.016 
L 61.471719 -38.016 
L 61.563903 -38.016 
L 61.619213 -38.016 
L 61.63765 -38.016 
L 61.729834 -38.016 
L 61.951075 -38.016 
L 62.043259 -38.016 
L 62.688545 -38.016 
L 62.928223 -38.016 
L 63.038844 -38.016 
L 63.315395 -38.016 
L 64.292543 -38.016 
L 64.624405 -38.016 
L 64.753462 -38.016 
L 64.790336 -38.016 
L 64.808772 -38.016 
L 65.601553 -38.016 
L 66.578701 -38.016 
L 66.689322 -38.016 
L 66.707758 -38.016 
L 66.910563 -38.016 
L 67.03962 -38.016 
L 67.887711 -38.016 
L 73.474049 -38.016 
L 73.658416 -38.016 
L 73.824347 -38.016 
L 73.824347 -38.016 
L 73.879657 -38.016 
L 74.617128 -38.016 
L 74.783058 -38.016 
L 75.299288 -38.016 
L 75.778643 -38.016 
L 75.889264 -38.016 
L 77.235147 -38.016 
L 77.272021 -38.016 
L 77.456388 -38.016 
L 77.659193 -38.016 
L 78.193859 -38.016 
L 79.650362 -38.016 
L 81.033119 -38.016 
L 81.696843 -38.016 
L 82.249945 -38.016 
L 82.323692 -38.016 
L 82.379003 -38.016 
L 82.968979 -38.016 
L 84.075184 -38.016 
L 84.812655 -38.016 
L 84.997022 -38.016 
L 86.195411 -38.016 
L 91.671129 -38.016 
L 91.708002 -38.016 
L 95.837836 -38.016 
L 96.870294 -38.016 
L 96.888731 -38.016 
L 97.183719 -38.016 
L 97.312776 -38.016 
L 110.034139 -38.016 
L 111.711884 -38.016 
L 111.988436 -38.016 
L 112.062183 -38.016 
L 114.477398 -38.016 
L 118.95753 -38.016 
L 118.95753 -38.016 
L 125.004787 -38.016 
L 125.410395 -38.016 
L 126.756279 -38.016 
L 126.995957 -38.016 
L 127.530623 -38.016 
L 127.788737 -38.016 
L 128.175909 -38.016 
L 128.28653 -38.016 
L 132.416363 -38.016 
L 133.965051 -38.016 
L 135.237187 -38.016 
L 136.380266 -38.016 
L 138.961412 -38.016 
L 139.459205 -38.016 
L 140.233549 -38.016 
L 140.45479 -38.016 
L 140.841962 -38.016 
L 144.179015 -38.016 
L 144.308072 -38.016 
L 145.11929 -38.016 
L 145.783013 -38.016 
L 146.243932 -38.016 
L 146.797035 -38.016 
L 149.285997 -38.016 
L 150.318455 -38.016 
L 150.336892 -38.016 
L 150.558133 -38.016 
L 155.665115 -38.016 
L 156.421022 -38.016 
L 156.863504 -38.016 
L 157.711595 -38.016 
L 157.803779 -38.016 
L 162.265474 -38.016 
L 164.533196 -38.016 
L 164.772874 -38.016 
L 165.270666 -38.016 
L 165.786895 -38.016 
L 167.224962 -38.016 
L 167.372456 -38.016 
L 168.404915 -38.016 
L 172.07383 -38.016 
L 172.995668 -38.016 
L 179.52228 -38.016 
L 180.591612 -38.016 
L 181.255335 -38.016 
L 184.813629 -38.016 
L 184.905813 -38.016 
L 185.680157 -38.016 
L 189.07252 -38.016 
L 189.146267 -38.016 
L 189.312198 -38.016 
L 189.607186 -38.016 
L 189.75468 -38.016 
L 195.543822 -38.016 
L 195.72819 -38.016 
L 197.66405 -38.016 
L 198.936186 -38.016 
L 198.991496 -38.016 
L 199.544599 -38.016 
L 200.927356 -38.016 
L 202.734158 -38.016 
L 207.085233 -38.016 
L 208.062381 -38.016 
L 209.482011 -38.016 
L 210.403849 -38.016 
L 210.920078 -38.016 
L 212.302835 -38.016 
L 216.322049 -38.016 
L 221.816202 -38.016 
L 224.913578 -38.016 
L 224.950451 -38.016 
L 231.034581 -38.016 
L 231.716741 -38.016 
L 232.159224 -38.016 
L 233.136372 -38.016 
L 234.279451 -38.016 
L 235.551587 -38.016 
L 238.353974 -38.016 
L 238.722709 -38.016 
L 240.363581 -38.016 
L 240.511075 -38.016 
L 243.571577 -38.016 
L 244.640909 -38.016 
L 244.659345 -38.016 
L 244.677782 -38.016 
L 244.677782 -38.016 
L 244.91746 -38.016 
L 246.392401 -38.016 
L 249.821638 -38.016 
L 250.079752 -38.016 
L 253.177128 -38.016 
L 256.163882 -38.016 
L 256.256066 -38.016 
L 257.177904 -38.016 
L 257.528202 -38.016 
L 261.528979 -38.016 
L 262.045208 -38.016 
L 262.856425 -38.016 
L 263.85201 -38.016 
L 266.728145 -38.016 
L 268.590257 -38.016 
L 269.899267 -38.016 
L 273.328504 -38.016 
L 274.379399 -38.016 
L 275.061559 -38.016 
L 275.301237 -38.016 
L 275.504041 -38.016 
L 276.64712 -38.016 
L 277.310844 -38.016 
L 277.347717 -38.016 
L 277.550521 -38.016 
L 277.808636 -38.016 
L 279.873553 -38.016 
L 280.481966 -38.016 
L 284.777731 -38.016 
L 288.64945 -38.016 
L 289.036622 -38.016 
L 290.253448 -38.016 
L 290.327195 -38.016 
L 298.937161 -38.016 
L 302.23734 -38.016 
L 302.311087 -38.016 
L 302.347961 -38.016 
L 304.634119 -38.016 
L 304.836923 -38.016 
L 304.85536 -38.016 
L 305.703451 -38.016 
L 306.016876 -38.016 
L 306.385611 -38.016 
L 311.031674 -38.016 
L 313.649693 -38.016 
L 313.963118 -38.016 
L 316.064909 -38.016 
L 316.28615 -38.016 
L 316.931436 -38.016 
L 317.853274 -38.016 
L 318.129826 -38.016 
L 318.535434 -38.016 
L 319.862881 -38.016 
L 319.918191 -38.016 
L 320.139432 -38.016 
L 320.286926 -38.016 
L 320.729408 -38.016 
L 321.282511 -38.016 
L 326.573861 -38.016 
L 326.647608 -38.016 
L 326.795102 -38.016 
L 327.20071 -38.016 
L 327.219147 -38.016 
L 327.256021 -38.016 
L 328.417536 -38.016 
L 329.744983 -38.016 
L 330.832752 -38.016 
L 331.662406 -38.016 
L 332.584244 -38.016 
L 338.041524 -38.016 
L 338.059961 -38.016 
L 338.170581 -38.016 
L 343.904413 -38.016 
L 344.697194 -38.016 
L 344.734067 -38.016 
L 345.324043 -38.016 
L 347.905189 -38.016 
L 348.845464 -38.016 
L 349.177326 -38.016 
L 352.05346 -38.016 
L 352.219391 -38.016 
L 355.832995 -38.016 
L 355.851432 -38.016 
L 356.681086 -38.016 
L 357.178879 -38.016 
L 357.492304 -38.016 
L 357.529177 -38.016 
L 359.372853 -38.016 
L 362.599285 -38.016 
L 363.078641 -38.016 
L 363.097078 -38.016 
L 363.576434 -38.016 
L 365.235742 -38.016 
L 365.364799 -38.016 
L 365.641351 -38.016 
L 365.936339 -38.016 
L 366.729119 -38.016 
L 368.185623 -38.016 
L 368.296244 -38.016 
L 369.605253 -38.016 
L 370.176793 -38.016 
L 370.785206 -38.016 
L 370.82208 -38.016 
L 371.651734 -38.016 
L 372.002032 -38.016 
L 372.702629 -38.016 
L 372.905433 -38.016 
L 375.744694 -38.016 
L 375.947498 -38.016 
L 376.777152 -38.016 
L 378.288966 -38.016 
L 378.362713 -38.016 
L 378.749885 -38.016 
L 378.915816 -38.016 
L 379.100184 -38.016 
L 387.912954 -38.016 
L 388.50293 -38.016 
L 389.166654 -38.016 
L 389.351021 -38.016 
L 389.682883 -38.016 
L 391.360628 -38.016 
L 392.595891 -38.016 
L 392.983062 -38.016 
L 393.573039 -38.016 
L 395.453588 -38.016 
L 395.730139 -38.016 
L 396.172622 -38.016 
L 396.356989 -38.016 
L 396.633541 -38.016 
L 397.758183 -38.016 
L 398.385033 -38.016 
L 399.122503 -38.016 
L 399.896847 -38.016 
L 414.72 -38.016 
z
" id="mb8fb33b6fc" style="stroke:#0000ff;stroke-opacity:0.2;"/>
    </defs>
    <g clip-path="url(#pe71d256532)">
     <use style="fill:#0000ff;fill-opacity:0.2;stroke:#0000ff;stroke-opacity:0.2;" x="0" xlink:href="#mb8fb33b6fc" y="345.6"/>
    </g>
   </g>
   <g id="matplotlib.axis_1">
    <g id="xtick_1">
     <g id="line2d_1">
      <defs>
       <path d="M 0 0 
L 0 3.5 
" id="mc72b77f5e5" style="stroke:#000000;stroke-width:0.8;"/>
      </defs>
      <g>
       <use style="stroke:#000000;stroke-width:0.8;" x="57.6" xlink:href="#mc72b77f5e5" y="307.584"/>
      </g>
     </g>
     <g id="text_1">
      <!-- 0.0 -->
      <defs>
       <path d="M 31.78125 66.40625 
Q 24.171875 66.40625 20.328125 58.90625 
Q 16.5 51.421875 16.5 36.375 
Q 16.5 21.390625 20.328125 13.890625 
Q 24.171875 6.390625 31.78125 6.390625 
Q 39.453125 6.390625 43.28125 13.890625 
Q 47.125 21.390625 47.125 36.375 
Q 47.125 51.421875 43.28125 58.90625 
Q 39.453125 66.40625 31.78125 66.40625 
z
M 31.78125 74.21875 
Q 44.046875 74.21875 50.515625 64.515625 
Q 56.984375 54.828125 56.984375 36.375 
Q 56.984375 17.96875 50.515625 8.265625 
Q 44.046875 -1.421875 31.78125 -1.421875 
Q 19.53125 -1.421875 13.0625 8.265625 
Q 6.59375 17.96875 6.59375 36.375 
Q 6.59375 54.828125 13.0625 64.515625 
Q 19.53125 74.21875 31.78125 74.21875 
z
" id="DejaVuSans-48"/>
       <path d="M 10.6875 12.40625 
L 21 12.40625 
L 21 0 
L 10.6875 0 
z
" id="DejaVuSans-46"/>
      </defs>
      <g transform="translate(49.648438 322.182437)scale(0.1 -0.1)">
       <use xlink:href="#DejaVuSans-48"/>
       <use x="63.623047" xlink:href="#DejaVuSans-46"/>
       <use x="95.410156" xlink:href="#DejaVuSans-48"/>
      </g>
     </g>
    </g>
    <g id="xtick_2">
     <g id="line2d_2">
      <g>
       <use style="stroke:#000000;stroke-width:0.8;" x="129.024" xlink:href="#mc72b77f5e5" y="307.584"/>
      </g>
     </g>
     <g id="text_2">
      <!-- 0.2 -->
      <defs>
       <path d="M 19.1875 8.296875 
L 53.609375 8.296875 
L 53.609375 0 
L 7.328125 0 
L 7.328125 8.296875 
Q 12.9375 14.109375 22.625 23.890625 
Q 32.328125 33.6875 34.8125 36.53125 
Q 39.546875 41.84375 41.421875 45.53125 
Q 43.3125 49.21875 43.3125 52.78125 
Q 43.3125 58.59375 39.234375 62.25 
Q 35.15625 65.921875 28.609375 65.921875 
Q 23.96875 65.921875 18.8125 64.3125 
Q 13.671875 62.703125 7.8125 59.421875 
L 7.8125 69.390625 
Q 13.765625 71.78125 18.9375 73 
Q 24.125 74.21875 28.421875 74.21875 
Q 39.75 74.21875 46.484375 68.546875 
Q 53.21875 62.890625 53.21875 53.421875 
Q 53.21875 48.921875 51.53125 44.890625 
Q 49.859375 40.875 45.40625 35.40625 
Q 44.1875 33.984375 37.640625 27.21875 
Q 31.109375 20.453125 19.1875 8.296875 
z
" id="DejaVuSans-50"/>
      </defs>
      <g transform="translate(121.072438 322.182437)scale(0.1 -0.1)">
       <use xlink:href="#DejaVuSans-48"/>
       <use x="63.623047" xlink:href="#DejaVuSans-46"/>
       <use x="95.410156" xlink:href="#DejaVuSans-50"/>
      </g>
     </g>
    </g>
    <g id="xtick_3">
     <g id="line2d_3">
      <g>
       <use style="stroke:#000000;stroke-width:0.8;" x="200.448" xlink:href="#mc72b77f5e5" y="307.584"/>
      </g>
     </g>
     <g id="text_3">
      <!-- 0.4 -->
      <defs>
       <path d="M 37.796875 64.3125 
L 12.890625 25.390625 
L 37.796875 25.390625 
z
M 35.203125 72.90625 
L 47.609375 72.90625 
L 47.609375 25.390625 
L 58.015625 25.390625 
L 58.015625 17.1875 
L 47.609375 17.1875 
L 47.609375 0 
L 37.796875 0 
L 37.796875 17.1875 
L 4.890625 17.1875 
L 4.890625 26.703125 
z
" id="DejaVuSans-52"/>
      </defs>
      <g transform="translate(192.496438 322.182437)scale(0.1 -0.1)">
       <use xlink:href="#DejaVuSans-48"/>
       <use x="63.623047" xlink:href="#DejaVuSans-46"/>
       <use x="95.410156" xlink:href="#DejaVuSans-52"/>
      </g>
     </g>
    </g>
    <g id="xtick_4">
     <g id="line2d_4">
      <g>
       <use style="stroke:#000000;stroke-width:0.8;" x="271.872" xlink:href="#mc72b77f5e5" y="307.584"/>
      </g>
     </g>
     <g id="text_4">
      <!-- 0.6 -->
      <defs>
       <path d="M 33.015625 40.375 
Q 26.375 40.375 22.484375 35.828125 
Q 18.609375 31.296875 18.609375 23.390625 
Q 18.609375 15.53125 22.484375 10.953125 
Q 26.375 6.390625 33.015625 6.390625 
Q 39.65625 6.390625 43.53125 10.953125 
Q 47.40625 15.53125 47.40625 23.390625 
Q 47.40625 31.296875 43.53125 35.828125 
Q 39.65625 40.375 33.015625 40.375 
z
M 52.59375 71.296875 
L 52.59375 62.3125 
Q 48.875 64.0625 45.09375 64.984375 
Q 41.3125 65.921875 37.59375 65.921875 
Q 27.828125 65.921875 22.671875 59.328125 
Q 17.53125 52.734375 16.796875 39.40625 
Q 19.671875 43.65625 24.015625 45.921875 
Q 28.375 48.1875 33.59375 48.1875 
Q 44.578125 48.1875 50.953125 41.515625 
Q 57.328125 34.859375 57.328125 23.390625 
Q 57.328125 12.15625 50.6875 5.359375 
Q 44.046875 -1.421875 33.015625 -1.421875 
Q 20.359375 -1.421875 13.671875 8.265625 
Q 6.984375 17.96875 6.984375 36.375 
Q 6.984375 53.65625 15.1875 63.9375 
Q 23.390625 74.21875 37.203125 74.21875 
Q 40.921875 74.21875 44.703125 73.484375 
Q 48.484375 72.75 52.59375 71.296875 
z
" id="DejaVuSans-54"/>
      </defs>
      <g transform="translate(263.920438 322.182437)scale(0.1 -0.1)">
       <use xlink:href="#DejaVuSans-48"/>
       <use x="63.623047" xlink:href="#DejaVuSans-46"/>
       <use x="95.410156" xlink:href="#DejaVuSans-54"/>
      </g>
     </g>
    </g>
    <g id="xtick_5">
     <g id="line2d_5">
      <g>
       <use style="stroke:#000000;stroke-width:0.8;" x="343.296" xlink:href="#mc72b77f5e5" y="307.584"/>
      </g>
     </g>
     <g id="text_5">
      <!-- 0.8 -->
      <defs>
       <path d="M 31.78125 34.625 
Q 24.75 34.625 20.71875 30.859375 
Q 16.703125 27.09375 16.703125 20.515625 
Q 16.703125 13.921875 20.71875 10.15625 
Q 24.75 6.390625 31.78125 6.390625 
Q 38.8125 6.390625 42.859375 10.171875 
Q 46.921875 13.96875 46.921875 20.515625 
Q 46.921875 27.09375 42.890625 30.859375 
Q 38.875 34.625 31.78125 34.625 
z
M 21.921875 38.8125 
Q 15.578125 40.375 12.03125 44.71875 
Q 8.5 49.078125 8.5 55.328125 
Q 8.5 64.0625 14.71875 69.140625 
Q 20.953125 74.21875 31.78125 74.21875 
Q 42.671875 74.21875 48.875 69.140625 
Q 55.078125 64.0625 55.078125 55.328125 
Q 55.078125 49.078125 51.53125 44.71875 
Q 48 40.375 41.703125 38.8125 
Q 48.828125 37.15625 52.796875 32.3125 
Q 56.78125 27.484375 56.78125 20.515625 
Q 56.78125 9.90625 50.3125 4.234375 
Q 43.84375 -1.421875 31.78125 -1.421875 
Q 19.734375 -1.421875 13.25 4.234375 
Q 6.78125 9.90625 6.78125 20.515625 
Q 6.78125 27.484375 10.78125 32.3125 
Q 14.796875 37.15625 21.921875 38.8125 
z
M 18.3125 54.390625 
Q 18.3125 48.734375 21.84375 45.5625 
Q 25.390625 42.390625 31.78125 42.390625 
Q 38.140625 42.390625 41.71875 45.5625 
Q 45.3125 48.734375 45.3125 54.390625 
Q 45.3125 60.0625 41.71875 63.234375 
Q 38.140625 66.40625 31.78125 66.40625 
Q 25.390625 66.40625 21.84375 63.234375 
Q 18.3125 60.0625 18.3125 54.390625 
z
" id="DejaVuSans-56"/>
      </defs>
      <g transform="translate(335.344438 322.182437)scale(0.1 -0.1)">
       <use xlink:href="#DejaVuSans-48"/>
       <use x="63.623047" xlink:href="#DejaVuSans-46"/>
       <use x="95.410156" xlink:href="#DejaVuSans-56"/>
      </g>
     </g>
    </g>
    <g id="xtick_6">
     <g id="line2d_6">
      <g>
       <use style="stroke:#000000;stroke-width:0.8;" x="414.72" xlink:href="#mc72b77f5e5" y="307.584"/>
      </g>
     </g>
     <g id="text_6">
      <!-- 1.0 -->
      <defs>
       <path d="M 12.40625 8.296875 
L 28.515625 8.296875 
L 28.515625 63.921875 
L 10.984375 60.40625 
L 10.984375 69.390625 
L 28.421875 72.90625 
L 38.28125 72.90625 
L 38.28125 8.296875 
L 54.390625 8.296875 
L 54.390625 0 
L 12.40625 0 
z
" id="DejaVuSans-49"/>
      </defs>
      <g transform="translate(406.768438 322.182437)scale(0.1 -0.1)">
       <use xlink:href="#DejaVuSans-49"/>
       <use x="63.623047" xlink:href="#DejaVuSans-46"/>
       <use x="95.410156" xlink:href="#DejaVuSans-48"/>
      </g>
     </g>
    </g>
    <g id="text_7">
     <!-- Recall -->
     <defs>
      <path d="M 44.390625 34.1875 
Q 47.5625 33.109375 50.5625 29.59375 
Q 53.5625 26.078125 56.59375 19.921875 
L 66.609375 0 
L 56 0 
L 46.6875 18.703125 
Q 43.0625 26.03125 39.671875 28.421875 
Q 36.28125 30.8125 30.421875 30.8125 
L 19.671875 30.8125 
L 19.671875 0 
L 9.8125 0 
L 9.8125 72.90625 
L 32.078125 72.90625 
Q 44.578125 72.90625 50.734375 67.671875 
Q 56.890625 62.453125 56.890625 51.90625 
Q 56.890625 45.015625 53.6875 40.46875 
Q 50.484375 35.9375 44.390625 34.1875 
z
M 19.671875 64.796875 
L 19.671875 38.921875 
L 32.078125 38.921875 
Q 39.203125 38.921875 42.84375 42.21875 
Q 46.484375 45.515625 46.484375 51.90625 
Q 46.484375 58.296875 42.84375 61.546875 
Q 39.203125 64.796875 32.078125 64.796875 
z
" id="DejaVuSans-82"/>
      <path d="M 56.203125 29.59375 
L 56.203125 25.203125 
L 14.890625 25.203125 
Q 15.484375 15.921875 20.484375 11.0625 
Q 25.484375 6.203125 34.421875 6.203125 
Q 39.59375 6.203125 44.453125 7.46875 
Q 49.3125 8.734375 54.109375 11.28125 
L 54.109375 2.78125 
Q 49.265625 0.734375 44.1875 -0.34375 
Q 39.109375 -1.421875 33.890625 -1.421875 
Q 20.796875 -1.421875 13.15625 6.1875 
Q 5.515625 13.8125 5.515625 26.8125 
Q 5.515625 40.234375 12.765625 48.109375 
Q 20.015625 56 32.328125 56 
Q 43.359375 56 49.78125 48.890625 
Q 56.203125 41.796875 56.203125 29.59375 
z
M 47.21875 32.234375 
Q 47.125 39.59375 43.09375 43.984375 
Q 39.0625 48.390625 32.421875 48.390625 
Q 24.90625 48.390625 20.390625 44.140625 
Q 15.875 39.890625 15.1875 32.171875 
z
" id="DejaVuSans-101"/>
      <path d="M 48.78125 52.59375 
L 48.78125 44.1875 
Q 44.96875 46.296875 41.140625 47.34375 
Q 37.3125 48.390625 33.40625 48.390625 
Q 24.65625 48.390625 19.8125 42.84375 
Q 14.984375 37.3125 14.984375 27.296875 
Q 14.984375 17.28125 19.8125 11.734375 
Q 24.65625 6.203125 33.40625 6.203125 
Q 37.3125 6.203125 41.140625 7.25 
Q 44.96875 8.296875 48.78125 10.40625 
L 48.78125 2.09375 
Q 45.015625 0.34375 40.984375 -0.53125 
Q 36.96875 -1.421875 32.421875 -1.421875 
Q 20.0625 -1.421875 12.78125 6.34375 
Q 5.515625 14.109375 5.515625 27.296875 
Q 5.515625 40.671875 12.859375 48.328125 
Q 20.21875 56 33.015625 56 
Q 37.15625 56 41.109375 55.140625 
Q 45.0625 54.296875 48.78125 52.59375 
z
" id="DejaVuSans-99"/>
      <path d="M 34.28125 27.484375 
Q 23.390625 27.484375 19.1875 25 
Q 14.984375 22.515625 14.984375 16.5 
Q 14.984375 11.71875 18.140625 8.90625 
Q 21.296875 6.109375 26.703125 6.109375 
Q 34.1875 6.109375 38.703125 11.40625 
Q 43.21875 16.703125 43.21875 25.484375 
L 43.21875 27.484375 
z
M 52.203125 31.203125 
L 52.203125 0 
L 43.21875 0 
L 43.21875 8.296875 
Q 40.140625 3.328125 35.546875 0.953125 
Q 30.953125 -1.421875 24.3125 -1.421875 
Q 15.921875 -1.421875 10.953125 3.296875 
Q 6 8.015625 6 15.921875 
Q 6 25.140625 12.171875 29.828125 
Q 18.359375 34.515625 30.609375 34.515625 
L 43.21875 34.515625 
L 43.21875 35.40625 
Q 43.21875 41.609375 39.140625 45 
Q 35.0625 48.390625 27.6875 48.390625 
Q 23 48.390625 18.546875 47.265625 
Q 14.109375 46.140625 10.015625 43.890625 
L 10.015625 52.203125 
Q 14.9375 54.109375 19.578125 55.046875 
Q 24.21875 56 28.609375 56 
Q 40.484375 56 46.34375 49.84375 
Q 52.203125 43.703125 52.203125 31.203125 
z
" id="DejaVuSans-97"/>
      <path d="M 9.421875 75.984375 
L 18.40625 75.984375 
L 18.40625 0 
L 9.421875 0 
z
" id="DejaVuSans-108"/>
     </defs>
     <g transform="translate(221.020938 335.860562)scale(0.1 -0.1)">
      <use xlink:href="#DejaVuSans-82"/>
      <use x="69.419922" xlink:href="#DejaVuSans-101"/>
      <use x="130.943359" xlink:href="#DejaVuSans-99"/>
      <use x="185.923828" xlink:href="#DejaVuSans-97"/>
      <use x="247.203125" xlink:href="#DejaVuSans-108"/>
      <use x="274.986328" xlink:href="#DejaVuSans-108"/>
     </g>
    </g>
   </g>
   <g id="matplotlib.axis_2">
    <g id="ytick_1">
     <g id="line2d_7">
      <defs>
       <path d="M 0 0 
L -3.5 0 
" id="mc3ef87018d" style="stroke:#000000;stroke-width:0.8;"/>
      </defs>
      <g>
       <use style="stroke:#000000;stroke-width:0.8;" x="57.6" xlink:href="#mc3ef87018d" y="307.584"/>
      </g>
     </g>
     <g id="text_8">
      <!-- 0.0 -->
      <g transform="translate(34.696875 311.383219)scale(0.1 -0.1)">
       <use xlink:href="#DejaVuSans-48"/>
       <use x="63.623047" xlink:href="#DejaVuSans-46"/>
       <use x="95.410156" xlink:href="#DejaVuSans-48"/>
      </g>
     </g>
    </g>
    <g id="ytick_2">
     <g id="line2d_8">
      <g>
       <use style="stroke:#000000;stroke-width:0.8;" x="57.6" xlink:href="#mc3ef87018d" y="256.896"/>
      </g>
     </g>
     <g id="text_9">
      <!-- 0.2 -->
      <g transform="translate(34.696875 260.695219)scale(0.1 -0.1)">
       <use xlink:href="#DejaVuSans-48"/>
       <use x="63.623047" xlink:href="#DejaVuSans-46"/>
       <use x="95.410156" xlink:href="#DejaVuSans-50"/>
      </g>
     </g>
    </g>
    <g id="ytick_3">
     <g id="line2d_9">
      <g>
       <use style="stroke:#000000;stroke-width:0.8;" x="57.6" xlink:href="#mc3ef87018d" y="206.208"/>
      </g>
     </g>
     <g id="text_10">
      <!-- 0.4 -->
      <g transform="translate(34.696875 210.007219)scale(0.1 -0.1)">
       <use xlink:href="#DejaVuSans-48"/>
       <use x="63.623047" xlink:href="#DejaVuSans-46"/>
       <use x="95.410156" xlink:href="#DejaVuSans-52"/>
      </g>
     </g>
    </g>
    <g id="ytick_4">
     <g id="line2d_10">
      <g>
       <use style="stroke:#000000;stroke-width:0.8;" x="57.6" xlink:href="#mc3ef87018d" y="155.52"/>
      </g>
     </g>
     <g id="text_11">
      <!-- 0.6 -->
      <g transform="translate(34.696875 159.319219)scale(0.1 -0.1)">
       <use xlink:href="#DejaVuSans-48"/>
       <use x="63.623047" xlink:href="#DejaVuSans-46"/>
       <use x="95.410156" xlink:href="#DejaVuSans-54"/>
      </g>
     </g>
    </g>
    <g id="ytick_5">
     <g id="line2d_11">
      <g>
       <use style="stroke:#000000;stroke-width:0.8;" x="57.6" xlink:href="#mc3ef87018d" y="104.832"/>
      </g>
     </g>
     <g id="text_12">
      <!-- 0.8 -->
      <g transform="translate(34.696875 108.631219)scale(0.1 -0.1)">
       <use xlink:href="#DejaVuSans-48"/>
       <use x="63.623047" xlink:href="#DejaVuSans-46"/>
       <use x="95.410156" xlink:href="#DejaVuSans-56"/>
      </g>
     </g>
    </g>
    <g id="ytick_6">
     <g id="line2d_12">
      <g>
       <use style="stroke:#000000;stroke-width:0.8;" x="57.6" xlink:href="#mc3ef87018d" y="54.144"/>
      </g>
     </g>
     <g id="text_13">
      <!-- 1.0 -->
      <g transform="translate(34.696875 57.943219)scale(0.1 -0.1)">
       <use xlink:href="#DejaVuSans-49"/>
       <use x="63.623047" xlink:href="#DejaVuSans-46"/>
       <use x="95.410156" xlink:href="#DejaVuSans-48"/>
      </g>
     </g>
    </g>
    <g id="text_14">
     <!-- Precision -->
     <defs>
      <path d="M 19.671875 64.796875 
L 19.671875 37.40625 
L 32.078125 37.40625 
Q 38.96875 37.40625 42.71875 40.96875 
Q 46.484375 44.53125 46.484375 51.125 
Q 46.484375 57.671875 42.71875 61.234375 
Q 38.96875 64.796875 32.078125 64.796875 
z
M 9.8125 72.90625 
L 32.078125 72.90625 
Q 44.34375 72.90625 50.609375 67.359375 
Q 56.890625 61.8125 56.890625 51.125 
Q 56.890625 40.328125 50.609375 34.8125 
Q 44.34375 29.296875 32.078125 29.296875 
L 19.671875 29.296875 
L 19.671875 0 
L 9.8125 0 
z
" id="DejaVuSans-80"/>
      <path d="M 41.109375 46.296875 
Q 39.59375 47.171875 37.8125 47.578125 
Q 36.03125 48 33.890625 48 
Q 26.265625 48 22.1875 43.046875 
Q 18.109375 38.09375 18.109375 28.8125 
L 18.109375 0 
L 9.078125 0 
L 9.078125 54.6875 
L 18.109375 54.6875 
L 18.109375 46.1875 
Q 20.953125 51.171875 25.484375 53.578125 
Q 30.03125 56 36.53125 56 
Q 37.453125 56 38.578125 55.875 
Q 39.703125 55.765625 41.0625 55.515625 
z
" id="DejaVuSans-114"/>
      <path d="M 9.421875 54.6875 
L 18.40625 54.6875 
L 18.40625 0 
L 9.421875 0 
z
M 9.421875 75.984375 
L 18.40625 75.984375 
L 18.40625 64.59375 
L 9.421875 64.59375 
z
" id="DejaVuSans-105"/>
      <path d="M 44.28125 53.078125 
L 44.28125 44.578125 
Q 40.484375 46.53125 36.375 47.5 
Q 32.28125 48.484375 27.875 48.484375 
Q 21.1875 48.484375 17.84375 46.4375 
Q 14.5 44.390625 14.5 40.28125 
Q 14.5 37.15625 16.890625 35.375 
Q 19.28125 33.59375 26.515625 31.984375 
L 29.59375 31.296875 
Q 39.15625 29.25 43.1875 25.515625 
Q 47.21875 21.78125 47.21875 15.09375 
Q 47.21875 7.46875 41.1875 3.015625 
Q 35.15625 -1.421875 24.609375 -1.421875 
Q 20.21875 -1.421875 15.453125 -0.5625 
Q 10.6875 0.296875 5.421875 2 
L 5.421875 11.28125 
Q 10.40625 8.6875 15.234375 7.390625 
Q 20.0625 6.109375 24.8125 6.109375 
Q 31.15625 6.109375 34.5625 8.28125 
Q 37.984375 10.453125 37.984375 14.40625 
Q 37.984375 18.0625 35.515625 20.015625 
Q 33.0625 21.96875 24.703125 23.78125 
L 21.578125 24.515625 
Q 13.234375 26.265625 9.515625 29.90625 
Q 5.8125 33.546875 5.8125 39.890625 
Q 5.8125 47.609375 11.28125 51.796875 
Q 16.75 56 26.8125 56 
Q 31.78125 56 36.171875 55.265625 
Q 40.578125 54.546875 44.28125 53.078125 
z
" id="DejaVuSans-115"/>
      <path d="M 30.609375 48.390625 
Q 23.390625 48.390625 19.1875 42.75 
Q 14.984375 37.109375 14.984375 27.296875 
Q 14.984375 17.484375 19.15625 11.84375 
Q 23.34375 6.203125 30.609375 6.203125 
Q 37.796875 6.203125 41.984375 11.859375 
Q 46.1875 17.53125 46.1875 27.296875 
Q 46.1875 37.015625 41.984375 42.703125 
Q 37.796875 48.390625 30.609375 48.390625 
z
M 30.609375 56 
Q 42.328125 56 49.015625 48.375 
Q 55.71875 40.765625 55.71875 27.296875 
Q 55.71875 13.875 49.015625 6.21875 
Q 42.328125 -1.421875 30.609375 -1.421875 
Q 18.84375 -1.421875 12.171875 6.21875 
Q 5.515625 13.875 5.515625 27.296875 
Q 5.515625 40.765625 12.171875 48.375 
Q 18.84375 56 30.609375 56 
z
" id="DejaVuSans-111"/>
      <path d="M 54.890625 33.015625 
L 54.890625 0 
L 45.90625 0 
L 45.90625 32.71875 
Q 45.90625 40.484375 42.875 44.328125 
Q 39.84375 48.1875 33.796875 48.1875 
Q 26.515625 48.1875 22.3125 43.546875 
Q 18.109375 38.921875 18.109375 30.90625 
L 18.109375 0 
L 9.078125 0 
L 9.078125 54.6875 
L 18.109375 54.6875 
L 18.109375 46.1875 
Q 21.34375 51.125 25.703125 53.5625 
Q 30.078125 56 35.796875 56 
Q 45.21875 56 50.046875 50.171875 
Q 54.890625 44.34375 54.890625 33.015625 
z
" id="DejaVuSans-110"/>
     </defs>
     <g transform="translate(28.617187 197.032688)rotate(-90)scale(0.1 -0.1)">
      <use xlink:href="#DejaVuSans-80"/>
      <use x="60.287109" xlink:href="#DejaVuSans-114"/>
      <use x="101.369141" xlink:href="#DejaVuSans-101"/>
      <use x="162.892578" xlink:href="#DejaVuSans-99"/>
      <use x="217.873047" xlink:href="#DejaVuSans-105"/>
      <use x="245.65625" xlink:href="#DejaVuSans-115"/>
      <use x="297.755859" xlink:href="#DejaVuSans-105"/>
      <use x="325.539062" xlink:href="#DejaVuSans-111"/>
      <use x="386.720703" xlink:href="#DejaVuSans-110"/>
     </g>
    </g>
   </g>
   <g id="line2d_13">
    <path clip-path="url(#pe71d256532)" d="M 414.72 232.922654 
L 399.896847 232.922654 
L 399.896847 230.121748 
L 399.122503 230.121748 
L 399.122503 229.554506 
L 398.385033 229.554506 
L 398.385033 229.439859 
L 397.758183 229.439859 
L 397.758183 229.201809 
L 396.633541 229.201809 
L 396.633541 228.913685 
L 395.730139 228.849189 
L 395.730139 228.760068 
L 393.573039 228.73361 
L 393.573039 228.252583 
L 391.360628 228.184628 
L 391.360628 228.059199 
L 389.682883 228.059199 
L 389.682883 227.753259 
L 388.50293 227.667724 
L 388.50293 226.882481 
L 379.100184 226.837267 
L 379.100184 222.556262 
L 376.777152 222.454706 
L 376.777152 221.381138 
L 372.905433 221.332927 
L 372.905433 220.881776 
L 366.729119 220.906975 
L 366.729119 220.685399 
L 365.936339 220.685399 
L 365.936339 220.421654 
L 363.576434 220.321818 
L 363.576434 219.788846 
L 359.372853 219.799868 
L 359.372853 219.120777 
L 357.529177 219.120777 
L 357.529177 218.629289 
L 357.492304 218.630629 
L 356.681086 218.556468 
L 356.681086 218.361064 
L 355.851432 218.361064 
L 355.832995 218.079908 
L 352.219391 218.079908 
L 352.219391 217.909461 
L 349.177326 217.884493 
L 349.177326 217.108534 
L 348.845464 217.108534 
L 348.845464 216.992705 
L 338.170581 216.935872 
L 338.170581 215.725808 
L 338.059961 215.731398 
L 332.584244 215.702411 
L 332.584244 214.657661 
L 331.662406 214.657661 
L 331.662406 214.315721 
L 329.744983 214.242197 
L 329.744983 213.92484 
L 328.417536 213.92484 
L 328.417536 213.70242 
L 326.795102 213.657621 
L 326.795102 213.565416 
L 321.282511 213.578199 
L 321.282511 212.902317 
L 318.535434 212.885182 
L 318.535434 212.673929 
L 317.853274 212.705979 
L 317.853274 212.489265 
L 313.963118 212.386118 
L 313.963118 212.212205 
L 306.385611 212.210965 
L 306.385611 211.959367 
L 306.016876 211.959367 
L 306.016876 211.827998 
L 304.634119 211.775064 
L 304.634119 211.661663 
L 302.347961 211.661663 
L 302.311087 211.257641 
L 302.23734 211.270122 
L 298.937161 211.270122 
L 298.937161 210.975683 
L 290.327195 210.975683 
L 290.253448 210.313421 
L 289.036622 210.313421 
L 289.036622 210.167369 
L 280.481966 210.112553 
L 280.481966 210.297741 
L 279.873553 210.297741 
L 279.873553 210.142515 
L 277.808636 210.142515 
L 277.808636 210.00527 
L 275.504041 209.937645 
L 275.504041 209.72685 
L 275.061559 209.693204 
L 275.061559 209.579777 
L 269.899267 209.602719 
L 269.899267 208.833904 
L 268.590257 208.833904 
L 268.590257 208.575078 
L 263.85201 208.501836 
L 263.85201 208.018286 
L 261.528979 207.963421 
L 261.528979 207.879211 
L 257.528202 207.879211 
L 257.528202 207.631157 
L 257.177904 207.631157 
L 257.177904 207.515135 
L 256.256066 207.515135 
L 256.163882 207.214491 
L 253.177128 207.214491 
L 253.177128 206.921595 
L 250.079752 206.921595 
L 250.079752 206.606494 
L 244.91746 206.653513 
L 244.91746 206.160083 
L 243.571577 206.065905 
L 243.571577 205.830725 
L 240.511075 205.830725 
L 240.511075 205.54357 
L 238.722709 205.493272 
L 238.722709 205.215997 
L 235.551587 205.26454 
L 235.551587 205.369272 
L 233.136372 205.33521 
L 233.136372 205.234058 
L 224.950451 205.22214 
L 224.913578 204.654128 
L 221.816202 204.654128 
L 221.816202 204.327661 
L 216.322049 204.327661 
L 216.322049 203.774648 
L 212.302835 203.774648 
L 212.302835 203.659109 
L 210.403849 203.709824 
L 210.403849 203.44882 
L 208.062381 203.421222 
L 208.062381 203.291753 
L 199.544599 203.200288 
L 199.544599 203.089031 
L 197.66405 203.134183 
L 197.66405 202.960641 
L 195.72819 202.960641 
L 195.72819 202.691033 
L 189.75468 202.744166 
L 189.75468 203.082279 
L 189.607186 203.082279 
L 189.607186 202.921963 
L 184.905813 202.908157 
L 184.813629 202.111382 
L 179.52228 202.067041 
L 179.52228 201.956048 
L 172.995668 201.956048 
L 172.995668 201.229259 
L 172.07383 201.229259 
L 172.07383 200.111731 
L 167.372456 200.219906 
L 167.372456 200.312957 
L 165.786895 200.274006 
L 165.786895 200.089535 
L 162.265474 200.02916 
L 162.265474 199.27484 
L 157.803779 199.27484 
L 157.711595 200.019579 
L 156.421022 200.09062 
L 156.421022 199.762871 
L 150.336892 199.73082 
L 150.336892 199.549831 
L 150.318455 199.562154 
L 146.797035 199.648989 
L 146.797035 199.142971 
L 146.243932 199.142971 
L 146.243932 198.834378 
L 145.11929 198.846691 
L 145.11929 198.589646 
L 144.308072 198.589646 
L 144.308072 198.292938 
L 140.233549 198.268388 
L 140.233549 198.108472 
L 139.459205 198.108472 
L 139.459205 197.672533 
L 136.380266 197.664519 
L 136.380266 198.029208 
L 135.237187 198.029208 
L 135.237187 197.887645 
L 128.28653 197.951816 
L 128.28653 198.808789 
L 128.175909 198.735316 
L 126.756279 198.63606 
L 126.756279 198.601604 
L 125.004787 198.624056 
L 125.004787 198.33077 
L 118.95753 198.33077 
L 118.95753 199.4496 
L 118.95753 199.421866 
L 114.477398 199.421866 
L 114.477398 199.187716 
L 112.062183 199.187716 
L 112.062183 198.576755 
L 111.988436 198.581522 
L 110.034139 198.675303 
L 110.034139 198.390944 
L 97.312776 198.390944 
L 97.312776 205.296243 
L 97.183719 205.296243 
L 97.183719 205.168099 
L 96.888731 205.168099 
L 96.888731 205.354085 
L 96.870294 205.324633 
L 95.837836 205.324633 
L 95.837836 205.121123 
L 91.708002 205.121123 
L 91.708002 208.037503 
L 91.671129 207.975935 
L 86.195411 207.975935 
L 86.195411 211.919498 
L 84.997022 211.919498 
L 84.997022 211.337683 
L 84.812655 211.337683 
L 84.812655 211.072793 
L 84.075184 211.072793 
L 84.075184 211.405395 
L 82.968979 211.405395 
L 82.968979 212.197392 
L 82.379003 212.197392 
L 82.323692 212.57057 
L 81.696843 212.615031 
L 81.696843 213.292488 
L 79.650362 213.203033 
L 79.650362 214.432728 
L 78.193859 214.432728 
L 78.193859 215.99795 
L 77.659193 215.99795 
L 77.659193 215.207879 
L 77.456388 215.207879 
L 77.456388 215.369514 
L 77.272021 215.369514 
L 77.235147 214.89389 
L 75.889264 214.89389 
L 75.778643 215.981419 
L 75.299288 215.981419 
L 75.299288 215.771774 
L 74.783058 215.771774 
L 74.783058 216.525372 
L 74.617128 216.525372 
L 74.617128 216.349554 
L 73.879657 216.349554 
L 73.824347 215.041593 
L 73.474049 215.066716 
L 73.474049 215.43373 
L 67.887711 215.43373 
L 67.887711 231.264777 
L 67.03962 231.264777 
L 67.03962 233.814085 
L 66.707758 233.731028 
L 66.689322 233.956469 
L 65.601553 233.941232 
L 65.601553 236.985181 
L 64.808772 236.985181 
L 64.753462 240.369564 
L 64.624405 240.369564 
L 64.624405 240.760028 
L 64.292543 240.760028 
L 64.292543 241.254714 
L 63.315395 241.254714 
L 63.315395 244.630154 
L 63.038844 244.630154 
L 63.038844 244.224 
L 62.928223 244.605359 
L 62.688545 244.605359 
L 62.688545 245.845748 
L 62.043259 245.845748 
L 61.951075 250.072615 
L 61.729834 250.072615 
L 61.619213 251.663028 
L 61.563903 251.663028 
L 61.471719 252.828444 
L 61.084547 252.828444 
L 61.029237 257.004773 
L 60.918616 257.004773 
L 60.90018 257.566624 
L 60.789559 257.566624 
L 60.678939 259.323475 
L 60.568318 259.337394 
L 60.531445 260.672522 
L 57.6 260.672522 
L 57.6 54.144 
L 57.6 54.144 
" style="fill:none;stroke:#0000ff;stroke-linecap:square;stroke-opacity:0.2;stroke-width:1.5;"/>
   </g>
   <g id="patch_3">
    <path d="M 57.6 307.584 
L 57.6 41.472 
" style="fill:none;stroke:#000000;stroke-linecap:square;stroke-linejoin:miter;stroke-width:0.8;"/>
   </g>
   <g id="patch_4">
    <path d="M 414.72 307.584 
L 414.72 41.472 
" style="fill:none;stroke:#000000;stroke-linecap:square;stroke-linejoin:miter;stroke-width:0.8;"/>
   </g>
   <g id="patch_5">
    <path d="M 57.6 307.584 
L 414.72 307.584 
" style="fill:none;stroke:#000000;stroke-linecap:square;stroke-linejoin:miter;stroke-width:0.8;"/>
   </g>
   <g id="patch_6">
    <path d="M 57.6 41.472 
L 414.72 41.472 
" style="fill:none;stroke:#000000;stroke-linecap:square;stroke-linejoin:miter;stroke-width:0.8;"/>
   </g>
   <g id="text_15">
    <!-- 2-class Precision-Recall curve -->
    <defs>
     <path d="M 4.890625 31.390625 
L 31.203125 31.390625 
L 31.203125 23.390625 
L 4.890625 23.390625 
z
" id="DejaVuSans-45"/>
     <path id="DejaVuSans-32"/>
     <path d="M 8.5 21.578125 
L 8.5 54.6875 
L 17.484375 54.6875 
L 17.484375 21.921875 
Q 17.484375 14.15625 20.5 10.265625 
Q 23.53125 6.390625 29.59375 6.390625 
Q 36.859375 6.390625 41.078125 11.03125 
Q 45.3125 15.671875 45.3125 23.6875 
L 45.3125 54.6875 
L 54.296875 54.6875 
L 54.296875 0 
L 45.3125 0 
L 45.3125 8.40625 
Q 42.046875 3.421875 37.71875 1 
Q 33.40625 -1.421875 27.6875 -1.421875 
Q 18.265625 -1.421875 13.375 4.4375 
Q 8.5 10.296875 8.5 21.578125 
z
M 31.109375 56 
z
" id="DejaVuSans-117"/>
     <path d="M 2.984375 54.6875 
L 12.5 54.6875 
L 29.59375 8.796875 
L 46.6875 54.6875 
L 56.203125 54.6875 
L 35.6875 0 
L 23.484375 0 
z
" id="DejaVuSans-118"/>
    </defs>
    <g transform="translate(147.321562 35.472)scale(0.12 -0.12)">
     <use xlink:href="#DejaVuSans-50"/>
     <use x="63.623047" xlink:href="#DejaVuSans-45"/>
     <use x="99.707031" xlink:href="#DejaVuSans-99"/>
     <use x="154.6875" xlink:href="#DejaVuSans-108"/>
     <use x="182.470703" xlink:href="#DejaVuSans-97"/>
     <use x="243.75" xlink:href="#DejaVuSans-115"/>
     <use x="295.849609" xlink:href="#DejaVuSans-115"/>
     <use x="347.949219" xlink:href="#DejaVuSans-32"/>
     <use x="379.736328" xlink:href="#DejaVuSans-80"/>
     <use x="440.023438" xlink:href="#DejaVuSans-114"/>
     <use x="481.105469" xlink:href="#DejaVuSans-101"/>
     <use x="542.628906" xlink:href="#DejaVuSans-99"/>
     <use x="597.609375" xlink:href="#DejaVuSans-105"/>
     <use x="625.392578" xlink:href="#DejaVuSans-115"/>
     <use x="677.492188" xlink:href="#DejaVuSans-105"/>
     <use x="705.275391" xlink:href="#DejaVuSans-111"/>
     <use x="766.457031" xlink:href="#DejaVuSans-110"/>
     <use x="829.835938" xlink:href="#DejaVuSans-45"/>
     <use x="865.919922" xlink:href="#DejaVuSans-82"/>
     <use x="935.339844" xlink:href="#DejaVuSans-101"/>
     <use x="996.863281" xlink:href="#DejaVuSans-99"/>
     <use x="1051.84375" xlink:href="#DejaVuSans-97"/>
     <use x="1113.123047" xlink:href="#DejaVuSans-108"/>
     <use x="1140.90625" xlink:href="#DejaVuSans-108"/>
     <use x="1168.689453" xlink:href="#DejaVuSans-32"/>
     <use x="1200.476562" xlink:href="#DejaVuSans-99"/>
     <use x="1255.457031" xlink:href="#DejaVuSans-117"/>
     <use x="1318.835938" xlink:href="#DejaVuSans-114"/>
     <use x="1359.949219" xlink:href="#DejaVuSans-118"/>
     <use x="1419.128906" xlink:href="#DejaVuSans-101"/>
    </g>
   </g>
  </g>
 </g>
 <defs>
  <clipPath id="pe71d256532">
   <rect height="266.112" width="357.12" x="57.6" y="41.472"/>
  </clipPath>
 </defs>
</svg>
