<?xml version="1.0" encoding="utf-8" standalone="no"?>
<!DOCTYPE svg PUBLIC "-//W3C//DTD SVG 1.1//EN"
  "http://www.w3.org/Graphics/SVG/1.1/DTD/svg11.dtd">
<!-- Created with matplotlib (https://matplotlib.org/) -->
<svg height="345.6pt" version="1.1" viewBox="0 0 460.8 345.6" width="460.8pt" xmlns="http://www.w3.org/2000/svg" xmlns:xlink="http://www.w3.org/1999/xlink">
 <defs>
  <style type="text/css">
*{stroke-linecap:butt;stroke-linejoin:round;}
  </style>
 </defs>
 <g id="figure_1">
  <g id="patch_1">
   <path d="M 0 345.6 
L 460.8 345.6 
L 460.8 0 
L 0 0 
z
" style="fill:#ffffff;"/>
  </g>
  <g id="axes_1">
   <g id="patch_2">
    <path d="M 57.6 307.584 
L 414.72 307.584 
L 414.72 41.472 
L 57.6 41.472 
z
" style="fill:#ffffff;"/>
   </g>
   <g id="PolyCollection_1">
    <defs>
     <path d="M 414.72 -38.016 
L 414.72 -111.792458 
L 400.758891 -114.714263 
L 399.983274 -115.309276 
L 399.155949 -115.434513 
L 398.509601 -115.692123 
L 397.346175 -115.994343 
L 397.010075 -116.017649 
L 396.777389 -116.081304 
L 396.51885 -116.16308 
L 396.389581 -116.151652 
L 396.105188 -116.187215 
L 394.424684 -116.57643 
L 393.752482 -116.559807 
L 393.287112 -116.640351 
L 391.68417 -116.776772 
L 389.719273 -117.02035 
L 389.667565 -117.040649 
L 389.43488 -117.10047 
L 388.607555 -118.013838 
L 388.168039 -118.027947 
L 380.980653 -121.728568 
L 380.903091 -121.759353 
L 380.644552 -121.785352 
L 380.049912 -121.772954 
L 379.998205 -121.770619 
L 378.162577 -122.968759 
L 376.637197 -123.021833 
L 376.249388 -123.031731 
L 374.517177 -123.368698 
L 374.336199 -123.366856 
L 373.534728 -123.345572 
L 373.069358 -123.358612 
L 370.949338 -123.638099 
L 370.923484 -123.638194 
L 369.501519 -123.621895 
L 368.881025 -123.640985 
L 367.510768 -123.63405 
L 367.510768 -123.646117 
L 366.580028 -123.967969 
L 366.269781 -124.030559 
L 365.597579 -124.073198 
L 365.571725 -124.068427 
L 363.399997 -124.749647 
L 361.900471 -124.778712 
L 361.848763 -124.774063 
L 361.383392 -124.724595 
L 358.72044 -125.389185 
L 356.212611 -125.85492 
L 356.186757 -125.855222 
L 355.824803 -125.954587 
L 355.385286 -126.09789 
L 354.273568 -126.452187 
L 354.273568 -126.465635 
L 351.972571 -126.685735 
L 351.895009 -126.708702 
L 349.076933 -127.518649 
L 348.663271 -127.635861 
L 347.758384 -127.743354 
L 347.758384 -127.746185 
L 347.422283 -127.766826 
L 346.853497 -127.871708 
L 341.631008 -129.181706 
L 341.605155 -129.185349 
L 341.605155 -129.236131 
L 336.434373 -130.309031 
L 335.400217 -130.55101 
L 334.547038 -130.657163 
L 333.590444 -130.875859 
L 333.590444 -130.879047 
L 333.56459 -130.889474 
L 333.487028 -130.879312 
L 333.383613 -130.879578 
L 326.997698 -131.599926 
L 326.868428 -131.601449 
L 326.558181 -131.696227 
L 326.377204 -131.693104 
L 326.170373 -131.727637 
L 326.092811 -131.727258 
L 325.006947 -131.893088 
L 324.593285 -131.862136 
L 324.386453 -131.957857 
L 324.205476 -131.978511 
L 322.007894 -132.189269 
L 321.723501 -132.228322 
L 319.500065 -132.265163 
L 315.415148 -132.5901 
L 314.148307 -132.724335 
L 311.175108 -132.642347 
L 311.149254 -132.643506 
L 310.890715 -132.774298 
L 305.952619 -133.383621 
L 305.926765 -133.399849 
L 305.849203 -133.381267 
L 303.703329 -133.730952 
L 294.964709 -134.55706 
L 294.887147 -134.577597 
L 293.413474 -134.777249 
L 292.973958 -134.876659 
L 288.604648 -134.693898 
L 282.425564 -134.844533 
L 281.727509 -134.978415 
L 279.710904 -135.17799 
L 279.452365 -135.190649 
L 279.452365 -135.194991 
L 279.426511 -135.240144 
L 278.444063 -135.213705 
L 277.358199 -135.329999 
L 277.203075 -135.38006 
L 276.918682 -135.496459 
L 276.194773 -135.461894 
L 274.876224 -135.410017 
L 272.652788 -135.790404 
L 271.592778 -136.035853 
L 269.731297 -136.10908 
L 264.793201 -136.99593 
L 263.707337 -137.158435 
L 262.905865 -137.137702 
L 262.362933 -137.158784 
L 257.424837 -137.323364 
L 257.140445 -137.439092 
L 255.873603 -137.930222 
L 253.33992 -138.313645 
L 253.314066 -138.305639 
L 253.00382 -138.256699 
L 249.849643 -138.270274 
L 248.893049 -138.606203 
L 248.63451 -138.626765 
L 248.608656 -138.667224 
L 248.582802 -138.669832 
L 247.574499 -138.859511 
L 247.548645 -138.867632 
L 247.290106 -138.976434 
L 245.971557 -138.95974 
L 245.945703 -138.956922 
L 242.507134 -138.78894 
L 241.033461 -138.792596 
L 239.818328 -138.859737 
L 238.784171 -138.828097 
L 238.189532 -138.892312 
L 238.034408 -138.891885 
L 231.3641 -139.425194 
L 231.338247 -139.51283 
L 228.235778 -139.749609 
L 223.142558 -140.574069 
L 223.116705 -140.564532 
L 221.591324 -140.500376 
L 220.944976 -140.771177 
L 219.91082 -140.733645 
L 218.954226 -140.771736 
L 217.583969 -140.760151 
L 213.42149 -140.621151 
L 211.198054 -140.793272 
L 209.155595 -140.887159 
L 208.716079 -140.859432 
L 208.664371 -140.874229 
L 207.216553 -140.67277 
L 205.14824 -141.0934 
L 204.941409 -141.044359 
L 200.416975 -140.806203 
L 200.106728 -141.105165 
L 199.744774 -141.018153 
L 199.563796 -141.153852 
L 199.512089 -141.177451 
L 196.073519 -141.155932 
L 195.039363 -142.134009 
L 194.910093 -142.180978 
L 192.63495 -142.229283 
L 192.428118 -142.233757 
L 186.533428 -142.826124 
L 183.456813 -143.798896 
L 179.165065 -143.642208 
L 178.027493 -143.580117 
L 177.898223 -143.627349 
L 176.527966 -143.807652 
L 175.985034 -143.823965 
L 175.648934 -143.909763 
L 175.442102 -143.869525 
L 172.830858 -144.469876 
L 167.582515 -143.518863 
L 167.556661 -143.51471 
L 166.75519 -143.572247 
L 166.341528 -143.998167 
L 166.263966 -144.070194 
L 161.041477 -144.41825 
L 160.834646 -144.473597 
L 159.67122 -144.302501 
L 154.397023 -145.161366 
L 154.035068 -145.354617 
L 153.492136 -145.33521 
L 152.742373 -145.514755 
L 147.157929 -145.537881 
L 147.080368 -145.616079 
L 142.65935 -145.121665 
L 142.374957 -145.010948 
L 140.978846 -145.278992 
L 140.435914 -145.298568 
L 137.6954 -144.869174 
L 136.50612 -145.059853 
L 135.549526 -145.12584 
L 129.939228 -144.860225 
L 129.835813 -144.949156 
L 129.448004 -144.956443 
L 128.853364 -145.03004 
L 128.543117 -145.089035 
L 127.069445 -144.704592 
L 126.552367 -145.067707 
L 119.882059 -144.140971 
L 119.882059 -144.196341 
L 119.054734 -144.264127 
L 117.038129 -144.886609 
L 116.934714 -144.85744 
L 116.598613 -144.762047 
L 114.892255 -145.175519 
L 99.974552 -139.330185 
L 99.819428 -139.503867 
L 99.535035 -139.392 
L 99.457473 -139.379478 
L 98.423317 -139.791626 
L 94.157423 -137.423534 
L 94.105715 -137.4208 
L 91.442763 -135.993838 
L 90.512022 -136.169064 
L 90.43446 -136.29655 
L 89.865674 -136.243677 
L 88.340294 -134.661337 
L 87.84907 -134.13425 
L 87.771508 -134.074616 
L 87.693946 -134.07727 
L 87.151014 -133.52603 
L 85.677342 -133.550828 
L 84.229523 -132.187429 
L 83.272928 -131.816194 
L 83.169513 -131.717742 
L 82.936828 -131.564475 
L 82.729996 -131.789765 
L 81.721694 -131.774731 
L 81.359739 -131.180544 
L 81.178762 -131.593846 
L 80.558268 -130.975405 
L 79.860213 -130.51784 
L 79.162157 -132.503689 
L 79.136303 -132.601806 
L 79.007034 -132.841269 
L 78.748495 -132.76642 
L 78.412394 -132.20769 
L 70.992323 -116.769401 
L 70.061583 -114.941743 
L 69.984021 -114.947407 
L 69.906459 -114.953143 
L 69.880605 -114.889563 
L 69.77719 -115.178405 
L 67.941562 -109.207011 
L 67.06253 -106.777334 
L 67.036676 -106.691278 
L 66.984968 -106.467429 
L 66.778137 -105.765398 
L 66.519597 -105.378712 
L 66.286912 -105.546404 
L 66.235205 -106.061788 
L 66.209351 -105.967304 
L 65.924958 -105.072434 
L 65.795688 -104.688598 
L 65.74398 -104.710737 
L 65.74398 -104.82236 
L 65.666419 -104.576 
L 65.356172 -102.834414 
L 65.304464 -102.677918 
L 65.252756 -102.854583 
L 65.226902 -102.916 
L 65.123487 -103.05219 
L 64.968363 -102.2208 
L 64.942509 -102.109464 
L 57.6 -291.456 
L 57.6 -38.016 
L 57.6 -38.016 
L 64.942509 -38.016 
L 64.968363 -38.016 
L 65.123487 -38.016 
L 65.226902 -38.016 
L 65.252756 -38.016 
L 65.304464 -38.016 
L 65.356172 -38.016 
L 65.666419 -38.016 
L 65.74398 -38.016 
L 65.74398 -38.016 
L 65.795688 -38.016 
L 65.924958 -38.016 
L 66.209351 -38.016 
L 66.235205 -38.016 
L 66.286912 -38.016 
L 66.519597 -38.016 
L 66.778137 -38.016 
L 66.984968 -38.016 
L 67.036676 -38.016 
L 67.06253 -38.016 
L 67.941562 -38.016 
L 69.77719 -38.016 
L 69.880605 -38.016 
L 69.906459 -38.016 
L 69.984021 -38.016 
L 70.061583 -38.016 
L 70.992323 -38.016 
L 78.412394 -38.016 
L 78.748495 -38.016 
L 79.007034 -38.016 
L 79.136303 -38.016 
L 79.162157 -38.016 
L 79.860213 -38.016 
L 80.558268 -38.016 
L 81.178762 -38.016 
L 81.359739 -38.016 
L 81.721694 -38.016 
L 82.729996 -38.016 
L 82.936828 -38.016 
L 83.169513 -38.016 
L 83.272928 -38.016 
L 84.229523 -38.016 
L 85.677342 -38.016 
L 87.151014 -38.016 
L 87.693946 -38.016 
L 87.771508 -38.016 
L 87.84907 -38.016 
L 88.340294 -38.016 
L 89.865674 -38.016 
L 90.43446 -38.016 
L 90.512022 -38.016 
L 91.442763 -38.016 
L 94.105715 -38.016 
L 94.157423 -38.016 
L 98.423317 -38.016 
L 99.457473 -38.016 
L 99.535035 -38.016 
L 99.819428 -38.016 
L 99.974552 -38.016 
L 114.892255 -38.016 
L 116.598613 -38.016 
L 116.934714 -38.016 
L 117.038129 -38.016 
L 119.054734 -38.016 
L 119.882059 -38.016 
L 119.882059 -38.016 
L 126.552367 -38.016 
L 127.069445 -38.016 
L 128.543117 -38.016 
L 128.853364 -38.016 
L 129.448004 -38.016 
L 129.835813 -38.016 
L 129.939228 -38.016 
L 135.549526 -38.016 
L 136.50612 -38.016 
L 137.6954 -38.016 
L 140.435914 -38.016 
L 140.978846 -38.016 
L 142.374957 -38.016 
L 142.65935 -38.016 
L 147.080368 -38.016 
L 147.157929 -38.016 
L 152.742373 -38.016 
L 153.492136 -38.016 
L 154.035068 -38.016 
L 154.397023 -38.016 
L 159.67122 -38.016 
L 160.834646 -38.016 
L 161.041477 -38.016 
L 166.263966 -38.016 
L 166.341528 -38.016 
L 166.75519 -38.016 
L 167.556661 -38.016 
L 167.582515 -38.016 
L 172.830858 -38.016 
L 175.442102 -38.016 
L 175.648934 -38.016 
L 175.985034 -38.016 
L 176.527966 -38.016 
L 177.898223 -38.016 
L 178.027493 -38.016 
L 179.165065 -38.016 
L 183.456813 -38.016 
L 186.533428 -38.016 
L 192.428118 -38.016 
L 192.63495 -38.016 
L 194.910093 -38.016 
L 195.039363 -38.016 
L 196.073519 -38.016 
L 199.512089 -38.016 
L 199.563796 -38.016 
L 199.744774 -38.016 
L 200.106728 -38.016 
L 200.416975 -38.016 
L 204.941409 -38.016 
L 205.14824 -38.016 
L 207.216553 -38.016 
L 208.664371 -38.016 
L 208.716079 -38.016 
L 209.155595 -38.016 
L 211.198054 -38.016 
L 213.42149 -38.016 
L 217.583969 -38.016 
L 218.954226 -38.016 
L 219.91082 -38.016 
L 220.944976 -38.016 
L 221.591324 -38.016 
L 223.116705 -38.016 
L 223.142558 -38.016 
L 228.235778 -38.016 
L 231.338247 -38.016 
L 231.3641 -38.016 
L 238.034408 -38.016 
L 238.189532 -38.016 
L 238.784171 -38.016 
L 239.818328 -38.016 
L 241.033461 -38.016 
L 242.507134 -38.016 
L 245.945703 -38.016 
L 245.971557 -38.016 
L 247.290106 -38.016 
L 247.548645 -38.016 
L 247.574499 -38.016 
L 248.582802 -38.016 
L 248.608656 -38.016 
L 248.63451 -38.016 
L 248.893049 -38.016 
L 249.849643 -38.016 
L 253.00382 -38.016 
L 253.314066 -38.016 
L 253.33992 -38.016 
L 255.873603 -38.016 
L 257.140445 -38.016 
L 257.424837 -38.016 
L 262.362933 -38.016 
L 262.905865 -38.016 
L 263.707337 -38.016 
L 264.793201 -38.016 
L 269.731297 -38.016 
L 271.592778 -38.016 
L 272.652788 -38.016 
L 274.876224 -38.016 
L 276.194773 -38.016 
L 276.918682 -38.016 
L 277.203075 -38.016 
L 277.358199 -38.016 
L 278.444063 -38.016 
L 279.426511 -38.016 
L 279.452365 -38.016 
L 279.452365 -38.016 
L 279.710904 -38.016 
L 281.727509 -38.016 
L 282.425564 -38.016 
L 288.604648 -38.016 
L 292.973958 -38.016 
L 293.413474 -38.016 
L 294.887147 -38.016 
L 294.964709 -38.016 
L 303.703329 -38.016 
L 305.849203 -38.016 
L 305.926765 -38.016 
L 305.952619 -38.016 
L 310.890715 -38.016 
L 311.149254 -38.016 
L 311.175108 -38.016 
L 314.148307 -38.016 
L 315.415148 -38.016 
L 319.500065 -38.016 
L 321.723501 -38.016 
L 322.007894 -38.016 
L 324.205476 -38.016 
L 324.386453 -38.016 
L 324.593285 -38.016 
L 325.006947 -38.016 
L 326.092811 -38.016 
L 326.170373 -38.016 
L 326.377204 -38.016 
L 326.558181 -38.016 
L 326.868428 -38.016 
L 326.997698 -38.016 
L 333.383613 -38.016 
L 333.487028 -38.016 
L 333.56459 -38.016 
L 333.590444 -38.016 
L 333.590444 -38.016 
L 334.547038 -38.016 
L 335.400217 -38.016 
L 336.434373 -38.016 
L 341.605155 -38.016 
L 341.605155 -38.016 
L 341.631008 -38.016 
L 346.853497 -38.016 
L 347.422283 -38.016 
L 347.758384 -38.016 
L 347.758384 -38.016 
L 348.663271 -38.016 
L 349.076933 -38.016 
L 351.895009 -38.016 
L 351.972571 -38.016 
L 354.273568 -38.016 
L 354.273568 -38.016 
L 355.385286 -38.016 
L 355.824803 -38.016 
L 356.186757 -38.016 
L 356.212611 -38.016 
L 358.72044 -38.016 
L 361.383392 -38.016 
L 361.848763 -38.016 
L 361.900471 -38.016 
L 363.399997 -38.016 
L 365.571725 -38.016 
L 365.597579 -38.016 
L 366.269781 -38.016 
L 366.580028 -38.016 
L 367.510768 -38.016 
L 367.510768 -38.016 
L 368.881025 -38.016 
L 369.501519 -38.016 
L 370.923484 -38.016 
L 370.949338 -38.016 
L 373.069358 -38.016 
L 373.534728 -38.016 
L 374.336199 -38.016 
L 374.517177 -38.016 
L 376.249388 -38.016 
L 376.637197 -38.016 
L 378.162577 -38.016 
L 379.998205 -38.016 
L 380.049912 -38.016 
L 380.644552 -38.016 
L 380.903091 -38.016 
L 380.980653 -38.016 
L 388.168039 -38.016 
L 388.607555 -38.016 
L 389.43488 -38.016 
L 389.667565 -38.016 
L 389.719273 -38.016 
L 391.68417 -38.016 
L 393.287112 -38.016 
L 393.752482 -38.016 
L 394.424684 -38.016 
L 396.105188 -38.016 
L 396.389581 -38.016 
L 396.51885 -38.016 
L 396.777389 -38.016 
L 397.010075 -38.016 
L 397.346175 -38.016 
L 398.509601 -38.016 
L 399.155949 -38.016 
L 399.983274 -38.016 
L 400.758891 -38.016 
L 414.72 -38.016 
z
" id="m6ebf4a80bc" style="stroke:#0000ff;stroke-opacity:0.2;"/>
    </defs>
    <g clip-path="url(#p605a34b9d6)">
     <use style="fill:#0000ff;fill-opacity:0.2;stroke:#0000ff;stroke-opacity:0.2;" x="0" xlink:href="#m6ebf4a80bc" y="345.6"/>
    </g>
   </g>
   <g id="matplotlib.axis_1">
    <g id="xtick_1">
     <g id="line2d_1">
      <defs>
       <path d="M 0 0 
L 0 3.5 
" id="mf234823574" style="stroke:#000000;stroke-width:0.8;"/>
      </defs>
      <g>
       <use style="stroke:#000000;stroke-width:0.8;" x="57.6" xlink:href="#mf234823574" y="307.584"/>
      </g>
     </g>
     <g id="text_1">
      <!-- 0.0 -->
      <defs>
       <path d="M 31.78125 66.40625 
Q 24.171875 66.40625 20.328125 58.90625 
Q 16.5 51.421875 16.5 36.375 
Q 16.5 21.390625 20.328125 13.890625 
Q 24.171875 6.390625 31.78125 6.390625 
Q 39.453125 6.390625 43.28125 13.890625 
Q 47.125 21.390625 47.125 36.375 
Q 47.125 51.421875 43.28125 58.90625 
Q 39.453125 66.40625 31.78125 66.40625 
z
M 31.78125 74.21875 
Q 44.046875 74.21875 50.515625 64.515625 
Q 56.984375 54.828125 56.984375 36.375 
Q 56.984375 17.96875 50.515625 8.265625 
Q 44.046875 -1.421875 31.78125 -1.421875 
Q 19.53125 -1.421875 13.0625 8.265625 
Q 6.59375 17.96875 6.59375 36.375 
Q 6.59375 54.828125 13.0625 64.515625 
Q 19.53125 74.21875 31.78125 74.21875 
z
" id="DejaVuSans-48"/>
       <path d="M 10.6875 12.40625 
L 21 12.40625 
L 21 0 
L 10.6875 0 
z
" id="DejaVuSans-46"/>
      </defs>
      <g transform="translate(49.648438 322.182437)scale(0.1 -0.1)">
       <use xlink:href="#DejaVuSans-48"/>
       <use x="63.623047" xlink:href="#DejaVuSans-46"/>
       <use x="95.410156" xlink:href="#DejaVuSans-48"/>
      </g>
     </g>
    </g>
    <g id="xtick_2">
     <g id="line2d_2">
      <g>
       <use style="stroke:#000000;stroke-width:0.8;" x="129.024" xlink:href="#mf234823574" y="307.584"/>
      </g>
     </g>
     <g id="text_2">
      <!-- 0.2 -->
      <defs>
       <path d="M 19.1875 8.296875 
L 53.609375 8.296875 
L 53.609375 0 
L 7.328125 0 
L 7.328125 8.296875 
Q 12.9375 14.109375 22.625 23.890625 
Q 32.328125 33.6875 34.8125 36.53125 
Q 39.546875 41.84375 41.421875 45.53125 
Q 43.3125 49.21875 43.3125 52.78125 
Q 43.3125 58.59375 39.234375 62.25 
Q 35.15625 65.921875 28.609375 65.921875 
Q 23.96875 65.921875 18.8125 64.3125 
Q 13.671875 62.703125 7.8125 59.421875 
L 7.8125 69.390625 
Q 13.765625 71.78125 18.9375 73 
Q 24.125 74.21875 28.421875 74.21875 
Q 39.75 74.21875 46.484375 68.546875 
Q 53.21875 62.890625 53.21875 53.421875 
Q 53.21875 48.921875 51.53125 44.890625 
Q 49.859375 40.875 45.40625 35.40625 
Q 44.1875 33.984375 37.640625 27.21875 
Q 31.109375 20.453125 19.1875 8.296875 
z
" id="DejaVuSans-50"/>
      </defs>
      <g transform="translate(121.072438 322.182437)scale(0.1 -0.1)">
       <use xlink:href="#DejaVuSans-48"/>
       <use x="63.623047" xlink:href="#DejaVuSans-46"/>
       <use x="95.410156" xlink:href="#DejaVuSans-50"/>
      </g>
     </g>
    </g>
    <g id="xtick_3">
     <g id="line2d_3">
      <g>
       <use style="stroke:#000000;stroke-width:0.8;" x="200.448" xlink:href="#mf234823574" y="307.584"/>
      </g>
     </g>
     <g id="text_3">
      <!-- 0.4 -->
      <defs>
       <path d="M 37.796875 64.3125 
L 12.890625 25.390625 
L 37.796875 25.390625 
z
M 35.203125 72.90625 
L 47.609375 72.90625 
L 47.609375 25.390625 
L 58.015625 25.390625 
L 58.015625 17.1875 
L 47.609375 17.1875 
L 47.609375 0 
L 37.796875 0 
L 37.796875 17.1875 
L 4.890625 17.1875 
L 4.890625 26.703125 
z
" id="DejaVuSans-52"/>
      </defs>
      <g transform="translate(192.496438 322.182437)scale(0.1 -0.1)">
       <use xlink:href="#DejaVuSans-48"/>
       <use x="63.623047" xlink:href="#DejaVuSans-46"/>
       <use x="95.410156" xlink:href="#DejaVuSans-52"/>
      </g>
     </g>
    </g>
    <g id="xtick_4">
     <g id="line2d_4">
      <g>
       <use style="stroke:#000000;stroke-width:0.8;" x="271.872" xlink:href="#mf234823574" y="307.584"/>
      </g>
     </g>
     <g id="text_4">
      <!-- 0.6 -->
      <defs>
       <path d="M 33.015625 40.375 
Q 26.375 40.375 22.484375 35.828125 
Q 18.609375 31.296875 18.609375 23.390625 
Q 18.609375 15.53125 22.484375 10.953125 
Q 26.375 6.390625 33.015625 6.390625 
Q 39.65625 6.390625 43.53125 10.953125 
Q 47.40625 15.53125 47.40625 23.390625 
Q 47.40625 31.296875 43.53125 35.828125 
Q 39.65625 40.375 33.015625 40.375 
z
M 52.59375 71.296875 
L 52.59375 62.3125 
Q 48.875 64.0625 45.09375 64.984375 
Q 41.3125 65.921875 37.59375 65.921875 
Q 27.828125 65.921875 22.671875 59.328125 
Q 17.53125 52.734375 16.796875 39.40625 
Q 19.671875 43.65625 24.015625 45.921875 
Q 28.375 48.1875 33.59375 48.1875 
Q 44.578125 48.1875 50.953125 41.515625 
Q 57.328125 34.859375 57.328125 23.390625 
Q 57.328125 12.15625 50.6875 5.359375 
Q 44.046875 -1.421875 33.015625 -1.421875 
Q 20.359375 -1.421875 13.671875 8.265625 
Q 6.984375 17.96875 6.984375 36.375 
Q 6.984375 53.65625 15.1875 63.9375 
Q 23.390625 74.21875 37.203125 74.21875 
Q 40.921875 74.21875 44.703125 73.484375 
Q 48.484375 72.75 52.59375 71.296875 
z
" id="DejaVuSans-54"/>
      </defs>
      <g transform="translate(263.920438 322.182437)scale(0.1 -0.1)">
       <use xlink:href="#DejaVuSans-48"/>
       <use x="63.623047" xlink:href="#DejaVuSans-46"/>
       <use x="95.410156" xlink:href="#DejaVuSans-54"/>
      </g>
     </g>
    </g>
    <g id="xtick_5">
     <g id="line2d_5">
      <g>
       <use style="stroke:#000000;stroke-width:0.8;" x="343.296" xlink:href="#mf234823574" y="307.584"/>
      </g>
     </g>
     <g id="text_5">
      <!-- 0.8 -->
      <defs>
       <path d="M 31.78125 34.625 
Q 24.75 34.625 20.71875 30.859375 
Q 16.703125 27.09375 16.703125 20.515625 
Q 16.703125 13.921875 20.71875 10.15625 
Q 24.75 6.390625 31.78125 6.390625 
Q 38.8125 6.390625 42.859375 10.171875 
Q 46.921875 13.96875 46.921875 20.515625 
Q 46.921875 27.09375 42.890625 30.859375 
Q 38.875 34.625 31.78125 34.625 
z
M 21.921875 38.8125 
Q 15.578125 40.375 12.03125 44.71875 
Q 8.5 49.078125 8.5 55.328125 
Q 8.5 64.0625 14.71875 69.140625 
Q 20.953125 74.21875 31.78125 74.21875 
Q 42.671875 74.21875 48.875 69.140625 
Q 55.078125 64.0625 55.078125 55.328125 
Q 55.078125 49.078125 51.53125 44.71875 
Q 48 40.375 41.703125 38.8125 
Q 48.828125 37.15625 52.796875 32.3125 
Q 56.78125 27.484375 56.78125 20.515625 
Q 56.78125 9.90625 50.3125 4.234375 
Q 43.84375 -1.421875 31.78125 -1.421875 
Q 19.734375 -1.421875 13.25 4.234375 
Q 6.78125 9.90625 6.78125 20.515625 
Q 6.78125 27.484375 10.78125 32.3125 
Q 14.796875 37.15625 21.921875 38.8125 
z
M 18.3125 54.390625 
Q 18.3125 48.734375 21.84375 45.5625 
Q 25.390625 42.390625 31.78125 42.390625 
Q 38.140625 42.390625 41.71875 45.5625 
Q 45.3125 48.734375 45.3125 54.390625 
Q 45.3125 60.0625 41.71875 63.234375 
Q 38.140625 66.40625 31.78125 66.40625 
Q 25.390625 66.40625 21.84375 63.234375 
Q 18.3125 60.0625 18.3125 54.390625 
z
" id="DejaVuSans-56"/>
      </defs>
      <g transform="translate(335.344438 322.182437)scale(0.1 -0.1)">
       <use xlink:href="#DejaVuSans-48"/>
       <use x="63.623047" xlink:href="#DejaVuSans-46"/>
       <use x="95.410156" xlink:href="#DejaVuSans-56"/>
      </g>
     </g>
    </g>
    <g id="xtick_6">
     <g id="line2d_6">
      <g>
       <use style="stroke:#000000;stroke-width:0.8;" x="414.72" xlink:href="#mf234823574" y="307.584"/>
      </g>
     </g>
     <g id="text_6">
      <!-- 1.0 -->
      <defs>
       <path d="M 12.40625 8.296875 
L 28.515625 8.296875 
L 28.515625 63.921875 
L 10.984375 60.40625 
L 10.984375 69.390625 
L 28.421875 72.90625 
L 38.28125 72.90625 
L 38.28125 8.296875 
L 54.390625 8.296875 
L 54.390625 0 
L 12.40625 0 
z
" id="DejaVuSans-49"/>
      </defs>
      <g transform="translate(406.768438 322.182437)scale(0.1 -0.1)">
       <use xlink:href="#DejaVuSans-49"/>
       <use x="63.623047" xlink:href="#DejaVuSans-46"/>
       <use x="95.410156" xlink:href="#DejaVuSans-48"/>
      </g>
     </g>
    </g>
    <g id="text_7">
     <!-- Recall -->
     <defs>
      <path d="M 44.390625 34.1875 
Q 47.5625 33.109375 50.5625 29.59375 
Q 53.5625 26.078125 56.59375 19.921875 
L 66.609375 0 
L 56 0 
L 46.6875 18.703125 
Q 43.0625 26.03125 39.671875 28.421875 
Q 36.28125 30.8125 30.421875 30.8125 
L 19.671875 30.8125 
L 19.671875 0 
L 9.8125 0 
L 9.8125 72.90625 
L 32.078125 72.90625 
Q 44.578125 72.90625 50.734375 67.671875 
Q 56.890625 62.453125 56.890625 51.90625 
Q 56.890625 45.015625 53.6875 40.46875 
Q 50.484375 35.9375 44.390625 34.1875 
z
M 19.671875 64.796875 
L 19.671875 38.921875 
L 32.078125 38.921875 
Q 39.203125 38.921875 42.84375 42.21875 
Q 46.484375 45.515625 46.484375 51.90625 
Q 46.484375 58.296875 42.84375 61.546875 
Q 39.203125 64.796875 32.078125 64.796875 
z
" id="DejaVuSans-82"/>
      <path d="M 56.203125 29.59375 
L 56.203125 25.203125 
L 14.890625 25.203125 
Q 15.484375 15.921875 20.484375 11.0625 
Q 25.484375 6.203125 34.421875 6.203125 
Q 39.59375 6.203125 44.453125 7.46875 
Q 49.3125 8.734375 54.109375 11.28125 
L 54.109375 2.78125 
Q 49.265625 0.734375 44.1875 -0.34375 
Q 39.109375 -1.421875 33.890625 -1.421875 
Q 20.796875 -1.421875 13.15625 6.1875 
Q 5.515625 13.8125 5.515625 26.8125 
Q 5.515625 40.234375 12.765625 48.109375 
Q 20.015625 56 32.328125 56 
Q 43.359375 56 49.78125 48.890625 
Q 56.203125 41.796875 56.203125 29.59375 
z
M 47.21875 32.234375 
Q 47.125 39.59375 43.09375 43.984375 
Q 39.0625 48.390625 32.421875 48.390625 
Q 24.90625 48.390625 20.390625 44.140625 
Q 15.875 39.890625 15.1875 32.171875 
z
" id="DejaVuSans-101"/>
      <path d="M 48.78125 52.59375 
L 48.78125 44.1875 
Q 44.96875 46.296875 41.140625 47.34375 
Q 37.3125 48.390625 33.40625 48.390625 
Q 24.65625 48.390625 19.8125 42.84375 
Q 14.984375 37.3125 14.984375 27.296875 
Q 14.984375 17.28125 19.8125 11.734375 
Q 24.65625 6.203125 33.40625 6.203125 
Q 37.3125 6.203125 41.140625 7.25 
Q 44.96875 8.296875 48.78125 10.40625 
L 48.78125 2.09375 
Q 45.015625 0.34375 40.984375 -0.53125 
Q 36.96875 -1.421875 32.421875 -1.421875 
Q 20.0625 -1.421875 12.78125 6.34375 
Q 5.515625 14.109375 5.515625 27.296875 
Q 5.515625 40.671875 12.859375 48.328125 
Q 20.21875 56 33.015625 56 
Q 37.15625 56 41.109375 55.140625 
Q 45.0625 54.296875 48.78125 52.59375 
z
" id="DejaVuSans-99"/>
      <path d="M 34.28125 27.484375 
Q 23.390625 27.484375 19.1875 25 
Q 14.984375 22.515625 14.984375 16.5 
Q 14.984375 11.71875 18.140625 8.90625 
Q 21.296875 6.109375 26.703125 6.109375 
Q 34.1875 6.109375 38.703125 11.40625 
Q 43.21875 16.703125 43.21875 25.484375 
L 43.21875 27.484375 
z
M 52.203125 31.203125 
L 52.203125 0 
L 43.21875 0 
L 43.21875 8.296875 
Q 40.140625 3.328125 35.546875 0.953125 
Q 30.953125 -1.421875 24.3125 -1.421875 
Q 15.921875 -1.421875 10.953125 3.296875 
Q 6 8.015625 6 15.921875 
Q 6 25.140625 12.171875 29.828125 
Q 18.359375 34.515625 30.609375 34.515625 
L 43.21875 34.515625 
L 43.21875 35.40625 
Q 43.21875 41.609375 39.140625 45 
Q 35.0625 48.390625 27.6875 48.390625 
Q 23 48.390625 18.546875 47.265625 
Q 14.109375 46.140625 10.015625 43.890625 
L 10.015625 52.203125 
Q 14.9375 54.109375 19.578125 55.046875 
Q 24.21875 56 28.609375 56 
Q 40.484375 56 46.34375 49.84375 
Q 52.203125 43.703125 52.203125 31.203125 
z
" id="DejaVuSans-97"/>
      <path d="M 9.421875 75.984375 
L 18.40625 75.984375 
L 18.40625 0 
L 9.421875 0 
z
" id="DejaVuSans-108"/>
     </defs>
     <g transform="translate(221.020938 335.860562)scale(0.1 -0.1)">
      <use xlink:href="#DejaVuSans-82"/>
      <use x="69.419922" xlink:href="#DejaVuSans-101"/>
      <use x="130.943359" xlink:href="#DejaVuSans-99"/>
      <use x="185.923828" xlink:href="#DejaVuSans-97"/>
      <use x="247.203125" xlink:href="#DejaVuSans-108"/>
      <use x="274.986328" xlink:href="#DejaVuSans-108"/>
     </g>
    </g>
   </g>
   <g id="matplotlib.axis_2">
    <g id="ytick_1">
     <g id="line2d_7">
      <defs>
       <path d="M 0 0 
L -3.5 0 
" id="mdf19e12125" style="stroke:#000000;stroke-width:0.8;"/>
      </defs>
      <g>
       <use style="stroke:#000000;stroke-width:0.8;" x="57.6" xlink:href="#mdf19e12125" y="307.584"/>
      </g>
     </g>
     <g id="text_8">
      <!-- 0.0 -->
      <g transform="translate(34.696875 311.383219)scale(0.1 -0.1)">
       <use xlink:href="#DejaVuSans-48"/>
       <use x="63.623047" xlink:href="#DejaVuSans-46"/>
       <use x="95.410156" xlink:href="#DejaVuSans-48"/>
      </g>
     </g>
    </g>
    <g id="ytick_2">
     <g id="line2d_8">
      <g>
       <use style="stroke:#000000;stroke-width:0.8;" x="57.6" xlink:href="#mdf19e12125" y="256.896"/>
      </g>
     </g>
     <g id="text_9">
      <!-- 0.2 -->
      <g transform="translate(34.696875 260.695219)scale(0.1 -0.1)">
       <use xlink:href="#DejaVuSans-48"/>
       <use x="63.623047" xlink:href="#DejaVuSans-46"/>
       <use x="95.410156" xlink:href="#DejaVuSans-50"/>
      </g>
     </g>
    </g>
    <g id="ytick_3">
     <g id="line2d_9">
      <g>
       <use style="stroke:#000000;stroke-width:0.8;" x="57.6" xlink:href="#mdf19e12125" y="206.208"/>
      </g>
     </g>
     <g id="text_10">
      <!-- 0.4 -->
      <g transform="translate(34.696875 210.007219)scale(0.1 -0.1)">
       <use xlink:href="#DejaVuSans-48"/>
       <use x="63.623047" xlink:href="#DejaVuSans-46"/>
       <use x="95.410156" xlink:href="#DejaVuSans-52"/>
      </g>
     </g>
    </g>
    <g id="ytick_4">
     <g id="line2d_10">
      <g>
       <use style="stroke:#000000;stroke-width:0.8;" x="57.6" xlink:href="#mdf19e12125" y="155.52"/>
      </g>
     </g>
     <g id="text_11">
      <!-- 0.6 -->
      <g transform="translate(34.696875 159.319219)scale(0.1 -0.1)">
       <use xlink:href="#DejaVuSans-48"/>
       <use x="63.623047" xlink:href="#DejaVuSans-46"/>
       <use x="95.410156" xlink:href="#DejaVuSans-54"/>
      </g>
     </g>
    </g>
    <g id="ytick_5">
     <g id="line2d_11">
      <g>
       <use style="stroke:#000000;stroke-width:0.8;" x="57.6" xlink:href="#mdf19e12125" y="104.832"/>
      </g>
     </g>
     <g id="text_12">
      <!-- 0.8 -->
      <g transform="translate(34.696875 108.631219)scale(0.1 -0.1)">
       <use xlink:href="#DejaVuSans-48"/>
       <use x="63.623047" xlink:href="#DejaVuSans-46"/>
       <use x="95.410156" xlink:href="#DejaVuSans-56"/>
      </g>
     </g>
    </g>
    <g id="ytick_6">
     <g id="line2d_12">
      <g>
       <use style="stroke:#000000;stroke-width:0.8;" x="57.6" xlink:href="#mdf19e12125" y="54.144"/>
      </g>
     </g>
     <g id="text_13">
      <!-- 1.0 -->
      <g transform="translate(34.696875 57.943219)scale(0.1 -0.1)">
       <use xlink:href="#DejaVuSans-49"/>
       <use x="63.623047" xlink:href="#DejaVuSans-46"/>
       <use x="95.410156" xlink:href="#DejaVuSans-48"/>
      </g>
     </g>
    </g>
    <g id="text_14">
     <!-- Precision -->
     <defs>
      <path d="M 19.671875 64.796875 
L 19.671875 37.40625 
L 32.078125 37.40625 
Q 38.96875 37.40625 42.71875 40.96875 
Q 46.484375 44.53125 46.484375 51.125 
Q 46.484375 57.671875 42.71875 61.234375 
Q 38.96875 64.796875 32.078125 64.796875 
z
M 9.8125 72.90625 
L 32.078125 72.90625 
Q 44.34375 72.90625 50.609375 67.359375 
Q 56.890625 61.8125 56.890625 51.125 
Q 56.890625 40.328125 50.609375 34.8125 
Q 44.34375 29.296875 32.078125 29.296875 
L 19.671875 29.296875 
L 19.671875 0 
L 9.8125 0 
z
" id="DejaVuSans-80"/>
      <path d="M 41.109375 46.296875 
Q 39.59375 47.171875 37.8125 47.578125 
Q 36.03125 48 33.890625 48 
Q 26.265625 48 22.1875 43.046875 
Q 18.109375 38.09375 18.109375 28.8125 
L 18.109375 0 
L 9.078125 0 
L 9.078125 54.6875 
L 18.109375 54.6875 
L 18.109375 46.1875 
Q 20.953125 51.171875 25.484375 53.578125 
Q 30.03125 56 36.53125 56 
Q 37.453125 56 38.578125 55.875 
Q 39.703125 55.765625 41.0625 55.515625 
z
" id="DejaVuSans-114"/>
      <path d="M 9.421875 54.6875 
L 18.40625 54.6875 
L 18.40625 0 
L 9.421875 0 
z
M 9.421875 75.984375 
L 18.40625 75.984375 
L 18.40625 64.59375 
L 9.421875 64.59375 
z
" id="DejaVuSans-105"/>
      <path d="M 44.28125 53.078125 
L 44.28125 44.578125 
Q 40.484375 46.53125 36.375 47.5 
Q 32.28125 48.484375 27.875 48.484375 
Q 21.1875 48.484375 17.84375 46.4375 
Q 14.5 44.390625 14.5 40.28125 
Q 14.5 37.15625 16.890625 35.375 
Q 19.28125 33.59375 26.515625 31.984375 
L 29.59375 31.296875 
Q 39.15625 29.25 43.1875 25.515625 
Q 47.21875 21.78125 47.21875 15.09375 
Q 47.21875 7.46875 41.1875 3.015625 
Q 35.15625 -1.421875 24.609375 -1.421875 
Q 20.21875 -1.421875 15.453125 -0.5625 
Q 10.6875 0.296875 5.421875 2 
L 5.421875 11.28125 
Q 10.40625 8.6875 15.234375 7.390625 
Q 20.0625 6.109375 24.8125 6.109375 
Q 31.15625 6.109375 34.5625 8.28125 
Q 37.984375 10.453125 37.984375 14.40625 
Q 37.984375 18.0625 35.515625 20.015625 
Q 33.0625 21.96875 24.703125 23.78125 
L 21.578125 24.515625 
Q 13.234375 26.265625 9.515625 29.90625 
Q 5.8125 33.546875 5.8125 39.890625 
Q 5.8125 47.609375 11.28125 51.796875 
Q 16.75 56 26.8125 56 
Q 31.78125 56 36.171875 55.265625 
Q 40.578125 54.546875 44.28125 53.078125 
z
" id="DejaVuSans-115"/>
      <path d="M 30.609375 48.390625 
Q 23.390625 48.390625 19.1875 42.75 
Q 14.984375 37.109375 14.984375 27.296875 
Q 14.984375 17.484375 19.15625 11.84375 
Q 23.34375 6.203125 30.609375 6.203125 
Q 37.796875 6.203125 41.984375 11.859375 
Q 46.1875 17.53125 46.1875 27.296875 
Q 46.1875 37.015625 41.984375 42.703125 
Q 37.796875 48.390625 30.609375 48.390625 
z
M 30.609375 56 
Q 42.328125 56 49.015625 48.375 
Q 55.71875 40.765625 55.71875 27.296875 
Q 55.71875 13.875 49.015625 6.21875 
Q 42.328125 -1.421875 30.609375 -1.421875 
Q 18.84375 -1.421875 12.171875 6.21875 
Q 5.515625 13.875 5.515625 27.296875 
Q 5.515625 40.765625 12.171875 48.375 
Q 18.84375 56 30.609375 56 
z
" id="DejaVuSans-111"/>
      <path d="M 54.890625 33.015625 
L 54.890625 0 
L 45.90625 0 
L 45.90625 32.71875 
Q 45.90625 40.484375 42.875 44.328125 
Q 39.84375 48.1875 33.796875 48.1875 
Q 26.515625 48.1875 22.3125 43.546875 
Q 18.109375 38.921875 18.109375 30.90625 
L 18.109375 0 
L 9.078125 0 
L 9.078125 54.6875 
L 18.109375 54.6875 
L 18.109375 46.1875 
Q 21.34375 51.125 25.703125 53.5625 
Q 30.078125 56 35.796875 56 
Q 45.21875 56 50.046875 50.171875 
Q 54.890625 44.34375 54.890625 33.015625 
z
" id="DejaVuSans-110"/>
     </defs>
     <g transform="translate(28.617187 197.032688)rotate(-90)scale(0.1 -0.1)">
      <use xlink:href="#DejaVuSans-80"/>
      <use x="60.287109" xlink:href="#DejaVuSans-114"/>
      <use x="101.369141" xlink:href="#DejaVuSans-101"/>
      <use x="162.892578" xlink:href="#DejaVuSans-99"/>
      <use x="217.873047" xlink:href="#DejaVuSans-105"/>
      <use x="245.65625" xlink:href="#DejaVuSans-115"/>
      <use x="297.755859" xlink:href="#DejaVuSans-105"/>
      <use x="325.539062" xlink:href="#DejaVuSans-111"/>
      <use x="386.720703" xlink:href="#DejaVuSans-110"/>
     </g>
    </g>
   </g>
   <g id="line2d_13">
    <path clip-path="url(#p605a34b9d6)" d="M 414.72 233.807542 
L 400.758891 233.807542 
L 400.758891 230.885737 
L 399.983274 230.885737 
L 399.983274 230.290724 
L 399.155949 230.290724 
L 399.155949 230.165487 
L 398.509601 230.165487 
L 398.509601 229.907877 
L 397.346175 229.907877 
L 397.346175 229.605657 
L 396.51885 229.518696 
L 396.51885 229.43692 
L 394.424684 229.412785 
L 394.424684 229.02357 
L 391.68417 228.959649 
L 391.68417 228.823228 
L 389.719273 228.823228 
L 389.667565 228.559351 
L 388.607555 228.49953 
L 388.607555 227.586162 
L 380.980653 227.572053 
L 380.903091 223.840647 
L 378.162577 223.829381 
L 378.162577 222.631241 
L 374.517177 222.568269 
L 374.517177 222.231302 
L 370.949338 222.241388 
L 370.923484 221.961806 
L 366.580028 221.953883 
L 366.580028 221.632031 
L 363.399997 221.531573 
L 363.399997 220.850353 
L 358.72044 220.875405 
L 358.72044 220.210815 
L 356.212611 220.210815 
L 356.186757 219.744778 
L 355.385286 219.645413 
L 355.385286 219.50211 
L 354.273568 219.50211 
L 354.273568 219.134365 
L 351.972571 219.134365 
L 351.895009 218.891298 
L 349.076933 218.891298 
L 349.076933 218.081351 
L 348.663271 218.081351 
L 348.663271 217.964139 
L 347.422283 217.853815 
L 347.422283 217.833174 
L 341.631008 217.728292 
L 341.605155 216.363869 
L 336.434373 216.363869 
L 336.434373 215.290969 
L 335.400217 215.290969 
L 335.400217 215.04899 
L 333.590444 214.942837 
L 333.56459 214.710526 
L 333.487028 214.720688 
L 326.997698 214.720422 
L 326.997698 214.000074 
L 326.170373 213.906896 
L 326.170373 213.872363 
L 326.092811 213.872742 
L 325.006947 213.872742 
L 325.006947 213.706912 
L 322.007894 213.621489 
L 322.007894 213.410731 
L 315.415148 213.334837 
L 315.415148 213.0099 
L 314.148307 213.0099 
L 314.148307 212.875665 
L 305.952619 212.825702 
L 305.926765 212.200151 
L 305.849203 212.218733 
L 303.703329 212.218733 
L 303.703329 211.869048 
L 294.964709 211.869048 
L 294.887147 211.022403 
L 293.413474 211.022403 
L 293.413474 210.822751 
L 281.727509 210.755467 
L 281.727509 210.621585 
L 279.710904 210.621585 
L 279.710904 210.42201 
L 277.358199 210.386295 
L 277.358199 210.270001 
L 276.918682 210.21994 
L 276.918682 210.103541 
L 272.652788 210.189983 
L 272.652788 209.809596 
L 271.592778 209.809596 
L 271.592778 209.564147 
L 264.793201 209.49092 
L 264.793201 208.60407 
L 263.707337 208.60407 
L 263.707337 208.441565 
L 257.424837 208.441216 
L 257.424837 208.276636 
L 257.140445 208.276636 
L 257.140445 208.160908 
L 255.873603 208.160908 
L 255.873603 207.669778 
L 253.33992 207.669778 
L 253.33992 207.286355 
L 253.314066 207.294361 
L 248.893049 207.329726 
L 248.893049 206.993797 
L 247.574499 206.930168 
L 247.548645 206.732368 
L 231.3641 206.708115 
L 231.338247 206.08717 
L 228.235778 206.08717 
L 228.235778 205.850391 
L 223.142558 205.850391 
L 223.142558 205.025931 
L 223.116705 205.035468 
L 220.944976 205.099624 
L 220.944976 204.828823 
L 213.42149 204.839849 
L 213.42149 204.978849 
L 211.198054 204.978849 
L 211.198054 204.806728 
L 207.216553 204.725771 
L 207.216553 204.92723 
L 205.14824 204.92723 
L 205.14824 204.5066 
L 200.416975 204.555641 
L 200.416975 204.793797 
L 200.106728 204.793797 
L 200.106728 204.494835 
L 195.039363 204.444068 
L 195.039363 203.465991 
L 186.533428 203.366243 
L 186.533428 202.773876 
L 183.456813 202.773876 
L 183.456813 201.801104 
L 179.165065 201.801104 
L 179.165065 201.957792 
L 176.527966 201.972651 
L 176.527966 201.792348 
L 172.830858 201.730475 
L 172.830858 201.130124 
L 167.582515 201.130124 
L 167.556661 202.08529 
L 166.341528 202.027753 
L 166.263966 201.529806 
L 161.041477 201.529806 
L 161.041477 201.18175 
L 159.67122 201.126403 
L 159.67122 201.297499 
L 154.397023 201.297499 
L 154.397023 200.438634 
L 154.035068 200.438634 
L 154.035068 200.245383 
L 152.742373 200.26479 
L 152.742373 200.085245 
L 142.65935 199.983921 
L 142.65935 200.478335 
L 140.978846 200.589052 
L 140.978846 200.321008 
L 137.6954 200.301432 
L 137.6954 200.730826 
L 136.50612 200.730826 
L 136.50612 200.540147 
L 129.939228 200.47416 
L 129.939228 200.739775 
L 129.835813 200.650844 
L 128.543117 200.56996 
L 128.543117 200.510965 
L 127.069445 200.510965 
L 127.069445 200.895408 
L 126.552367 200.895408 
L 126.552367 200.532293 
L 119.882059 200.532293 
L 119.882059 201.459029 
L 119.882059 201.403659 
L 117.038129 201.335873 
L 117.038129 200.713391 
L 116.934714 200.74256 
L 114.892255 200.837953 
L 114.892255 200.424481 
L 99.974552 200.424481 
L 99.974552 206.269815 
L 99.819428 206.269815 
L 99.819428 206.096133 
L 99.535035 206.096133 
L 99.457473 206.220522 
L 98.423317 206.220522 
L 98.423317 205.808374 
L 94.157423 205.808374 
L 94.105715 208.1792 
L 91.442763 208.1792 
L 91.442763 209.606162 
L 90.512022 209.606162 
L 90.43446 209.30345 
L 88.340294 209.356323 
L 88.340294 210.938663 
L 87.84907 210.938663 
L 87.771508 211.525384 
L 87.151014 211.52273 
L 87.151014 212.07397 
L 84.229523 212.049172 
L 84.229523 213.412571 
L 83.272928 213.412571 
L 83.169513 213.882258 
L 82.936828 213.882258 
L 82.936828 214.035525 
L 82.729996 214.035525 
L 82.729996 213.810235 
L 81.359739 213.825269 
L 81.359739 214.419456 
L 81.178762 214.419456 
L 81.178762 214.006154 
L 80.558268 214.006154 
L 80.558268 214.624595 
L 79.860213 214.624595 
L 79.860213 215.08216 
L 79.162157 215.08216 
L 79.136303 212.998194 
L 79.007034 212.998194 
L 79.007034 212.758731 
L 78.412394 212.83358 
L 78.412394 213.39231 
L 70.992323 213.39231 
L 70.992323 228.830599 
L 70.061583 228.830599 
L 70.061583 230.658257 
L 69.984021 230.652593 
L 69.77719 230.710437 
L 69.77719 230.421595 
L 67.941562 230.421595 
L 67.941562 236.392989 
L 67.06253 236.392989 
L 66.984968 239.132571 
L 66.778137 239.132571 
L 66.778137 239.834602 
L 66.519597 239.834602 
L 66.519597 240.221288 
L 66.286912 240.221288 
L 66.235205 239.538212 
L 66.209351 239.632696 
L 65.924958 239.632696 
L 65.924958 240.527566 
L 65.795688 240.527566 
L 65.795688 240.911402 
L 65.74398 240.77764 
L 65.666419 240.77764 
L 65.666419 241.024 
L 65.356172 241.024 
L 65.304464 242.922082 
L 65.252756 242.745417 
L 65.123487 242.684 
L 65.123487 242.54781 
L 64.968363 242.54781 
L 64.942509 243.490536 
L 57.6 243.490536 
L 57.6 54.144 
L 57.6 54.144 
" style="fill:none;stroke:#0000ff;stroke-linecap:square;stroke-opacity:0.2;stroke-width:1.5;"/>
   </g>
   <g id="patch_3">
    <path d="M 57.6 307.584 
L 57.6 41.472 
" style="fill:none;stroke:#000000;stroke-linecap:square;stroke-linejoin:miter;stroke-width:0.8;"/>
   </g>
   <g id="patch_4">
    <path d="M 414.72 307.584 
L 414.72 41.472 
" style="fill:none;stroke:#000000;stroke-linecap:square;stroke-linejoin:miter;stroke-width:0.8;"/>
   </g>
   <g id="patch_5">
    <path d="M 57.6 307.584 
L 414.72 307.584 
" style="fill:none;stroke:#000000;stroke-linecap:square;stroke-linejoin:miter;stroke-width:0.8;"/>
   </g>
   <g id="patch_6">
    <path d="M 57.6 41.472 
L 414.72 41.472 
" style="fill:none;stroke:#000000;stroke-linecap:square;stroke-linejoin:miter;stroke-width:0.8;"/>
   </g>
   <g id="text_15">
    <!-- 2-class Precision-Recall curve -->
    <defs>
     <path d="M 4.890625 31.390625 
L 31.203125 31.390625 
L 31.203125 23.390625 
L 4.890625 23.390625 
z
" id="DejaVuSans-45"/>
     <path id="DejaVuSans-32"/>
     <path d="M 8.5 21.578125 
L 8.5 54.6875 
L 17.484375 54.6875 
L 17.484375 21.921875 
Q 17.484375 14.15625 20.5 10.265625 
Q 23.53125 6.390625 29.59375 6.390625 
Q 36.859375 6.390625 41.078125 11.03125 
Q 45.3125 15.671875 45.3125 23.6875 
L 45.3125 54.6875 
L 54.296875 54.6875 
L 54.296875 0 
L 45.3125 0 
L 45.3125 8.40625 
Q 42.046875 3.421875 37.71875 1 
Q 33.40625 -1.421875 27.6875 -1.421875 
Q 18.265625 -1.421875 13.375 4.4375 
Q 8.5 10.296875 8.5 21.578125 
z
M 31.109375 56 
z
" id="DejaVuSans-117"/>
     <path d="M 2.984375 54.6875 
L 12.5 54.6875 
L 29.59375 8.796875 
L 46.6875 54.6875 
L 56.203125 54.6875 
L 35.6875 0 
L 23.484375 0 
z
" id="DejaVuSans-118"/>
    </defs>
    <g transform="translate(147.321562 35.472)scale(0.12 -0.12)">
     <use xlink:href="#DejaVuSans-50"/>
     <use x="63.623047" xlink:href="#DejaVuSans-45"/>
     <use x="99.707031" xlink:href="#DejaVuSans-99"/>
     <use x="154.6875" xlink:href="#DejaVuSans-108"/>
     <use x="182.470703" xlink:href="#DejaVuSans-97"/>
     <use x="243.75" xlink:href="#DejaVuSans-115"/>
     <use x="295.849609" xlink:href="#DejaVuSans-115"/>
     <use x="347.949219" xlink:href="#DejaVuSans-32"/>
     <use x="379.736328" xlink:href="#DejaVuSans-80"/>
     <use x="440.023438" xlink:href="#DejaVuSans-114"/>
     <use x="481.105469" xlink:href="#DejaVuSans-101"/>
     <use x="542.628906" xlink:href="#DejaVuSans-99"/>
     <use x="597.609375" xlink:href="#DejaVuSans-105"/>
     <use x="625.392578" xlink:href="#DejaVuSans-115"/>
     <use x="677.492188" xlink:href="#DejaVuSans-105"/>
     <use x="705.275391" xlink:href="#DejaVuSans-111"/>
     <use x="766.457031" xlink:href="#DejaVuSans-110"/>
     <use x="829.835938" xlink:href="#DejaVuSans-45"/>
     <use x="865.919922" xlink:href="#DejaVuSans-82"/>
     <use x="935.339844" xlink:href="#DejaVuSans-101"/>
     <use x="996.863281" xlink:href="#DejaVuSans-99"/>
     <use x="1051.84375" xlink:href="#DejaVuSans-97"/>
     <use x="1113.123047" xlink:href="#DejaVuSans-108"/>
     <use x="1140.90625" xlink:href="#DejaVuSans-108"/>
     <use x="1168.689453" xlink:href="#DejaVuSans-32"/>
     <use x="1200.476562" xlink:href="#DejaVuSans-99"/>
     <use x="1255.457031" xlink:href="#DejaVuSans-117"/>
     <use x="1318.835938" xlink:href="#DejaVuSans-114"/>
     <use x="1359.949219" xlink:href="#DejaVuSans-118"/>
     <use x="1419.128906" xlink:href="#DejaVuSans-101"/>
    </g>
   </g>
  </g>
 </g>
 <defs>
  <clipPath id="p605a34b9d6">
   <rect height="266.112" width="357.12" x="57.6" y="41.472"/>
  </clipPath>
 </defs>
</svg>
