<?xml version="1.0" encoding="utf-8" standalone="no"?>
<!DOCTYPE svg PUBLIC "-//W3C//DTD SVG 1.1//EN"
  "http://www.w3.org/Graphics/SVG/1.1/DTD/svg11.dtd">
<!-- Created with matplotlib (https://matplotlib.org/) -->
<svg height="345.6pt" version="1.1" viewBox="0 0 460.8 345.6" width="460.8pt" xmlns="http://www.w3.org/2000/svg" xmlns:xlink="http://www.w3.org/1999/xlink">
 <defs>
  <style type="text/css">
*{stroke-linecap:butt;stroke-linejoin:round;}
  </style>
 </defs>
 <g id="figure_1">
  <g id="patch_1">
   <path d="M 0 345.6 
L 460.8 345.6 
L 460.8 0 
L 0 0 
z
" style="fill:#ffffff;"/>
  </g>
  <g id="axes_1">
   <g id="patch_2">
    <path d="M 57.6 307.584 
L 414.72 307.584 
L 414.72 41.472 
L 57.6 41.472 
z
" style="fill:#ffffff;"/>
   </g>
   <g id="PolyCollection_1">
    <defs>
     <path d="M 414.72 -38.016 
L 414.72 -111.792458 
L 402.956473 -114.400818 
L 401.844755 -115.13984 
L 401.01743 -115.263442 
L 400.371082 -115.518192 
L 399.207657 -115.816816 
L 398.871556 -115.839714 
L 398.483747 -115.96525 
L 398.225208 -116.046286 
L 397.940815 -116.081474 
L 396.260311 -116.46699 
L 395.58811 -116.450286 
L 395.019324 -116.561877 
L 393.416382 -116.696947 
L 391.451485 -116.938293 
L 391.2188 -116.948005 
L 390.908553 -117.019518 
L 390.598306 -117.308344 
L 390.15879 -117.321197 
L 382.971404 -120.912933 
L 382.687011 -120.913731 
L 382.428472 -120.9384 
L 381.833832 -120.924781 
L 381.782124 -120.922372 
L 378.989902 -122.63441 
L 377.929892 -122.64171 
L 377.85233 -122.67826 
L 376.120119 -123.008808 
L 375.809872 -123.041745 
L 375.008401 -123.019903 
L 374.54303 -123.032308 
L 372.42301 -123.306153 
L 371.673247 -123.376683 
L 370.251282 -123.359337 
L 369.630788 -123.377744 
L 368.260531 -123.369711 
L 368.260531 -123.381674 
L 367.329791 -123.699962 
L 366.967836 -123.822611 
L 366.683443 -123.826281 
L 366.554174 -123.836572 
L 364.7444 -124.482994 
L 363.244874 -124.510448 
L 363.193166 -124.505803 
L 362.727796 -124.45645 
L 360.064843 -125.111572 
L 359.935574 -125.120404 
L 357.427745 -125.57912 
L 357.401891 -125.579395 
L 357.039936 -125.677403 
L 356.60042 -125.818816 
L 355.488702 -126.168378 
L 355.436994 -126.179691 
L 353.135997 -126.395275 
L 352.929165 -126.419723 
L 350.11109 -127.21868 
L 349.697427 -127.334271 
L 348.79254 -127.439725 
L 346.284712 -127.445625 
L 345.948611 -127.465884 
L 345.896903 -127.489483 
L 345.328117 -127.593723 
L 340.105628 -128.897428 
L 340.079774 -128.901041 
L 338.502686 -129.837188 
L 333.331905 -130.948357 
L 332.297748 -131.198919 
L 331.44457 -131.309824 
L 330.487975 -131.536459 
L 330.487975 -131.539728 
L 330.462121 -131.550488 
L 329.996751 -131.629934 
L 329.919189 -131.619686 
L 329.867481 -131.631456 
L 323.481567 -132.391818 
L 323.352297 -132.393776 
L 323.04205 -132.492381 
L 322.861073 -132.48971 
L 322.654242 -132.525926 
L 322.57668 -132.525772 
L 322.214725 -132.568686 
L 321.801063 -132.53802 
L 321.542524 -132.805308 
L 320.508367 -132.88574 
L 320.32739 -132.907761 
L 318.129808 -133.133873 
L 317.845415 -133.175351 
L 315.621979 -133.221751 
L 311.537062 -133.574068 
L 310.270221 -133.718219 
L 307.297022 -133.645142 
L 306.392135 -133.762432 
L 306.133596 -133.900085 
L 301.1955 -134.559692 
L 301.1955 -134.583117 
L 301.117938 -134.564083 
L 298.972064 -134.940293 
L 290.233444 -135.851734 
L 290.155882 -135.873692 
L 288.68221 -136.091366 
L 288.242693 -136.198137 
L 283.873383 -136.032212 
L 278.909433 -135.747615 
L 278.211378 -135.889077 
L 276.194773 -136.104218 
L 274.7211 -136.184402 
L 274.462561 -136.198834 
L 274.462561 -136.203369 
L 274.436707 -136.250646 
L 273.454259 -136.227676 
L 272.368395 -136.354366 
L 272.13571 -136.394871 
L 271.980586 -136.494186 
L 271.256677 -136.461507 
L 270.35179 -136.414573 
L 268.128354 -136.822048 
L 267.068344 -137.083442 
L 265.206863 -137.169384 
L 262.67318 -137.772157 
L 261.587316 -137.94312 
L 260.785845 -137.924957 
L 260.242913 -137.948726 
L 255.304817 -138.127353 
L 255.020424 -138.247398 
L 253.753583 -138.757305 
L 253.676021 -138.796671 
L 251.142338 -139.202765 
L 248.37597 -139.510289 
L 248.065724 -139.460851 
L 244.911547 -139.495651 
L 243.954953 -139.832716 
L 243.696414 -139.856067 
L 243.67056 -139.898795 
L 243.592998 -139.901854 
L 242.584696 -140.108287 
L 242.558842 -140.117011 
L 242.403718 -140.175201 
L 241.085169 -140.166368 
L 241.059315 -140.163577 
L 237.620746 -140.010146 
L 236.147073 -140.024197 
L 234.931939 -140.103442 
L 233.897783 -140.077499 
L 233.044604 -140.168758 
L 232.889481 -140.169451 
L 226.219173 -140.784943 
L 226.193319 -140.877906 
L 223.090851 -141.154753 
L 217.997631 -142.07568 
L 213.861006 -142.397013 
L 212.335626 -142.344936 
L 211.663424 -142.647354 
L 210.629268 -142.618982 
L 209.672674 -142.672984 
L 208.302417 -142.677832 
L 204.139938 -142.579832 
L 201.942356 -142.796474 
L 199.899897 -142.929791 
L 199.460381 -142.905522 
L 199.408673 -142.922679 
L 197.960854 -142.720799 
L 195.892542 -143.219365 
L 195.685711 -143.168104 
L 191.161277 -142.976 
L 190.85103 -143.314651 
L 190.489076 -143.223689 
L 190.308098 -143.378235 
L 190.25639 -143.405468 
L 186.817821 -143.441978 
L 185.783665 -144.55793 
L 185.654395 -144.613174 
L 183.379251 -144.712573 
L 183.17242 -144.721798 
L 177.27773 -145.518406 
L 175.49381 -146.155459 
L 171.202062 -146.071051 
L 170.06449 -146.026581 
L 169.93522 -146.082418 
L 168.564963 -146.315928 
L 168.022031 -146.346889 
L 167.685931 -146.451241 
L 167.479099 -146.410888 
L 166.341528 -146.78831 
L 161.093185 -145.851918 
L 161.067331 -145.847903 
L 160.26586 -145.930459 
L 159.852197 -146.41388 
L 159.774635 -146.495896 
L 154.552147 -147.019326 
L 154.345315 -147.087016 
L 153.18189 -146.927738 
L 150.544791 -147.367512 
L 150.182836 -147.58604 
L 149.639904 -147.578404 
L 148.890141 -147.79233 
L 148.08867 -148.152578 
L 148.011108 -148.236082 
L 143.59009 -147.859815 
L 143.305698 -147.753931 
L 141.909587 -148.079636 
L 141.314947 -148.109738 
L 138.574433 -147.759409 
L 137.385153 -148.002759 
L 136.092458 -148.062316 
L 135.135863 -148.170574 
L 129.525566 -148.131583 
L 129.42215 -148.231454 
L 129.111903 -148.255824 
L 128.724095 -148.282241 
L 128.129455 -148.390253 
L 127.819208 -148.468991 
L 126.345535 -148.129882 
L 125.828457 -148.547839 
L 119.15815 -147.932328 
L 119.15815 -147.992424 
L 118.330825 -148.119673 
L 116.31422 -148.935684 
L 116.210804 -148.911287 
L 115.874704 -148.831472 
L 114.168346 -149.411484 
L 99.250642 -144.425132 
L 98.785272 -144.428736 
L 98.500879 -144.338482 
L 98.423317 -144.334215 
L 97.389161 -144.936 
L 93.123266 -142.871935 
L 93.071559 -142.877182 
L 90.408606 -141.696 
L 89.477866 -142.07578 
L 89.400304 -142.343711 
L 88.831518 -142.399062 
L 87.306138 -140.878084 
L 86.814913 -140.370253 
L 86.737352 -140.317891 
L 86.65979 -140.338759 
L 86.116858 -139.816554 
L 84.643185 -140.2127 
L 84.048546 -140.982291 
L 82.549019 -139.708141 
L 81.592425 -139.567088 
L 81.489009 -139.479847 
L 81.256324 -139.369846 
L 81.049493 -139.728425 
L 81.023639 -139.661259 
L 80.273875 -139.879831 
L 79.911921 -139.274667 
L 79.730943 -139.867944 
L 79.11045 -139.343285 
L 78.929472 -139.416582 
L 78.231417 -142.266062 
L 78.205563 -142.404465 
L 78.076293 -142.778255 
L 77.817754 -142.823023 
L 77.481654 -142.293881 
L 70.061583 -127.182482 
L 69.130842 -125.571569 
L 69.05328 -125.661527 
L 68.949865 -125.622425 
L 68.924011 -125.560732 
L 68.820595 -126.08082 
L 66.984968 -119.720014 
L 66.105935 -117.351642 
L 66.080081 -117.2613 
L 66.028373 -117.003992 
L 65.821542 -116.262524 
L 65.537149 -116.213065 
L 65.304464 -116.852242 
L 65.252756 -117.737828 
L 65.226902 -117.637725 
L 64.942509 -117.11156 
L 64.787386 -116.826201 
L 64.658116 -116.461714 
L 64.606408 -116.599799 
L 64.606408 -116.780037 
L 64.606408 -117.051949 
L 64.554701 -116.922667 
L 64.244454 -114.734587 
L 64.192746 -114.588512 
L 64.141038 -114.991174 
L 64.115184 -115.149913 
L 64.011769 -115.612444 
L 63.856645 -114.585888 
L 63.830791 -114.55615 
L 63.804937 -114.334193 
L 57.6 -291.456 
L 57.6 -38.016 
L 57.6 -38.016 
L 63.804937 -38.016 
L 63.830791 -38.016 
L 63.856645 -38.016 
L 64.011769 -38.016 
L 64.115184 -38.016 
L 64.141038 -38.016 
L 64.192746 -38.016 
L 64.244454 -38.016 
L 64.554701 -38.016 
L 64.606408 -38.016 
L 64.606408 -38.016 
L 64.606408 -38.016 
L 64.658116 -38.016 
L 64.787386 -38.016 
L 64.942509 -38.016 
L 65.226902 -38.016 
L 65.252756 -38.016 
L 65.304464 -38.016 
L 65.537149 -38.016 
L 65.821542 -38.016 
L 66.028373 -38.016 
L 66.080081 -38.016 
L 66.105935 -38.016 
L 66.984968 -38.016 
L 68.820595 -38.016 
L 68.924011 -38.016 
L 68.949865 -38.016 
L 69.05328 -38.016 
L 69.130842 -38.016 
L 70.061583 -38.016 
L 77.481654 -38.016 
L 77.817754 -38.016 
L 78.076293 -38.016 
L 78.205563 -38.016 
L 78.231417 -38.016 
L 78.929472 -38.016 
L 79.11045 -38.016 
L 79.730943 -38.016 
L 79.911921 -38.016 
L 80.273875 -38.016 
L 81.023639 -38.016 
L 81.049493 -38.016 
L 81.256324 -38.016 
L 81.489009 -38.016 
L 81.592425 -38.016 
L 82.549019 -38.016 
L 84.048546 -38.016 
L 84.643185 -38.016 
L 86.116858 -38.016 
L 86.65979 -38.016 
L 86.737352 -38.016 
L 86.814913 -38.016 
L 87.306138 -38.016 
L 88.831518 -38.016 
L 89.400304 -38.016 
L 89.477866 -38.016 
L 90.408606 -38.016 
L 93.071559 -38.016 
L 93.123266 -38.016 
L 97.389161 -38.016 
L 98.423317 -38.016 
L 98.500879 -38.016 
L 98.785272 -38.016 
L 99.250642 -38.016 
L 114.168346 -38.016 
L 115.874704 -38.016 
L 116.210804 -38.016 
L 116.31422 -38.016 
L 118.330825 -38.016 
L 119.15815 -38.016 
L 119.15815 -38.016 
L 125.828457 -38.016 
L 126.345535 -38.016 
L 127.819208 -38.016 
L 128.129455 -38.016 
L 128.724095 -38.016 
L 129.111903 -38.016 
L 129.42215 -38.016 
L 129.525566 -38.016 
L 135.135863 -38.016 
L 136.092458 -38.016 
L 137.385153 -38.016 
L 138.574433 -38.016 
L 141.314947 -38.016 
L 141.909587 -38.016 
L 143.305698 -38.016 
L 143.59009 -38.016 
L 148.011108 -38.016 
L 148.08867 -38.016 
L 148.890141 -38.016 
L 149.639904 -38.016 
L 150.182836 -38.016 
L 150.544791 -38.016 
L 153.18189 -38.016 
L 154.345315 -38.016 
L 154.552147 -38.016 
L 159.774635 -38.016 
L 159.852197 -38.016 
L 160.26586 -38.016 
L 161.067331 -38.016 
L 161.093185 -38.016 
L 166.341528 -38.016 
L 167.479099 -38.016 
L 167.685931 -38.016 
L 168.022031 -38.016 
L 168.564963 -38.016 
L 169.93522 -38.016 
L 170.06449 -38.016 
L 171.202062 -38.016 
L 175.49381 -38.016 
L 177.27773 -38.016 
L 183.17242 -38.016 
L 183.379251 -38.016 
L 185.654395 -38.016 
L 185.783665 -38.016 
L 186.817821 -38.016 
L 190.25639 -38.016 
L 190.308098 -38.016 
L 190.489076 -38.016 
L 190.85103 -38.016 
L 191.161277 -38.016 
L 195.685711 -38.016 
L 195.892542 -38.016 
L 197.960854 -38.016 
L 199.408673 -38.016 
L 199.460381 -38.016 
L 199.899897 -38.016 
L 201.942356 -38.016 
L 204.139938 -38.016 
L 208.302417 -38.016 
L 209.672674 -38.016 
L 210.629268 -38.016 
L 211.663424 -38.016 
L 212.335626 -38.016 
L 213.861006 -38.016 
L 217.997631 -38.016 
L 223.090851 -38.016 
L 226.193319 -38.016 
L 226.219173 -38.016 
L 232.889481 -38.016 
L 233.044604 -38.016 
L 233.897783 -38.016 
L 234.931939 -38.016 
L 236.147073 -38.016 
L 237.620746 -38.016 
L 241.059315 -38.016 
L 241.085169 -38.016 
L 242.403718 -38.016 
L 242.558842 -38.016 
L 242.584696 -38.016 
L 243.592998 -38.016 
L 243.67056 -38.016 
L 243.696414 -38.016 
L 243.954953 -38.016 
L 244.911547 -38.016 
L 248.065724 -38.016 
L 248.37597 -38.016 
L 251.142338 -38.016 
L 253.676021 -38.016 
L 253.753583 -38.016 
L 255.020424 -38.016 
L 255.304817 -38.016 
L 260.242913 -38.016 
L 260.785845 -38.016 
L 261.587316 -38.016 
L 262.67318 -38.016 
L 265.206863 -38.016 
L 267.068344 -38.016 
L 268.128354 -38.016 
L 270.35179 -38.016 
L 271.256677 -38.016 
L 271.980586 -38.016 
L 272.13571 -38.016 
L 272.368395 -38.016 
L 273.454259 -38.016 
L 274.436707 -38.016 
L 274.462561 -38.016 
L 274.462561 -38.016 
L 274.7211 -38.016 
L 276.194773 -38.016 
L 278.211378 -38.016 
L 278.909433 -38.016 
L 283.873383 -38.016 
L 288.242693 -38.016 
L 288.68221 -38.016 
L 290.155882 -38.016 
L 290.233444 -38.016 
L 298.972064 -38.016 
L 301.117938 -38.016 
L 301.1955 -38.016 
L 301.1955 -38.016 
L 306.133596 -38.016 
L 306.392135 -38.016 
L 307.297022 -38.016 
L 310.270221 -38.016 
L 311.537062 -38.016 
L 315.621979 -38.016 
L 317.845415 -38.016 
L 318.129808 -38.016 
L 320.32739 -38.016 
L 320.508367 -38.016 
L 321.542524 -38.016 
L 321.801063 -38.016 
L 322.214725 -38.016 
L 322.57668 -38.016 
L 322.654242 -38.016 
L 322.861073 -38.016 
L 323.04205 -38.016 
L 323.352297 -38.016 
L 323.481567 -38.016 
L 329.867481 -38.016 
L 329.919189 -38.016 
L 329.996751 -38.016 
L 330.462121 -38.016 
L 330.487975 -38.016 
L 330.487975 -38.016 
L 331.44457 -38.016 
L 332.297748 -38.016 
L 333.331905 -38.016 
L 338.502686 -38.016 
L 340.079774 -38.016 
L 340.105628 -38.016 
L 345.328117 -38.016 
L 345.896903 -38.016 
L 345.948611 -38.016 
L 346.284712 -38.016 
L 348.79254 -38.016 
L 349.697427 -38.016 
L 350.11109 -38.016 
L 352.929165 -38.016 
L 353.135997 -38.016 
L 355.436994 -38.016 
L 355.488702 -38.016 
L 356.60042 -38.016 
L 357.039936 -38.016 
L 357.401891 -38.016 
L 357.427745 -38.016 
L 359.935574 -38.016 
L 360.064843 -38.016 
L 362.727796 -38.016 
L 363.193166 -38.016 
L 363.244874 -38.016 
L 364.7444 -38.016 
L 366.554174 -38.016 
L 366.683443 -38.016 
L 366.967836 -38.016 
L 367.329791 -38.016 
L 368.260531 -38.016 
L 368.260531 -38.016 
L 369.630788 -38.016 
L 370.251282 -38.016 
L 371.673247 -38.016 
L 372.42301 -38.016 
L 374.54303 -38.016 
L 375.008401 -38.016 
L 375.809872 -38.016 
L 376.120119 -38.016 
L 377.85233 -38.016 
L 377.929892 -38.016 
L 378.989902 -38.016 
L 381.782124 -38.016 
L 381.833832 -38.016 
L 382.428472 -38.016 
L 382.687011 -38.016 
L 382.971404 -38.016 
L 390.15879 -38.016 
L 390.598306 -38.016 
L 390.908553 -38.016 
L 391.2188 -38.016 
L 391.451485 -38.016 
L 393.416382 -38.016 
L 395.019324 -38.016 
L 395.58811 -38.016 
L 396.260311 -38.016 
L 397.940815 -38.016 
L 398.225208 -38.016 
L 398.483747 -38.016 
L 398.871556 -38.016 
L 399.207657 -38.016 
L 400.371082 -38.016 
L 401.01743 -38.016 
L 401.844755 -38.016 
L 402.956473 -38.016 
L 414.72 -38.016 
z
" id="m60475e32ad" style="stroke:#0000ff;stroke-opacity:0.2;"/>
    </defs>
    <g clip-path="url(#pc5763433ab)">
     <use style="fill:#0000ff;fill-opacity:0.2;stroke:#0000ff;stroke-opacity:0.2;" x="0" xlink:href="#m60475e32ad" y="345.6"/>
    </g>
   </g>
   <g id="matplotlib.axis_1">
    <g id="xtick_1">
     <g id="line2d_1">
      <defs>
       <path d="M 0 0 
L 0 3.5 
" id="md6774fe0ca" style="stroke:#000000;stroke-width:0.8;"/>
      </defs>
      <g>
       <use style="stroke:#000000;stroke-width:0.8;" x="57.6" xlink:href="#md6774fe0ca" y="307.584"/>
      </g>
     </g>
     <g id="text_1">
      <!-- 0.0 -->
      <defs>
       <path d="M 31.78125 66.40625 
Q 24.171875 66.40625 20.328125 58.90625 
Q 16.5 51.421875 16.5 36.375 
Q 16.5 21.390625 20.328125 13.890625 
Q 24.171875 6.390625 31.78125 6.390625 
Q 39.453125 6.390625 43.28125 13.890625 
Q 47.125 21.390625 47.125 36.375 
Q 47.125 51.421875 43.28125 58.90625 
Q 39.453125 66.40625 31.78125 66.40625 
z
M 31.78125 74.21875 
Q 44.046875 74.21875 50.515625 64.515625 
Q 56.984375 54.828125 56.984375 36.375 
Q 56.984375 17.96875 50.515625 8.265625 
Q 44.046875 -1.421875 31.78125 -1.421875 
Q 19.53125 -1.421875 13.0625 8.265625 
Q 6.59375 17.96875 6.59375 36.375 
Q 6.59375 54.828125 13.0625 64.515625 
Q 19.53125 74.21875 31.78125 74.21875 
z
" id="DejaVuSans-48"/>
       <path d="M 10.6875 12.40625 
L 21 12.40625 
L 21 0 
L 10.6875 0 
z
" id="DejaVuSans-46"/>
      </defs>
      <g transform="translate(49.648438 322.182437)scale(0.1 -0.1)">
       <use xlink:href="#DejaVuSans-48"/>
       <use x="63.623047" xlink:href="#DejaVuSans-46"/>
       <use x="95.410156" xlink:href="#DejaVuSans-48"/>
      </g>
     </g>
    </g>
    <g id="xtick_2">
     <g id="line2d_2">
      <g>
       <use style="stroke:#000000;stroke-width:0.8;" x="129.024" xlink:href="#md6774fe0ca" y="307.584"/>
      </g>
     </g>
     <g id="text_2">
      <!-- 0.2 -->
      <defs>
       <path d="M 19.1875 8.296875 
L 53.609375 8.296875 
L 53.609375 0 
L 7.328125 0 
L 7.328125 8.296875 
Q 12.9375 14.109375 22.625 23.890625 
Q 32.328125 33.6875 34.8125 36.53125 
Q 39.546875 41.84375 41.421875 45.53125 
Q 43.3125 49.21875 43.3125 52.78125 
Q 43.3125 58.59375 39.234375 62.25 
Q 35.15625 65.921875 28.609375 65.921875 
Q 23.96875 65.921875 18.8125 64.3125 
Q 13.671875 62.703125 7.8125 59.421875 
L 7.8125 69.390625 
Q 13.765625 71.78125 18.9375 73 
Q 24.125 74.21875 28.421875 74.21875 
Q 39.75 74.21875 46.484375 68.546875 
Q 53.21875 62.890625 53.21875 53.421875 
Q 53.21875 48.921875 51.53125 44.890625 
Q 49.859375 40.875 45.40625 35.40625 
Q 44.1875 33.984375 37.640625 27.21875 
Q 31.109375 20.453125 19.1875 8.296875 
z
" id="DejaVuSans-50"/>
      </defs>
      <g transform="translate(121.072438 322.182437)scale(0.1 -0.1)">
       <use xlink:href="#DejaVuSans-48"/>
       <use x="63.623047" xlink:href="#DejaVuSans-46"/>
       <use x="95.410156" xlink:href="#DejaVuSans-50"/>
      </g>
     </g>
    </g>
    <g id="xtick_3">
     <g id="line2d_3">
      <g>
       <use style="stroke:#000000;stroke-width:0.8;" x="200.448" xlink:href="#md6774fe0ca" y="307.584"/>
      </g>
     </g>
     <g id="text_3">
      <!-- 0.4 -->
      <defs>
       <path d="M 37.796875 64.3125 
L 12.890625 25.390625 
L 37.796875 25.390625 
z
M 35.203125 72.90625 
L 47.609375 72.90625 
L 47.609375 25.390625 
L 58.015625 25.390625 
L 58.015625 17.1875 
L 47.609375 17.1875 
L 47.609375 0 
L 37.796875 0 
L 37.796875 17.1875 
L 4.890625 17.1875 
L 4.890625 26.703125 
z
" id="DejaVuSans-52"/>
      </defs>
      <g transform="translate(192.496438 322.182437)scale(0.1 -0.1)">
       <use xlink:href="#DejaVuSans-48"/>
       <use x="63.623047" xlink:href="#DejaVuSans-46"/>
       <use x="95.410156" xlink:href="#DejaVuSans-52"/>
      </g>
     </g>
    </g>
    <g id="xtick_4">
     <g id="line2d_4">
      <g>
       <use style="stroke:#000000;stroke-width:0.8;" x="271.872" xlink:href="#md6774fe0ca" y="307.584"/>
      </g>
     </g>
     <g id="text_4">
      <!-- 0.6 -->
      <defs>
       <path d="M 33.015625 40.375 
Q 26.375 40.375 22.484375 35.828125 
Q 18.609375 31.296875 18.609375 23.390625 
Q 18.609375 15.53125 22.484375 10.953125 
Q 26.375 6.390625 33.015625 6.390625 
Q 39.65625 6.390625 43.53125 10.953125 
Q 47.40625 15.53125 47.40625 23.390625 
Q 47.40625 31.296875 43.53125 35.828125 
Q 39.65625 40.375 33.015625 40.375 
z
M 52.59375 71.296875 
L 52.59375 62.3125 
Q 48.875 64.0625 45.09375 64.984375 
Q 41.3125 65.921875 37.59375 65.921875 
Q 27.828125 65.921875 22.671875 59.328125 
Q 17.53125 52.734375 16.796875 39.40625 
Q 19.671875 43.65625 24.015625 45.921875 
Q 28.375 48.1875 33.59375 48.1875 
Q 44.578125 48.1875 50.953125 41.515625 
Q 57.328125 34.859375 57.328125 23.390625 
Q 57.328125 12.15625 50.6875 5.359375 
Q 44.046875 -1.421875 33.015625 -1.421875 
Q 20.359375 -1.421875 13.671875 8.265625 
Q 6.984375 17.96875 6.984375 36.375 
Q 6.984375 53.65625 15.1875 63.9375 
Q 23.390625 74.21875 37.203125 74.21875 
Q 40.921875 74.21875 44.703125 73.484375 
Q 48.484375 72.75 52.59375 71.296875 
z
" id="DejaVuSans-54"/>
      </defs>
      <g transform="translate(263.920438 322.182437)scale(0.1 -0.1)">
       <use xlink:href="#DejaVuSans-48"/>
       <use x="63.623047" xlink:href="#DejaVuSans-46"/>
       <use x="95.410156" xlink:href="#DejaVuSans-54"/>
      </g>
     </g>
    </g>
    <g id="xtick_5">
     <g id="line2d_5">
      <g>
       <use style="stroke:#000000;stroke-width:0.8;" x="343.296" xlink:href="#md6774fe0ca" y="307.584"/>
      </g>
     </g>
     <g id="text_5">
      <!-- 0.8 -->
      <defs>
       <path d="M 31.78125 34.625 
Q 24.75 34.625 20.71875 30.859375 
Q 16.703125 27.09375 16.703125 20.515625 
Q 16.703125 13.921875 20.71875 10.15625 
Q 24.75 6.390625 31.78125 6.390625 
Q 38.8125 6.390625 42.859375 10.171875 
Q 46.921875 13.96875 46.921875 20.515625 
Q 46.921875 27.09375 42.890625 30.859375 
Q 38.875 34.625 31.78125 34.625 
z
M 21.921875 38.8125 
Q 15.578125 40.375 12.03125 44.71875 
Q 8.5 49.078125 8.5 55.328125 
Q 8.5 64.0625 14.71875 69.140625 
Q 20.953125 74.21875 31.78125 74.21875 
Q 42.671875 74.21875 48.875 69.140625 
Q 55.078125 64.0625 55.078125 55.328125 
Q 55.078125 49.078125 51.53125 44.71875 
Q 48 40.375 41.703125 38.8125 
Q 48.828125 37.15625 52.796875 32.3125 
Q 56.78125 27.484375 56.78125 20.515625 
Q 56.78125 9.90625 50.3125 4.234375 
Q 43.84375 -1.421875 31.78125 -1.421875 
Q 19.734375 -1.421875 13.25 4.234375 
Q 6.78125 9.90625 6.78125 20.515625 
Q 6.78125 27.484375 10.78125 32.3125 
Q 14.796875 37.15625 21.921875 38.8125 
z
M 18.3125 54.390625 
Q 18.3125 48.734375 21.84375 45.5625 
Q 25.390625 42.390625 31.78125 42.390625 
Q 38.140625 42.390625 41.71875 45.5625 
Q 45.3125 48.734375 45.3125 54.390625 
Q 45.3125 60.0625 41.71875 63.234375 
Q 38.140625 66.40625 31.78125 66.40625 
Q 25.390625 66.40625 21.84375 63.234375 
Q 18.3125 60.0625 18.3125 54.390625 
z
" id="DejaVuSans-56"/>
      </defs>
      <g transform="translate(335.344438 322.182437)scale(0.1 -0.1)">
       <use xlink:href="#DejaVuSans-48"/>
       <use x="63.623047" xlink:href="#DejaVuSans-46"/>
       <use x="95.410156" xlink:href="#DejaVuSans-56"/>
      </g>
     </g>
    </g>
    <g id="xtick_6">
     <g id="line2d_6">
      <g>
       <use style="stroke:#000000;stroke-width:0.8;" x="414.72" xlink:href="#md6774fe0ca" y="307.584"/>
      </g>
     </g>
     <g id="text_6">
      <!-- 1.0 -->
      <defs>
       <path d="M 12.40625 8.296875 
L 28.515625 8.296875 
L 28.515625 63.921875 
L 10.984375 60.40625 
L 10.984375 69.390625 
L 28.421875 72.90625 
L 38.28125 72.90625 
L 38.28125 8.296875 
L 54.390625 8.296875 
L 54.390625 0 
L 12.40625 0 
z
" id="DejaVuSans-49"/>
      </defs>
      <g transform="translate(406.768438 322.182437)scale(0.1 -0.1)">
       <use xlink:href="#DejaVuSans-49"/>
       <use x="63.623047" xlink:href="#DejaVuSans-46"/>
       <use x="95.410156" xlink:href="#DejaVuSans-48"/>
      </g>
     </g>
    </g>
    <g id="text_7">
     <!-- Recall -->
     <defs>
      <path d="M 44.390625 34.1875 
Q 47.5625 33.109375 50.5625 29.59375 
Q 53.5625 26.078125 56.59375 19.921875 
L 66.609375 0 
L 56 0 
L 46.6875 18.703125 
Q 43.0625 26.03125 39.671875 28.421875 
Q 36.28125 30.8125 30.421875 30.8125 
L 19.671875 30.8125 
L 19.671875 0 
L 9.8125 0 
L 9.8125 72.90625 
L 32.078125 72.90625 
Q 44.578125 72.90625 50.734375 67.671875 
Q 56.890625 62.453125 56.890625 51.90625 
Q 56.890625 45.015625 53.6875 40.46875 
Q 50.484375 35.9375 44.390625 34.1875 
z
M 19.671875 64.796875 
L 19.671875 38.921875 
L 32.078125 38.921875 
Q 39.203125 38.921875 42.84375 42.21875 
Q 46.484375 45.515625 46.484375 51.90625 
Q 46.484375 58.296875 42.84375 61.546875 
Q 39.203125 64.796875 32.078125 64.796875 
z
" id="DejaVuSans-82"/>
      <path d="M 56.203125 29.59375 
L 56.203125 25.203125 
L 14.890625 25.203125 
Q 15.484375 15.921875 20.484375 11.0625 
Q 25.484375 6.203125 34.421875 6.203125 
Q 39.59375 6.203125 44.453125 7.46875 
Q 49.3125 8.734375 54.109375 11.28125 
L 54.109375 2.78125 
Q 49.265625 0.734375 44.1875 -0.34375 
Q 39.109375 -1.421875 33.890625 -1.421875 
Q 20.796875 -1.421875 13.15625 6.1875 
Q 5.515625 13.8125 5.515625 26.8125 
Q 5.515625 40.234375 12.765625 48.109375 
Q 20.015625 56 32.328125 56 
Q 43.359375 56 49.78125 48.890625 
Q 56.203125 41.796875 56.203125 29.59375 
z
M 47.21875 32.234375 
Q 47.125 39.59375 43.09375 43.984375 
Q 39.0625 48.390625 32.421875 48.390625 
Q 24.90625 48.390625 20.390625 44.140625 
Q 15.875 39.890625 15.1875 32.171875 
z
" id="DejaVuSans-101"/>
      <path d="M 48.78125 52.59375 
L 48.78125 44.1875 
Q 44.96875 46.296875 41.140625 47.34375 
Q 37.3125 48.390625 33.40625 48.390625 
Q 24.65625 48.390625 19.8125 42.84375 
Q 14.984375 37.3125 14.984375 27.296875 
Q 14.984375 17.28125 19.8125 11.734375 
Q 24.65625 6.203125 33.40625 6.203125 
Q 37.3125 6.203125 41.140625 7.25 
Q 44.96875 8.296875 48.78125 10.40625 
L 48.78125 2.09375 
Q 45.015625 0.34375 40.984375 -0.53125 
Q 36.96875 -1.421875 32.421875 -1.421875 
Q 20.0625 -1.421875 12.78125 6.34375 
Q 5.515625 14.109375 5.515625 27.296875 
Q 5.515625 40.671875 12.859375 48.328125 
Q 20.21875 56 33.015625 56 
Q 37.15625 56 41.109375 55.140625 
Q 45.0625 54.296875 48.78125 52.59375 
z
" id="DejaVuSans-99"/>
      <path d="M 34.28125 27.484375 
Q 23.390625 27.484375 19.1875 25 
Q 14.984375 22.515625 14.984375 16.5 
Q 14.984375 11.71875 18.140625 8.90625 
Q 21.296875 6.109375 26.703125 6.109375 
Q 34.1875 6.109375 38.703125 11.40625 
Q 43.21875 16.703125 43.21875 25.484375 
L 43.21875 27.484375 
z
M 52.203125 31.203125 
L 52.203125 0 
L 43.21875 0 
L 43.21875 8.296875 
Q 40.140625 3.328125 35.546875 0.953125 
Q 30.953125 -1.421875 24.3125 -1.421875 
Q 15.921875 -1.421875 10.953125 3.296875 
Q 6 8.015625 6 15.921875 
Q 6 25.140625 12.171875 29.828125 
Q 18.359375 34.515625 30.609375 34.515625 
L 43.21875 34.515625 
L 43.21875 35.40625 
Q 43.21875 41.609375 39.140625 45 
Q 35.0625 48.390625 27.6875 48.390625 
Q 23 48.390625 18.546875 47.265625 
Q 14.109375 46.140625 10.015625 43.890625 
L 10.015625 52.203125 
Q 14.9375 54.109375 19.578125 55.046875 
Q 24.21875 56 28.609375 56 
Q 40.484375 56 46.34375 49.84375 
Q 52.203125 43.703125 52.203125 31.203125 
z
" id="DejaVuSans-97"/>
      <path d="M 9.421875 75.984375 
L 18.40625 75.984375 
L 18.40625 0 
L 9.421875 0 
z
" id="DejaVuSans-108"/>
     </defs>
     <g transform="translate(221.020938 335.860562)scale(0.1 -0.1)">
      <use xlink:href="#DejaVuSans-82"/>
      <use x="69.419922" xlink:href="#DejaVuSans-101"/>
      <use x="130.943359" xlink:href="#DejaVuSans-99"/>
      <use x="185.923828" xlink:href="#DejaVuSans-97"/>
      <use x="247.203125" xlink:href="#DejaVuSans-108"/>
      <use x="274.986328" xlink:href="#DejaVuSans-108"/>
     </g>
    </g>
   </g>
   <g id="matplotlib.axis_2">
    <g id="ytick_1">
     <g id="line2d_7">
      <defs>
       <path d="M 0 0 
L -3.5 0 
" id="m2d33e42048" style="stroke:#000000;stroke-width:0.8;"/>
      </defs>
      <g>
       <use style="stroke:#000000;stroke-width:0.8;" x="57.6" xlink:href="#m2d33e42048" y="307.584"/>
      </g>
     </g>
     <g id="text_8">
      <!-- 0.0 -->
      <g transform="translate(34.696875 311.383219)scale(0.1 -0.1)">
       <use xlink:href="#DejaVuSans-48"/>
       <use x="63.623047" xlink:href="#DejaVuSans-46"/>
       <use x="95.410156" xlink:href="#DejaVuSans-48"/>
      </g>
     </g>
    </g>
    <g id="ytick_2">
     <g id="line2d_8">
      <g>
       <use style="stroke:#000000;stroke-width:0.8;" x="57.6" xlink:href="#m2d33e42048" y="256.896"/>
      </g>
     </g>
     <g id="text_9">
      <!-- 0.2 -->
      <g transform="translate(34.696875 260.695219)scale(0.1 -0.1)">
       <use xlink:href="#DejaVuSans-48"/>
       <use x="63.623047" xlink:href="#DejaVuSans-46"/>
       <use x="95.410156" xlink:href="#DejaVuSans-50"/>
      </g>
     </g>
    </g>
    <g id="ytick_3">
     <g id="line2d_9">
      <g>
       <use style="stroke:#000000;stroke-width:0.8;" x="57.6" xlink:href="#m2d33e42048" y="206.208"/>
      </g>
     </g>
     <g id="text_10">
      <!-- 0.4 -->
      <g transform="translate(34.696875 210.007219)scale(0.1 -0.1)">
       <use xlink:href="#DejaVuSans-48"/>
       <use x="63.623047" xlink:href="#DejaVuSans-46"/>
       <use x="95.410156" xlink:href="#DejaVuSans-52"/>
      </g>
     </g>
    </g>
    <g id="ytick_4">
     <g id="line2d_10">
      <g>
       <use style="stroke:#000000;stroke-width:0.8;" x="57.6" xlink:href="#m2d33e42048" y="155.52"/>
      </g>
     </g>
     <g id="text_11">
      <!-- 0.6 -->
      <g transform="translate(34.696875 159.319219)scale(0.1 -0.1)">
       <use xlink:href="#DejaVuSans-48"/>
       <use x="63.623047" xlink:href="#DejaVuSans-46"/>
       <use x="95.410156" xlink:href="#DejaVuSans-54"/>
      </g>
     </g>
    </g>
    <g id="ytick_5">
     <g id="line2d_11">
      <g>
       <use style="stroke:#000000;stroke-width:0.8;" x="57.6" xlink:href="#m2d33e42048" y="104.832"/>
      </g>
     </g>
     <g id="text_12">
      <!-- 0.8 -->
      <g transform="translate(34.696875 108.631219)scale(0.1 -0.1)">
       <use xlink:href="#DejaVuSans-48"/>
       <use x="63.623047" xlink:href="#DejaVuSans-46"/>
       <use x="95.410156" xlink:href="#DejaVuSans-56"/>
      </g>
     </g>
    </g>
    <g id="ytick_6">
     <g id="line2d_12">
      <g>
       <use style="stroke:#000000;stroke-width:0.8;" x="57.6" xlink:href="#m2d33e42048" y="54.144"/>
      </g>
     </g>
     <g id="text_13">
      <!-- 1.0 -->
      <g transform="translate(34.696875 57.943219)scale(0.1 -0.1)">
       <use xlink:href="#DejaVuSans-49"/>
       <use x="63.623047" xlink:href="#DejaVuSans-46"/>
       <use x="95.410156" xlink:href="#DejaVuSans-48"/>
      </g>
     </g>
    </g>
    <g id="text_14">
     <!-- Precision -->
     <defs>
      <path d="M 19.671875 64.796875 
L 19.671875 37.40625 
L 32.078125 37.40625 
Q 38.96875 37.40625 42.71875 40.96875 
Q 46.484375 44.53125 46.484375 51.125 
Q 46.484375 57.671875 42.71875 61.234375 
Q 38.96875 64.796875 32.078125 64.796875 
z
M 9.8125 72.90625 
L 32.078125 72.90625 
Q 44.34375 72.90625 50.609375 67.359375 
Q 56.890625 61.8125 56.890625 51.125 
Q 56.890625 40.328125 50.609375 34.8125 
Q 44.34375 29.296875 32.078125 29.296875 
L 19.671875 29.296875 
L 19.671875 0 
L 9.8125 0 
z
" id="DejaVuSans-80"/>
      <path d="M 41.109375 46.296875 
Q 39.59375 47.171875 37.8125 47.578125 
Q 36.03125 48 33.890625 48 
Q 26.265625 48 22.1875 43.046875 
Q 18.109375 38.09375 18.109375 28.8125 
L 18.109375 0 
L 9.078125 0 
L 9.078125 54.6875 
L 18.109375 54.6875 
L 18.109375 46.1875 
Q 20.953125 51.171875 25.484375 53.578125 
Q 30.03125 56 36.53125 56 
Q 37.453125 56 38.578125 55.875 
Q 39.703125 55.765625 41.0625 55.515625 
z
" id="DejaVuSans-114"/>
      <path d="M 9.421875 54.6875 
L 18.40625 54.6875 
L 18.40625 0 
L 9.421875 0 
z
M 9.421875 75.984375 
L 18.40625 75.984375 
L 18.40625 64.59375 
L 9.421875 64.59375 
z
" id="DejaVuSans-105"/>
      <path d="M 44.28125 53.078125 
L 44.28125 44.578125 
Q 40.484375 46.53125 36.375 47.5 
Q 32.28125 48.484375 27.875 48.484375 
Q 21.1875 48.484375 17.84375 46.4375 
Q 14.5 44.390625 14.5 40.28125 
Q 14.5 37.15625 16.890625 35.375 
Q 19.28125 33.59375 26.515625 31.984375 
L 29.59375 31.296875 
Q 39.15625 29.25 43.1875 25.515625 
Q 47.21875 21.78125 47.21875 15.09375 
Q 47.21875 7.46875 41.1875 3.015625 
Q 35.15625 -1.421875 24.609375 -1.421875 
Q 20.21875 -1.421875 15.453125 -0.5625 
Q 10.6875 0.296875 5.421875 2 
L 5.421875 11.28125 
Q 10.40625 8.6875 15.234375 7.390625 
Q 20.0625 6.109375 24.8125 6.109375 
Q 31.15625 6.109375 34.5625 8.28125 
Q 37.984375 10.453125 37.984375 14.40625 
Q 37.984375 18.0625 35.515625 20.015625 
Q 33.0625 21.96875 24.703125 23.78125 
L 21.578125 24.515625 
Q 13.234375 26.265625 9.515625 29.90625 
Q 5.8125 33.546875 5.8125 39.890625 
Q 5.8125 47.609375 11.28125 51.796875 
Q 16.75 56 26.8125 56 
Q 31.78125 56 36.171875 55.265625 
Q 40.578125 54.546875 44.28125 53.078125 
z
" id="DejaVuSans-115"/>
      <path d="M 30.609375 48.390625 
Q 23.390625 48.390625 19.1875 42.75 
Q 14.984375 37.109375 14.984375 27.296875 
Q 14.984375 17.484375 19.15625 11.84375 
Q 23.34375 6.203125 30.609375 6.203125 
Q 37.796875 6.203125 41.984375 11.859375 
Q 46.1875 17.53125 46.1875 27.296875 
Q 46.1875 37.015625 41.984375 42.703125 
Q 37.796875 48.390625 30.609375 48.390625 
z
M 30.609375 56 
Q 42.328125 56 49.015625 48.375 
Q 55.71875 40.765625 55.71875 27.296875 
Q 55.71875 13.875 49.015625 6.21875 
Q 42.328125 -1.421875 30.609375 -1.421875 
Q 18.84375 -1.421875 12.171875 6.21875 
Q 5.515625 13.875 5.515625 27.296875 
Q 5.515625 40.765625 12.171875 48.375 
Q 18.84375 56 30.609375 56 
z
" id="DejaVuSans-111"/>
      <path d="M 54.890625 33.015625 
L 54.890625 0 
L 45.90625 0 
L 45.90625 32.71875 
Q 45.90625 40.484375 42.875 44.328125 
Q 39.84375 48.1875 33.796875 48.1875 
Q 26.515625 48.1875 22.3125 43.546875 
Q 18.109375 38.921875 18.109375 30.90625 
L 18.109375 0 
L 9.078125 0 
L 9.078125 54.6875 
L 18.109375 54.6875 
L 18.109375 46.1875 
Q 21.34375 51.125 25.703125 53.5625 
Q 30.078125 56 35.796875 56 
Q 45.21875 56 50.046875 50.171875 
Q 54.890625 44.34375 54.890625 33.015625 
z
" id="DejaVuSans-110"/>
     </defs>
     <g transform="translate(28.617187 197.032688)rotate(-90)scale(0.1 -0.1)">
      <use xlink:href="#DejaVuSans-80"/>
      <use x="60.287109" xlink:href="#DejaVuSans-114"/>
      <use x="101.369141" xlink:href="#DejaVuSans-101"/>
      <use x="162.892578" xlink:href="#DejaVuSans-99"/>
      <use x="217.873047" xlink:href="#DejaVuSans-105"/>
      <use x="245.65625" xlink:href="#DejaVuSans-115"/>
      <use x="297.755859" xlink:href="#DejaVuSans-105"/>
      <use x="325.539062" xlink:href="#DejaVuSans-111"/>
      <use x="386.720703" xlink:href="#DejaVuSans-110"/>
     </g>
    </g>
   </g>
   <g id="line2d_13">
    <path clip-path="url(#pc5763433ab)" d="M 414.72 233.807542 
L 402.956473 233.807542 
L 402.956473 231.199182 
L 401.844755 231.199182 
L 401.844755 230.46016 
L 401.01743 230.46016 
L 401.01743 230.336558 
L 400.371082 230.336558 
L 400.371082 230.081808 
L 399.207657 230.081808 
L 399.207657 229.783184 
L 398.483747 229.760286 
L 398.483747 229.63475 
L 397.940815 229.553714 
L 397.940815 229.518526 
L 396.260311 229.518526 
L 396.260311 229.13301 
L 393.416382 229.038123 
L 393.416382 228.903053 
L 391.451485 228.903053 
L 391.451485 228.661707 
L 390.598306 228.580482 
L 390.598306 228.291656 
L 382.971404 228.278803 
L 382.971404 224.687067 
L 378.989902 224.677628 
L 378.989902 222.96559 
L 376.120119 222.92174 
L 376.120119 222.591192 
L 372.42301 222.567692 
L 372.42301 222.293847 
L 367.329791 222.218326 
L 367.329791 221.900038 
L 366.967836 221.900038 
L 366.967836 221.777389 
L 364.7444 221.763428 
L 364.7444 221.117006 
L 360.064843 221.14355 
L 360.064843 220.488428 
L 357.427745 220.479596 
L 357.401891 220.020605 
L 356.60042 219.922597 
L 356.60042 219.781184 
L 355.488702 219.781184 
L 355.436994 219.420309 
L 353.135997 219.420309 
L 353.135997 219.204725 
L 350.11109 219.180277 
L 350.11109 218.38132 
L 349.697427 218.38132 
L 349.697427 218.265729 
L 346.284712 218.160275 
L 346.284712 218.154375 
L 345.328117 218.110517 
L 345.328117 218.006277 
L 340.105628 218.006277 
L 340.079774 216.698959 
L 338.502686 216.698959 
L 338.502686 215.762812 
L 333.331905 215.762812 
L 333.331905 214.651643 
L 332.297748 214.651643 
L 332.297748 214.401081 
L 330.487975 214.290176 
L 330.462121 214.049512 
L 323.481567 213.968544 
L 323.481567 213.208182 
L 322.654242 213.11029 
L 322.654242 213.074074 
L 322.57668 213.074228 
L 321.542524 213.06198 
L 321.542524 212.794692 
L 318.129808 212.692239 
L 318.129808 212.466127 
L 311.537062 212.378249 
L 311.537062 212.025932 
L 310.270221 212.025932 
L 310.270221 211.881781 
L 306.133596 211.837568 
L 306.133596 211.699915 
L 301.1955 211.699915 
L 301.1955 211.016883 
L 301.117938 211.035917 
L 298.972064 211.035917 
L 298.972064 210.659707 
L 290.233444 210.659707 
L 290.155882 209.726308 
L 288.68221 209.726308 
L 288.68221 209.508634 
L 278.909433 209.567788 
L 278.909433 209.852385 
L 278.211378 209.852385 
L 278.211378 209.710923 
L 276.194773 209.710923 
L 276.194773 209.495782 
L 274.436707 209.396631 
L 274.436707 209.349354 
L 272.13571 209.245634 
L 272.13571 209.205129 
L 268.128354 209.185427 
L 268.128354 208.777952 
L 267.068344 208.777952 
L 267.068344 208.516558 
L 262.67318 208.430616 
L 262.67318 207.827843 
L 261.587316 207.827843 
L 261.587316 207.65688 
L 255.304817 207.651274 
L 255.304817 207.472647 
L 255.020424 207.472647 
L 255.020424 207.352602 
L 253.753583 207.352602 
L 253.676021 206.803329 
L 251.142338 206.803329 
L 251.142338 206.397235 
L 248.37597 206.397235 
L 248.37597 206.089711 
L 243.954953 206.104349 
L 243.954953 205.767284 
L 242.584696 205.698146 
L 242.558842 205.482989 
L 226.219173 205.430549 
L 226.193319 204.722094 
L 223.090851 204.722094 
L 223.090851 204.445247 
L 217.997631 204.445247 
L 217.997631 203.52432 
L 213.861006 203.52432 
L 213.861006 203.202987 
L 211.663424 203.255064 
L 211.663424 202.952646 
L 201.942356 203.020168 
L 201.942356 202.803526 
L 199.899897 202.803526 
L 199.899897 202.670209 
L 197.960854 202.677321 
L 197.960854 202.879201 
L 195.892542 202.879201 
L 195.892542 202.380635 
L 191.161277 202.431896 
L 191.161277 202.624 
L 190.85103 202.624 
L 190.85103 202.285349 
L 186.817821 202.194532 
L 186.817821 202.158022 
L 185.783665 202.158022 
L 185.783665 201.04207 
L 183.379251 200.986826 
L 183.379251 200.887427 
L 177.27773 200.878202 
L 177.27773 200.081594 
L 175.49381 200.081594 
L 175.49381 199.444541 
L 170.06449 199.528949 
L 170.06449 199.573419 
L 168.564963 199.517582 
L 168.564963 199.284072 
L 167.685931 199.253111 
L 167.685931 199.148759 
L 166.341528 199.189112 
L 166.341528 198.81169 
L 161.093185 198.81169 
L 161.067331 199.752097 
L 159.852197 199.669541 
L 159.774635 199.104104 
L 154.552147 199.104104 
L 154.552147 198.580674 
L 150.544791 198.672262 
L 150.544791 198.232488 
L 150.182836 198.232488 
L 150.182836 198.01396 
L 148.890141 198.021596 
L 148.890141 197.80767 
L 148.08867 197.80767 
L 148.011108 197.363918 
L 143.59009 197.363918 
L 143.59009 197.740185 
L 141.909587 197.846069 
L 141.909587 197.520364 
L 138.574433 197.490262 
L 138.574433 197.840591 
L 137.385153 197.840591 
L 137.385153 197.597241 
L 135.135863 197.537684 
L 135.135863 197.429426 
L 128.724095 197.344176 
L 128.724095 197.317759 
L 127.819208 197.209747 
L 127.819208 197.131009 
L 126.345535 197.131009 
L 126.345535 197.470118 
L 125.828457 197.470118 
L 125.828457 197.052161 
L 119.15815 197.052161 
L 119.15815 197.667672 
L 119.15815 197.607576 
L 118.330825 197.607576 
L 118.330825 197.480327 
L 116.31422 197.480327 
L 116.31422 196.664316 
L 116.210804 196.688713 
L 114.168346 196.768528 
L 114.168346 196.188516 
L 99.250642 196.188516 
L 99.250642 201.174868 
L 97.389161 201.265785 
L 97.389161 200.664 
L 93.123266 200.664 
L 93.123266 202.728065 
L 93.071559 202.722818 
L 90.408606 202.722818 
L 90.408606 203.904 
L 89.477866 203.904 
L 89.400304 203.256289 
L 87.306138 203.200938 
L 87.306138 204.721916 
L 86.814913 204.721916 
L 86.737352 205.282109 
L 86.116858 205.261241 
L 86.116858 205.783446 
L 84.643185 205.783446 
L 84.643185 205.3873 
L 84.048546 205.3873 
L 84.048546 204.617709 
L 82.549019 204.617709 
L 82.549019 205.891859 
L 81.592425 205.891859 
L 81.489009 206.120153 
L 81.049493 206.230154 
L 81.049493 205.871575 
L 81.023639 205.938741 
L 80.273875 205.938741 
L 80.273875 205.720169 
L 79.911921 205.720169 
L 79.911921 206.325333 
L 79.730943 206.325333 
L 79.730943 205.732056 
L 79.11045 205.732056 
L 79.11045 206.256715 
L 78.231417 206.183418 
L 78.205563 203.195535 
L 78.076293 203.195535 
L 78.076293 202.821745 
L 77.481654 202.776977 
L 77.481654 203.306119 
L 70.061583 203.306119 
L 70.061583 218.417518 
L 69.130842 218.417518 
L 69.130842 220.028431 
L 69.05328 219.938473 
L 68.820595 220.039268 
L 68.820595 219.51918 
L 66.984968 219.51918 
L 66.984968 225.879986 
L 66.105935 225.879986 
L 66.028373 228.596008 
L 65.821542 228.596008 
L 65.821542 229.337476 
L 65.304464 229.386935 
L 65.252756 227.862172 
L 65.226902 227.962275 
L 64.942509 227.962275 
L 64.942509 228.48844 
L 64.787386 228.48844 
L 64.787386 228.773799 
L 64.658116 228.773799 
L 64.658116 229.138286 
L 64.606408 228.548051 
L 64.554701 228.677333 
L 64.244454 228.677333 
L 64.192746 231.011488 
L 64.141038 230.608826 
L 64.115184 230.608826 
L 64.011769 229.987556 
L 63.856645 229.987556 
L 63.804937 231.265807 
L 57.6 231.265807 
L 57.6 54.144 
L 57.6 54.144 
" style="fill:none;stroke:#0000ff;stroke-linecap:square;stroke-opacity:0.2;stroke-width:1.5;"/>
   </g>
   <g id="patch_3">
    <path d="M 57.6 307.584 
L 57.6 41.472 
" style="fill:none;stroke:#000000;stroke-linecap:square;stroke-linejoin:miter;stroke-width:0.8;"/>
   </g>
   <g id="patch_4">
    <path d="M 414.72 307.584 
L 414.72 41.472 
" style="fill:none;stroke:#000000;stroke-linecap:square;stroke-linejoin:miter;stroke-width:0.8;"/>
   </g>
   <g id="patch_5">
    <path d="M 57.6 307.584 
L 414.72 307.584 
" style="fill:none;stroke:#000000;stroke-linecap:square;stroke-linejoin:miter;stroke-width:0.8;"/>
   </g>
   <g id="patch_6">
    <path d="M 57.6 41.472 
L 414.72 41.472 
" style="fill:none;stroke:#000000;stroke-linecap:square;stroke-linejoin:miter;stroke-width:0.8;"/>
   </g>
   <g id="text_15">
    <!-- 2-class Precision-Recall curve -->
    <defs>
     <path d="M 4.890625 31.390625 
L 31.203125 31.390625 
L 31.203125 23.390625 
L 4.890625 23.390625 
z
" id="DejaVuSans-45"/>
     <path id="DejaVuSans-32"/>
     <path d="M 8.5 21.578125 
L 8.5 54.6875 
L 17.484375 54.6875 
L 17.484375 21.921875 
Q 17.484375 14.15625 20.5 10.265625 
Q 23.53125 6.390625 29.59375 6.390625 
Q 36.859375 6.390625 41.078125 11.03125 
Q 45.3125 15.671875 45.3125 23.6875 
L 45.3125 54.6875 
L 54.296875 54.6875 
L 54.296875 0 
L 45.3125 0 
L 45.3125 8.40625 
Q 42.046875 3.421875 37.71875 1 
Q 33.40625 -1.421875 27.6875 -1.421875 
Q 18.265625 -1.421875 13.375 4.4375 
Q 8.5 10.296875 8.5 21.578125 
z
M 31.109375 56 
z
" id="DejaVuSans-117"/>
     <path d="M 2.984375 54.6875 
L 12.5 54.6875 
L 29.59375 8.796875 
L 46.6875 54.6875 
L 56.203125 54.6875 
L 35.6875 0 
L 23.484375 0 
z
" id="DejaVuSans-118"/>
    </defs>
    <g transform="translate(147.321562 35.472)scale(0.12 -0.12)">
     <use xlink:href="#DejaVuSans-50"/>
     <use x="63.623047" xlink:href="#DejaVuSans-45"/>
     <use x="99.707031" xlink:href="#DejaVuSans-99"/>
     <use x="154.6875" xlink:href="#DejaVuSans-108"/>
     <use x="182.470703" xlink:href="#DejaVuSans-97"/>
     <use x="243.75" xlink:href="#DejaVuSans-115"/>
     <use x="295.849609" xlink:href="#DejaVuSans-115"/>
     <use x="347.949219" xlink:href="#DejaVuSans-32"/>
     <use x="379.736328" xlink:href="#DejaVuSans-80"/>
     <use x="440.023438" xlink:href="#DejaVuSans-114"/>
     <use x="481.105469" xlink:href="#DejaVuSans-101"/>
     <use x="542.628906" xlink:href="#DejaVuSans-99"/>
     <use x="597.609375" xlink:href="#DejaVuSans-105"/>
     <use x="625.392578" xlink:href="#DejaVuSans-115"/>
     <use x="677.492188" xlink:href="#DejaVuSans-105"/>
     <use x="705.275391" xlink:href="#DejaVuSans-111"/>
     <use x="766.457031" xlink:href="#DejaVuSans-110"/>
     <use x="829.835938" xlink:href="#DejaVuSans-45"/>
     <use x="865.919922" xlink:href="#DejaVuSans-82"/>
     <use x="935.339844" xlink:href="#DejaVuSans-101"/>
     <use x="996.863281" xlink:href="#DejaVuSans-99"/>
     <use x="1051.84375" xlink:href="#DejaVuSans-97"/>
     <use x="1113.123047" xlink:href="#DejaVuSans-108"/>
     <use x="1140.90625" xlink:href="#DejaVuSans-108"/>
     <use x="1168.689453" xlink:href="#DejaVuSans-32"/>
     <use x="1200.476562" xlink:href="#DejaVuSans-99"/>
     <use x="1255.457031" xlink:href="#DejaVuSans-117"/>
     <use x="1318.835938" xlink:href="#DejaVuSans-114"/>
     <use x="1359.949219" xlink:href="#DejaVuSans-118"/>
     <use x="1419.128906" xlink:href="#DejaVuSans-101"/>
    </g>
   </g>
  </g>
 </g>
 <defs>
  <clipPath id="pc5763433ab">
   <rect height="266.112" width="357.12" x="57.6" y="41.472"/>
  </clipPath>
 </defs>
</svg>
