<?xml version="1.0" encoding="utf-8" standalone="no"?>
<!DOCTYPE svg PUBLIC "-//W3C//DTD SVG 1.1//EN"
  "http://www.w3.org/Graphics/SVG/1.1/DTD/svg11.dtd">
<!-- Created with matplotlib (https://matplotlib.org/) -->
<svg height="345.6pt" version="1.1" viewBox="0 0 460.8 345.6" width="460.8pt" xmlns="http://www.w3.org/2000/svg" xmlns:xlink="http://www.w3.org/1999/xlink">
 <defs>
  <style type="text/css">
*{stroke-linecap:butt;stroke-linejoin:round;}
  </style>
 </defs>
 <g id="figure_1">
  <g id="patch_1">
   <path d="M 0 345.6 
L 460.8 345.6 
L 460.8 0 
L 0 0 
z
" style="fill:#ffffff;"/>
  </g>
  <g id="axes_1">
   <g id="patch_2">
    <path d="M 57.6 307.584 
L 414.72 307.584 
L 414.72 41.472 
L 57.6 41.472 
z
" style="fill:#ffffff;"/>
   </g>
   <g id="PolyCollection_1">
    <defs>
     <path d="M 414.72 -38.016 
L 414.72 -104.270455 
L 413.751565 -106.040971 
L 413.751565 -106.20221 
L 413.67409 -106.455745 
L 413.635353 -106.546951 
L 413.480404 -106.599855 
L 413.402929 -106.706324 
L 413.364191 -106.804396 
L 413.364191 -106.906193 
L 413.364191 -106.938832 
L 413.325454 -106.980338 
L 413.325454 -107.039653 
L 413.325454 -107.103171 
L 413.209242 -107.144215 
L 412.821868 -107.299472 
L 412.744393 -107.479017 
L 412.705656 -107.496366 
L 412.666918 -107.54701 
L 412.589444 -107.604739 
L 412.124595 -108.11007 
L 412.04712 -108.10958 
L 411.582271 -108.085428 
L 411.427322 -108.192765 
L 411.15616 -108.194298 
L 411.15616 -108.232643 
L 410.613837 -109.043423 
L 410.303938 -109.261522 
L 410.226463 -109.267871 
L 410.071513 -109.408544 
L 410.071513 -109.443925 
L 409.684139 -109.607129 
L 409.606664 -109.647031 
L 409.606664 -109.7117 
L 409.335503 -109.81741 
L 409.335503 -109.833096 
L 409.219291 -109.896855 
L 409.219291 -109.921569 
L 409.025604 -109.958416 
L 408.986866 -109.975254 
L 408.444543 -110.396604 
L 407.940957 -110.569538 
L 407.708532 -110.647852 
L 407.476108 -110.802737 
L 407.243684 -110.860933 
L 406.468936 -111.156021 
L 406.159037 -111.198925 
L 406.159037 -111.201273 
L 405.926612 -111.241772 
L 405.151865 -111.979624 
L 405.035652 -112.041576 
L 404.648279 -112.149765 
L 403.214995 -112.803223 
L 403.176258 -112.807209 
L 402.672672 -113.013293 
L 402.556459 -113.135265 
L 402.169086 -113.397154 
L 402.091611 -113.402892 
L 401.859186 -113.609935 
L 401.3556 -113.687295 
L 400.929489 -113.902443 
L 400.929489 -113.964023 
L 400.542115 -114.042847 
L 400.387166 -114.212465 
L 400.193479 -114.304192 
L 400.154741 -114.311146 
L 399.379993 -114.294394 
L 397.714286 -115.052635 
L 397.249437 -115.281713 
L 395.893628 -116.174469 
L 394.692769 -116.627117 
L 394.53782 -116.705981 
L 394.499082 -116.70817 
L 394.150446 -116.877313 
L 393.840547 -116.968704 
L 393.685597 -117.037255 
L 393.569385 -117.049695 
L 393.104536 -117.322447 
L 392.833375 -117.398886 
L 392.639688 -117.404742 
L 389.540696 -118.047226 
L 389.385747 -118.048209 
L 389.230797 -118.069863 
L 388.727211 -118.13157 
L 388.572262 -118.20677 
L 388.533524 -118.224117 
L 388.417312 -118.267301 
L 387.797514 -118.394114 
L 387.758776 -118.396647 
L 386.054331 -118.896641 
L 385.860644 -118.888517 
L 385.666957 -118.93526 
L 384.311149 -119.392364 
L 384.194937 -119.434711 
L 381.715744 -119.991123 
L 379.933824 -120.3939 
L 379.430238 -120.419707 
L 379.042864 -120.465724 
L 377.687055 -120.701463 
L 377.532105 -120.703879 
L 376.215034 -120.920232 
L 374.626801 -121.285218 
L 374.588064 -121.298448 
L 373.890791 -121.406594 
L 370.094527 -122.307918 
L 369.939577 -122.349569 
L 368.583768 -122.460937 
L 367.809021 -122.658069 
L 366.685636 -122.935908 
L 364.632555 -123.234286 
L 363.044322 -123.453127 
L 359.906593 -124.290624 
L 359.829118 -124.347596 
L 359.441744 -124.402898 
L 358.744471 -124.502219 
L 358.589522 -124.605957 
L 356.846339 -124.691403 
L 356.071591 -124.920993 
L 355.761692 -124.958447 
L 355.025682 -125.104808 
L 354.870732 -125.211631 
L 354.638308 -125.256883 
L 352.352802 -125.516565 
L 351.733004 -125.658662 
L 349.524972 -126.099929 
L 348.67275 -126.33974 
L 347.78179 -126.529173 
L 347.239466 -126.706952 
L 345.689971 -126.851994 
L 339.337039 -128.028165 
L 339.065877 -128.047047 
L 334.184966 -128.734484 
L 334.030016 -128.760999 
L 332.519258 -129.161418 
L 331.085975 -129.366712 
L 330.931025 -129.412946 
L 328.413095 -129.91429 
L 328.18067 -130.007187 
L 328.064458 -130.168801 
L 327.986983 -130.171199 
L 327.638347 -130.225303 
L 327.405923 -130.348336 
L 325.50779 -130.913554 
L 324.965467 -130.961955 
L 324.77178 -131.013216 
L 320.626879 -131.606994 
L 320.355718 -131.663302 
L 318.263898 -131.80678 
L 317.140514 -131.91381 
L 316.75314 -131.976299 
L 316.249554 -132.080418 
L 311.794754 -133.206503 
L 311.136219 -133.270669 
L 309.586723 -133.466857 
L 307.10753 -134.006065 
L 303.814852 -134.261721 
L 301.296922 -134.710223 
L 300.328487 -134.84272 
L 299.669951 -134.857541 
L 299.669951 -134.869386 
L 299.360052 -134.923183 
L 298.314143 -135.152629 
L 295.176414 -135.712261 
L 292.077423 -136.058585 
L 289.908129 -136.174078 
L 289.288331 -136.273901 
L 289.133381 -136.316511 
L 286.886612 -136.41622 
L 281.812014 -136.937756 
L 281.463378 -136.944049 
L 280.146307 -137.199433 
L 279.022922 -137.137659 
L 278.90671 -137.167046 
L 277.899538 -137.17756 
L 272.360091 -137.730098 
L 272.360091 -137.744253 
L 271.817768 -137.704683 
L 268.331403 -138.038751 
L 266.975594 -138.231319 
L 264.883775 -138.613689 
L 263.91534 -138.7715 
L 260.545187 -139.225861 
L 259.654227 -139.33761 
L 258.685792 -139.34125 
L 258.104732 -139.895888 
L 255.393114 -140.508051 
L 254.26973 -140.57577 
L 253.921093 -140.655757 
L 250.899577 -140.825983 
L 250.55094 -140.824424 
L 247.606899 -141.316914 
L 247.258262 -141.479874 
L 246.638464 -141.590843 
L 240.091845 -142.675523 
L 239.510784 -142.847696 
L 238.193713 -142.827255 
L 237.883814 -142.935922 
L 235.71452 -143.103665 
L 234.97851 -143.362928 
L 234.165024 -143.502213 
L 233.19659 -143.685934 
L 231.453407 -143.853789 
L 231.027296 -143.919573 
L 230.872346 -143.983201 
L 222.35012 -144.557496 
L 219.948402 -145.28393 
L 219.67724 -145.343223 
L 219.561028 -145.364054 
L 215.571077 -145.574364 
L 215.106228 -145.627429 
L 212.898197 -145.795883 
L 211.852288 -145.836308 
L 209.954156 -146.161765 
L 198.565363 -148.5467 
L 198.371676 -148.606893 
L 198.216726 -148.644571 
L 196.279857 -148.812825 
L 195.233947 -148.775203 
L 194.536674 -148.909724 
L 193.064653 -149.204017 
L 192.483593 -149.341606 
L 183.457781 -149.712495 
L 183.341568 -149.700257 
L 177.453485 -151.151675 
L 176.368838 -151.503227 
L 175.74904 -151.474388 
L 175.477878 -151.54727 
L 171.526664 -152.213493 
L 153.939889 -159.042359 
L 153.242616 -159.260596 
L 153.010192 -159.389269 
L 152.73903 -159.374674 
L 145.998724 -161.410512 
L 120.005936 -167.632457 
L 119.812249 -167.55917 
L 118.030329 -168.715636 
L 117.449268 -168.624672 
L 114.582701 -170.688683 
L 113.071943 -172.184606 
L 112.839518 -172.267649 
L 112.026033 -172.844928 
L 110.399063 -174.015496 
L 110.050426 -174.135699 
L 109.275678 -174.342194 
L 103.46507 -177.131883 
L 103.038959 -177.652036 
L 102.690322 -177.696 
L 101.993049 -177.718857 
L 101.799362 -177.579243 
L 101.5282 -177.734503 
L 101.257039 -178.304251 
L 101.218301 -178.386605 
L 99.978705 -179.045176 
L 99.90123 -179.14628 
L 98.11931 -178.353872 
L 96.802239 -180.110892 
L 96.221178 -180.370749 
L 95.523905 -180.858694 
L 79.602838 -191.648785 
L 75.729099 -191.855066 
L 75.070563 -194.165508 
L 74.683189 -193.897506 
L 74.489502 -193.649577 
L 73.792229 -193.578291 
L 72.513895 -200.911492 
L 71.274299 -202.170716 
L 71.080612 -201.951167 
L 70.9644 -201.755326 
L 70.305864 -205.613419 
L 69.647328 -207.157288 
L 69.337429 -207.910513 
L 69.02753 -216.027429 
L 68.911318 -215.911385 
L 68.523944 -218.496 
L 68.252782 -219.044571 
L 67.323085 -237.431172 
L 66.935711 -245.767837 
L 66.858236 -246.167753 
L 66.703287 -246.992842 
L 66.432125 -248.1408 
L 66.083488 -249.055392 
L 65.889801 -249.051642 
L 65.46369 -249.737481 
L 64.921367 -249.963611 
L 64.688942 -248.832 
L 64.340306 -252.08668 
L 63.759245 -250.105263 
L 63.488083 -249.680176 
L 57.6 -291.456 
L 57.6 -38.016 
L 57.6 -38.016 
L 63.488083 -38.016 
L 63.759245 -38.016 
L 64.340306 -38.016 
L 64.688942 -38.016 
L 64.921367 -38.016 
L 65.46369 -38.016 
L 65.889801 -38.016 
L 66.083488 -38.016 
L 66.432125 -38.016 
L 66.703287 -38.016 
L 66.858236 -38.016 
L 66.935711 -38.016 
L 67.323085 -38.016 
L 68.252782 -38.016 
L 68.523944 -38.016 
L 68.911318 -38.016 
L 69.02753 -38.016 
L 69.337429 -38.016 
L 69.647328 -38.016 
L 70.305864 -38.016 
L 70.9644 -38.016 
L 71.080612 -38.016 
L 71.274299 -38.016 
L 72.513895 -38.016 
L 73.792229 -38.016 
L 74.489502 -38.016 
L 74.683189 -38.016 
L 75.070563 -38.016 
L 75.729099 -38.016 
L 79.602838 -38.016 
L 95.523905 -38.016 
L 96.221178 -38.016 
L 96.802239 -38.016 
L 98.11931 -38.016 
L 99.90123 -38.016 
L 99.978705 -38.016 
L 101.218301 -38.016 
L 101.257039 -38.016 
L 101.5282 -38.016 
L 101.799362 -38.016 
L 101.993049 -38.016 
L 102.690322 -38.016 
L 103.038959 -38.016 
L 103.46507 -38.016 
L 109.275678 -38.016 
L 110.050426 -38.016 
L 110.399063 -38.016 
L 112.026033 -38.016 
L 112.839518 -38.016 
L 113.071943 -38.016 
L 114.582701 -38.016 
L 117.449268 -38.016 
L 118.030329 -38.016 
L 119.812249 -38.016 
L 120.005936 -38.016 
L 145.998724 -38.016 
L 152.73903 -38.016 
L 153.010192 -38.016 
L 153.242616 -38.016 
L 153.939889 -38.016 
L 171.526664 -38.016 
L 175.477878 -38.016 
L 175.74904 -38.016 
L 176.368838 -38.016 
L 177.453485 -38.016 
L 183.341568 -38.016 
L 183.457781 -38.016 
L 192.483593 -38.016 
L 193.064653 -38.016 
L 194.536674 -38.016 
L 195.233947 -38.016 
L 196.279857 -38.016 
L 198.216726 -38.016 
L 198.371676 -38.016 
L 198.565363 -38.016 
L 209.954156 -38.016 
L 211.852288 -38.016 
L 212.898197 -38.016 
L 215.106228 -38.016 
L 215.571077 -38.016 
L 219.561028 -38.016 
L 219.67724 -38.016 
L 219.948402 -38.016 
L 222.35012 -38.016 
L 230.872346 -38.016 
L 231.027296 -38.016 
L 231.453407 -38.016 
L 233.19659 -38.016 
L 234.165024 -38.016 
L 234.97851 -38.016 
L 235.71452 -38.016 
L 237.883814 -38.016 
L 238.193713 -38.016 
L 239.510784 -38.016 
L 240.091845 -38.016 
L 246.638464 -38.016 
L 247.258262 -38.016 
L 247.606899 -38.016 
L 250.55094 -38.016 
L 250.899577 -38.016 
L 253.921093 -38.016 
L 254.26973 -38.016 
L 255.393114 -38.016 
L 258.104732 -38.016 
L 258.685792 -38.016 
L 259.654227 -38.016 
L 260.545187 -38.016 
L 263.91534 -38.016 
L 264.883775 -38.016 
L 266.975594 -38.016 
L 268.331403 -38.016 
L 271.817768 -38.016 
L 272.360091 -38.016 
L 272.360091 -38.016 
L 277.899538 -38.016 
L 278.90671 -38.016 
L 279.022922 -38.016 
L 280.146307 -38.016 
L 281.463378 -38.016 
L 281.812014 -38.016 
L 286.886612 -38.016 
L 289.133381 -38.016 
L 289.288331 -38.016 
L 289.908129 -38.016 
L 292.077423 -38.016 
L 295.176414 -38.016 
L 298.314143 -38.016 
L 299.360052 -38.016 
L 299.669951 -38.016 
L 299.669951 -38.016 
L 300.328487 -38.016 
L 301.296922 -38.016 
L 303.814852 -38.016 
L 307.10753 -38.016 
L 309.586723 -38.016 
L 311.136219 -38.016 
L 311.794754 -38.016 
L 316.249554 -38.016 
L 316.75314 -38.016 
L 317.140514 -38.016 
L 318.263898 -38.016 
L 320.355718 -38.016 
L 320.626879 -38.016 
L 324.77178 -38.016 
L 324.965467 -38.016 
L 325.50779 -38.016 
L 327.405923 -38.016 
L 327.638347 -38.016 
L 327.986983 -38.016 
L 328.064458 -38.016 
L 328.18067 -38.016 
L 328.413095 -38.016 
L 330.931025 -38.016 
L 331.085975 -38.016 
L 332.519258 -38.016 
L 334.030016 -38.016 
L 334.184966 -38.016 
L 339.065877 -38.016 
L 339.337039 -38.016 
L 345.689971 -38.016 
L 347.239466 -38.016 
L 347.78179 -38.016 
L 348.67275 -38.016 
L 349.524972 -38.016 
L 351.733004 -38.016 
L 352.352802 -38.016 
L 354.638308 -38.016 
L 354.870732 -38.016 
L 355.025682 -38.016 
L 355.761692 -38.016 
L 356.071591 -38.016 
L 356.846339 -38.016 
L 358.589522 -38.016 
L 358.744471 -38.016 
L 359.441744 -38.016 
L 359.829118 -38.016 
L 359.906593 -38.016 
L 363.044322 -38.016 
L 364.632555 -38.016 
L 366.685636 -38.016 
L 367.809021 -38.016 
L 368.583768 -38.016 
L 369.939577 -38.016 
L 370.094527 -38.016 
L 373.890791 -38.016 
L 374.588064 -38.016 
L 374.626801 -38.016 
L 376.215034 -38.016 
L 377.532105 -38.016 
L 377.687055 -38.016 
L 379.042864 -38.016 
L 379.430238 -38.016 
L 379.933824 -38.016 
L 381.715744 -38.016 
L 384.194937 -38.016 
L 384.311149 -38.016 
L 385.666957 -38.016 
L 385.860644 -38.016 
L 386.054331 -38.016 
L 387.758776 -38.016 
L 387.797514 -38.016 
L 388.417312 -38.016 
L 388.533524 -38.016 
L 388.572262 -38.016 
L 388.727211 -38.016 
L 389.230797 -38.016 
L 389.385747 -38.016 
L 389.540696 -38.016 
L 392.639688 -38.016 
L 392.833375 -38.016 
L 393.104536 -38.016 
L 393.569385 -38.016 
L 393.685597 -38.016 
L 393.840547 -38.016 
L 394.150446 -38.016 
L 394.499082 -38.016 
L 394.53782 -38.016 
L 394.692769 -38.016 
L 395.893628 -38.016 
L 397.249437 -38.016 
L 397.714286 -38.016 
L 399.379993 -38.016 
L 400.154741 -38.016 
L 400.193479 -38.016 
L 400.387166 -38.016 
L 400.542115 -38.016 
L 400.929489 -38.016 
L 400.929489 -38.016 
L 401.3556 -38.016 
L 401.859186 -38.016 
L 402.091611 -38.016 
L 402.169086 -38.016 
L 402.556459 -38.016 
L 402.672672 -38.016 
L 403.176258 -38.016 
L 403.214995 -38.016 
L 404.648279 -38.016 
L 405.035652 -38.016 
L 405.151865 -38.016 
L 405.926612 -38.016 
L 406.159037 -38.016 
L 406.159037 -38.016 
L 406.468936 -38.016 
L 407.243684 -38.016 
L 407.476108 -38.016 
L 407.708532 -38.016 
L 407.940957 -38.016 
L 408.444543 -38.016 
L 408.986866 -38.016 
L 409.025604 -38.016 
L 409.219291 -38.016 
L 409.219291 -38.016 
L 409.335503 -38.016 
L 409.335503 -38.016 
L 409.606664 -38.016 
L 409.606664 -38.016 
L 409.684139 -38.016 
L 410.071513 -38.016 
L 410.071513 -38.016 
L 410.226463 -38.016 
L 410.303938 -38.016 
L 410.613837 -38.016 
L 411.15616 -38.016 
L 411.15616 -38.016 
L 411.427322 -38.016 
L 411.582271 -38.016 
L 412.04712 -38.016 
L 412.124595 -38.016 
L 412.589444 -38.016 
L 412.666918 -38.016 
L 412.705656 -38.016 
L 412.744393 -38.016 
L 412.821868 -38.016 
L 413.209242 -38.016 
L 413.325454 -38.016 
L 413.325454 -38.016 
L 413.325454 -38.016 
L 413.364191 -38.016 
L 413.364191 -38.016 
L 413.364191 -38.016 
L 413.402929 -38.016 
L 413.480404 -38.016 
L 413.635353 -38.016 
L 413.67409 -38.016 
L 413.751565 -38.016 
L 413.751565 -38.016 
L 414.72 -38.016 
z
" id="mb76e263bdd" style="stroke:#0000ff;stroke-opacity:0.2;"/>
    </defs>
    <g clip-path="url(#pf9737d5d58)">
     <use style="fill:#0000ff;fill-opacity:0.2;stroke:#0000ff;stroke-opacity:0.2;" x="0" xlink:href="#mb76e263bdd" y="345.6"/>
    </g>
   </g>
   <g id="matplotlib.axis_1">
    <g id="xtick_1">
     <g id="line2d_1">
      <defs>
       <path d="M 0 0 
L 0 3.5 
" id="m134bf82a21" style="stroke:#000000;stroke-width:0.8;"/>
      </defs>
      <g>
       <use style="stroke:#000000;stroke-width:0.8;" x="57.6" xlink:href="#m134bf82a21" y="307.584"/>
      </g>
     </g>
     <g id="text_1">
      <!-- 0.0 -->
      <defs>
       <path d="M 31.78125 66.40625 
Q 24.171875 66.40625 20.328125 58.90625 
Q 16.5 51.421875 16.5 36.375 
Q 16.5 21.390625 20.328125 13.890625 
Q 24.171875 6.390625 31.78125 6.390625 
Q 39.453125 6.390625 43.28125 13.890625 
Q 47.125 21.390625 47.125 36.375 
Q 47.125 51.421875 43.28125 58.90625 
Q 39.453125 66.40625 31.78125 66.40625 
z
M 31.78125 74.21875 
Q 44.046875 74.21875 50.515625 64.515625 
Q 56.984375 54.828125 56.984375 36.375 
Q 56.984375 17.96875 50.515625 8.265625 
Q 44.046875 -1.421875 31.78125 -1.421875 
Q 19.53125 -1.421875 13.0625 8.265625 
Q 6.59375 17.96875 6.59375 36.375 
Q 6.59375 54.828125 13.0625 64.515625 
Q 19.53125 74.21875 31.78125 74.21875 
z
" id="DejaVuSans-48"/>
       <path d="M 10.6875 12.40625 
L 21 12.40625 
L 21 0 
L 10.6875 0 
z
" id="DejaVuSans-46"/>
      </defs>
      <g transform="translate(49.648438 322.182437)scale(0.1 -0.1)">
       <use xlink:href="#DejaVuSans-48"/>
       <use x="63.623047" xlink:href="#DejaVuSans-46"/>
       <use x="95.410156" xlink:href="#DejaVuSans-48"/>
      </g>
     </g>
    </g>
    <g id="xtick_2">
     <g id="line2d_2">
      <g>
       <use style="stroke:#000000;stroke-width:0.8;" x="129.024" xlink:href="#m134bf82a21" y="307.584"/>
      </g>
     </g>
     <g id="text_2">
      <!-- 0.2 -->
      <defs>
       <path d="M 19.1875 8.296875 
L 53.609375 8.296875 
L 53.609375 0 
L 7.328125 0 
L 7.328125 8.296875 
Q 12.9375 14.109375 22.625 23.890625 
Q 32.328125 33.6875 34.8125 36.53125 
Q 39.546875 41.84375 41.421875 45.53125 
Q 43.3125 49.21875 43.3125 52.78125 
Q 43.3125 58.59375 39.234375 62.25 
Q 35.15625 65.921875 28.609375 65.921875 
Q 23.96875 65.921875 18.8125 64.3125 
Q 13.671875 62.703125 7.8125 59.421875 
L 7.8125 69.390625 
Q 13.765625 71.78125 18.9375 73 
Q 24.125 74.21875 28.421875 74.21875 
Q 39.75 74.21875 46.484375 68.546875 
Q 53.21875 62.890625 53.21875 53.421875 
Q 53.21875 48.921875 51.53125 44.890625 
Q 49.859375 40.875 45.40625 35.40625 
Q 44.1875 33.984375 37.640625 27.21875 
Q 31.109375 20.453125 19.1875 8.296875 
z
" id="DejaVuSans-50"/>
      </defs>
      <g transform="translate(121.072438 322.182437)scale(0.1 -0.1)">
       <use xlink:href="#DejaVuSans-48"/>
       <use x="63.623047" xlink:href="#DejaVuSans-46"/>
       <use x="95.410156" xlink:href="#DejaVuSans-50"/>
      </g>
     </g>
    </g>
    <g id="xtick_3">
     <g id="line2d_3">
      <g>
       <use style="stroke:#000000;stroke-width:0.8;" x="200.448" xlink:href="#m134bf82a21" y="307.584"/>
      </g>
     </g>
     <g id="text_3">
      <!-- 0.4 -->
      <defs>
       <path d="M 37.796875 64.3125 
L 12.890625 25.390625 
L 37.796875 25.390625 
z
M 35.203125 72.90625 
L 47.609375 72.90625 
L 47.609375 25.390625 
L 58.015625 25.390625 
L 58.015625 17.1875 
L 47.609375 17.1875 
L 47.609375 0 
L 37.796875 0 
L 37.796875 17.1875 
L 4.890625 17.1875 
L 4.890625 26.703125 
z
" id="DejaVuSans-52"/>
      </defs>
      <g transform="translate(192.496438 322.182437)scale(0.1 -0.1)">
       <use xlink:href="#DejaVuSans-48"/>
       <use x="63.623047" xlink:href="#DejaVuSans-46"/>
       <use x="95.410156" xlink:href="#DejaVuSans-52"/>
      </g>
     </g>
    </g>
    <g id="xtick_4">
     <g id="line2d_4">
      <g>
       <use style="stroke:#000000;stroke-width:0.8;" x="271.872" xlink:href="#m134bf82a21" y="307.584"/>
      </g>
     </g>
     <g id="text_4">
      <!-- 0.6 -->
      <defs>
       <path d="M 33.015625 40.375 
Q 26.375 40.375 22.484375 35.828125 
Q 18.609375 31.296875 18.609375 23.390625 
Q 18.609375 15.53125 22.484375 10.953125 
Q 26.375 6.390625 33.015625 6.390625 
Q 39.65625 6.390625 43.53125 10.953125 
Q 47.40625 15.53125 47.40625 23.390625 
Q 47.40625 31.296875 43.53125 35.828125 
Q 39.65625 40.375 33.015625 40.375 
z
M 52.59375 71.296875 
L 52.59375 62.3125 
Q 48.875 64.0625 45.09375 64.984375 
Q 41.3125 65.921875 37.59375 65.921875 
Q 27.828125 65.921875 22.671875 59.328125 
Q 17.53125 52.734375 16.796875 39.40625 
Q 19.671875 43.65625 24.015625 45.921875 
Q 28.375 48.1875 33.59375 48.1875 
Q 44.578125 48.1875 50.953125 41.515625 
Q 57.328125 34.859375 57.328125 23.390625 
Q 57.328125 12.15625 50.6875 5.359375 
Q 44.046875 -1.421875 33.015625 -1.421875 
Q 20.359375 -1.421875 13.671875 8.265625 
Q 6.984375 17.96875 6.984375 36.375 
Q 6.984375 53.65625 15.1875 63.9375 
Q 23.390625 74.21875 37.203125 74.21875 
Q 40.921875 74.21875 44.703125 73.484375 
Q 48.484375 72.75 52.59375 71.296875 
z
" id="DejaVuSans-54"/>
      </defs>
      <g transform="translate(263.920438 322.182437)scale(0.1 -0.1)">
       <use xlink:href="#DejaVuSans-48"/>
       <use x="63.623047" xlink:href="#DejaVuSans-46"/>
       <use x="95.410156" xlink:href="#DejaVuSans-54"/>
      </g>
     </g>
    </g>
    <g id="xtick_5">
     <g id="line2d_5">
      <g>
       <use style="stroke:#000000;stroke-width:0.8;" x="343.296" xlink:href="#m134bf82a21" y="307.584"/>
      </g>
     </g>
     <g id="text_5">
      <!-- 0.8 -->
      <defs>
       <path d="M 31.78125 34.625 
Q 24.75 34.625 20.71875 30.859375 
Q 16.703125 27.09375 16.703125 20.515625 
Q 16.703125 13.921875 20.71875 10.15625 
Q 24.75 6.390625 31.78125 6.390625 
Q 38.8125 6.390625 42.859375 10.171875 
Q 46.921875 13.96875 46.921875 20.515625 
Q 46.921875 27.09375 42.890625 30.859375 
Q 38.875 34.625 31.78125 34.625 
z
M 21.921875 38.8125 
Q 15.578125 40.375 12.03125 44.71875 
Q 8.5 49.078125 8.5 55.328125 
Q 8.5 64.0625 14.71875 69.140625 
Q 20.953125 74.21875 31.78125 74.21875 
Q 42.671875 74.21875 48.875 69.140625 
Q 55.078125 64.0625 55.078125 55.328125 
Q 55.078125 49.078125 51.53125 44.71875 
Q 48 40.375 41.703125 38.8125 
Q 48.828125 37.15625 52.796875 32.3125 
Q 56.78125 27.484375 56.78125 20.515625 
Q 56.78125 9.90625 50.3125 4.234375 
Q 43.84375 -1.421875 31.78125 -1.421875 
Q 19.734375 -1.421875 13.25 4.234375 
Q 6.78125 9.90625 6.78125 20.515625 
Q 6.78125 27.484375 10.78125 32.3125 
Q 14.796875 37.15625 21.921875 38.8125 
z
M 18.3125 54.390625 
Q 18.3125 48.734375 21.84375 45.5625 
Q 25.390625 42.390625 31.78125 42.390625 
Q 38.140625 42.390625 41.71875 45.5625 
Q 45.3125 48.734375 45.3125 54.390625 
Q 45.3125 60.0625 41.71875 63.234375 
Q 38.140625 66.40625 31.78125 66.40625 
Q 25.390625 66.40625 21.84375 63.234375 
Q 18.3125 60.0625 18.3125 54.390625 
z
" id="DejaVuSans-56"/>
      </defs>
      <g transform="translate(335.344438 322.182437)scale(0.1 -0.1)">
       <use xlink:href="#DejaVuSans-48"/>
       <use x="63.623047" xlink:href="#DejaVuSans-46"/>
       <use x="95.410156" xlink:href="#DejaVuSans-56"/>
      </g>
     </g>
    </g>
    <g id="xtick_6">
     <g id="line2d_6">
      <g>
       <use style="stroke:#000000;stroke-width:0.8;" x="414.72" xlink:href="#m134bf82a21" y="307.584"/>
      </g>
     </g>
     <g id="text_6">
      <!-- 1.0 -->
      <defs>
       <path d="M 12.40625 8.296875 
L 28.515625 8.296875 
L 28.515625 63.921875 
L 10.984375 60.40625 
L 10.984375 69.390625 
L 28.421875 72.90625 
L 38.28125 72.90625 
L 38.28125 8.296875 
L 54.390625 8.296875 
L 54.390625 0 
L 12.40625 0 
z
" id="DejaVuSans-49"/>
      </defs>
      <g transform="translate(406.768438 322.182437)scale(0.1 -0.1)">
       <use xlink:href="#DejaVuSans-49"/>
       <use x="63.623047" xlink:href="#DejaVuSans-46"/>
       <use x="95.410156" xlink:href="#DejaVuSans-48"/>
      </g>
     </g>
    </g>
    <g id="text_7">
     <!-- Recall -->
     <defs>
      <path d="M 44.390625 34.1875 
Q 47.5625 33.109375 50.5625 29.59375 
Q 53.5625 26.078125 56.59375 19.921875 
L 66.609375 0 
L 56 0 
L 46.6875 18.703125 
Q 43.0625 26.03125 39.671875 28.421875 
Q 36.28125 30.8125 30.421875 30.8125 
L 19.671875 30.8125 
L 19.671875 0 
L 9.8125 0 
L 9.8125 72.90625 
L 32.078125 72.90625 
Q 44.578125 72.90625 50.734375 67.671875 
Q 56.890625 62.453125 56.890625 51.90625 
Q 56.890625 45.015625 53.6875 40.46875 
Q 50.484375 35.9375 44.390625 34.1875 
z
M 19.671875 64.796875 
L 19.671875 38.921875 
L 32.078125 38.921875 
Q 39.203125 38.921875 42.84375 42.21875 
Q 46.484375 45.515625 46.484375 51.90625 
Q 46.484375 58.296875 42.84375 61.546875 
Q 39.203125 64.796875 32.078125 64.796875 
z
" id="DejaVuSans-82"/>
      <path d="M 56.203125 29.59375 
L 56.203125 25.203125 
L 14.890625 25.203125 
Q 15.484375 15.921875 20.484375 11.0625 
Q 25.484375 6.203125 34.421875 6.203125 
Q 39.59375 6.203125 44.453125 7.46875 
Q 49.3125 8.734375 54.109375 11.28125 
L 54.109375 2.78125 
Q 49.265625 0.734375 44.1875 -0.34375 
Q 39.109375 -1.421875 33.890625 -1.421875 
Q 20.796875 -1.421875 13.15625 6.1875 
Q 5.515625 13.8125 5.515625 26.8125 
Q 5.515625 40.234375 12.765625 48.109375 
Q 20.015625 56 32.328125 56 
Q 43.359375 56 49.78125 48.890625 
Q 56.203125 41.796875 56.203125 29.59375 
z
M 47.21875 32.234375 
Q 47.125 39.59375 43.09375 43.984375 
Q 39.0625 48.390625 32.421875 48.390625 
Q 24.90625 48.390625 20.390625 44.140625 
Q 15.875 39.890625 15.1875 32.171875 
z
" id="DejaVuSans-101"/>
      <path d="M 48.78125 52.59375 
L 48.78125 44.1875 
Q 44.96875 46.296875 41.140625 47.34375 
Q 37.3125 48.390625 33.40625 48.390625 
Q 24.65625 48.390625 19.8125 42.84375 
Q 14.984375 37.3125 14.984375 27.296875 
Q 14.984375 17.28125 19.8125 11.734375 
Q 24.65625 6.203125 33.40625 6.203125 
Q 37.3125 6.203125 41.140625 7.25 
Q 44.96875 8.296875 48.78125 10.40625 
L 48.78125 2.09375 
Q 45.015625 0.34375 40.984375 -0.53125 
Q 36.96875 -1.421875 32.421875 -1.421875 
Q 20.0625 -1.421875 12.78125 6.34375 
Q 5.515625 14.109375 5.515625 27.296875 
Q 5.515625 40.671875 12.859375 48.328125 
Q 20.21875 56 33.015625 56 
Q 37.15625 56 41.109375 55.140625 
Q 45.0625 54.296875 48.78125 52.59375 
z
" id="DejaVuSans-99"/>
      <path d="M 34.28125 27.484375 
Q 23.390625 27.484375 19.1875 25 
Q 14.984375 22.515625 14.984375 16.5 
Q 14.984375 11.71875 18.140625 8.90625 
Q 21.296875 6.109375 26.703125 6.109375 
Q 34.1875 6.109375 38.703125 11.40625 
Q 43.21875 16.703125 43.21875 25.484375 
L 43.21875 27.484375 
z
M 52.203125 31.203125 
L 52.203125 0 
L 43.21875 0 
L 43.21875 8.296875 
Q 40.140625 3.328125 35.546875 0.953125 
Q 30.953125 -1.421875 24.3125 -1.421875 
Q 15.921875 -1.421875 10.953125 3.296875 
Q 6 8.015625 6 15.921875 
Q 6 25.140625 12.171875 29.828125 
Q 18.359375 34.515625 30.609375 34.515625 
L 43.21875 34.515625 
L 43.21875 35.40625 
Q 43.21875 41.609375 39.140625 45 
Q 35.0625 48.390625 27.6875 48.390625 
Q 23 48.390625 18.546875 47.265625 
Q 14.109375 46.140625 10.015625 43.890625 
L 10.015625 52.203125 
Q 14.9375 54.109375 19.578125 55.046875 
Q 24.21875 56 28.609375 56 
Q 40.484375 56 46.34375 49.84375 
Q 52.203125 43.703125 52.203125 31.203125 
z
" id="DejaVuSans-97"/>
      <path d="M 9.421875 75.984375 
L 18.40625 75.984375 
L 18.40625 0 
L 9.421875 0 
z
" id="DejaVuSans-108"/>
     </defs>
     <g transform="translate(221.020938 335.860562)scale(0.1 -0.1)">
      <use xlink:href="#DejaVuSans-82"/>
      <use x="69.419922" xlink:href="#DejaVuSans-101"/>
      <use x="130.943359" xlink:href="#DejaVuSans-99"/>
      <use x="185.923828" xlink:href="#DejaVuSans-97"/>
      <use x="247.203125" xlink:href="#DejaVuSans-108"/>
      <use x="274.986328" xlink:href="#DejaVuSans-108"/>
     </g>
    </g>
   </g>
   <g id="matplotlib.axis_2">
    <g id="ytick_1">
     <g id="line2d_7">
      <defs>
       <path d="M 0 0 
L -3.5 0 
" id="m13782ea58a" style="stroke:#000000;stroke-width:0.8;"/>
      </defs>
      <g>
       <use style="stroke:#000000;stroke-width:0.8;" x="57.6" xlink:href="#m13782ea58a" y="307.584"/>
      </g>
     </g>
     <g id="text_8">
      <!-- 0.0 -->
      <g transform="translate(34.696875 311.383219)scale(0.1 -0.1)">
       <use xlink:href="#DejaVuSans-48"/>
       <use x="63.623047" xlink:href="#DejaVuSans-46"/>
       <use x="95.410156" xlink:href="#DejaVuSans-48"/>
      </g>
     </g>
    </g>
    <g id="ytick_2">
     <g id="line2d_8">
      <g>
       <use style="stroke:#000000;stroke-width:0.8;" x="57.6" xlink:href="#m13782ea58a" y="256.896"/>
      </g>
     </g>
     <g id="text_9">
      <!-- 0.2 -->
      <g transform="translate(34.696875 260.695219)scale(0.1 -0.1)">
       <use xlink:href="#DejaVuSans-48"/>
       <use x="63.623047" xlink:href="#DejaVuSans-46"/>
       <use x="95.410156" xlink:href="#DejaVuSans-50"/>
      </g>
     </g>
    </g>
    <g id="ytick_3">
     <g id="line2d_9">
      <g>
       <use style="stroke:#000000;stroke-width:0.8;" x="57.6" xlink:href="#m13782ea58a" y="206.208"/>
      </g>
     </g>
     <g id="text_10">
      <!-- 0.4 -->
      <g transform="translate(34.696875 210.007219)scale(0.1 -0.1)">
       <use xlink:href="#DejaVuSans-48"/>
       <use x="63.623047" xlink:href="#DejaVuSans-46"/>
       <use x="95.410156" xlink:href="#DejaVuSans-52"/>
      </g>
     </g>
    </g>
    <g id="ytick_4">
     <g id="line2d_10">
      <g>
       <use style="stroke:#000000;stroke-width:0.8;" x="57.6" xlink:href="#m13782ea58a" y="155.52"/>
      </g>
     </g>
     <g id="text_11">
      <!-- 0.6 -->
      <g transform="translate(34.696875 159.319219)scale(0.1 -0.1)">
       <use xlink:href="#DejaVuSans-48"/>
       <use x="63.623047" xlink:href="#DejaVuSans-46"/>
       <use x="95.410156" xlink:href="#DejaVuSans-54"/>
      </g>
     </g>
    </g>
    <g id="ytick_5">
     <g id="line2d_11">
      <g>
       <use style="stroke:#000000;stroke-width:0.8;" x="57.6" xlink:href="#m13782ea58a" y="104.832"/>
      </g>
     </g>
     <g id="text_12">
      <!-- 0.8 -->
      <g transform="translate(34.696875 108.631219)scale(0.1 -0.1)">
       <use xlink:href="#DejaVuSans-48"/>
       <use x="63.623047" xlink:href="#DejaVuSans-46"/>
       <use x="95.410156" xlink:href="#DejaVuSans-56"/>
      </g>
     </g>
    </g>
    <g id="ytick_6">
     <g id="line2d_12">
      <g>
       <use style="stroke:#000000;stroke-width:0.8;" x="57.6" xlink:href="#m13782ea58a" y="54.144"/>
      </g>
     </g>
     <g id="text_13">
      <!-- 1.0 -->
      <g transform="translate(34.696875 57.943219)scale(0.1 -0.1)">
       <use xlink:href="#DejaVuSans-49"/>
       <use x="63.623047" xlink:href="#DejaVuSans-46"/>
       <use x="95.410156" xlink:href="#DejaVuSans-48"/>
      </g>
     </g>
    </g>
    <g id="text_14">
     <!-- Precision -->
     <defs>
      <path d="M 19.671875 64.796875 
L 19.671875 37.40625 
L 32.078125 37.40625 
Q 38.96875 37.40625 42.71875 40.96875 
Q 46.484375 44.53125 46.484375 51.125 
Q 46.484375 57.671875 42.71875 61.234375 
Q 38.96875 64.796875 32.078125 64.796875 
z
M 9.8125 72.90625 
L 32.078125 72.90625 
Q 44.34375 72.90625 50.609375 67.359375 
Q 56.890625 61.8125 56.890625 51.125 
Q 56.890625 40.328125 50.609375 34.8125 
Q 44.34375 29.296875 32.078125 29.296875 
L 19.671875 29.296875 
L 19.671875 0 
L 9.8125 0 
z
" id="DejaVuSans-80"/>
      <path d="M 41.109375 46.296875 
Q 39.59375 47.171875 37.8125 47.578125 
Q 36.03125 48 33.890625 48 
Q 26.265625 48 22.1875 43.046875 
Q 18.109375 38.09375 18.109375 28.8125 
L 18.109375 0 
L 9.078125 0 
L 9.078125 54.6875 
L 18.109375 54.6875 
L 18.109375 46.1875 
Q 20.953125 51.171875 25.484375 53.578125 
Q 30.03125 56 36.53125 56 
Q 37.453125 56 38.578125 55.875 
Q 39.703125 55.765625 41.0625 55.515625 
z
" id="DejaVuSans-114"/>
      <path d="M 9.421875 54.6875 
L 18.40625 54.6875 
L 18.40625 0 
L 9.421875 0 
z
M 9.421875 75.984375 
L 18.40625 75.984375 
L 18.40625 64.59375 
L 9.421875 64.59375 
z
" id="DejaVuSans-105"/>
      <path d="M 44.28125 53.078125 
L 44.28125 44.578125 
Q 40.484375 46.53125 36.375 47.5 
Q 32.28125 48.484375 27.875 48.484375 
Q 21.1875 48.484375 17.84375 46.4375 
Q 14.5 44.390625 14.5 40.28125 
Q 14.5 37.15625 16.890625 35.375 
Q 19.28125 33.59375 26.515625 31.984375 
L 29.59375 31.296875 
Q 39.15625 29.25 43.1875 25.515625 
Q 47.21875 21.78125 47.21875 15.09375 
Q 47.21875 7.46875 41.1875 3.015625 
Q 35.15625 -1.421875 24.609375 -1.421875 
Q 20.21875 -1.421875 15.453125 -0.5625 
Q 10.6875 0.296875 5.421875 2 
L 5.421875 11.28125 
Q 10.40625 8.6875 15.234375 7.390625 
Q 20.0625 6.109375 24.8125 6.109375 
Q 31.15625 6.109375 34.5625 8.28125 
Q 37.984375 10.453125 37.984375 14.40625 
Q 37.984375 18.0625 35.515625 20.015625 
Q 33.0625 21.96875 24.703125 23.78125 
L 21.578125 24.515625 
Q 13.234375 26.265625 9.515625 29.90625 
Q 5.8125 33.546875 5.8125 39.890625 
Q 5.8125 47.609375 11.28125 51.796875 
Q 16.75 56 26.8125 56 
Q 31.78125 56 36.171875 55.265625 
Q 40.578125 54.546875 44.28125 53.078125 
z
" id="DejaVuSans-115"/>
      <path d="M 30.609375 48.390625 
Q 23.390625 48.390625 19.1875 42.75 
Q 14.984375 37.109375 14.984375 27.296875 
Q 14.984375 17.484375 19.15625 11.84375 
Q 23.34375 6.203125 30.609375 6.203125 
Q 37.796875 6.203125 41.984375 11.859375 
Q 46.1875 17.53125 46.1875 27.296875 
Q 46.1875 37.015625 41.984375 42.703125 
Q 37.796875 48.390625 30.609375 48.390625 
z
M 30.609375 56 
Q 42.328125 56 49.015625 48.375 
Q 55.71875 40.765625 55.71875 27.296875 
Q 55.71875 13.875 49.015625 6.21875 
Q 42.328125 -1.421875 30.609375 -1.421875 
Q 18.84375 -1.421875 12.171875 6.21875 
Q 5.515625 13.875 5.515625 27.296875 
Q 5.515625 40.765625 12.171875 48.375 
Q 18.84375 56 30.609375 56 
z
" id="DejaVuSans-111"/>
      <path d="M 54.890625 33.015625 
L 54.890625 0 
L 45.90625 0 
L 45.90625 32.71875 
Q 45.90625 40.484375 42.875 44.328125 
Q 39.84375 48.1875 33.796875 48.1875 
Q 26.515625 48.1875 22.3125 43.546875 
Q 18.109375 38.921875 18.109375 30.90625 
L 18.109375 0 
L 9.078125 0 
L 9.078125 54.6875 
L 18.109375 54.6875 
L 18.109375 46.1875 
Q 21.34375 51.125 25.703125 53.5625 
Q 30.078125 56 35.796875 56 
Q 45.21875 56 50.046875 50.171875 
Q 54.890625 44.34375 54.890625 33.015625 
z
" id="DejaVuSans-110"/>
     </defs>
     <g transform="translate(28.617187 197.032688)rotate(-90)scale(0.1 -0.1)">
      <use xlink:href="#DejaVuSans-80"/>
      <use x="60.287109" xlink:href="#DejaVuSans-114"/>
      <use x="101.369141" xlink:href="#DejaVuSans-101"/>
      <use x="162.892578" xlink:href="#DejaVuSans-99"/>
      <use x="217.873047" xlink:href="#DejaVuSans-105"/>
      <use x="245.65625" xlink:href="#DejaVuSans-115"/>
      <use x="297.755859" xlink:href="#DejaVuSans-105"/>
      <use x="325.539062" xlink:href="#DejaVuSans-111"/>
      <use x="386.720703" xlink:href="#DejaVuSans-110"/>
     </g>
    </g>
   </g>
   <g id="line2d_13">
    <path clip-path="url(#pf9737d5d58)" d="M 414.72 241.329545 
L 413.751565 241.329545 
L 413.67409 239.144255 
L 413.480404 239.053049 
L 413.402929 238.893676 
L 413.364191 238.893676 
L 413.364191 238.795604 
L 413.325454 238.496829 
L 412.821868 238.455785 
L 412.744393 238.120983 
L 412.589444 238.05299 
L 412.589444 237.995261 
L 412.124595 237.995261 
L 412.124595 237.48993 
L 412.04712 237.49042 
L 411.15616 237.407235 
L 411.15616 237.405702 
L 411.15616 237.367357 
L 410.613837 237.367357 
L 410.613837 236.556577 
L 410.303938 236.556577 
L 410.226463 236.332129 
L 410.071513 236.332129 
L 410.071513 236.156075 
L 409.684139 236.156075 
L 409.606664 235.8883 
L 409.335503 235.8883 
L 409.335503 235.78259 
L 409.335503 235.766904 
L 409.025604 235.678431 
L 408.986866 235.624746 
L 408.444543 235.624746 
L 408.444543 235.203396 
L 407.940957 235.203396 
L 407.940957 235.030462 
L 407.476108 234.952148 
L 407.476108 234.797263 
L 406.468936 234.739067 
L 406.468936 234.443979 
L 405.151865 234.358228 
L 405.151865 233.620376 
L 404.648279 233.558424 
L 404.648279 233.450235 
L 403.214995 233.450235 
L 403.176258 232.792791 
L 402.672672 232.792791 
L 402.672672 232.586707 
L 402.556459 232.586707 
L 402.556459 232.464735 
L 402.169086 232.464735 
L 402.091611 232.197108 
L 401.859186 232.197108 
L 401.859186 231.990065 
L 400.929489 231.912705 
L 400.929489 231.635977 
L 400.387166 231.557153 
L 400.387166 231.387535 
L 397.714286 231.305606 
L 397.714286 230.547365 
L 397.249437 230.547365 
L 397.249437 230.318287 
L 395.893628 230.318287 
L 395.893628 229.425531 
L 394.692769 229.425531 
L 394.692769 228.972883 
L 394.150446 228.89183 
L 394.150446 228.722687 
L 393.685597 228.631296 
L 393.685597 228.562745 
L 393.104536 228.550305 
L 393.104536 228.277553 
L 389.540696 228.195258 
L 389.540696 227.552774 
L 388.572262 227.46843 
L 388.533524 227.375883 
L 387.797514 227.332699 
L 387.758776 227.203353 
L 386.054331 227.203353 
L 386.054331 226.703359 
L 384.311149 226.66474 
L 384.311149 226.207636 
L 381.715744 226.165289 
L 381.715744 225.608877 
L 379.933824 225.608877 
L 379.933824 225.2061 
L 377.687055 225.134276 
L 377.687055 224.898537 
L 376.215034 224.896121 
L 376.215034 224.679768 
L 374.626801 224.679768 
L 374.588064 224.301552 
L 370.094527 224.193406 
L 370.094527 223.292082 
L 368.583768 223.250431 
L 368.583768 223.139063 
L 367.809021 223.139063 
L 367.809021 222.941931 
L 366.685636 222.941931 
L 366.685636 222.664092 
L 364.632555 222.664092 
L 364.632555 222.365714 
L 363.044322 222.365714 
L 363.044322 222.146873 
L 359.906593 222.146873 
L 359.829118 221.252404 
L 358.744471 221.197102 
L 358.744471 221.097781 
L 356.846339 220.994043 
L 356.846339 220.908597 
L 356.071591 220.908597 
L 356.071591 220.679007 
L 355.025682 220.641553 
L 355.025682 220.495192 
L 354.638308 220.388369 
L 354.638308 220.343117 
L 352.352802 220.343117 
L 352.352802 220.083435 
L 351.733004 220.083435 
L 351.733004 219.941338 
L 349.524972 219.941338 
L 349.524972 219.500071 
L 348.67275 219.500071 
L 348.67275 219.26026 
L 347.78179 219.26026 
L 347.78179 219.070827 
L 347.239466 219.070827 
L 347.239466 218.893048 
L 345.689971 218.893048 
L 345.689971 218.748006 
L 339.337039 218.748006 
L 339.337039 217.571835 
L 334.184966 217.552953 
L 334.184966 216.865516 
L 332.519258 216.839001 
L 332.519258 216.438582 
L 331.085975 216.438582 
L 331.085975 216.233288 
L 328.413095 216.187054 
L 328.413095 215.68571 
L 328.064458 215.592813 
L 327.986983 215.428801 
L 327.405923 215.374697 
L 327.405923 215.251664 
L 325.50779 215.251664 
L 325.50779 214.686446 
L 320.626879 214.586784 
L 320.626879 213.993006 
L 318.263898 213.936698 
L 318.263898 213.79322 
L 316.75314 213.68619 
L 316.75314 213.623701 
L 311.794754 213.519582 
L 311.794754 212.393497 
L 309.586723 212.329331 
L 309.586723 212.133143 
L 307.10753 212.133143 
L 307.10753 211.593935 
L 303.814852 211.593935 
L 303.814852 211.338279 
L 301.296922 211.338279 
L 301.296922 210.889777 
L 300.328487 210.889777 
L 300.328487 210.75728 
L 298.314143 210.676817 
L 298.314143 210.447371 
L 295.176414 210.447371 
L 295.176414 209.887739 
L 292.077423 209.887739 
L 292.077423 209.541415 
L 289.908129 209.541415 
L 289.908129 209.425922 
L 289.133381 209.326099 
L 289.133381 209.283489 
L 281.812014 209.18378 
L 281.812014 208.662244 
L 280.146307 208.655951 
L 280.146307 208.400567 
L 272.360091 208.42244 
L 272.360091 207.855747 
L 268.331403 207.895317 
L 268.331403 207.561249 
L 266.975594 207.561249 
L 266.975594 207.368681 
L 264.883775 207.368681 
L 264.883775 206.986311 
L 263.91534 206.986311 
L 263.91534 206.8285 
L 260.545187 206.8285 
L 260.545187 206.374139 
L 259.654227 206.374139 
L 259.654227 206.26239 
L 258.104732 206.25875 
L 258.104732 205.704112 
L 255.393114 205.704112 
L 255.393114 205.091949 
L 253.921093 205.02423 
L 253.921093 204.944243 
L 250.899577 204.944243 
L 250.899577 204.774017 
L 247.606899 204.775576 
L 247.606899 204.283086 
L 247.258262 204.283086 
L 247.258262 204.120126 
L 240.091845 204.009157 
L 240.091845 202.924477 
L 239.510784 202.924477 
L 239.510784 202.752304 
L 235.71452 202.664078 
L 235.71452 202.496335 
L 234.97851 202.496335 
L 234.97851 202.237072 
L 234.165024 202.237072 
L 234.165024 202.097787 
L 233.19659 202.097787 
L 233.19659 201.914066 
L 231.453407 201.914066 
L 231.453407 201.746211 
L 230.872346 201.680427 
L 230.872346 201.616799 
L 222.35012 201.616799 
L 222.35012 201.042504 
L 219.948402 201.042504 
L 219.948402 200.31607 
L 215.571077 200.235946 
L 215.571077 200.025636 
L 212.898197 199.972571 
L 212.898197 199.804117 
L 209.954156 199.763692 
L 209.954156 199.438235 
L 198.565363 199.438235 
L 198.565363 197.0533 
L 196.279857 196.955429 
L 196.279857 196.787175 
L 193.064653 196.690276 
L 193.064653 196.395983 
L 192.483593 196.395983 
L 192.483593 196.258394 
L 183.457781 196.258394 
L 183.457781 195.887505 
L 177.453485 195.899743 
L 177.453485 194.448325 
L 176.368838 194.448325 
L 176.368838 194.096773 
L 171.526664 194.05273 
L 171.526664 193.386507 
L 153.939889 193.386507 
L 153.939889 186.557641 
L 153.242616 186.557641 
L 153.242616 186.339404 
L 153.010192 186.339404 
L 153.010192 186.210731 
L 145.998724 186.225326 
L 145.998724 184.189488 
L 120.005936 184.189488 
L 120.005936 177.967543 
L 118.030329 178.04083 
L 118.030329 176.884364 
L 114.582701 176.975328 
L 114.582701 174.911317 
L 113.071943 174.911317 
L 113.071943 173.415394 
L 112.026033 173.332351 
L 112.026033 172.755072 
L 110.399063 172.755072 
L 110.399063 171.584504 
L 110.050426 171.584504 
L 110.050426 171.464301 
L 109.275678 171.464301 
L 109.275678 171.257806 
L 103.46507 171.257806 
L 103.46507 168.468117 
L 103.038959 168.468117 
L 103.038959 167.947964 
L 101.257039 167.865497 
L 101.218301 167.213395 
L 99.978705 167.213395 
L 99.90123 166.45372 
L 98.11931 166.45372 
L 98.11931 167.246128 
L 96.802239 167.246128 
L 96.802239 165.489108 
L 96.221178 165.489108 
L 96.221178 165.229251 
L 95.523905 165.229251 
L 95.523905 164.741306 
L 79.602838 164.741306 
L 79.602838 153.951215 
L 75.729099 153.951215 
L 75.729099 153.744934 
L 75.070563 153.744934 
L 75.070563 151.434492 
L 74.683189 151.434492 
L 74.683189 151.702494 
L 74.489502 151.702494 
L 74.489502 151.950423 
L 72.513895 152.021709 
L 72.513895 144.688508 
L 71.274299 144.688508 
L 71.274299 143.429284 
L 71.080612 143.429284 
L 71.080612 143.648833 
L 70.9644 143.648833 
L 70.9644 143.844674 
L 70.305864 143.844674 
L 70.305864 139.986581 
L 69.647328 139.986581 
L 69.647328 138.442712 
L 69.337429 138.442712 
L 69.337429 137.689487 
L 69.02753 137.689487 
L 69.02753 129.572571 
L 68.911318 129.572571 
L 68.911318 129.688615 
L 68.523944 129.688615 
L 68.523944 127.104 
L 68.252782 127.104 
L 68.252782 126.555429 
L 67.323085 126.555429 
L 67.323085 108.168828 
L 66.935711 108.168828 
L 66.858236 99.432247 
L 66.703287 99.432247 
L 66.703287 98.607158 
L 66.432125 98.607158 
L 66.432125 97.4592 
L 66.083488 97.4592 
L 66.083488 96.544608 
L 65.46369 96.548358 
L 65.46369 95.862519 
L 64.921367 95.862519 
L 64.921367 95.636389 
L 64.688942 95.636389 
L 64.688942 96.768 
L 64.340306 96.768 
L 64.340306 93.51332 
L 63.759245 93.51332 
L 63.759245 95.494737 
L 63.488083 95.494737 
L 63.488083 95.919824 
L 57.6 95.919824 
L 57.6 54.144 
L 57.6 54.144 
" style="fill:none;stroke:#0000ff;stroke-linecap:square;stroke-opacity:0.2;stroke-width:1.5;"/>
   </g>
   <g id="patch_3">
    <path d="M 57.6 307.584 
L 57.6 41.472 
" style="fill:none;stroke:#000000;stroke-linecap:square;stroke-linejoin:miter;stroke-width:0.8;"/>
   </g>
   <g id="patch_4">
    <path d="M 414.72 307.584 
L 414.72 41.472 
" style="fill:none;stroke:#000000;stroke-linecap:square;stroke-linejoin:miter;stroke-width:0.8;"/>
   </g>
   <g id="patch_5">
    <path d="M 57.6 307.584 
L 414.72 307.584 
" style="fill:none;stroke:#000000;stroke-linecap:square;stroke-linejoin:miter;stroke-width:0.8;"/>
   </g>
   <g id="patch_6">
    <path d="M 57.6 41.472 
L 414.72 41.472 
" style="fill:none;stroke:#000000;stroke-linecap:square;stroke-linejoin:miter;stroke-width:0.8;"/>
   </g>
   <g id="text_15">
    <!-- 2-class Precision-Recall curve -->
    <defs>
     <path d="M 4.890625 31.390625 
L 31.203125 31.390625 
L 31.203125 23.390625 
L 4.890625 23.390625 
z
" id="DejaVuSans-45"/>
     <path id="DejaVuSans-32"/>
     <path d="M 8.5 21.578125 
L 8.5 54.6875 
L 17.484375 54.6875 
L 17.484375 21.921875 
Q 17.484375 14.15625 20.5 10.265625 
Q 23.53125 6.390625 29.59375 6.390625 
Q 36.859375 6.390625 41.078125 11.03125 
Q 45.3125 15.671875 45.3125 23.6875 
L 45.3125 54.6875 
L 54.296875 54.6875 
L 54.296875 0 
L 45.3125 0 
L 45.3125 8.40625 
Q 42.046875 3.421875 37.71875 1 
Q 33.40625 -1.421875 27.6875 -1.421875 
Q 18.265625 -1.421875 13.375 4.4375 
Q 8.5 10.296875 8.5 21.578125 
z
M 31.109375 56 
z
" id="DejaVuSans-117"/>
     <path d="M 2.984375 54.6875 
L 12.5 54.6875 
L 29.59375 8.796875 
L 46.6875 54.6875 
L 56.203125 54.6875 
L 35.6875 0 
L 23.484375 0 
z
" id="DejaVuSans-118"/>
    </defs>
    <g transform="translate(147.321562 35.472)scale(0.12 -0.12)">
     <use xlink:href="#DejaVuSans-50"/>
     <use x="63.623047" xlink:href="#DejaVuSans-45"/>
     <use x="99.707031" xlink:href="#DejaVuSans-99"/>
     <use x="154.6875" xlink:href="#DejaVuSans-108"/>
     <use x="182.470703" xlink:href="#DejaVuSans-97"/>
     <use x="243.75" xlink:href="#DejaVuSans-115"/>
     <use x="295.849609" xlink:href="#DejaVuSans-115"/>
     <use x="347.949219" xlink:href="#DejaVuSans-32"/>
     <use x="379.736328" xlink:href="#DejaVuSans-80"/>
     <use x="440.023438" xlink:href="#DejaVuSans-114"/>
     <use x="481.105469" xlink:href="#DejaVuSans-101"/>
     <use x="542.628906" xlink:href="#DejaVuSans-99"/>
     <use x="597.609375" xlink:href="#DejaVuSans-105"/>
     <use x="625.392578" xlink:href="#DejaVuSans-115"/>
     <use x="677.492188" xlink:href="#DejaVuSans-105"/>
     <use x="705.275391" xlink:href="#DejaVuSans-111"/>
     <use x="766.457031" xlink:href="#DejaVuSans-110"/>
     <use x="829.835938" xlink:href="#DejaVuSans-45"/>
     <use x="865.919922" xlink:href="#DejaVuSans-82"/>
     <use x="935.339844" xlink:href="#DejaVuSans-101"/>
     <use x="996.863281" xlink:href="#DejaVuSans-99"/>
     <use x="1051.84375" xlink:href="#DejaVuSans-97"/>
     <use x="1113.123047" xlink:href="#DejaVuSans-108"/>
     <use x="1140.90625" xlink:href="#DejaVuSans-108"/>
     <use x="1168.689453" xlink:href="#DejaVuSans-32"/>
     <use x="1200.476562" xlink:href="#DejaVuSans-99"/>
     <use x="1255.457031" xlink:href="#DejaVuSans-117"/>
     <use x="1318.835938" xlink:href="#DejaVuSans-114"/>
     <use x="1359.949219" xlink:href="#DejaVuSans-118"/>
     <use x="1419.128906" xlink:href="#DejaVuSans-101"/>
    </g>
   </g>
  </g>
 </g>
 <defs>
  <clipPath id="pf9737d5d58">
   <rect height="266.112" width="357.12" x="57.6" y="41.472"/>
  </clipPath>
 </defs>
</svg>
