<?xml version="1.0" encoding="utf-8" standalone="no"?>
<!DOCTYPE svg PUBLIC "-//W3C//DTD SVG 1.1//EN"
  "http://www.w3.org/Graphics/SVG/1.1/DTD/svg11.dtd">
<!-- Created with matplotlib (https://matplotlib.org/) -->
<svg height="345.6pt" version="1.1" viewBox="0 0 460.8 345.6" width="460.8pt" xmlns="http://www.w3.org/2000/svg" xmlns:xlink="http://www.w3.org/1999/xlink">
 <defs>
  <style type="text/css">
*{stroke-linecap:butt;stroke-linejoin:round;}
  </style>
 </defs>
 <g id="figure_1">
  <g id="patch_1">
   <path d="M 0 345.6 
L 460.8 345.6 
L 460.8 0 
L 0 0 
z
" style="fill:#ffffff;"/>
  </g>
  <g id="axes_1">
   <g id="patch_2">
    <path d="M 57.6 307.584 
L 414.72 307.584 
L 414.72 41.472 
L 57.6 41.472 
z
" style="fill:#ffffff;"/>
   </g>
   <g id="PolyCollection_1">
    <defs>
     <path d="M 414.72 -38.016 
L 414.72 -112.677346 
L 401.353351 -115.127436 
L 400.284019 -115.832329 
L 399.546548 -115.945502 
L 398.919699 -116.18104 
L 397.795056 -116.465865 
L 397.518505 -116.481068 
L 397.186643 -116.573316 
L 396.744161 -116.661537 
L 396.46761 -116.687652 
L 394.58706 -117.164037 
L 393.997084 -117.141736 
L 393.536165 -117.257043 
L 392.300902 -117.381034 
L 390.623157 -117.684071 
L 390.291296 -117.718419 
L 389.996308 -117.775631 
L 389.719756 -118.034722 
L 389.12978 -118.077804 
L 380.31701 -122.242576 
L 380.003585 -122.272754 
L 379.837654 -122.320747 
L 379.450482 -122.336604 
L 379.376735 -122.330138 
L 377.053704 -123.794702 
L 376.22405 -123.816621 
L 376.021245 -123.841028 
L 373.181985 -124.283474 
L 372.850123 -124.312883 
L 372.223273 -124.295921 
L 371.872975 -124.304864 
L 369.973989 -124.510791 
L 368.99684 -124.576738 
L 367.595647 -124.577583 
L 367.024107 -124.590332 
L 365.715098 -124.569372 
L 365.696661 -124.576576 
L 364.90388 -124.838278 
L 364.516708 -124.980911 
L 364.240157 -124.979629 
L 364.1111 -124.989681 
L 362.673033 -125.48256 
L 361.400896 -125.513838 
L 361.382459 -125.510361 
L 360.976851 -125.477835 
L 357.750418 -126.152096 
L 357.639798 -126.162921 
L 355.796122 -126.651772 
L 355.759248 -126.650395 
L 355.445823 -126.724118 
L 354.948031 -126.918719 
L 354.118377 -127.188512 
L 354.063067 -127.203097 
L 350.449462 -127.369449 
L 350.283531 -127.394207 
L 347.407397 -128.166107 
L 347.075535 -128.281435 
L 346.135261 -128.334479 
L 343.554115 -128.336866 
L 343.222253 -128.3462 
L 343.166943 -128.353648 
L 342.374162 -128.306484 
L 336.64033 -129.506111 
L 336.621894 -129.502248 
L 334.870402 -130.543472 
L 329.413121 -131.628916 
L 328.491283 -131.982386 
L 327.643193 -132.065549 
L 326.315746 -132.293532 
L 326.315746 -132.295939 
L 326.278872 -132.309475 
L 326.260436 -132.305412 
L 325.854827 -132.39921 
L 325.744207 -132.382026 
L 325.72577 -132.402118 
L 320.43442 -133.093515 
L 320.157869 -133.081033 
L 319.715387 -133.111183 
L 319.567893 -133.105355 
L 319.346652 -133.125505 
L 319.291341 -133.128034 
L 318.904169 -133.211323 
L 318.498561 -133.179569 
L 318.203573 -133.538342 
L 317.281735 -133.595479 
L 316.636448 -133.621638 
L 316.452081 -133.646025 
L 314.35029 -133.824823 
L 314.036865 -133.845739 
L 311.418846 -133.831144 
L 306.772783 -134.093013 
L 305.814071 -134.263291 
L 303.103868 -134.14244 
L 302.255777 -134.246187 
L 302.23734 -134.241688 
L 302.034536 -134.357644 
L 296.816933 -134.884177 
L 296.798497 -134.905252 
L 296.72475 -134.892508 
L 293.42457 -135.205358 
L 284.814604 -135.903507 
L 284.740857 -135.914689 
L 283.524031 -136.069666 
L 283.136859 -136.146389 
L 279.26514 -136.138919 
L 274.969375 -135.959412 
L 274.360962 -136.122614 
L 272.296045 -136.271778 
L 270.950162 -136.386151 
L 270.692047 -136.389225 
L 270.489243 -136.407947 
L 270.45237 -136.443853 
L 269.788646 -136.461474 
L 268.645567 -136.6871 
L 268.40589 -136.73957 
L 268.276832 -136.833992 
L 267.594672 -136.885117 
L 266.543777 -136.816713 
L 264.460423 -137.372981 
L 263.151414 -137.645864 
L 261.289301 -137.727731 
L 258.413167 -138.239958 
L 257.417582 -138.355095 
L 256.606364 -138.303094 
L 256.090135 -138.392524 
L 252.089359 -138.664969 
L 251.73906 -138.787182 
L 250.817223 -139.071861 
L 250.725039 -139.104417 
L 247.738284 -139.421498 
L 244.640909 -139.763083 
L 244.382794 -139.715237 
L 240.953557 -139.729511 
L 239.478616 -140.252173 
L 239.238939 -140.272159 
L 239.220502 -140.324628 
L 239.165192 -140.331205 
L 238.09586 -140.582144 
L 238.040549 -140.576152 
L 237.874618 -140.626092 
L 236.233747 -140.914934 
L 235.865012 -140.866305 
L 233.062625 -140.76749 
L 231.790488 -140.806346 
L 230.647409 -140.913649 
L 229.670261 -140.875433 
L 228.619366 -140.918453 
L 228.527182 -140.95761 
L 222.443052 -141.500817 
L 222.406179 -141.562787 
L 219.308803 -141.910291 
L 213.814649 -142.502041 
L 209.795436 -142.639053 
L 208.412679 -142.59324 
L 207.822703 -142.845134 
L 206.900865 -142.877901 
L 205.481235 -143.018182 
L 204.504087 -143.067757 
L 200.153012 -142.936388 
L 198.34621 -143.148911 
L 196.963453 -143.271368 
L 196.41035 -143.182984 
L 196.35504 -143.22806 
L 195.082903 -143.414588 
L 193.147044 -143.704649 
L 192.962676 -143.65077 
L 187.173534 -143.336265 
L 187.02604 -143.5033 
L 186.731052 -143.44415 
L 186.565121 -143.597133 
L 186.491374 -143.612224 
L 183.099011 -143.543654 
L 181.236898 -145.372998 
L 181.144715 -145.421859 
L 179.042924 -145.435682 
L 178.95074 -145.437088 
L 178.711062 -145.418578 
L 172.18445 -146.279771 
L 170.488268 -147.917779 
L 166.819354 -147.886367 
L 165.786895 -147.811934 
L 165.639401 -147.85687 
L 164.201334 -148.088116 
L 163.685105 -148.134082 
L 163.187312 -148.208141 
L 162.873887 -148.173753 
L 161.95205 -148.58953 
L 157.490354 -147.946183 
L 157.39817 -147.91512 
L 156.55008 -147.861149 
L 156.107597 -148.215375 
L 155.996977 -148.208202 
L 150.889995 -148.425505 
L 150.668754 -148.620748 
L 150.650317 -148.608398 
L 149.617859 -148.547199 
L 147.128896 -149.150607 
L 146.833908 -149.387854 
L 146.372989 -149.388967 
L 145.709266 -149.677267 
L 144.916485 -150.014865 
L 144.787428 -150.058419 
L 141.450375 -150.130106 
L 140.768215 -150.266156 
L 140.546974 -150.442204 
L 139.77263 -150.929043 
L 139.182654 -150.953764 
L 136.601507 -150.670606 
L 135.329371 -150.858226 
L 134.057235 -150.882804 
L 132.508547 -150.912253 
L 128.378713 -150.198193 
L 128.268093 -150.281748 
L 127.880921 -150.263389 
L 127.622806 -150.333984 
L 127.08814 -150.447186 
L 126.848463 -150.496284 
L 125.502579 -150.543971 
L 125.096971 -150.878649 
L 119.049714 -150.047236 
L 118.994404 -150.139715 
L 118.27537 -150.242997 
L 115.860155 -151.021559 
L 115.749534 -151.01427 
L 115.399236 -150.892034 
L 113.721491 -151.301075 
L 101.000128 -145.588622 
L 100.465462 -145.444988 
L 100.170474 -145.292436 
L 100.115164 -145.290714 
L 99.082705 -145.628757 
L 94.952871 -143.256713 
L 94.915998 -143.325497 
L 89.440281 -140.328034 
L 88.739684 -140.692939 
L 88.555316 -140.999001 
L 87.817846 -140.834851 
L 86.711641 -140.311951 
L 86.121664 -140.091418 
L 86.066354 -140.106102 
L 85.992607 -140.081272 
L 85.439504 -139.553384 
L 83.761759 -139.263568 
L 83.116473 -139.538709 
L 81.789026 -138.655613 
L 80.332522 -137.503908 
L 80.314086 -137.581714 
L 80.111281 -137.485701 
L 79.926914 -137.988586 
L 79.871604 -138.001474 
L 78.949766 -137.874292 
L 78.839145 -137.798256 
L 78.359789 -138.217348 
L 77.84356 -137.685456 
L 77.714503 -137.836592 
L 76.977033 -139.488549 
L 76.921722 -139.508212 
L 76.811102 -139.508882 
L 76.608297 -139.451031 
L 76.42393 -139.17403 
L 70.837592 -127.085956 
L 69.989501 -125.400135 
L 69.860444 -125.659058 
L 69.639203 -125.626545 
L 69.620766 -125.631525 
L 69.510146 -125.802724 
L 68.532997 -124.04343 
L 67.740217 -122.088376 
L 67.72178 -122.087637 
L 67.684907 -121.933482 
L 67.555849 -121.772181 
L 67.242424 -122.227639 
L 66.615575 -121.303742 
L 66.339023 -122.614986 
L 66.320586 -122.555577 
L 66.080909 -122.009084 
L 65.601553 -120.717474 
L 65.509369 -120.446447 
L 65.472496 -120.562819 
L 65.380312 -120.476817 
L 65.361875 -120.663746 
L 65.288128 -120.453192 
L 64.900956 -118.241612 
L 64.864083 -118.156738 
L 64.735025 -118.213285 
L 64.716589 -118.334424 
L 64.605968 -118.540415 
L 64.495347 -117.802667 
L 64.476911 -117.993259 
L 64.384727 -117.391251 
L 64.347853 -117.36505 
L 57.6 -291.456 
L 57.6 -38.016 
L 57.6 -38.016 
L 64.347853 -38.016 
L 64.384727 -38.016 
L 64.476911 -38.016 
L 64.495347 -38.016 
L 64.605968 -38.016 
L 64.716589 -38.016 
L 64.735025 -38.016 
L 64.864083 -38.016 
L 64.900956 -38.016 
L 65.288128 -38.016 
L 65.361875 -38.016 
L 65.380312 -38.016 
L 65.472496 -38.016 
L 65.509369 -38.016 
L 65.601553 -38.016 
L 66.080909 -38.016 
L 66.320586 -38.016 
L 66.339023 -38.016 
L 66.615575 -38.016 
L 67.242424 -38.016 
L 67.555849 -38.016 
L 67.684907 -38.016 
L 67.72178 -38.016 
L 67.740217 -38.016 
L 68.532997 -38.016 
L 69.510146 -38.016 
L 69.620766 -38.016 
L 69.639203 -38.016 
L 69.860444 -38.016 
L 69.989501 -38.016 
L 70.837592 -38.016 
L 76.42393 -38.016 
L 76.608297 -38.016 
L 76.811102 -38.016 
L 76.921722 -38.016 
L 76.977033 -38.016 
L 77.714503 -38.016 
L 77.84356 -38.016 
L 78.359789 -38.016 
L 78.839145 -38.016 
L 78.949766 -38.016 
L 79.871604 -38.016 
L 79.926914 -38.016 
L 80.111281 -38.016 
L 80.314086 -38.016 
L 80.332522 -38.016 
L 81.789026 -38.016 
L 83.116473 -38.016 
L 83.761759 -38.016 
L 85.439504 -38.016 
L 85.992607 -38.016 
L 86.066354 -38.016 
L 86.121664 -38.016 
L 86.711641 -38.016 
L 87.817846 -38.016 
L 88.555316 -38.016 
L 88.739684 -38.016 
L 89.440281 -38.016 
L 94.915998 -38.016 
L 94.952871 -38.016 
L 99.082705 -38.016 
L 100.115164 -38.016 
L 100.170474 -38.016 
L 100.465462 -38.016 
L 101.000128 -38.016 
L 113.721491 -38.016 
L 115.399236 -38.016 
L 115.749534 -38.016 
L 115.860155 -38.016 
L 118.27537 -38.016 
L 118.994404 -38.016 
L 119.049714 -38.016 
L 125.096971 -38.016 
L 125.502579 -38.016 
L 126.848463 -38.016 
L 127.08814 -38.016 
L 127.622806 -38.016 
L 127.880921 -38.016 
L 128.268093 -38.016 
L 128.378713 -38.016 
L 132.508547 -38.016 
L 134.057235 -38.016 
L 135.329371 -38.016 
L 136.601507 -38.016 
L 139.182654 -38.016 
L 139.77263 -38.016 
L 140.546974 -38.016 
L 140.768215 -38.016 
L 141.450375 -38.016 
L 144.787428 -38.016 
L 144.916485 -38.016 
L 145.709266 -38.016 
L 146.372989 -38.016 
L 146.833908 -38.016 
L 147.128896 -38.016 
L 149.617859 -38.016 
L 150.650317 -38.016 
L 150.668754 -38.016 
L 150.889995 -38.016 
L 155.996977 -38.016 
L 156.107597 -38.016 
L 156.55008 -38.016 
L 157.39817 -38.016 
L 157.490354 -38.016 
L 161.95205 -38.016 
L 162.873887 -38.016 
L 163.187312 -38.016 
L 163.685105 -38.016 
L 164.201334 -38.016 
L 165.639401 -38.016 
L 165.786895 -38.016 
L 166.819354 -38.016 
L 170.488268 -38.016 
L 172.18445 -38.016 
L 178.711062 -38.016 
L 178.95074 -38.016 
L 179.042924 -38.016 
L 181.144715 -38.016 
L 181.236898 -38.016 
L 183.099011 -38.016 
L 186.491374 -38.016 
L 186.565121 -38.016 
L 186.731052 -38.016 
L 187.02604 -38.016 
L 187.173534 -38.016 
L 192.962676 -38.016 
L 193.147044 -38.016 
L 195.082903 -38.016 
L 196.35504 -38.016 
L 196.41035 -38.016 
L 196.963453 -38.016 
L 198.34621 -38.016 
L 200.153012 -38.016 
L 204.504087 -38.016 
L 205.481235 -38.016 
L 206.900865 -38.016 
L 207.822703 -38.016 
L 208.412679 -38.016 
L 209.795436 -38.016 
L 213.814649 -38.016 
L 219.308803 -38.016 
L 222.406179 -38.016 
L 222.443052 -38.016 
L 228.527182 -38.016 
L 228.619366 -38.016 
L 229.670261 -38.016 
L 230.647409 -38.016 
L 231.790488 -38.016 
L 233.062625 -38.016 
L 235.865012 -38.016 
L 236.233747 -38.016 
L 237.874618 -38.016 
L 238.040549 -38.016 
L 238.09586 -38.016 
L 239.165192 -38.016 
L 239.220502 -38.016 
L 239.238939 -38.016 
L 239.478616 -38.016 
L 240.953557 -38.016 
L 244.382794 -38.016 
L 244.640909 -38.016 
L 247.738284 -38.016 
L 250.725039 -38.016 
L 250.817223 -38.016 
L 251.73906 -38.016 
L 252.089359 -38.016 
L 256.090135 -38.016 
L 256.606364 -38.016 
L 257.417582 -38.016 
L 258.413167 -38.016 
L 261.289301 -38.016 
L 263.151414 -38.016 
L 264.460423 -38.016 
L 266.543777 -38.016 
L 267.594672 -38.016 
L 268.276832 -38.016 
L 268.40589 -38.016 
L 268.645567 -38.016 
L 269.788646 -38.016 
L 270.45237 -38.016 
L 270.489243 -38.016 
L 270.692047 -38.016 
L 270.950162 -38.016 
L 272.296045 -38.016 
L 274.360962 -38.016 
L 274.969375 -38.016 
L 279.26514 -38.016 
L 283.136859 -38.016 
L 283.524031 -38.016 
L 284.740857 -38.016 
L 284.814604 -38.016 
L 293.42457 -38.016 
L 296.72475 -38.016 
L 296.798497 -38.016 
L 296.816933 -38.016 
L 302.034536 -38.016 
L 302.23734 -38.016 
L 302.255777 -38.016 
L 303.103868 -38.016 
L 305.814071 -38.016 
L 306.772783 -38.016 
L 311.418846 -38.016 
L 314.036865 -38.016 
L 314.35029 -38.016 
L 316.452081 -38.016 
L 316.636448 -38.016 
L 317.281735 -38.016 
L 318.203573 -38.016 
L 318.498561 -38.016 
L 318.904169 -38.016 
L 319.291341 -38.016 
L 319.346652 -38.016 
L 319.567893 -38.016 
L 319.715387 -38.016 
L 320.157869 -38.016 
L 320.43442 -38.016 
L 325.72577 -38.016 
L 325.744207 -38.016 
L 325.854827 -38.016 
L 326.260436 -38.016 
L 326.278872 -38.016 
L 326.315746 -38.016 
L 326.315746 -38.016 
L 327.643193 -38.016 
L 328.491283 -38.016 
L 329.413121 -38.016 
L 334.870402 -38.016 
L 336.621894 -38.016 
L 336.64033 -38.016 
L 342.374162 -38.016 
L 343.166943 -38.016 
L 343.222253 -38.016 
L 343.554115 -38.016 
L 346.135261 -38.016 
L 347.075535 -38.016 
L 347.407397 -38.016 
L 350.283531 -38.016 
L 350.449462 -38.016 
L 354.063067 -38.016 
L 354.118377 -38.016 
L 354.948031 -38.016 
L 355.445823 -38.016 
L 355.759248 -38.016 
L 355.796122 -38.016 
L 357.639798 -38.016 
L 357.750418 -38.016 
L 360.976851 -38.016 
L 361.382459 -38.016 
L 361.400896 -38.016 
L 362.673033 -38.016 
L 364.1111 -38.016 
L 364.240157 -38.016 
L 364.516708 -38.016 
L 364.90388 -38.016 
L 365.696661 -38.016 
L 365.715098 -38.016 
L 367.024107 -38.016 
L 367.595647 -38.016 
L 368.99684 -38.016 
L 369.973989 -38.016 
L 371.872975 -38.016 
L 372.223273 -38.016 
L 372.850123 -38.016 
L 373.181985 -38.016 
L 376.021245 -38.016 
L 376.22405 -38.016 
L 377.053704 -38.016 
L 379.376735 -38.016 
L 379.450482 -38.016 
L 379.837654 -38.016 
L 380.003585 -38.016 
L 380.31701 -38.016 
L 389.12978 -38.016 
L 389.719756 -38.016 
L 389.996308 -38.016 
L 390.291296 -38.016 
L 390.623157 -38.016 
L 392.300902 -38.016 
L 393.536165 -38.016 
L 393.997084 -38.016 
L 394.58706 -38.016 
L 396.46761 -38.016 
L 396.744161 -38.016 
L 397.186643 -38.016 
L 397.518505 -38.016 
L 397.795056 -38.016 
L 398.919699 -38.016 
L 399.546548 -38.016 
L 400.284019 -38.016 
L 401.353351 -38.016 
L 414.72 -38.016 
z
" id="m9d311eb4a8" style="stroke:#0000ff;stroke-opacity:0.2;"/>
    </defs>
    <g clip-path="url(#p99ce883c05)">
     <use style="fill:#0000ff;fill-opacity:0.2;stroke:#0000ff;stroke-opacity:0.2;" x="0" xlink:href="#m9d311eb4a8" y="345.6"/>
    </g>
   </g>
   <g id="matplotlib.axis_1">
    <g id="xtick_1">
     <g id="line2d_1">
      <defs>
       <path d="M 0 0 
L 0 3.5 
" id="m0100b3507c" style="stroke:#000000;stroke-width:0.8;"/>
      </defs>
      <g>
       <use style="stroke:#000000;stroke-width:0.8;" x="57.6" xlink:href="#m0100b3507c" y="307.584"/>
      </g>
     </g>
     <g id="text_1">
      <!-- 0.0 -->
      <defs>
       <path d="M 31.78125 66.40625 
Q 24.171875 66.40625 20.328125 58.90625 
Q 16.5 51.421875 16.5 36.375 
Q 16.5 21.390625 20.328125 13.890625 
Q 24.171875 6.390625 31.78125 6.390625 
Q 39.453125 6.390625 43.28125 13.890625 
Q 47.125 21.390625 47.125 36.375 
Q 47.125 51.421875 43.28125 58.90625 
Q 39.453125 66.40625 31.78125 66.40625 
z
M 31.78125 74.21875 
Q 44.046875 74.21875 50.515625 64.515625 
Q 56.984375 54.828125 56.984375 36.375 
Q 56.984375 17.96875 50.515625 8.265625 
Q 44.046875 -1.421875 31.78125 -1.421875 
Q 19.53125 -1.421875 13.0625 8.265625 
Q 6.59375 17.96875 6.59375 36.375 
Q 6.59375 54.828125 13.0625 64.515625 
Q 19.53125 74.21875 31.78125 74.21875 
z
" id="DejaVuSans-48"/>
       <path d="M 10.6875 12.40625 
L 21 12.40625 
L 21 0 
L 10.6875 0 
z
" id="DejaVuSans-46"/>
      </defs>
      <g transform="translate(49.648438 322.182437)scale(0.1 -0.1)">
       <use xlink:href="#DejaVuSans-48"/>
       <use x="63.623047" xlink:href="#DejaVuSans-46"/>
       <use x="95.410156" xlink:href="#DejaVuSans-48"/>
      </g>
     </g>
    </g>
    <g id="xtick_2">
     <g id="line2d_2">
      <g>
       <use style="stroke:#000000;stroke-width:0.8;" x="129.024" xlink:href="#m0100b3507c" y="307.584"/>
      </g>
     </g>
     <g id="text_2">
      <!-- 0.2 -->
      <defs>
       <path d="M 19.1875 8.296875 
L 53.609375 8.296875 
L 53.609375 0 
L 7.328125 0 
L 7.328125 8.296875 
Q 12.9375 14.109375 22.625 23.890625 
Q 32.328125 33.6875 34.8125 36.53125 
Q 39.546875 41.84375 41.421875 45.53125 
Q 43.3125 49.21875 43.3125 52.78125 
Q 43.3125 58.59375 39.234375 62.25 
Q 35.15625 65.921875 28.609375 65.921875 
Q 23.96875 65.921875 18.8125 64.3125 
Q 13.671875 62.703125 7.8125 59.421875 
L 7.8125 69.390625 
Q 13.765625 71.78125 18.9375 73 
Q 24.125 74.21875 28.421875 74.21875 
Q 39.75 74.21875 46.484375 68.546875 
Q 53.21875 62.890625 53.21875 53.421875 
Q 53.21875 48.921875 51.53125 44.890625 
Q 49.859375 40.875 45.40625 35.40625 
Q 44.1875 33.984375 37.640625 27.21875 
Q 31.109375 20.453125 19.1875 8.296875 
z
" id="DejaVuSans-50"/>
      </defs>
      <g transform="translate(121.072438 322.182437)scale(0.1 -0.1)">
       <use xlink:href="#DejaVuSans-48"/>
       <use x="63.623047" xlink:href="#DejaVuSans-46"/>
       <use x="95.410156" xlink:href="#DejaVuSans-50"/>
      </g>
     </g>
    </g>
    <g id="xtick_3">
     <g id="line2d_3">
      <g>
       <use style="stroke:#000000;stroke-width:0.8;" x="200.448" xlink:href="#m0100b3507c" y="307.584"/>
      </g>
     </g>
     <g id="text_3">
      <!-- 0.4 -->
      <defs>
       <path d="M 37.796875 64.3125 
L 12.890625 25.390625 
L 37.796875 25.390625 
z
M 35.203125 72.90625 
L 47.609375 72.90625 
L 47.609375 25.390625 
L 58.015625 25.390625 
L 58.015625 17.1875 
L 47.609375 17.1875 
L 47.609375 0 
L 37.796875 0 
L 37.796875 17.1875 
L 4.890625 17.1875 
L 4.890625 26.703125 
z
" id="DejaVuSans-52"/>
      </defs>
      <g transform="translate(192.496438 322.182437)scale(0.1 -0.1)">
       <use xlink:href="#DejaVuSans-48"/>
       <use x="63.623047" xlink:href="#DejaVuSans-46"/>
       <use x="95.410156" xlink:href="#DejaVuSans-52"/>
      </g>
     </g>
    </g>
    <g id="xtick_4">
     <g id="line2d_4">
      <g>
       <use style="stroke:#000000;stroke-width:0.8;" x="271.872" xlink:href="#m0100b3507c" y="307.584"/>
      </g>
     </g>
     <g id="text_4">
      <!-- 0.6 -->
      <defs>
       <path d="M 33.015625 40.375 
Q 26.375 40.375 22.484375 35.828125 
Q 18.609375 31.296875 18.609375 23.390625 
Q 18.609375 15.53125 22.484375 10.953125 
Q 26.375 6.390625 33.015625 6.390625 
Q 39.65625 6.390625 43.53125 10.953125 
Q 47.40625 15.53125 47.40625 23.390625 
Q 47.40625 31.296875 43.53125 35.828125 
Q 39.65625 40.375 33.015625 40.375 
z
M 52.59375 71.296875 
L 52.59375 62.3125 
Q 48.875 64.0625 45.09375 64.984375 
Q 41.3125 65.921875 37.59375 65.921875 
Q 27.828125 65.921875 22.671875 59.328125 
Q 17.53125 52.734375 16.796875 39.40625 
Q 19.671875 43.65625 24.015625 45.921875 
Q 28.375 48.1875 33.59375 48.1875 
Q 44.578125 48.1875 50.953125 41.515625 
Q 57.328125 34.859375 57.328125 23.390625 
Q 57.328125 12.15625 50.6875 5.359375 
Q 44.046875 -1.421875 33.015625 -1.421875 
Q 20.359375 -1.421875 13.671875 8.265625 
Q 6.984375 17.96875 6.984375 36.375 
Q 6.984375 53.65625 15.1875 63.9375 
Q 23.390625 74.21875 37.203125 74.21875 
Q 40.921875 74.21875 44.703125 73.484375 
Q 48.484375 72.75 52.59375 71.296875 
z
" id="DejaVuSans-54"/>
      </defs>
      <g transform="translate(263.920438 322.182437)scale(0.1 -0.1)">
       <use xlink:href="#DejaVuSans-48"/>
       <use x="63.623047" xlink:href="#DejaVuSans-46"/>
       <use x="95.410156" xlink:href="#DejaVuSans-54"/>
      </g>
     </g>
    </g>
    <g id="xtick_5">
     <g id="line2d_5">
      <g>
       <use style="stroke:#000000;stroke-width:0.8;" x="343.296" xlink:href="#m0100b3507c" y="307.584"/>
      </g>
     </g>
     <g id="text_5">
      <!-- 0.8 -->
      <defs>
       <path d="M 31.78125 34.625 
Q 24.75 34.625 20.71875 30.859375 
Q 16.703125 27.09375 16.703125 20.515625 
Q 16.703125 13.921875 20.71875 10.15625 
Q 24.75 6.390625 31.78125 6.390625 
Q 38.8125 6.390625 42.859375 10.171875 
Q 46.921875 13.96875 46.921875 20.515625 
Q 46.921875 27.09375 42.890625 30.859375 
Q 38.875 34.625 31.78125 34.625 
z
M 21.921875 38.8125 
Q 15.578125 40.375 12.03125 44.71875 
Q 8.5 49.078125 8.5 55.328125 
Q 8.5 64.0625 14.71875 69.140625 
Q 20.953125 74.21875 31.78125 74.21875 
Q 42.671875 74.21875 48.875 69.140625 
Q 55.078125 64.0625 55.078125 55.328125 
Q 55.078125 49.078125 51.53125 44.71875 
Q 48 40.375 41.703125 38.8125 
Q 48.828125 37.15625 52.796875 32.3125 
Q 56.78125 27.484375 56.78125 20.515625 
Q 56.78125 9.90625 50.3125 4.234375 
Q 43.84375 -1.421875 31.78125 -1.421875 
Q 19.734375 -1.421875 13.25 4.234375 
Q 6.78125 9.90625 6.78125 20.515625 
Q 6.78125 27.484375 10.78125 32.3125 
Q 14.796875 37.15625 21.921875 38.8125 
z
M 18.3125 54.390625 
Q 18.3125 48.734375 21.84375 45.5625 
Q 25.390625 42.390625 31.78125 42.390625 
Q 38.140625 42.390625 41.71875 45.5625 
Q 45.3125 48.734375 45.3125 54.390625 
Q 45.3125 60.0625 41.71875 63.234375 
Q 38.140625 66.40625 31.78125 66.40625 
Q 25.390625 66.40625 21.84375 63.234375 
Q 18.3125 60.0625 18.3125 54.390625 
z
" id="DejaVuSans-56"/>
      </defs>
      <g transform="translate(335.344438 322.182437)scale(0.1 -0.1)">
       <use xlink:href="#DejaVuSans-48"/>
       <use x="63.623047" xlink:href="#DejaVuSans-46"/>
       <use x="95.410156" xlink:href="#DejaVuSans-56"/>
      </g>
     </g>
    </g>
    <g id="xtick_6">
     <g id="line2d_6">
      <g>
       <use style="stroke:#000000;stroke-width:0.8;" x="414.72" xlink:href="#m0100b3507c" y="307.584"/>
      </g>
     </g>
     <g id="text_6">
      <!-- 1.0 -->
      <defs>
       <path d="M 12.40625 8.296875 
L 28.515625 8.296875 
L 28.515625 63.921875 
L 10.984375 60.40625 
L 10.984375 69.390625 
L 28.421875 72.90625 
L 38.28125 72.90625 
L 38.28125 8.296875 
L 54.390625 8.296875 
L 54.390625 0 
L 12.40625 0 
z
" id="DejaVuSans-49"/>
      </defs>
      <g transform="translate(406.768438 322.182437)scale(0.1 -0.1)">
       <use xlink:href="#DejaVuSans-49"/>
       <use x="63.623047" xlink:href="#DejaVuSans-46"/>
       <use x="95.410156" xlink:href="#DejaVuSans-48"/>
      </g>
     </g>
    </g>
    <g id="text_7">
     <!-- Recall -->
     <defs>
      <path d="M 44.390625 34.1875 
Q 47.5625 33.109375 50.5625 29.59375 
Q 53.5625 26.078125 56.59375 19.921875 
L 66.609375 0 
L 56 0 
L 46.6875 18.703125 
Q 43.0625 26.03125 39.671875 28.421875 
Q 36.28125 30.8125 30.421875 30.8125 
L 19.671875 30.8125 
L 19.671875 0 
L 9.8125 0 
L 9.8125 72.90625 
L 32.078125 72.90625 
Q 44.578125 72.90625 50.734375 67.671875 
Q 56.890625 62.453125 56.890625 51.90625 
Q 56.890625 45.015625 53.6875 40.46875 
Q 50.484375 35.9375 44.390625 34.1875 
z
M 19.671875 64.796875 
L 19.671875 38.921875 
L 32.078125 38.921875 
Q 39.203125 38.921875 42.84375 42.21875 
Q 46.484375 45.515625 46.484375 51.90625 
Q 46.484375 58.296875 42.84375 61.546875 
Q 39.203125 64.796875 32.078125 64.796875 
z
" id="DejaVuSans-82"/>
      <path d="M 56.203125 29.59375 
L 56.203125 25.203125 
L 14.890625 25.203125 
Q 15.484375 15.921875 20.484375 11.0625 
Q 25.484375 6.203125 34.421875 6.203125 
Q 39.59375 6.203125 44.453125 7.46875 
Q 49.3125 8.734375 54.109375 11.28125 
L 54.109375 2.78125 
Q 49.265625 0.734375 44.1875 -0.34375 
Q 39.109375 -1.421875 33.890625 -1.421875 
Q 20.796875 -1.421875 13.15625 6.1875 
Q 5.515625 13.8125 5.515625 26.8125 
Q 5.515625 40.234375 12.765625 48.109375 
Q 20.015625 56 32.328125 56 
Q 43.359375 56 49.78125 48.890625 
Q 56.203125 41.796875 56.203125 29.59375 
z
M 47.21875 32.234375 
Q 47.125 39.59375 43.09375 43.984375 
Q 39.0625 48.390625 32.421875 48.390625 
Q 24.90625 48.390625 20.390625 44.140625 
Q 15.875 39.890625 15.1875 32.171875 
z
" id="DejaVuSans-101"/>
      <path d="M 48.78125 52.59375 
L 48.78125 44.1875 
Q 44.96875 46.296875 41.140625 47.34375 
Q 37.3125 48.390625 33.40625 48.390625 
Q 24.65625 48.390625 19.8125 42.84375 
Q 14.984375 37.3125 14.984375 27.296875 
Q 14.984375 17.28125 19.8125 11.734375 
Q 24.65625 6.203125 33.40625 6.203125 
Q 37.3125 6.203125 41.140625 7.25 
Q 44.96875 8.296875 48.78125 10.40625 
L 48.78125 2.09375 
Q 45.015625 0.34375 40.984375 -0.53125 
Q 36.96875 -1.421875 32.421875 -1.421875 
Q 20.0625 -1.421875 12.78125 6.34375 
Q 5.515625 14.109375 5.515625 27.296875 
Q 5.515625 40.671875 12.859375 48.328125 
Q 20.21875 56 33.015625 56 
Q 37.15625 56 41.109375 55.140625 
Q 45.0625 54.296875 48.78125 52.59375 
z
" id="DejaVuSans-99"/>
      <path d="M 34.28125 27.484375 
Q 23.390625 27.484375 19.1875 25 
Q 14.984375 22.515625 14.984375 16.5 
Q 14.984375 11.71875 18.140625 8.90625 
Q 21.296875 6.109375 26.703125 6.109375 
Q 34.1875 6.109375 38.703125 11.40625 
Q 43.21875 16.703125 43.21875 25.484375 
L 43.21875 27.484375 
z
M 52.203125 31.203125 
L 52.203125 0 
L 43.21875 0 
L 43.21875 8.296875 
Q 40.140625 3.328125 35.546875 0.953125 
Q 30.953125 -1.421875 24.3125 -1.421875 
Q 15.921875 -1.421875 10.953125 3.296875 
Q 6 8.015625 6 15.921875 
Q 6 25.140625 12.171875 29.828125 
Q 18.359375 34.515625 30.609375 34.515625 
L 43.21875 34.515625 
L 43.21875 35.40625 
Q 43.21875 41.609375 39.140625 45 
Q 35.0625 48.390625 27.6875 48.390625 
Q 23 48.390625 18.546875 47.265625 
Q 14.109375 46.140625 10.015625 43.890625 
L 10.015625 52.203125 
Q 14.9375 54.109375 19.578125 55.046875 
Q 24.21875 56 28.609375 56 
Q 40.484375 56 46.34375 49.84375 
Q 52.203125 43.703125 52.203125 31.203125 
z
" id="DejaVuSans-97"/>
      <path d="M 9.421875 75.984375 
L 18.40625 75.984375 
L 18.40625 0 
L 9.421875 0 
z
" id="DejaVuSans-108"/>
     </defs>
     <g transform="translate(221.020938 335.860562)scale(0.1 -0.1)">
      <use xlink:href="#DejaVuSans-82"/>
      <use x="69.419922" xlink:href="#DejaVuSans-101"/>
      <use x="130.943359" xlink:href="#DejaVuSans-99"/>
      <use x="185.923828" xlink:href="#DejaVuSans-97"/>
      <use x="247.203125" xlink:href="#DejaVuSans-108"/>
      <use x="274.986328" xlink:href="#DejaVuSans-108"/>
     </g>
    </g>
   </g>
   <g id="matplotlib.axis_2">
    <g id="ytick_1">
     <g id="line2d_7">
      <defs>
       <path d="M 0 0 
L -3.5 0 
" id="mbd183e6708" style="stroke:#000000;stroke-width:0.8;"/>
      </defs>
      <g>
       <use style="stroke:#000000;stroke-width:0.8;" x="57.6" xlink:href="#mbd183e6708" y="307.584"/>
      </g>
     </g>
     <g id="text_8">
      <!-- 0.0 -->
      <g transform="translate(34.696875 311.383219)scale(0.1 -0.1)">
       <use xlink:href="#DejaVuSans-48"/>
       <use x="63.623047" xlink:href="#DejaVuSans-46"/>
       <use x="95.410156" xlink:href="#DejaVuSans-48"/>
      </g>
     </g>
    </g>
    <g id="ytick_2">
     <g id="line2d_8">
      <g>
       <use style="stroke:#000000;stroke-width:0.8;" x="57.6" xlink:href="#mbd183e6708" y="256.896"/>
      </g>
     </g>
     <g id="text_9">
      <!-- 0.2 -->
      <g transform="translate(34.696875 260.695219)scale(0.1 -0.1)">
       <use xlink:href="#DejaVuSans-48"/>
       <use x="63.623047" xlink:href="#DejaVuSans-46"/>
       <use x="95.410156" xlink:href="#DejaVuSans-50"/>
      </g>
     </g>
    </g>
    <g id="ytick_3">
     <g id="line2d_9">
      <g>
       <use style="stroke:#000000;stroke-width:0.8;" x="57.6" xlink:href="#mbd183e6708" y="206.208"/>
      </g>
     </g>
     <g id="text_10">
      <!-- 0.4 -->
      <g transform="translate(34.696875 210.007219)scale(0.1 -0.1)">
       <use xlink:href="#DejaVuSans-48"/>
       <use x="63.623047" xlink:href="#DejaVuSans-46"/>
       <use x="95.410156" xlink:href="#DejaVuSans-52"/>
      </g>
     </g>
    </g>
    <g id="ytick_4">
     <g id="line2d_10">
      <g>
       <use style="stroke:#000000;stroke-width:0.8;" x="57.6" xlink:href="#mbd183e6708" y="155.52"/>
      </g>
     </g>
     <g id="text_11">
      <!-- 0.6 -->
      <g transform="translate(34.696875 159.319219)scale(0.1 -0.1)">
       <use xlink:href="#DejaVuSans-48"/>
       <use x="63.623047" xlink:href="#DejaVuSans-46"/>
       <use x="95.410156" xlink:href="#DejaVuSans-54"/>
      </g>
     </g>
    </g>
    <g id="ytick_5">
     <g id="line2d_11">
      <g>
       <use style="stroke:#000000;stroke-width:0.8;" x="57.6" xlink:href="#mbd183e6708" y="104.832"/>
      </g>
     </g>
     <g id="text_12">
      <!-- 0.8 -->
      <g transform="translate(34.696875 108.631219)scale(0.1 -0.1)">
       <use xlink:href="#DejaVuSans-48"/>
       <use x="63.623047" xlink:href="#DejaVuSans-46"/>
       <use x="95.410156" xlink:href="#DejaVuSans-56"/>
      </g>
     </g>
    </g>
    <g id="ytick_6">
     <g id="line2d_12">
      <g>
       <use style="stroke:#000000;stroke-width:0.8;" x="57.6" xlink:href="#mbd183e6708" y="54.144"/>
      </g>
     </g>
     <g id="text_13">
      <!-- 1.0 -->
      <g transform="translate(34.696875 57.943219)scale(0.1 -0.1)">
       <use xlink:href="#DejaVuSans-49"/>
       <use x="63.623047" xlink:href="#DejaVuSans-46"/>
       <use x="95.410156" xlink:href="#DejaVuSans-48"/>
      </g>
     </g>
    </g>
    <g id="text_14">
     <!-- Precision -->
     <defs>
      <path d="M 19.671875 64.796875 
L 19.671875 37.40625 
L 32.078125 37.40625 
Q 38.96875 37.40625 42.71875 40.96875 
Q 46.484375 44.53125 46.484375 51.125 
Q 46.484375 57.671875 42.71875 61.234375 
Q 38.96875 64.796875 32.078125 64.796875 
z
M 9.8125 72.90625 
L 32.078125 72.90625 
Q 44.34375 72.90625 50.609375 67.359375 
Q 56.890625 61.8125 56.890625 51.125 
Q 56.890625 40.328125 50.609375 34.8125 
Q 44.34375 29.296875 32.078125 29.296875 
L 19.671875 29.296875 
L 19.671875 0 
L 9.8125 0 
z
" id="DejaVuSans-80"/>
      <path d="M 41.109375 46.296875 
Q 39.59375 47.171875 37.8125 47.578125 
Q 36.03125 48 33.890625 48 
Q 26.265625 48 22.1875 43.046875 
Q 18.109375 38.09375 18.109375 28.8125 
L 18.109375 0 
L 9.078125 0 
L 9.078125 54.6875 
L 18.109375 54.6875 
L 18.109375 46.1875 
Q 20.953125 51.171875 25.484375 53.578125 
Q 30.03125 56 36.53125 56 
Q 37.453125 56 38.578125 55.875 
Q 39.703125 55.765625 41.0625 55.515625 
z
" id="DejaVuSans-114"/>
      <path d="M 9.421875 54.6875 
L 18.40625 54.6875 
L 18.40625 0 
L 9.421875 0 
z
M 9.421875 75.984375 
L 18.40625 75.984375 
L 18.40625 64.59375 
L 9.421875 64.59375 
z
" id="DejaVuSans-105"/>
      <path d="M 44.28125 53.078125 
L 44.28125 44.578125 
Q 40.484375 46.53125 36.375 47.5 
Q 32.28125 48.484375 27.875 48.484375 
Q 21.1875 48.484375 17.84375 46.4375 
Q 14.5 44.390625 14.5 40.28125 
Q 14.5 37.15625 16.890625 35.375 
Q 19.28125 33.59375 26.515625 31.984375 
L 29.59375 31.296875 
Q 39.15625 29.25 43.1875 25.515625 
Q 47.21875 21.78125 47.21875 15.09375 
Q 47.21875 7.46875 41.1875 3.015625 
Q 35.15625 -1.421875 24.609375 -1.421875 
Q 20.21875 -1.421875 15.453125 -0.5625 
Q 10.6875 0.296875 5.421875 2 
L 5.421875 11.28125 
Q 10.40625 8.6875 15.234375 7.390625 
Q 20.0625 6.109375 24.8125 6.109375 
Q 31.15625 6.109375 34.5625 8.28125 
Q 37.984375 10.453125 37.984375 14.40625 
Q 37.984375 18.0625 35.515625 20.015625 
Q 33.0625 21.96875 24.703125 23.78125 
L 21.578125 24.515625 
Q 13.234375 26.265625 9.515625 29.90625 
Q 5.8125 33.546875 5.8125 39.890625 
Q 5.8125 47.609375 11.28125 51.796875 
Q 16.75 56 26.8125 56 
Q 31.78125 56 36.171875 55.265625 
Q 40.578125 54.546875 44.28125 53.078125 
z
" id="DejaVuSans-115"/>
      <path d="M 30.609375 48.390625 
Q 23.390625 48.390625 19.1875 42.75 
Q 14.984375 37.109375 14.984375 27.296875 
Q 14.984375 17.484375 19.15625 11.84375 
Q 23.34375 6.203125 30.609375 6.203125 
Q 37.796875 6.203125 41.984375 11.859375 
Q 46.1875 17.53125 46.1875 27.296875 
Q 46.1875 37.015625 41.984375 42.703125 
Q 37.796875 48.390625 30.609375 48.390625 
z
M 30.609375 56 
Q 42.328125 56 49.015625 48.375 
Q 55.71875 40.765625 55.71875 27.296875 
Q 55.71875 13.875 49.015625 6.21875 
Q 42.328125 -1.421875 30.609375 -1.421875 
Q 18.84375 -1.421875 12.171875 6.21875 
Q 5.515625 13.875 5.515625 27.296875 
Q 5.515625 40.765625 12.171875 48.375 
Q 18.84375 56 30.609375 56 
z
" id="DejaVuSans-111"/>
      <path d="M 54.890625 33.015625 
L 54.890625 0 
L 45.90625 0 
L 45.90625 32.71875 
Q 45.90625 40.484375 42.875 44.328125 
Q 39.84375 48.1875 33.796875 48.1875 
Q 26.515625 48.1875 22.3125 43.546875 
Q 18.109375 38.921875 18.109375 30.90625 
L 18.109375 0 
L 9.078125 0 
L 9.078125 54.6875 
L 18.109375 54.6875 
L 18.109375 46.1875 
Q 21.34375 51.125 25.703125 53.5625 
Q 30.078125 56 35.796875 56 
Q 45.21875 56 50.046875 50.171875 
Q 54.890625 44.34375 54.890625 33.015625 
z
" id="DejaVuSans-110"/>
     </defs>
     <g transform="translate(28.617187 197.032688)rotate(-90)scale(0.1 -0.1)">
      <use xlink:href="#DejaVuSans-80"/>
      <use x="60.287109" xlink:href="#DejaVuSans-114"/>
      <use x="101.369141" xlink:href="#DejaVuSans-101"/>
      <use x="162.892578" xlink:href="#DejaVuSans-99"/>
      <use x="217.873047" xlink:href="#DejaVuSans-105"/>
      <use x="245.65625" xlink:href="#DejaVuSans-115"/>
      <use x="297.755859" xlink:href="#DejaVuSans-105"/>
      <use x="325.539062" xlink:href="#DejaVuSans-111"/>
      <use x="386.720703" xlink:href="#DejaVuSans-110"/>
     </g>
    </g>
   </g>
   <g id="line2d_13">
    <path clip-path="url(#p99ce883c05)" d="M 414.72 232.922654 
L 401.353351 232.922654 
L 401.353351 230.472564 
L 400.284019 230.472564 
L 400.284019 229.767671 
L 399.546548 229.767671 
L 399.546548 229.654498 
L 398.919699 229.654498 
L 398.919699 229.41896 
L 397.795056 229.41896 
L 397.795056 229.134135 
L 396.744161 229.026684 
L 396.744161 228.938463 
L 394.58706 228.912348 
L 394.58706 228.435963 
L 392.300902 228.342957 
L 392.300902 228.218966 
L 390.623157 228.218966 
L 390.623157 227.915929 
L 389.719756 227.824369 
L 389.719756 227.565278 
L 380.31701 227.522196 
L 380.31701 223.357424 
L 377.053704 223.269862 
L 377.053704 221.805298 
L 373.181985 221.758972 
L 373.181985 221.316526 
L 369.973989 221.295136 
L 369.973989 221.089209 
L 364.90388 221.023424 
L 364.90388 220.761722 
L 364.516708 220.761722 
L 364.516708 220.619089 
L 362.673033 220.610319 
L 362.673033 220.11744 
L 357.750418 220.122165 
L 357.639798 219.437079 
L 355.796122 219.437079 
L 355.796122 218.948228 
L 355.759248 218.949605 
L 354.948031 218.875882 
L 354.948031 218.681281 
L 354.118377 218.681281 
L 354.063067 218.396903 
L 350.449462 218.396903 
L 350.449462 218.230551 
L 347.407397 218.205793 
L 347.407397 217.433893 
L 347.075535 217.433893 
L 347.075535 217.318565 
L 336.64033 217.293516 
L 336.64033 216.093889 
L 336.621894 216.097752 
L 334.870402 216.097752 
L 334.870402 215.056528 
L 329.413121 215.056528 
L 329.413121 213.971084 
L 328.491283 213.971084 
L 328.491283 213.617614 
L 326.315746 213.534451 
L 326.278872 213.290525 
L 326.260436 213.294588 
L 320.43442 213.197882 
L 320.43442 212.506485 
L 318.904169 212.471966 
L 318.904169 212.388677 
L 318.203573 212.420431 
L 318.203573 212.061658 
L 314.35029 211.953975 
L 314.35029 211.775177 
L 306.772783 211.768856 
L 306.772783 211.506987 
L 305.814071 211.506987 
L 305.814071 211.336709 
L 303.103868 211.336709 
L 303.103868 211.45756 
L 302.034536 211.358312 
L 302.034536 211.242356 
L 296.816933 211.242356 
L 296.798497 210.694748 
L 296.72475 210.707492 
L 293.42457 210.707492 
L 293.42457 210.394642 
L 284.814604 210.394642 
L 284.740857 209.685311 
L 283.524031 209.685311 
L 283.524031 209.530334 
L 272.296045 209.477386 
L 272.296045 209.328222 
L 270.950162 209.328222 
L 270.950162 209.213849 
L 268.645567 209.138526 
L 268.645567 208.9129 
L 268.276832 208.86043 
L 268.276832 208.766008 
L 264.460423 208.783287 
L 264.460423 208.227019 
L 263.151414 208.227019 
L 263.151414 207.954136 
L 258.413167 207.872269 
L 258.413167 207.360042 
L 257.417582 207.360042 
L 257.417582 207.244905 
L 252.089359 207.207476 
L 252.089359 206.935031 
L 251.73906 206.935031 
L 251.73906 206.812818 
L 250.817223 206.812818 
L 250.725039 206.495583 
L 247.738284 206.495583 
L 247.738284 206.178502 
L 244.640909 206.178502 
L 244.640909 205.836917 
L 239.478616 205.870489 
L 239.478616 205.347827 
L 238.09586 205.268795 
L 238.09586 205.017856 
L 238.040549 205.023848 
L 236.233747 204.973908 
L 236.233747 204.685066 
L 233.062625 204.733695 
L 233.062625 204.83251 
L 230.647409 204.793654 
L 230.647409 204.686351 
L 222.443052 204.64239 
L 222.406179 204.037213 
L 219.308803 204.037213 
L 219.308803 203.689709 
L 213.814649 203.689709 
L 213.814649 203.097959 
L 209.795436 203.097959 
L 209.795436 202.960947 
L 207.822703 203.00676 
L 207.822703 202.754866 
L 205.481235 202.722099 
L 205.481235 202.581818 
L 198.34621 202.663612 
L 198.34621 202.451089 
L 196.963453 202.451089 
L 196.963453 202.328632 
L 195.082903 202.37194 
L 195.082903 202.185412 
L 193.147044 202.185412 
L 193.147044 201.895351 
L 187.173534 201.94923 
L 187.173534 202.263735 
L 187.02604 202.263735 
L 187.02604 202.0967 
L 181.236898 202.056346 
L 181.144715 200.178141 
L 172.18445 200.181422 
L 172.18445 199.320229 
L 170.488268 199.320229 
L 170.488268 197.682221 
L 164.201334 197.74313 
L 164.201334 197.511884 
L 163.187312 197.465918 
L 163.187312 197.391859 
L 161.95205 197.426247 
L 161.95205 197.01047 
L 157.490354 197.01047 
L 157.39817 197.68488 
L 156.107597 197.738851 
L 156.107597 197.384625 
L 155.996977 197.391798 
L 150.889995 197.391798 
L 150.889995 197.174495 
L 150.668754 197.174495 
L 150.668754 196.979252 
L 150.650317 196.991602 
L 147.128896 197.052801 
L 147.128896 196.449393 
L 146.833908 196.449393 
L 146.833908 196.212146 
L 145.709266 196.211033 
L 145.709266 195.922733 
L 144.916485 195.922733 
L 144.916485 195.585135 
L 141.450375 195.541581 
L 141.450375 195.469894 
L 140.768215 195.469894 
L 140.768215 195.333844 
L 140.546974 195.333844 
L 140.546974 195.157796 
L 139.77263 195.157796 
L 139.77263 194.670957 
L 136.601507 194.646236 
L 136.601507 194.929394 
L 135.329371 194.929394 
L 135.329371 194.741774 
L 128.378713 194.687747 
L 128.378713 195.401807 
L 128.268093 195.318252 
L 127.08814 195.266016 
L 127.08814 195.152814 
L 125.096971 195.056029 
L 125.096971 194.721351 
L 119.049714 194.721351 
L 119.049714 195.552764 
L 118.994404 195.460285 
L 115.860155 195.357003 
L 115.860155 194.578441 
L 115.749534 194.58573 
L 115.399236 194.58573 
L 115.399236 194.707966 
L 113.721491 194.707966 
L 113.721491 194.298925 
L 101.000128 194.298925 
L 101.000128 200.011378 
L 100.465462 200.011378 
L 100.465462 200.155012 
L 100.170474 200.155012 
L 100.115164 200.309286 
L 99.082705 200.309286 
L 99.082705 199.971243 
L 94.952871 199.971243 
L 94.952871 202.343287 
L 94.915998 202.274503 
L 89.440281 202.274503 
L 89.440281 205.271966 
L 88.739684 205.271966 
L 88.739684 204.907061 
L 88.555316 204.907061 
L 88.555316 204.600999 
L 87.817846 204.600999 
L 87.817846 204.765149 
L 86.711641 204.765149 
L 86.711641 205.288049 
L 86.121664 205.288049 
L 86.121664 205.508582 
L 86.066354 205.493898 
L 85.439504 205.518728 
L 85.439504 206.046616 
L 83.761759 206.046616 
L 83.761759 206.336432 
L 83.116473 206.336432 
L 83.116473 206.061291 
L 81.789026 206.061291 
L 81.789026 206.944387 
L 80.332522 206.944387 
L 80.332522 208.096092 
L 80.314086 208.018286 
L 79.926914 208.114299 
L 79.871604 207.598526 
L 78.949766 207.598526 
L 78.839145 207.801744 
L 78.359789 207.801744 
L 78.359789 207.382652 
L 77.84356 207.382652 
L 77.84356 207.914544 
L 77.714503 207.914544 
L 77.714503 207.763408 
L 76.977033 207.763408 
L 76.921722 206.091788 
L 76.42393 206.148969 
L 76.42393 206.42597 
L 70.837592 206.42597 
L 70.837592 218.514044 
L 69.989501 218.514044 
L 69.989501 220.199865 
L 69.860444 220.199865 
L 69.860444 219.940942 
L 69.510146 219.968475 
L 69.510146 219.797276 
L 68.532997 219.797276 
L 68.532997 221.55657 
L 67.740217 221.55657 
L 67.684907 223.666518 
L 67.555849 223.666518 
L 67.555849 223.827819 
L 67.242424 223.827819 
L 67.242424 223.372361 
L 66.615575 223.372361 
L 66.615575 224.296258 
L 66.339023 224.296258 
L 66.339023 222.985014 
L 66.320586 223.044423 
L 66.080909 223.044423 
L 66.080909 223.590916 
L 65.601553 223.590916 
L 65.509369 225.153553 
L 65.472496 225.153553 
L 65.361875 224.936254 
L 65.288128 224.936254 
L 65.288128 225.146808 
L 64.900956 225.146808 
L 64.864083 227.443262 
L 64.716589 227.386715 
L 64.605968 227.059585 
L 64.495347 227.059585 
L 64.384727 228.208749 
L 57.6 228.23495 
L 57.6 54.144 
L 57.6 54.144 
" style="fill:none;stroke:#0000ff;stroke-linecap:square;stroke-opacity:0.2;stroke-width:1.5;"/>
   </g>
   <g id="patch_3">
    <path d="M 57.6 307.584 
L 57.6 41.472 
" style="fill:none;stroke:#000000;stroke-linecap:square;stroke-linejoin:miter;stroke-width:0.8;"/>
   </g>
   <g id="patch_4">
    <path d="M 414.72 307.584 
L 414.72 41.472 
" style="fill:none;stroke:#000000;stroke-linecap:square;stroke-linejoin:miter;stroke-width:0.8;"/>
   </g>
   <g id="patch_5">
    <path d="M 57.6 307.584 
L 414.72 307.584 
" style="fill:none;stroke:#000000;stroke-linecap:square;stroke-linejoin:miter;stroke-width:0.8;"/>
   </g>
   <g id="patch_6">
    <path d="M 57.6 41.472 
L 414.72 41.472 
" style="fill:none;stroke:#000000;stroke-linecap:square;stroke-linejoin:miter;stroke-width:0.8;"/>
   </g>
   <g id="text_15">
    <!-- 2-class Precision-Recall curve -->
    <defs>
     <path d="M 4.890625 31.390625 
L 31.203125 31.390625 
L 31.203125 23.390625 
L 4.890625 23.390625 
z
" id="DejaVuSans-45"/>
     <path id="DejaVuSans-32"/>
     <path d="M 8.5 21.578125 
L 8.5 54.6875 
L 17.484375 54.6875 
L 17.484375 21.921875 
Q 17.484375 14.15625 20.5 10.265625 
Q 23.53125 6.390625 29.59375 6.390625 
Q 36.859375 6.390625 41.078125 11.03125 
Q 45.3125 15.671875 45.3125 23.6875 
L 45.3125 54.6875 
L 54.296875 54.6875 
L 54.296875 0 
L 45.3125 0 
L 45.3125 8.40625 
Q 42.046875 3.421875 37.71875 1 
Q 33.40625 -1.421875 27.6875 -1.421875 
Q 18.265625 -1.421875 13.375 4.4375 
Q 8.5 10.296875 8.5 21.578125 
z
M 31.109375 56 
z
" id="DejaVuSans-117"/>
     <path d="M 2.984375 54.6875 
L 12.5 54.6875 
L 29.59375 8.796875 
L 46.6875 54.6875 
L 56.203125 54.6875 
L 35.6875 0 
L 23.484375 0 
z
" id="DejaVuSans-118"/>
    </defs>
    <g transform="translate(147.321562 35.472)scale(0.12 -0.12)">
     <use xlink:href="#DejaVuSans-50"/>
     <use x="63.623047" xlink:href="#DejaVuSans-45"/>
     <use x="99.707031" xlink:href="#DejaVuSans-99"/>
     <use x="154.6875" xlink:href="#DejaVuSans-108"/>
     <use x="182.470703" xlink:href="#DejaVuSans-97"/>
     <use x="243.75" xlink:href="#DejaVuSans-115"/>
     <use x="295.849609" xlink:href="#DejaVuSans-115"/>
     <use x="347.949219" xlink:href="#DejaVuSans-32"/>
     <use x="379.736328" xlink:href="#DejaVuSans-80"/>
     <use x="440.023438" xlink:href="#DejaVuSans-114"/>
     <use x="481.105469" xlink:href="#DejaVuSans-101"/>
     <use x="542.628906" xlink:href="#DejaVuSans-99"/>
     <use x="597.609375" xlink:href="#DejaVuSans-105"/>
     <use x="625.392578" xlink:href="#DejaVuSans-115"/>
     <use x="677.492188" xlink:href="#DejaVuSans-105"/>
     <use x="705.275391" xlink:href="#DejaVuSans-111"/>
     <use x="766.457031" xlink:href="#DejaVuSans-110"/>
     <use x="829.835938" xlink:href="#DejaVuSans-45"/>
     <use x="865.919922" xlink:href="#DejaVuSans-82"/>
     <use x="935.339844" xlink:href="#DejaVuSans-101"/>
     <use x="996.863281" xlink:href="#DejaVuSans-99"/>
     <use x="1051.84375" xlink:href="#DejaVuSans-97"/>
     <use x="1113.123047" xlink:href="#DejaVuSans-108"/>
     <use x="1140.90625" xlink:href="#DejaVuSans-108"/>
     <use x="1168.689453" xlink:href="#DejaVuSans-32"/>
     <use x="1200.476562" xlink:href="#DejaVuSans-99"/>
     <use x="1255.457031" xlink:href="#DejaVuSans-117"/>
     <use x="1318.835938" xlink:href="#DejaVuSans-114"/>
     <use x="1359.949219" xlink:href="#DejaVuSans-118"/>
     <use x="1419.128906" xlink:href="#DejaVuSans-101"/>
    </g>
   </g>
  </g>
 </g>
 <defs>
  <clipPath id="p99ce883c05">
   <rect height="266.112" width="357.12" x="57.6" y="41.472"/>
  </clipPath>
 </defs>
</svg>
