<?xml version="1.0" encoding="utf-8" standalone="no"?>
<!DOCTYPE svg PUBLIC "-//W3C//DTD SVG 1.1//EN"
  "http://www.w3.org/Graphics/SVG/1.1/DTD/svg11.dtd">
<!-- Created with matplotlib (https://matplotlib.org/) -->
<svg height="345.6pt" version="1.1" viewBox="0 0 460.8 345.6" width="460.8pt" xmlns="http://www.w3.org/2000/svg" xmlns:xlink="http://www.w3.org/1999/xlink">
 <defs>
  <style type="text/css">
*{stroke-linecap:butt;stroke-linejoin:round;}
  </style>
 </defs>
 <g id="figure_1">
  <g id="patch_1">
   <path d="M 0 345.6 
L 460.8 345.6 
L 460.8 0 
L 0 0 
z
" style="fill:#ffffff;"/>
  </g>
  <g id="axes_1">
   <g id="patch_2">
    <path d="M 57.6 307.584 
L 414.72 307.584 
L 414.72 41.472 
L 57.6 41.472 
z
" style="fill:#ffffff;"/>
   </g>
   <g id="PolyCollection_1">
    <defs>
     <path d="M 414.72 -38.016 
L 414.72 -111.792458 
L 401.715485 -114.754851 
L 400.939868 -115.348917 
L 400.112543 -115.474028 
L 399.466196 -115.731253 
L 398.30277 -116.03306 
L 397.966669 -116.056361 
L 397.733984 -116.119927 
L 397.475445 -116.201583 
L 397.191052 -116.237119 
L 395.510548 -116.625825 
L 394.838346 -116.609333 
L 394.372976 -116.689787 
L 392.770034 -116.826174 
L 390.805137 -117.069553 
L 390.572452 -117.079409 
L 390.339767 -117.139152 
L 389.512442 -118.050997 
L 389.072926 -118.065129 
L 381.88554 -121.759359 
L 381.807978 -121.790089 
L 381.549439 -121.816058 
L 380.954799 -121.803742 
L 380.903091 -121.801417 
L 379.067464 -122.997203 
L 378.007454 -123.005769 
L 377.929892 -123.042715 
L 376.19768 -123.378044 
L 376.016703 -123.376217 
L 375.13767 -123.350597 
L 374.6723 -123.36358 
L 373.922537 -123.375055 
L 373.896683 -123.375128 
L 373.405459 -123.378863 
L 372.784965 -123.397132 
L 371.414708 -123.389261 
L 371.285438 -123.375414 
L 369.604934 -123.693459 
L 368.674194 -124.013633 
L 368.363947 -124.075913 
L 368.079554 -124.079821 
L 367.950285 -124.090233 
L 365.778556 -124.766655 
L 365.261478 -124.793039 
L 365.209771 -124.788442 
L 364.615131 -124.737992 
L 361.952178 -125.395794 
L 359.44435 -125.856641 
L 359.418496 -125.856941 
L 359.056541 -125.955245 
L 358.617025 -126.09701 
L 357.505307 -126.447463 
L 357.505307 -126.452784 
L 355.204309 -126.670324 
L 354.997478 -126.694945 
L 352.179402 -127.495901 
L 351.76574 -127.611784 
L 350.860853 -127.718007 
L 348.353024 -127.726309 
L 347.654969 -127.751005 
L 347.629115 -127.774166 
L 347.060329 -127.879005 
L 341.83784 -129.188388 
L 341.734424 -129.199972 
L 341.734424 -129.250747 
L 336.563643 -130.323767 
L 335.529487 -130.565766 
L 334.676308 -130.659307 
L 334.081668 -130.859497 
L 333.125073 -131.08023 
L 332.039209 -131.107996 
L 332.013356 -131.118556 
L 332.013356 -131.121779 
L 331.547985 -131.199325 
L 331.418716 -131.181216 
L 331.3153 -131.1816 
L 324.929385 -131.919666 
L 324.515723 -131.881993 
L 324.205476 -131.978511 
L 324.024499 -131.975534 
L 323.817667 -132.010802 
L 323.740106 -132.010501 
L 322.654242 -132.179987 
L 322.240579 -132.149018 
L 322.007894 -132.240621 
L 320.947884 -132.308492 
L 320.741053 -132.341239 
L 318.543471 -132.559536 
L 318.259078 -132.599827 
L 316.035642 -132.640668 
L 311.950725 -132.978779 
L 311.433647 -133.104426 
L 311.1234 -133.079024 
L 310.218513 -133.19115 
L 309.959974 -133.324516 
L 307.943369 -133.806605 
L 307.917515 -133.822891 
L 307.839954 -133.804424 
L 305.694079 -134.158087 
L 296.955459 -135.000562 
L 296.877898 -135.021261 
L 295.404225 -135.223836 
L 294.964709 -135.324157 
L 290.595399 -135.149677 
L 285.631449 -134.859462 
L 284.933393 -134.99154 
L 282.916789 -135.188442 
L 282.658249 -135.200935 
L 282.658249 -135.205216 
L 282.632396 -135.249736 
L 281.649947 -135.223712 
L 280.564083 -135.338404 
L 280.357252 -135.378183 
L 280.072859 -135.492923 
L 279.34895 -135.45884 
L 278.444063 -135.410479 
L 274.7211 -135.9946 
L 273.66109 -136.23972 
L 271.799609 -136.314319 
L 269.265926 -136.877887 
L 268.180062 -137.035945 
L 267.378591 -137.015237 
L 266.835659 -137.0355 
L 261.897563 -137.183263 
L 261.61317 -137.295936 
L 260.346329 -137.773892 
L 260.268767 -137.810864 
L 257.735084 -138.183418 
L 254.968716 -138.460448 
L 254.65847 -138.412013 
L 251.504293 -138.428044 
L 250.547699 -138.741462 
L 250.289159 -138.762084 
L 250.289159 -138.794334 
L 250.263306 -138.834602 
L 250.237452 -138.837219 
L 249.229149 -139.026769 
L 246.152535 -139.272597 
L 245.971557 -139.330816 
L 244.653008 -139.316392 
L 244.627154 -139.313583 
L 241.188585 -139.149883 
L 239.714912 -139.156522 
L 238.499778 -139.2271 
L 237.465622 -139.197113 
L 237.05196 -139.237419 
L 236.353904 -139.268985 
L 229.683597 -139.826407 
L 229.657743 -139.915662 
L 226.555274 -140.164168 
L 221.462055 -141.017136 
L 217.32543 -141.297815 
L 215.800049 -141.23747 
L 215.231263 -141.548575 
L 214.197107 -141.514252 
L 213.240513 -141.559183 
L 211.870256 -141.554031 
L 207.707777 -141.429637 
L 205.510195 -141.619447 
L 203.467736 -141.730258 
L 203.02822 -141.703541 
L 202.976512 -141.719473 
L 201.528693 -141.515155 
L 199.460381 -141.972439 
L 199.25355 -141.921849 
L 194.729116 -141.698666 
L 194.418869 -142.017588 
L 194.056915 -141.927778 
L 193.875937 -142.072881 
L 193.824229 -142.098257 
L 190.38566 -142.099467 
L 189.946143 -142.549024 
L 189.816874 -142.5986 
L 186.01635 -142.779356 
L 185.88708 -142.726182 
L 184.852924 -142.948005 
L 178.958234 -143.621625 
L 177.975785 -143.913572 
L 173.684037 -143.753372 
L 172.546465 -143.689285 
L 172.417195 -143.738998 
L 171.046938 -143.929783 
L 170.504006 -143.947516 
L 170.167906 -144.038075 
L 170.012782 -144.024381 
L 167.401538 -144.649612 
L 162.153195 -143.655184 
L 162.127341 -143.650837 
L 161.32587 -143.712599 
L 160.912207 -144.16276 
L 160.214152 -144.505875 
L 154.991663 -144.902305 
L 154.784832 -144.962673 
L 153.621406 -144.785074 
L 150.984308 -145.145933 
L 150.389668 -145.457077 
L 149.846736 -145.437468 
L 149.096972 -145.625377 
L 148.295501 -145.951841 
L 148.21794 -146.030008 
L 143.796922 -145.559459 
L 143.667652 -145.521321 
L 142.271541 -145.796288 
L 141.728609 -145.819106 
L 138.988095 -145.409878 
L 137.850523 -145.573801 
L 136.557828 -145.591505 
L 135.601234 -145.664667 
L 129.990936 -145.438343 
L 129.88752 -145.529009 
L 129.577274 -145.540681 
L 129.189465 -145.551299 
L 128.594825 -145.631005 
L 128.284578 -145.693538 
L 126.810906 -145.316155 
L 126.293828 -145.689502 
L 119.62352 -144.814272 
L 114.788839 -145.432992 
L 112.772235 -146.162563 
L 112.720527 -146.169339 
L 112.436134 -146.087218 
L 110.729776 -146.587857 
L 95.812073 -140.473418 
L 95.656949 -140.675241 
L 95.372556 -140.55708 
L 95.346702 -140.60053 
L 94.312546 -141.105315 
L 90.046652 -138.542928 
L 89.994944 -138.541584 
L 87.331992 -136.982384 
L 85.806611 -137.872641 
L 85.729049 -138.140444 
L 85.160264 -138.11494 
L 83.634883 -136.288653 
L 83.143659 -135.675407 
L 83.066097 -135.607243 
L 82.988535 -135.615247 
L 82.445603 -134.972943 
L 81.82511 -135.621129 
L 80.273875 -134.027611 
L 79.317281 -133.653736 
L 78.619225 -133.718146 
L 78.38654 -133.546127 
L 78.179709 -133.853644 
L 77.171407 -133.94304 
L 76.809452 -133.216162 
L 76.628475 -133.771565 
L 76.007981 -133.039318 
L 75.775296 -133.191385 
L 75.07724 -135.916251 
L 75.051386 -136.05153 
L 75.051386 -136.107743 
L 74.844555 -136.240567 
L 74.508454 -135.573245 
L 67.088383 -115.5264 
L 66.157643 -112.849756 
L 66.080081 -112.83897 
L 66.002519 -112.827989 
L 65.976665 -112.733525 
L 65.87325 -113.109333 
L 64.037623 -103.958069 
L 63.15859 -99.795592 
L 63.132736 -99.648 
L 63.081028 -99.280857 
L 62.874197 -98.064502 
L 62.56395 -97.141735 
L 62.201995 -96.679615 
L 62.150287 -97.331745 
L 61.891748 -95.25551 
L 61.607355 -93.657926 
L 61.452232 -92.744348 
L 61.322962 -91.843965 
L 61.193693 -91.31125 
L 61.193693 -91.472995 
L 61.193693 -91.717463 
L 61.141985 -91.187945 
L 61.064423 -90.587146 
L 60.754177 -87.017078 
L 60.650761 -86.173681 
L 60.599053 -86.211148 
L 60.573199 -86.190545 
L 60.469784 -85.94077 
L 60.31466 -84.056138 
L 60.288806 -83.776 
L 60.262952 -83.414817 
L 57.6 -291.456 
L 57.6 -38.016 
L 57.6 -38.016 
L 60.262952 -38.016 
L 60.288806 -38.016 
L 60.31466 -38.016 
L 60.469784 -38.016 
L 60.573199 -38.016 
L 60.599053 -38.016 
L 60.650761 -38.016 
L 60.754177 -38.016 
L 61.064423 -38.016 
L 61.141985 -38.016 
L 61.193693 -38.016 
L 61.193693 -38.016 
L 61.193693 -38.016 
L 61.322962 -38.016 
L 61.452232 -38.016 
L 61.607355 -38.016 
L 61.891748 -38.016 
L 62.150287 -38.016 
L 62.201995 -38.016 
L 62.56395 -38.016 
L 62.874197 -38.016 
L 63.081028 -38.016 
L 63.132736 -38.016 
L 63.15859 -38.016 
L 64.037623 -38.016 
L 65.87325 -38.016 
L 65.976665 -38.016 
L 66.002519 -38.016 
L 66.080081 -38.016 
L 66.157643 -38.016 
L 67.088383 -38.016 
L 74.508454 -38.016 
L 74.844555 -38.016 
L 75.051386 -38.016 
L 75.051386 -38.016 
L 75.07724 -38.016 
L 75.775296 -38.016 
L 76.007981 -38.016 
L 76.628475 -38.016 
L 76.809452 -38.016 
L 77.171407 -38.016 
L 78.179709 -38.016 
L 78.38654 -38.016 
L 78.619225 -38.016 
L 79.317281 -38.016 
L 80.273875 -38.016 
L 81.82511 -38.016 
L 82.445603 -38.016 
L 82.988535 -38.016 
L 83.066097 -38.016 
L 83.143659 -38.016 
L 83.634883 -38.016 
L 85.160264 -38.016 
L 85.729049 -38.016 
L 85.806611 -38.016 
L 87.331992 -38.016 
L 89.994944 -38.016 
L 90.046652 -38.016 
L 94.312546 -38.016 
L 95.346702 -38.016 
L 95.372556 -38.016 
L 95.656949 -38.016 
L 95.812073 -38.016 
L 110.729776 -38.016 
L 112.436134 -38.016 
L 112.720527 -38.016 
L 112.772235 -38.016 
L 114.788839 -38.016 
L 119.62352 -38.016 
L 126.293828 -38.016 
L 126.810906 -38.016 
L 128.284578 -38.016 
L 128.594825 -38.016 
L 129.189465 -38.016 
L 129.577274 -38.016 
L 129.88752 -38.016 
L 129.990936 -38.016 
L 135.601234 -38.016 
L 136.557828 -38.016 
L 137.850523 -38.016 
L 138.988095 -38.016 
L 141.728609 -38.016 
L 142.271541 -38.016 
L 143.667652 -38.016 
L 143.796922 -38.016 
L 148.21794 -38.016 
L 148.295501 -38.016 
L 149.096972 -38.016 
L 149.846736 -38.016 
L 150.389668 -38.016 
L 150.984308 -38.016 
L 153.621406 -38.016 
L 154.784832 -38.016 
L 154.991663 -38.016 
L 160.214152 -38.016 
L 160.912207 -38.016 
L 161.32587 -38.016 
L 162.127341 -38.016 
L 162.153195 -38.016 
L 167.401538 -38.016 
L 170.012782 -38.016 
L 170.167906 -38.016 
L 170.504006 -38.016 
L 171.046938 -38.016 
L 172.417195 -38.016 
L 172.546465 -38.016 
L 173.684037 -38.016 
L 177.975785 -38.016 
L 178.958234 -38.016 
L 184.852924 -38.016 
L 185.88708 -38.016 
L 186.01635 -38.016 
L 189.816874 -38.016 
L 189.946143 -38.016 
L 190.38566 -38.016 
L 193.824229 -38.016 
L 193.875937 -38.016 
L 194.056915 -38.016 
L 194.418869 -38.016 
L 194.729116 -38.016 
L 199.25355 -38.016 
L 199.460381 -38.016 
L 201.528693 -38.016 
L 202.976512 -38.016 
L 203.02822 -38.016 
L 203.467736 -38.016 
L 205.510195 -38.016 
L 207.707777 -38.016 
L 211.870256 -38.016 
L 213.240513 -38.016 
L 214.197107 -38.016 
L 215.231263 -38.016 
L 215.800049 -38.016 
L 217.32543 -38.016 
L 221.462055 -38.016 
L 226.555274 -38.016 
L 229.657743 -38.016 
L 229.683597 -38.016 
L 236.353904 -38.016 
L 237.05196 -38.016 
L 237.465622 -38.016 
L 238.499778 -38.016 
L 239.714912 -38.016 
L 241.188585 -38.016 
L 244.627154 -38.016 
L 244.653008 -38.016 
L 245.971557 -38.016 
L 246.152535 -38.016 
L 249.229149 -38.016 
L 250.237452 -38.016 
L 250.263306 -38.016 
L 250.289159 -38.016 
L 250.289159 -38.016 
L 250.547699 -38.016 
L 251.504293 -38.016 
L 254.65847 -38.016 
L 254.968716 -38.016 
L 257.735084 -38.016 
L 260.268767 -38.016 
L 260.346329 -38.016 
L 261.61317 -38.016 
L 261.897563 -38.016 
L 266.835659 -38.016 
L 267.378591 -38.016 
L 268.180062 -38.016 
L 269.265926 -38.016 
L 271.799609 -38.016 
L 273.66109 -38.016 
L 274.7211 -38.016 
L 278.444063 -38.016 
L 279.34895 -38.016 
L 280.072859 -38.016 
L 280.357252 -38.016 
L 280.564083 -38.016 
L 281.649947 -38.016 
L 282.632396 -38.016 
L 282.658249 -38.016 
L 282.658249 -38.016 
L 282.916789 -38.016 
L 284.933393 -38.016 
L 285.631449 -38.016 
L 290.595399 -38.016 
L 294.964709 -38.016 
L 295.404225 -38.016 
L 296.877898 -38.016 
L 296.955459 -38.016 
L 305.694079 -38.016 
L 307.839954 -38.016 
L 307.917515 -38.016 
L 307.943369 -38.016 
L 309.959974 -38.016 
L 310.218513 -38.016 
L 311.1234 -38.016 
L 311.433647 -38.016 
L 311.950725 -38.016 
L 316.035642 -38.016 
L 318.259078 -38.016 
L 318.543471 -38.016 
L 320.741053 -38.016 
L 320.947884 -38.016 
L 322.007894 -38.016 
L 322.240579 -38.016 
L 322.654242 -38.016 
L 323.740106 -38.016 
L 323.817667 -38.016 
L 324.024499 -38.016 
L 324.205476 -38.016 
L 324.515723 -38.016 
L 324.929385 -38.016 
L 331.3153 -38.016 
L 331.418716 -38.016 
L 331.547985 -38.016 
L 332.013356 -38.016 
L 332.013356 -38.016 
L 332.039209 -38.016 
L 333.125073 -38.016 
L 334.081668 -38.016 
L 334.676308 -38.016 
L 335.529487 -38.016 
L 336.563643 -38.016 
L 341.734424 -38.016 
L 341.734424 -38.016 
L 341.83784 -38.016 
L 347.060329 -38.016 
L 347.629115 -38.016 
L 347.654969 -38.016 
L 348.353024 -38.016 
L 350.860853 -38.016 
L 351.76574 -38.016 
L 352.179402 -38.016 
L 354.997478 -38.016 
L 355.204309 -38.016 
L 357.505307 -38.016 
L 357.505307 -38.016 
L 358.617025 -38.016 
L 359.056541 -38.016 
L 359.418496 -38.016 
L 359.44435 -38.016 
L 361.952178 -38.016 
L 364.615131 -38.016 
L 365.209771 -38.016 
L 365.261478 -38.016 
L 365.778556 -38.016 
L 367.950285 -38.016 
L 368.079554 -38.016 
L 368.363947 -38.016 
L 368.674194 -38.016 
L 369.604934 -38.016 
L 371.285438 -38.016 
L 371.414708 -38.016 
L 372.784965 -38.016 
L 373.405459 -38.016 
L 373.896683 -38.016 
L 373.922537 -38.016 
L 374.6723 -38.016 
L 375.13767 -38.016 
L 376.016703 -38.016 
L 376.19768 -38.016 
L 377.929892 -38.016 
L 378.007454 -38.016 
L 379.067464 -38.016 
L 380.903091 -38.016 
L 380.954799 -38.016 
L 381.549439 -38.016 
L 381.807978 -38.016 
L 381.88554 -38.016 
L 389.072926 -38.016 
L 389.512442 -38.016 
L 390.339767 -38.016 
L 390.572452 -38.016 
L 390.805137 -38.016 
L 392.770034 -38.016 
L 394.372976 -38.016 
L 394.838346 -38.016 
L 395.510548 -38.016 
L 397.191052 -38.016 
L 397.475445 -38.016 
L 397.733984 -38.016 
L 397.966669 -38.016 
L 398.30277 -38.016 
L 399.466196 -38.016 
L 400.112543 -38.016 
L 400.939868 -38.016 
L 401.715485 -38.016 
L 414.72 -38.016 
z
" id="m2ac643a95e" style="stroke:#0000ff;stroke-opacity:0.2;"/>
    </defs>
    <g clip-path="url(#p0422590a8c)">
     <use style="fill:#0000ff;fill-opacity:0.2;stroke:#0000ff;stroke-opacity:0.2;" x="0" xlink:href="#m2ac643a95e" y="345.6"/>
    </g>
   </g>
   <g id="matplotlib.axis_1">
    <g id="xtick_1">
     <g id="line2d_1">
      <defs>
       <path d="M 0 0 
L 0 3.5 
" id="m9965b9012e" style="stroke:#000000;stroke-width:0.8;"/>
      </defs>
      <g>
       <use style="stroke:#000000;stroke-width:0.8;" x="57.6" xlink:href="#m9965b9012e" y="307.584"/>
      </g>
     </g>
     <g id="text_1">
      <!-- 0.0 -->
      <defs>
       <path d="M 31.78125 66.40625 
Q 24.171875 66.40625 20.328125 58.90625 
Q 16.5 51.421875 16.5 36.375 
Q 16.5 21.390625 20.328125 13.890625 
Q 24.171875 6.390625 31.78125 6.390625 
Q 39.453125 6.390625 43.28125 13.890625 
Q 47.125 21.390625 47.125 36.375 
Q 47.125 51.421875 43.28125 58.90625 
Q 39.453125 66.40625 31.78125 66.40625 
z
M 31.78125 74.21875 
Q 44.046875 74.21875 50.515625 64.515625 
Q 56.984375 54.828125 56.984375 36.375 
Q 56.984375 17.96875 50.515625 8.265625 
Q 44.046875 -1.421875 31.78125 -1.421875 
Q 19.53125 -1.421875 13.0625 8.265625 
Q 6.59375 17.96875 6.59375 36.375 
Q 6.59375 54.828125 13.0625 64.515625 
Q 19.53125 74.21875 31.78125 74.21875 
z
" id="DejaVuSans-48"/>
       <path d="M 10.6875 12.40625 
L 21 12.40625 
L 21 0 
L 10.6875 0 
z
" id="DejaVuSans-46"/>
      </defs>
      <g transform="translate(49.648438 322.182437)scale(0.1 -0.1)">
       <use xlink:href="#DejaVuSans-48"/>
       <use x="63.623047" xlink:href="#DejaVuSans-46"/>
       <use x="95.410156" xlink:href="#DejaVuSans-48"/>
      </g>
     </g>
    </g>
    <g id="xtick_2">
     <g id="line2d_2">
      <g>
       <use style="stroke:#000000;stroke-width:0.8;" x="129.024" xlink:href="#m9965b9012e" y="307.584"/>
      </g>
     </g>
     <g id="text_2">
      <!-- 0.2 -->
      <defs>
       <path d="M 19.1875 8.296875 
L 53.609375 8.296875 
L 53.609375 0 
L 7.328125 0 
L 7.328125 8.296875 
Q 12.9375 14.109375 22.625 23.890625 
Q 32.328125 33.6875 34.8125 36.53125 
Q 39.546875 41.84375 41.421875 45.53125 
Q 43.3125 49.21875 43.3125 52.78125 
Q 43.3125 58.59375 39.234375 62.25 
Q 35.15625 65.921875 28.609375 65.921875 
Q 23.96875 65.921875 18.8125 64.3125 
Q 13.671875 62.703125 7.8125 59.421875 
L 7.8125 69.390625 
Q 13.765625 71.78125 18.9375 73 
Q 24.125 74.21875 28.421875 74.21875 
Q 39.75 74.21875 46.484375 68.546875 
Q 53.21875 62.890625 53.21875 53.421875 
Q 53.21875 48.921875 51.53125 44.890625 
Q 49.859375 40.875 45.40625 35.40625 
Q 44.1875 33.984375 37.640625 27.21875 
Q 31.109375 20.453125 19.1875 8.296875 
z
" id="DejaVuSans-50"/>
      </defs>
      <g transform="translate(121.072438 322.182437)scale(0.1 -0.1)">
       <use xlink:href="#DejaVuSans-48"/>
       <use x="63.623047" xlink:href="#DejaVuSans-46"/>
       <use x="95.410156" xlink:href="#DejaVuSans-50"/>
      </g>
     </g>
    </g>
    <g id="xtick_3">
     <g id="line2d_3">
      <g>
       <use style="stroke:#000000;stroke-width:0.8;" x="200.448" xlink:href="#m9965b9012e" y="307.584"/>
      </g>
     </g>
     <g id="text_3">
      <!-- 0.4 -->
      <defs>
       <path d="M 37.796875 64.3125 
L 12.890625 25.390625 
L 37.796875 25.390625 
z
M 35.203125 72.90625 
L 47.609375 72.90625 
L 47.609375 25.390625 
L 58.015625 25.390625 
L 58.015625 17.1875 
L 47.609375 17.1875 
L 47.609375 0 
L 37.796875 0 
L 37.796875 17.1875 
L 4.890625 17.1875 
L 4.890625 26.703125 
z
" id="DejaVuSans-52"/>
      </defs>
      <g transform="translate(192.496438 322.182437)scale(0.1 -0.1)">
       <use xlink:href="#DejaVuSans-48"/>
       <use x="63.623047" xlink:href="#DejaVuSans-46"/>
       <use x="95.410156" xlink:href="#DejaVuSans-52"/>
      </g>
     </g>
    </g>
    <g id="xtick_4">
     <g id="line2d_4">
      <g>
       <use style="stroke:#000000;stroke-width:0.8;" x="271.872" xlink:href="#m9965b9012e" y="307.584"/>
      </g>
     </g>
     <g id="text_4">
      <!-- 0.6 -->
      <defs>
       <path d="M 33.015625 40.375 
Q 26.375 40.375 22.484375 35.828125 
Q 18.609375 31.296875 18.609375 23.390625 
Q 18.609375 15.53125 22.484375 10.953125 
Q 26.375 6.390625 33.015625 6.390625 
Q 39.65625 6.390625 43.53125 10.953125 
Q 47.40625 15.53125 47.40625 23.390625 
Q 47.40625 31.296875 43.53125 35.828125 
Q 39.65625 40.375 33.015625 40.375 
z
M 52.59375 71.296875 
L 52.59375 62.3125 
Q 48.875 64.0625 45.09375 64.984375 
Q 41.3125 65.921875 37.59375 65.921875 
Q 27.828125 65.921875 22.671875 59.328125 
Q 17.53125 52.734375 16.796875 39.40625 
Q 19.671875 43.65625 24.015625 45.921875 
Q 28.375 48.1875 33.59375 48.1875 
Q 44.578125 48.1875 50.953125 41.515625 
Q 57.328125 34.859375 57.328125 23.390625 
Q 57.328125 12.15625 50.6875 5.359375 
Q 44.046875 -1.421875 33.015625 -1.421875 
Q 20.359375 -1.421875 13.671875 8.265625 
Q 6.984375 17.96875 6.984375 36.375 
Q 6.984375 53.65625 15.1875 63.9375 
Q 23.390625 74.21875 37.203125 74.21875 
Q 40.921875 74.21875 44.703125 73.484375 
Q 48.484375 72.75 52.59375 71.296875 
z
" id="DejaVuSans-54"/>
      </defs>
      <g transform="translate(263.920438 322.182437)scale(0.1 -0.1)">
       <use xlink:href="#DejaVuSans-48"/>
       <use x="63.623047" xlink:href="#DejaVuSans-46"/>
       <use x="95.410156" xlink:href="#DejaVuSans-54"/>
      </g>
     </g>
    </g>
    <g id="xtick_5">
     <g id="line2d_5">
      <g>
       <use style="stroke:#000000;stroke-width:0.8;" x="343.296" xlink:href="#m9965b9012e" y="307.584"/>
      </g>
     </g>
     <g id="text_5">
      <!-- 0.8 -->
      <defs>
       <path d="M 31.78125 34.625 
Q 24.75 34.625 20.71875 30.859375 
Q 16.703125 27.09375 16.703125 20.515625 
Q 16.703125 13.921875 20.71875 10.15625 
Q 24.75 6.390625 31.78125 6.390625 
Q 38.8125 6.390625 42.859375 10.171875 
Q 46.921875 13.96875 46.921875 20.515625 
Q 46.921875 27.09375 42.890625 30.859375 
Q 38.875 34.625 31.78125 34.625 
z
M 21.921875 38.8125 
Q 15.578125 40.375 12.03125 44.71875 
Q 8.5 49.078125 8.5 55.328125 
Q 8.5 64.0625 14.71875 69.140625 
Q 20.953125 74.21875 31.78125 74.21875 
Q 42.671875 74.21875 48.875 69.140625 
Q 55.078125 64.0625 55.078125 55.328125 
Q 55.078125 49.078125 51.53125 44.71875 
Q 48 40.375 41.703125 38.8125 
Q 48.828125 37.15625 52.796875 32.3125 
Q 56.78125 27.484375 56.78125 20.515625 
Q 56.78125 9.90625 50.3125 4.234375 
Q 43.84375 -1.421875 31.78125 -1.421875 
Q 19.734375 -1.421875 13.25 4.234375 
Q 6.78125 9.90625 6.78125 20.515625 
Q 6.78125 27.484375 10.78125 32.3125 
Q 14.796875 37.15625 21.921875 38.8125 
z
M 18.3125 54.390625 
Q 18.3125 48.734375 21.84375 45.5625 
Q 25.390625 42.390625 31.78125 42.390625 
Q 38.140625 42.390625 41.71875 45.5625 
Q 45.3125 48.734375 45.3125 54.390625 
Q 45.3125 60.0625 41.71875 63.234375 
Q 38.140625 66.40625 31.78125 66.40625 
Q 25.390625 66.40625 21.84375 63.234375 
Q 18.3125 60.0625 18.3125 54.390625 
z
" id="DejaVuSans-56"/>
      </defs>
      <g transform="translate(335.344438 322.182437)scale(0.1 -0.1)">
       <use xlink:href="#DejaVuSans-48"/>
       <use x="63.623047" xlink:href="#DejaVuSans-46"/>
       <use x="95.410156" xlink:href="#DejaVuSans-56"/>
      </g>
     </g>
    </g>
    <g id="xtick_6">
     <g id="line2d_6">
      <g>
       <use style="stroke:#000000;stroke-width:0.8;" x="414.72" xlink:href="#m9965b9012e" y="307.584"/>
      </g>
     </g>
     <g id="text_6">
      <!-- 1.0 -->
      <defs>
       <path d="M 12.40625 8.296875 
L 28.515625 8.296875 
L 28.515625 63.921875 
L 10.984375 60.40625 
L 10.984375 69.390625 
L 28.421875 72.90625 
L 38.28125 72.90625 
L 38.28125 8.296875 
L 54.390625 8.296875 
L 54.390625 0 
L 12.40625 0 
z
" id="DejaVuSans-49"/>
      </defs>
      <g transform="translate(406.768438 322.182437)scale(0.1 -0.1)">
       <use xlink:href="#DejaVuSans-49"/>
       <use x="63.623047" xlink:href="#DejaVuSans-46"/>
       <use x="95.410156" xlink:href="#DejaVuSans-48"/>
      </g>
     </g>
    </g>
    <g id="text_7">
     <!-- Recall -->
     <defs>
      <path d="M 44.390625 34.1875 
Q 47.5625 33.109375 50.5625 29.59375 
Q 53.5625 26.078125 56.59375 19.921875 
L 66.609375 0 
L 56 0 
L 46.6875 18.703125 
Q 43.0625 26.03125 39.671875 28.421875 
Q 36.28125 30.8125 30.421875 30.8125 
L 19.671875 30.8125 
L 19.671875 0 
L 9.8125 0 
L 9.8125 72.90625 
L 32.078125 72.90625 
Q 44.578125 72.90625 50.734375 67.671875 
Q 56.890625 62.453125 56.890625 51.90625 
Q 56.890625 45.015625 53.6875 40.46875 
Q 50.484375 35.9375 44.390625 34.1875 
z
M 19.671875 64.796875 
L 19.671875 38.921875 
L 32.078125 38.921875 
Q 39.203125 38.921875 42.84375 42.21875 
Q 46.484375 45.515625 46.484375 51.90625 
Q 46.484375 58.296875 42.84375 61.546875 
Q 39.203125 64.796875 32.078125 64.796875 
z
" id="DejaVuSans-82"/>
      <path d="M 56.203125 29.59375 
L 56.203125 25.203125 
L 14.890625 25.203125 
Q 15.484375 15.921875 20.484375 11.0625 
Q 25.484375 6.203125 34.421875 6.203125 
Q 39.59375 6.203125 44.453125 7.46875 
Q 49.3125 8.734375 54.109375 11.28125 
L 54.109375 2.78125 
Q 49.265625 0.734375 44.1875 -0.34375 
Q 39.109375 -1.421875 33.890625 -1.421875 
Q 20.796875 -1.421875 13.15625 6.1875 
Q 5.515625 13.8125 5.515625 26.8125 
Q 5.515625 40.234375 12.765625 48.109375 
Q 20.015625 56 32.328125 56 
Q 43.359375 56 49.78125 48.890625 
Q 56.203125 41.796875 56.203125 29.59375 
z
M 47.21875 32.234375 
Q 47.125 39.59375 43.09375 43.984375 
Q 39.0625 48.390625 32.421875 48.390625 
Q 24.90625 48.390625 20.390625 44.140625 
Q 15.875 39.890625 15.1875 32.171875 
z
" id="DejaVuSans-101"/>
      <path d="M 48.78125 52.59375 
L 48.78125 44.1875 
Q 44.96875 46.296875 41.140625 47.34375 
Q 37.3125 48.390625 33.40625 48.390625 
Q 24.65625 48.390625 19.8125 42.84375 
Q 14.984375 37.3125 14.984375 27.296875 
Q 14.984375 17.28125 19.8125 11.734375 
Q 24.65625 6.203125 33.40625 6.203125 
Q 37.3125 6.203125 41.140625 7.25 
Q 44.96875 8.296875 48.78125 10.40625 
L 48.78125 2.09375 
Q 45.015625 0.34375 40.984375 -0.53125 
Q 36.96875 -1.421875 32.421875 -1.421875 
Q 20.0625 -1.421875 12.78125 6.34375 
Q 5.515625 14.109375 5.515625 27.296875 
Q 5.515625 40.671875 12.859375 48.328125 
Q 20.21875 56 33.015625 56 
Q 37.15625 56 41.109375 55.140625 
Q 45.0625 54.296875 48.78125 52.59375 
z
" id="DejaVuSans-99"/>
      <path d="M 34.28125 27.484375 
Q 23.390625 27.484375 19.1875 25 
Q 14.984375 22.515625 14.984375 16.5 
Q 14.984375 11.71875 18.140625 8.90625 
Q 21.296875 6.109375 26.703125 6.109375 
Q 34.1875 6.109375 38.703125 11.40625 
Q 43.21875 16.703125 43.21875 25.484375 
L 43.21875 27.484375 
z
M 52.203125 31.203125 
L 52.203125 0 
L 43.21875 0 
L 43.21875 8.296875 
Q 40.140625 3.328125 35.546875 0.953125 
Q 30.953125 -1.421875 24.3125 -1.421875 
Q 15.921875 -1.421875 10.953125 3.296875 
Q 6 8.015625 6 15.921875 
Q 6 25.140625 12.171875 29.828125 
Q 18.359375 34.515625 30.609375 34.515625 
L 43.21875 34.515625 
L 43.21875 35.40625 
Q 43.21875 41.609375 39.140625 45 
Q 35.0625 48.390625 27.6875 48.390625 
Q 23 48.390625 18.546875 47.265625 
Q 14.109375 46.140625 10.015625 43.890625 
L 10.015625 52.203125 
Q 14.9375 54.109375 19.578125 55.046875 
Q 24.21875 56 28.609375 56 
Q 40.484375 56 46.34375 49.84375 
Q 52.203125 43.703125 52.203125 31.203125 
z
" id="DejaVuSans-97"/>
      <path d="M 9.421875 75.984375 
L 18.40625 75.984375 
L 18.40625 0 
L 9.421875 0 
z
" id="DejaVuSans-108"/>
     </defs>
     <g transform="translate(221.020938 335.860562)scale(0.1 -0.1)">
      <use xlink:href="#DejaVuSans-82"/>
      <use x="69.419922" xlink:href="#DejaVuSans-101"/>
      <use x="130.943359" xlink:href="#DejaVuSans-99"/>
      <use x="185.923828" xlink:href="#DejaVuSans-97"/>
      <use x="247.203125" xlink:href="#DejaVuSans-108"/>
      <use x="274.986328" xlink:href="#DejaVuSans-108"/>
     </g>
    </g>
   </g>
   <g id="matplotlib.axis_2">
    <g id="ytick_1">
     <g id="line2d_7">
      <defs>
       <path d="M 0 0 
L -3.5 0 
" id="mf46b52a8f1" style="stroke:#000000;stroke-width:0.8;"/>
      </defs>
      <g>
       <use style="stroke:#000000;stroke-width:0.8;" x="57.6" xlink:href="#mf46b52a8f1" y="307.584"/>
      </g>
     </g>
     <g id="text_8">
      <!-- 0.0 -->
      <g transform="translate(34.696875 311.383219)scale(0.1 -0.1)">
       <use xlink:href="#DejaVuSans-48"/>
       <use x="63.623047" xlink:href="#DejaVuSans-46"/>
       <use x="95.410156" xlink:href="#DejaVuSans-48"/>
      </g>
     </g>
    </g>
    <g id="ytick_2">
     <g id="line2d_8">
      <g>
       <use style="stroke:#000000;stroke-width:0.8;" x="57.6" xlink:href="#mf46b52a8f1" y="256.896"/>
      </g>
     </g>
     <g id="text_9">
      <!-- 0.2 -->
      <g transform="translate(34.696875 260.695219)scale(0.1 -0.1)">
       <use xlink:href="#DejaVuSans-48"/>
       <use x="63.623047" xlink:href="#DejaVuSans-46"/>
       <use x="95.410156" xlink:href="#DejaVuSans-50"/>
      </g>
     </g>
    </g>
    <g id="ytick_3">
     <g id="line2d_9">
      <g>
       <use style="stroke:#000000;stroke-width:0.8;" x="57.6" xlink:href="#mf46b52a8f1" y="206.208"/>
      </g>
     </g>
     <g id="text_10">
      <!-- 0.4 -->
      <g transform="translate(34.696875 210.007219)scale(0.1 -0.1)">
       <use xlink:href="#DejaVuSans-48"/>
       <use x="63.623047" xlink:href="#DejaVuSans-46"/>
       <use x="95.410156" xlink:href="#DejaVuSans-52"/>
      </g>
     </g>
    </g>
    <g id="ytick_4">
     <g id="line2d_10">
      <g>
       <use style="stroke:#000000;stroke-width:0.8;" x="57.6" xlink:href="#mf46b52a8f1" y="155.52"/>
      </g>
     </g>
     <g id="text_11">
      <!-- 0.6 -->
      <g transform="translate(34.696875 159.319219)scale(0.1 -0.1)">
       <use xlink:href="#DejaVuSans-48"/>
       <use x="63.623047" xlink:href="#DejaVuSans-46"/>
       <use x="95.410156" xlink:href="#DejaVuSans-54"/>
      </g>
     </g>
    </g>
    <g id="ytick_5">
     <g id="line2d_11">
      <g>
       <use style="stroke:#000000;stroke-width:0.8;" x="57.6" xlink:href="#mf46b52a8f1" y="104.832"/>
      </g>
     </g>
     <g id="text_12">
      <!-- 0.8 -->
      <g transform="translate(34.696875 108.631219)scale(0.1 -0.1)">
       <use xlink:href="#DejaVuSans-48"/>
       <use x="63.623047" xlink:href="#DejaVuSans-46"/>
       <use x="95.410156" xlink:href="#DejaVuSans-56"/>
      </g>
     </g>
    </g>
    <g id="ytick_6">
     <g id="line2d_12">
      <g>
       <use style="stroke:#000000;stroke-width:0.8;" x="57.6" xlink:href="#mf46b52a8f1" y="54.144"/>
      </g>
     </g>
     <g id="text_13">
      <!-- 1.0 -->
      <g transform="translate(34.696875 57.943219)scale(0.1 -0.1)">
       <use xlink:href="#DejaVuSans-49"/>
       <use x="63.623047" xlink:href="#DejaVuSans-46"/>
       <use x="95.410156" xlink:href="#DejaVuSans-48"/>
      </g>
     </g>
    </g>
    <g id="text_14">
     <!-- Precision -->
     <defs>
      <path d="M 19.671875 64.796875 
L 19.671875 37.40625 
L 32.078125 37.40625 
Q 38.96875 37.40625 42.71875 40.96875 
Q 46.484375 44.53125 46.484375 51.125 
Q 46.484375 57.671875 42.71875 61.234375 
Q 38.96875 64.796875 32.078125 64.796875 
z
M 9.8125 72.90625 
L 32.078125 72.90625 
Q 44.34375 72.90625 50.609375 67.359375 
Q 56.890625 61.8125 56.890625 51.125 
Q 56.890625 40.328125 50.609375 34.8125 
Q 44.34375 29.296875 32.078125 29.296875 
L 19.671875 29.296875 
L 19.671875 0 
L 9.8125 0 
z
" id="DejaVuSans-80"/>
      <path d="M 41.109375 46.296875 
Q 39.59375 47.171875 37.8125 47.578125 
Q 36.03125 48 33.890625 48 
Q 26.265625 48 22.1875 43.046875 
Q 18.109375 38.09375 18.109375 28.8125 
L 18.109375 0 
L 9.078125 0 
L 9.078125 54.6875 
L 18.109375 54.6875 
L 18.109375 46.1875 
Q 20.953125 51.171875 25.484375 53.578125 
Q 30.03125 56 36.53125 56 
Q 37.453125 56 38.578125 55.875 
Q 39.703125 55.765625 41.0625 55.515625 
z
" id="DejaVuSans-114"/>
      <path d="M 9.421875 54.6875 
L 18.40625 54.6875 
L 18.40625 0 
L 9.421875 0 
z
M 9.421875 75.984375 
L 18.40625 75.984375 
L 18.40625 64.59375 
L 9.421875 64.59375 
z
" id="DejaVuSans-105"/>
      <path d="M 44.28125 53.078125 
L 44.28125 44.578125 
Q 40.484375 46.53125 36.375 47.5 
Q 32.28125 48.484375 27.875 48.484375 
Q 21.1875 48.484375 17.84375 46.4375 
Q 14.5 44.390625 14.5 40.28125 
Q 14.5 37.15625 16.890625 35.375 
Q 19.28125 33.59375 26.515625 31.984375 
L 29.59375 31.296875 
Q 39.15625 29.25 43.1875 25.515625 
Q 47.21875 21.78125 47.21875 15.09375 
Q 47.21875 7.46875 41.1875 3.015625 
Q 35.15625 -1.421875 24.609375 -1.421875 
Q 20.21875 -1.421875 15.453125 -0.5625 
Q 10.6875 0.296875 5.421875 2 
L 5.421875 11.28125 
Q 10.40625 8.6875 15.234375 7.390625 
Q 20.0625 6.109375 24.8125 6.109375 
Q 31.15625 6.109375 34.5625 8.28125 
Q 37.984375 10.453125 37.984375 14.40625 
Q 37.984375 18.0625 35.515625 20.015625 
Q 33.0625 21.96875 24.703125 23.78125 
L 21.578125 24.515625 
Q 13.234375 26.265625 9.515625 29.90625 
Q 5.8125 33.546875 5.8125 39.890625 
Q 5.8125 47.609375 11.28125 51.796875 
Q 16.75 56 26.8125 56 
Q 31.78125 56 36.171875 55.265625 
Q 40.578125 54.546875 44.28125 53.078125 
z
" id="DejaVuSans-115"/>
      <path d="M 30.609375 48.390625 
Q 23.390625 48.390625 19.1875 42.75 
Q 14.984375 37.109375 14.984375 27.296875 
Q 14.984375 17.484375 19.15625 11.84375 
Q 23.34375 6.203125 30.609375 6.203125 
Q 37.796875 6.203125 41.984375 11.859375 
Q 46.1875 17.53125 46.1875 27.296875 
Q 46.1875 37.015625 41.984375 42.703125 
Q 37.796875 48.390625 30.609375 48.390625 
z
M 30.609375 56 
Q 42.328125 56 49.015625 48.375 
Q 55.71875 40.765625 55.71875 27.296875 
Q 55.71875 13.875 49.015625 6.21875 
Q 42.328125 -1.421875 30.609375 -1.421875 
Q 18.84375 -1.421875 12.171875 6.21875 
Q 5.515625 13.875 5.515625 27.296875 
Q 5.515625 40.765625 12.171875 48.375 
Q 18.84375 56 30.609375 56 
z
" id="DejaVuSans-111"/>
      <path d="M 54.890625 33.015625 
L 54.890625 0 
L 45.90625 0 
L 45.90625 32.71875 
Q 45.90625 40.484375 42.875 44.328125 
Q 39.84375 48.1875 33.796875 48.1875 
Q 26.515625 48.1875 22.3125 43.546875 
Q 18.109375 38.921875 18.109375 30.90625 
L 18.109375 0 
L 9.078125 0 
L 9.078125 54.6875 
L 18.109375 54.6875 
L 18.109375 46.1875 
Q 21.34375 51.125 25.703125 53.5625 
Q 30.078125 56 35.796875 56 
Q 45.21875 56 50.046875 50.171875 
Q 54.890625 44.34375 54.890625 33.015625 
z
" id="DejaVuSans-110"/>
     </defs>
     <g transform="translate(28.617187 197.032688)rotate(-90)scale(0.1 -0.1)">
      <use xlink:href="#DejaVuSans-80"/>
      <use x="60.287109" xlink:href="#DejaVuSans-114"/>
      <use x="101.369141" xlink:href="#DejaVuSans-101"/>
      <use x="162.892578" xlink:href="#DejaVuSans-99"/>
      <use x="217.873047" xlink:href="#DejaVuSans-105"/>
      <use x="245.65625" xlink:href="#DejaVuSans-115"/>
      <use x="297.755859" xlink:href="#DejaVuSans-105"/>
      <use x="325.539062" xlink:href="#DejaVuSans-111"/>
      <use x="386.720703" xlink:href="#DejaVuSans-110"/>
     </g>
    </g>
   </g>
   <g id="line2d_13">
    <path clip-path="url(#p0422590a8c)" d="M 414.72 233.807542 
L 401.715485 233.807542 
L 401.715485 230.845149 
L 400.939868 230.845149 
L 400.939868 230.251083 
L 400.112543 230.251083 
L 400.112543 230.125972 
L 399.466196 230.125972 
L 399.466196 229.868747 
L 398.30277 229.868747 
L 398.30277 229.56694 
L 397.475445 229.480073 
L 397.475445 229.398417 
L 395.510548 229.362881 
L 395.510548 228.974175 
L 392.770034 228.910213 
L 392.770034 228.773826 
L 390.805137 228.773826 
L 390.805137 228.530447 
L 389.512442 228.460848 
L 389.512442 227.549003 
L 381.88554 227.534871 
L 381.807978 223.809911 
L 379.067464 223.798583 
L 379.067464 222.602797 
L 376.19768 222.557285 
L 376.19768 222.221956 
L 369.604934 222.224586 
L 369.604934 221.906541 
L 368.674194 221.906541 
L 368.674194 221.586367 
L 365.778556 221.509767 
L 365.778556 220.833345 
L 361.952178 220.862008 
L 361.952178 220.204206 
L 359.44435 220.204206 
L 359.418496 219.743059 
L 358.617025 219.644755 
L 358.617025 219.50299 
L 357.505307 219.50299 
L 357.505307 219.147216 
L 355.204309 219.147216 
L 355.204309 218.929676 
L 352.179402 218.905055 
L 352.179402 218.104099 
L 351.76574 218.104099 
L 351.76574 217.988216 
L 348.353024 217.881993 
L 348.353024 217.873691 
L 347.060329 217.825834 
L 347.060329 217.720995 
L 341.83784 217.720995 
L 341.734424 216.349253 
L 336.563643 216.349253 
L 336.563643 215.276233 
L 335.529487 215.276233 
L 335.529487 215.034234 
L 334.081668 214.940693 
L 334.081668 214.740503 
L 333.125073 214.740503 
L 333.125073 214.51977 
L 331.547985 214.478221 
L 331.547985 214.400675 
L 324.929385 214.4184 
L 324.929385 213.680334 
L 322.654242 213.589499 
L 322.654242 213.420013 
L 320.947884 213.359379 
L 320.947884 213.291508 
L 318.543471 213.258761 
L 318.543471 213.040464 
L 311.950725 212.959332 
L 311.950725 212.621221 
L 311.433647 212.621221 
L 311.433647 212.495574 
L 309.959974 212.40885 
L 309.959974 212.275484 
L 307.943369 212.275484 
L 307.917515 211.777109 
L 307.839954 211.795576 
L 305.694079 211.795576 
L 305.694079 211.441913 
L 296.955459 211.441913 
L 296.877898 210.578739 
L 295.404225 210.578739 
L 295.404225 210.376164 
L 285.631449 210.450323 
L 285.631449 210.740538 
L 284.933393 210.740538 
L 284.933393 210.60846 
L 282.916789 210.60846 
L 282.916789 210.411558 
L 280.564083 210.376288 
L 280.564083 210.261596 
L 280.072859 210.221817 
L 280.072859 210.107077 
L 274.7211 210.189521 
L 274.7211 209.6054 
L 273.66109 209.6054 
L 273.66109 209.36028 
L 269.265926 209.285681 
L 269.265926 208.722113 
L 268.180062 208.722113 
L 268.180062 208.564055 
L 261.897563 208.5645 
L 261.897563 208.416737 
L 261.61317 208.416737 
L 261.61317 208.304064 
L 260.346329 208.304064 
L 260.268767 207.789136 
L 257.735084 207.789136 
L 257.735084 207.416582 
L 254.968716 207.416582 
L 254.968716 207.139552 
L 250.547699 207.171956 
L 250.547699 206.858538 
L 249.229149 206.762781 
L 249.229149 206.573231 
L 246.152535 206.573231 
L 246.152535 206.327403 
L 241.188585 206.286417 
L 241.188585 206.450117 
L 236.353904 206.362581 
L 236.353904 206.331015 
L 229.683597 206.331015 
L 229.657743 205.684338 
L 226.555274 205.684338 
L 226.555274 205.435832 
L 221.462055 205.435832 
L 221.462055 204.582864 
L 217.32543 204.582864 
L 217.32543 204.302185 
L 215.231263 204.36253 
L 215.231263 204.051425 
L 207.707777 204.045969 
L 207.707777 204.170363 
L 205.510195 204.170363 
L 205.510195 203.980553 
L 199.460381 204.084845 
L 199.460381 203.627561 
L 194.729116 203.678151 
L 194.729116 203.901334 
L 194.418869 203.901334 
L 194.418869 203.582412 
L 189.946143 203.500533 
L 189.946143 203.050976 
L 186.01635 203.0014 
L 186.01635 202.820644 
L 184.852924 202.873818 
L 184.852924 202.651995 
L 178.958234 202.651995 
L 178.958234 201.978375 
L 177.975785 201.978375 
L 177.975785 201.686428 
L 173.684037 201.686428 
L 173.684037 201.846628 
L 171.046938 201.861002 
L 171.046938 201.670217 
L 167.401538 201.575619 
L 167.401538 200.950388 
L 162.153195 200.950388 
L 162.127341 201.949163 
L 160.912207 201.887401 
L 160.912207 201.43724 
L 160.214152 201.43724 
L 160.214152 201.094125 
L 154.991663 201.094125 
L 154.991663 200.697695 
L 153.621406 200.637327 
L 153.621406 200.814926 
L 150.984308 200.814926 
L 150.984308 200.454067 
L 150.389668 200.454067 
L 150.389668 200.142923 
L 149.096972 200.162532 
L 149.096972 199.974623 
L 148.295501 199.974623 
L 148.21794 199.569992 
L 143.796922 199.569992 
L 143.796922 200.040541 
L 142.271541 200.078679 
L 142.271541 199.803712 
L 138.988095 199.780894 
L 138.988095 200.190122 
L 137.850523 200.190122 
L 137.850523 200.026199 
L 129.990936 199.935333 
L 129.990936 200.161657 
L 129.88752 200.070991 
L 128.284578 199.968995 
L 128.284578 199.906462 
L 126.810906 199.906462 
L 126.810906 200.283845 
L 126.293828 200.283845 
L 126.293828 199.910498 
L 119.62352 199.910498 
L 119.62352 200.785728 
L 114.788839 200.785728 
L 114.788839 200.167008 
L 112.772235 200.167008 
L 112.720527 199.430661 
L 110.729776 199.512782 
L 110.729776 199.012143 
L 95.812073 199.012143 
L 95.812073 205.126582 
L 95.656949 205.126582 
L 95.656949 204.924759 
L 95.372556 204.924759 
L 95.372556 205.04292 
L 95.346702 204.99947 
L 94.312546 204.99947 
L 94.312546 204.494685 
L 90.046652 204.494685 
L 89.994944 207.058416 
L 87.331992 207.058416 
L 87.331992 208.617616 
L 85.806611 208.617616 
L 85.729049 207.459556 
L 83.634883 207.48506 
L 83.634883 209.311347 
L 83.143659 209.311347 
L 83.066097 209.992757 
L 82.445603 209.984753 
L 82.445603 210.627057 
L 81.82511 210.627057 
L 81.82511 209.978871 
L 80.273875 209.978871 
L 80.273875 211.572389 
L 79.317281 211.572389 
L 79.317281 211.946264 
L 78.179709 212.053873 
L 78.179709 211.746356 
L 76.809452 211.65696 
L 76.809452 212.383838 
L 76.628475 212.383838 
L 76.628475 211.828435 
L 76.007981 211.828435 
L 76.007981 212.560682 
L 75.775296 212.560682 
L 75.775296 212.408615 
L 75.07724 212.408615 
L 75.051386 209.492257 
L 74.844555 209.492257 
L 74.844555 209.359433 
L 74.508454 209.359433 
L 74.508454 210.026755 
L 67.088383 210.026755 
L 67.088383 230.0736 
L 66.157643 230.0736 
L 66.080081 232.76103 
L 65.87325 232.866475 
L 65.87325 232.490667 
L 64.037623 232.490667 
L 64.037623 241.641931 
L 63.15859 241.641931 
L 63.081028 246.319143 
L 62.874197 246.319143 
L 62.874197 247.535498 
L 62.56395 247.535498 
L 62.56395 248.458265 
L 62.201995 248.458265 
L 62.201995 248.920385 
L 62.150287 248.268255 
L 61.891748 248.268255 
L 61.891748 250.34449 
L 61.607355 250.34449 
L 61.607355 251.942074 
L 61.452232 251.942074 
L 61.452232 252.855652 
L 61.322962 252.855652 
L 61.322962 253.756035 
L 61.193693 253.756035 
L 61.141985 254.412055 
L 61.064423 254.412055 
L 61.064423 255.012854 
L 60.754177 255.012854 
L 60.650761 259.426319 
L 60.469784 259.409455 
L 60.469784 259.65923 
L 60.31466 259.65923 
L 60.262952 262.185183 
L 57.6 262.185183 
L 57.6 54.144 
L 57.6 54.144 
" style="fill:none;stroke:#0000ff;stroke-linecap:square;stroke-opacity:0.2;stroke-width:1.5;"/>
   </g>
   <g id="patch_3">
    <path d="M 57.6 307.584 
L 57.6 41.472 
" style="fill:none;stroke:#000000;stroke-linecap:square;stroke-linejoin:miter;stroke-width:0.8;"/>
   </g>
   <g id="patch_4">
    <path d="M 414.72 307.584 
L 414.72 41.472 
" style="fill:none;stroke:#000000;stroke-linecap:square;stroke-linejoin:miter;stroke-width:0.8;"/>
   </g>
   <g id="patch_5">
    <path d="M 57.6 307.584 
L 414.72 307.584 
" style="fill:none;stroke:#000000;stroke-linecap:square;stroke-linejoin:miter;stroke-width:0.8;"/>
   </g>
   <g id="patch_6">
    <path d="M 57.6 41.472 
L 414.72 41.472 
" style="fill:none;stroke:#000000;stroke-linecap:square;stroke-linejoin:miter;stroke-width:0.8;"/>
   </g>
   <g id="text_15">
    <!-- 2-class Precision-Recall curve -->
    <defs>
     <path d="M 4.890625 31.390625 
L 31.203125 31.390625 
L 31.203125 23.390625 
L 4.890625 23.390625 
z
" id="DejaVuSans-45"/>
     <path id="DejaVuSans-32"/>
     <path d="M 8.5 21.578125 
L 8.5 54.6875 
L 17.484375 54.6875 
L 17.484375 21.921875 
Q 17.484375 14.15625 20.5 10.265625 
Q 23.53125 6.390625 29.59375 6.390625 
Q 36.859375 6.390625 41.078125 11.03125 
Q 45.3125 15.671875 45.3125 23.6875 
L 45.3125 54.6875 
L 54.296875 54.6875 
L 54.296875 0 
L 45.3125 0 
L 45.3125 8.40625 
Q 42.046875 3.421875 37.71875 1 
Q 33.40625 -1.421875 27.6875 -1.421875 
Q 18.265625 -1.421875 13.375 4.4375 
Q 8.5 10.296875 8.5 21.578125 
z
M 31.109375 56 
z
" id="DejaVuSans-117"/>
     <path d="M 2.984375 54.6875 
L 12.5 54.6875 
L 29.59375 8.796875 
L 46.6875 54.6875 
L 56.203125 54.6875 
L 35.6875 0 
L 23.484375 0 
z
" id="DejaVuSans-118"/>
    </defs>
    <g transform="translate(147.321562 35.472)scale(0.12 -0.12)">
     <use xlink:href="#DejaVuSans-50"/>
     <use x="63.623047" xlink:href="#DejaVuSans-45"/>
     <use x="99.707031" xlink:href="#DejaVuSans-99"/>
     <use x="154.6875" xlink:href="#DejaVuSans-108"/>
     <use x="182.470703" xlink:href="#DejaVuSans-97"/>
     <use x="243.75" xlink:href="#DejaVuSans-115"/>
     <use x="295.849609" xlink:href="#DejaVuSans-115"/>
     <use x="347.949219" xlink:href="#DejaVuSans-32"/>
     <use x="379.736328" xlink:href="#DejaVuSans-80"/>
     <use x="440.023438" xlink:href="#DejaVuSans-114"/>
     <use x="481.105469" xlink:href="#DejaVuSans-101"/>
     <use x="542.628906" xlink:href="#DejaVuSans-99"/>
     <use x="597.609375" xlink:href="#DejaVuSans-105"/>
     <use x="625.392578" xlink:href="#DejaVuSans-115"/>
     <use x="677.492188" xlink:href="#DejaVuSans-105"/>
     <use x="705.275391" xlink:href="#DejaVuSans-111"/>
     <use x="766.457031" xlink:href="#DejaVuSans-110"/>
     <use x="829.835938" xlink:href="#DejaVuSans-45"/>
     <use x="865.919922" xlink:href="#DejaVuSans-82"/>
     <use x="935.339844" xlink:href="#DejaVuSans-101"/>
     <use x="996.863281" xlink:href="#DejaVuSans-99"/>
     <use x="1051.84375" xlink:href="#DejaVuSans-97"/>
     <use x="1113.123047" xlink:href="#DejaVuSans-108"/>
     <use x="1140.90625" xlink:href="#DejaVuSans-108"/>
     <use x="1168.689453" xlink:href="#DejaVuSans-32"/>
     <use x="1200.476562" xlink:href="#DejaVuSans-99"/>
     <use x="1255.457031" xlink:href="#DejaVuSans-117"/>
     <use x="1318.835938" xlink:href="#DejaVuSans-114"/>
     <use x="1359.949219" xlink:href="#DejaVuSans-118"/>
     <use x="1419.128906" xlink:href="#DejaVuSans-101"/>
    </g>
   </g>
  </g>
 </g>
 <defs>
  <clipPath id="p0422590a8c">
   <rect height="266.112" width="357.12" x="57.6" y="41.472"/>
  </clipPath>
 </defs>
</svg>
