<?xml version="1.0" encoding="utf-8" standalone="no"?>
<!DOCTYPE svg PUBLIC "-//W3C//DTD SVG 1.1//EN"
  "http://www.w3.org/Graphics/SVG/1.1/DTD/svg11.dtd">
<!-- Created with matplotlib (https://matplotlib.org/) -->
<svg height="345.6pt" version="1.1" viewBox="0 0 460.8 345.6" width="460.8pt" xmlns="http://www.w3.org/2000/svg" xmlns:xlink="http://www.w3.org/1999/xlink">
 <defs>
  <style type="text/css">
*{stroke-linecap:butt;stroke-linejoin:round;}
  </style>
 </defs>
 <g id="figure_1">
  <g id="patch_1">
   <path d="M 0 345.6 
L 460.8 345.6 
L 460.8 0 
L 0 0 
z
" style="fill:#ffffff;"/>
  </g>
  <g id="axes_1">
   <g id="patch_2">
    <path d="M 57.6 307.584 
L 414.72 307.584 
L 414.72 41.472 
L 57.6 41.472 
z
" style="fill:#ffffff;"/>
   </g>
   <g id="PolyCollection_1">
    <defs>
     <path d="M 414.72 -38.016 
L 414.72 -112.677346 
L 398.661584 -115.457512 
L 397.88724 -116.026474 
L 397.14977 -116.141441 
L 396.52292 -116.380212 
L 395.398278 -116.669201 
L 395.121726 -116.684759 
L 394.937359 -116.733881 
L 394.494877 -116.823268 
L 394.384256 -116.817506 
L 394.107705 -116.844037 
L 392.227155 -117.326609 
L 391.637179 -117.304345 
L 391.250007 -117.394741 
L 390.014744 -117.520536 
L 388.336999 -117.827466 
L 388.244816 -117.868301 
L 388.060448 -117.919232 
L 387.396725 -118.70685 
L 386.806749 -118.752185 
L 377.993978 -123.047283 
L 377.809611 -123.088687 
L 377.64368 -123.138378 
L 377.256508 -123.155655 
L 377.182761 -123.149209 
L 375.670947 -124.226676 
L 374.435684 -124.307015 
L 373.937892 -124.311639 
L 371.098631 -124.766282 
L 370.895827 -124.767791 
L 370.268977 -124.751459 
L 369.918678 -124.761067 
L 368.019692 -124.973313 
L 367.982819 -124.971844 
L 366.581625 -124.9745 
L 366.010086 -124.988148 
L 364.701076 -124.968628 
L 364.682639 -124.975946 
L 363.889859 -125.241994 
L 363.59487 -125.333453 
L 362.894274 -125.347453 
L 362.875837 -125.343996 
L 361.216529 -125.882314 
L 359.944392 -125.915722 
L 359.925956 -125.912221 
L 359.520347 -125.879778 
L 356.293914 -126.56805 
L 354.450239 -127.066223 
L 354.413365 -127.064878 
L 354.09994 -127.140072 
L 353.602148 -127.338106 
L 352.772494 -127.612891 
L 352.661873 -127.640663 
L 349.048268 -127.814936 
L 348.956085 -127.832835 
L 346.07995 -128.620453 
L 345.748089 -128.738012 
L 344.807814 -128.793346 
L 344.807814 -128.795433 
L 344.475953 -128.805354 
L 343.683172 -128.759193 
L 337.94934 -129.974782 
L 337.930903 -129.970929 
L 337.912467 -130 
L 332.455186 -131.049673 
L 331.533348 -131.392932 
L 330.685258 -131.472315 
L 329.357811 -131.69201 
L 329.357811 -131.694359 
L 329.320938 -131.707492 
L 329.302501 -131.703485 
L 329.19188 -131.686488 
L 329.118133 -131.696309 
L 323.826784 -132.354504 
L 323.550232 -132.34161 
L 323.10775 -132.36969 
L 322.960256 -132.363617 
L 322.739015 -132.382586 
L 322.683705 -132.38489 
L 321.356258 -132.590762 
L 320.950649 -132.561233 
L 320.710972 -132.764703 
L 320.065685 -132.788047 
L 319.881318 -132.811116 
L 317.779527 -132.977774 
L 317.466102 -132.997037 
L 314.848083 -132.974333 
L 310.20202 -133.212333 
L 309.243308 -133.373883 
L 306.533105 -133.247316 
L 306.477795 -133.239407 
L 306.459358 -133.235003 
L 306.256553 -133.345799 
L 301.038951 -133.83063 
L 301.002077 -133.846299 
L 300.92833 -133.83373 
L 297.628151 -134.119905 
L 289.018185 -134.74953 
L 288.944438 -134.759889 
L 287.727612 -134.902407 
L 287.34044 -134.973996 
L 283.468721 -134.946989 
L 277.808636 -134.978983 
L 277.200223 -135.134162 
L 275.135306 -135.269108 
L 275.135306 -135.272271 
L 274.877192 -135.273909 
L 274.674387 -135.290826 
L 274.637514 -135.325057 
L 273.97379 -135.338552 
L 272.830711 -135.548835 
L 272.683217 -135.588142 
L 272.443539 -135.701851 
L 271.761379 -135.74727 
L 270.323312 -135.684361 
L 268.239959 -136.206919 
L 266.930949 -136.461356 
L 265.068836 -136.52931 
L 259.574682 -137.294953 
L 258.579098 -137.402626 
L 257.76788 -137.348085 
L 257.251651 -137.432857 
L 253.250875 -137.686371 
L 252.900576 -137.803761 
L 251.978738 -138.076587 
L 248.991983 -138.36923 
L 248.973547 -138.367219 
L 248.715432 -138.319873 
L 245.286195 -138.308292 
L 243.792818 -138.811123 
L 243.55314 -138.828267 
L 243.534703 -138.877939 
L 243.516266 -138.879879 
L 242.446934 -139.109672 
L 242.391624 -139.103553 
L 242.115073 -139.201923 
L 240.474201 -139.463593 
L 240.105466 -139.414535 
L 237.303079 -139.29848 
L 236.030943 -139.325005 
L 234.887864 -139.417308 
L 233.910716 -139.372922 
L 233.283866 -139.445221 
L 233.191682 -139.481491 
L 227.107552 -139.941872 
L 227.070678 -139.999999 
L 223.973303 -140.298762 
L 218.479149 -140.800785 
L 218.423839 -140.779776 
L 217.041082 -140.722144 
L 216.469543 -140.947257 
L 215.547705 -140.966236 
L 214.128074 -141.076906 
L 213.150926 -141.11003 
L 208.799851 -140.935606 
L 206.974612 -141.107218 
L 205.591855 -141.199348 
L 205.038753 -141.111767 
L 204.983442 -141.151785 
L 203.711306 -141.30264 
L 201.775447 -141.536543 
L 201.591079 -141.485232 
L 195.801937 -141.113967 
L 195.654443 -141.261673 
L 195.359455 -141.203864 
L 195.193524 -141.338557 
L 195.119777 -141.350916 
L 191.727414 -141.233601 
L 189.865301 -142.834319 
L 189.773117 -142.876124 
L 187.671327 -142.84827 
L 187.579143 -142.84773 
L 187.339465 -142.826606 
L 180.812853 -143.452972 
L 177.973592 -145.290539 
L 174.304677 -145.182012 
L 173.272219 -145.092267 
L 173.124725 -145.128845 
L 171.686658 -145.30063 
L 171.170428 -145.32906 
L 170.672636 -145.382686 
L 170.359211 -145.344558 
L 168.09149 -146.07419 
L 163.629795 -145.392856 
L 163.537611 -145.362767 
L 162.68952 -145.294182 
L 162.247038 -145.601479 
L 162.136417 -145.592344 
L 157.029435 -145.655149 
L 156.808194 -145.823165 
L 156.789757 -145.811652 
L 155.757299 -145.728506 
L 150.447513 -146.778151 
L 150.152525 -146.989773 
L 149.691606 -146.979057 
L 149.027882 -147.227762 
L 144.068394 -147.476687 
L 143.939337 -147.514987 
L 140.602284 -147.484184 
L 139.920124 -147.593767 
L 139.698883 -147.75621 
L 138.924539 -148.199702 
L 138.426747 -148.20949 
L 135.8456 -147.849489 
L 134.573464 -147.98399 
L 133.024776 -147.953763 
L 128.894943 -147.116799 
L 128.784322 -147.190589 
L 128.784322 -147.202771 
L 128.526208 -147.257869 
L 127.991542 -147.340813 
L 127.751864 -147.376308 
L 126.40598 -147.361443 
L 126.000372 -147.654806 
L 119.953115 -146.582698 
L 119.897805 -146.665297 
L 119.178771 -146.721483 
L 116.763556 -147.299655 
L 116.652935 -147.286201 
L 116.302637 -147.152186 
L 114.624892 -147.421432 
L 101.903529 -141.221613 
L 101.774472 -141.341207 
L 101.479484 -141.177827 
L 101.424173 -141.171288 
L 100.391715 -141.378193 
L 96.261881 -138.843866 
L 96.225008 -138.900819 
L 90.749291 -135.593113 
L 90.048694 -135.813501 
L 89.95651 -135.835925 
L 89.21904 -135.580444 
L 88.112834 -134.952261 
L 87.522858 -134.66382 
L 87.467548 -134.666847 
L 87.393801 -134.6329 
L 86.840698 -134.085751 
L 85.162953 -133.527167 
L 83.87238 -132.484219 
L 82.415876 -131.220984 
L 82.397439 -131.279146 
L 82.194635 -131.153455 
L 82.010267 -131.51128 
L 81.8259 -131.272836 
L 80.480017 -130.5216 
L 80.369396 -130.427692 
L 79.89004 -130.614658 
L 79.373811 -130.027263 
L 78.765398 -129.59583 
L 78.027928 -130.631937 
L 77.972617 -130.625524 
L 77.861997 -130.581823 
L 77.659193 -130.454056 
L 77.474825 -130.160459 
L 71.888487 -118.185796 
L 71.040396 -116.436102 
L 70.911339 -116.549768 
L 70.708535 -116.464341 
L 70.690098 -116.456453 
L 70.579478 -116.512155 
L 69.602329 -114.577225 
L 68.809549 -112.600472 
L 68.791112 -112.586082 
L 68.754239 -112.448621 
L 68.625181 -112.235941 
L 68.34863 -112.227713 
L 67.72178 -111.054614 
L 67.445229 -111.688814 
L 67.426792 -111.630997 
L 66.707758 -109.763484 
L 66.615575 -109.487834 
L 66.578701 -109.525432 
L 66.486517 -109.370019 
L 66.468081 -109.263598 
L 66.375897 -108.9792 
L 65.988725 -107.108391 
L 65.951851 -107.011385 
L 65.822794 -106.897316 
L 65.804357 -106.952919 
L 65.693737 -106.950424 
L 65.583116 -106.346959 
L 65.564679 -106.402059 
L 65.490932 -106.023724 
L 65.454059 -105.961525 
L 57.6 -291.456 
L 57.6 -38.016 
L 57.6 -38.016 
L 65.454059 -38.016 
L 65.490932 -38.016 
L 65.564679 -38.016 
L 65.583116 -38.016 
L 65.693737 -38.016 
L 65.804357 -38.016 
L 65.822794 -38.016 
L 65.951851 -38.016 
L 65.988725 -38.016 
L 66.375897 -38.016 
L 66.468081 -38.016 
L 66.486517 -38.016 
L 66.578701 -38.016 
L 66.615575 -38.016 
L 66.707758 -38.016 
L 67.426792 -38.016 
L 67.445229 -38.016 
L 67.72178 -38.016 
L 68.34863 -38.016 
L 68.625181 -38.016 
L 68.754239 -38.016 
L 68.791112 -38.016 
L 68.809549 -38.016 
L 69.602329 -38.016 
L 70.579478 -38.016 
L 70.690098 -38.016 
L 70.708535 -38.016 
L 70.911339 -38.016 
L 71.040396 -38.016 
L 71.888487 -38.016 
L 77.474825 -38.016 
L 77.659193 -38.016 
L 77.861997 -38.016 
L 77.972617 -38.016 
L 78.027928 -38.016 
L 78.765398 -38.016 
L 79.373811 -38.016 
L 79.89004 -38.016 
L 80.369396 -38.016 
L 80.480017 -38.016 
L 81.8259 -38.016 
L 82.010267 -38.016 
L 82.194635 -38.016 
L 82.397439 -38.016 
L 82.415876 -38.016 
L 83.87238 -38.016 
L 85.162953 -38.016 
L 86.840698 -38.016 
L 87.393801 -38.016 
L 87.467548 -38.016 
L 87.522858 -38.016 
L 88.112834 -38.016 
L 89.21904 -38.016 
L 89.95651 -38.016 
L 90.048694 -38.016 
L 90.749291 -38.016 
L 96.225008 -38.016 
L 96.261881 -38.016 
L 100.391715 -38.016 
L 101.424173 -38.016 
L 101.479484 -38.016 
L 101.774472 -38.016 
L 101.903529 -38.016 
L 114.624892 -38.016 
L 116.302637 -38.016 
L 116.652935 -38.016 
L 116.763556 -38.016 
L 119.178771 -38.016 
L 119.897805 -38.016 
L 119.953115 -38.016 
L 126.000372 -38.016 
L 126.40598 -38.016 
L 127.751864 -38.016 
L 127.991542 -38.016 
L 128.526208 -38.016 
L 128.784322 -38.016 
L 128.784322 -38.016 
L 128.894943 -38.016 
L 133.024776 -38.016 
L 134.573464 -38.016 
L 135.8456 -38.016 
L 138.426747 -38.016 
L 138.924539 -38.016 
L 139.698883 -38.016 
L 139.920124 -38.016 
L 140.602284 -38.016 
L 143.939337 -38.016 
L 144.068394 -38.016 
L 149.027882 -38.016 
L 149.691606 -38.016 
L 150.152525 -38.016 
L 150.447513 -38.016 
L 155.757299 -38.016 
L 156.789757 -38.016 
L 156.808194 -38.016 
L 157.029435 -38.016 
L 162.136417 -38.016 
L 162.247038 -38.016 
L 162.68952 -38.016 
L 163.537611 -38.016 
L 163.629795 -38.016 
L 168.09149 -38.016 
L 170.359211 -38.016 
L 170.672636 -38.016 
L 171.170428 -38.016 
L 171.686658 -38.016 
L 173.124725 -38.016 
L 173.272219 -38.016 
L 174.304677 -38.016 
L 177.973592 -38.016 
L 180.812853 -38.016 
L 187.339465 -38.016 
L 187.579143 -38.016 
L 187.671327 -38.016 
L 189.773117 -38.016 
L 189.865301 -38.016 
L 191.727414 -38.016 
L 195.119777 -38.016 
L 195.193524 -38.016 
L 195.359455 -38.016 
L 195.654443 -38.016 
L 195.801937 -38.016 
L 201.591079 -38.016 
L 201.775447 -38.016 
L 203.711306 -38.016 
L 204.983442 -38.016 
L 205.038753 -38.016 
L 205.591855 -38.016 
L 206.974612 -38.016 
L 208.799851 -38.016 
L 213.150926 -38.016 
L 214.128074 -38.016 
L 215.547705 -38.016 
L 216.469543 -38.016 
L 217.041082 -38.016 
L 218.423839 -38.016 
L 218.479149 -38.016 
L 223.973303 -38.016 
L 227.070678 -38.016 
L 227.107552 -38.016 
L 233.191682 -38.016 
L 233.283866 -38.016 
L 233.910716 -38.016 
L 234.887864 -38.016 
L 236.030943 -38.016 
L 237.303079 -38.016 
L 240.105466 -38.016 
L 240.474201 -38.016 
L 242.115073 -38.016 
L 242.391624 -38.016 
L 242.446934 -38.016 
L 243.516266 -38.016 
L 243.534703 -38.016 
L 243.55314 -38.016 
L 243.792818 -38.016 
L 245.286195 -38.016 
L 248.715432 -38.016 
L 248.973547 -38.016 
L 248.991983 -38.016 
L 251.978738 -38.016 
L 252.900576 -38.016 
L 253.250875 -38.016 
L 257.251651 -38.016 
L 257.76788 -38.016 
L 258.579098 -38.016 
L 259.574682 -38.016 
L 265.068836 -38.016 
L 266.930949 -38.016 
L 268.239959 -38.016 
L 270.323312 -38.016 
L 271.761379 -38.016 
L 272.443539 -38.016 
L 272.683217 -38.016 
L 272.830711 -38.016 
L 273.97379 -38.016 
L 274.637514 -38.016 
L 274.674387 -38.016 
L 274.877192 -38.016 
L 275.135306 -38.016 
L 275.135306 -38.016 
L 277.200223 -38.016 
L 277.808636 -38.016 
L 283.468721 -38.016 
L 287.34044 -38.016 
L 287.727612 -38.016 
L 288.944438 -38.016 
L 289.018185 -38.016 
L 297.628151 -38.016 
L 300.92833 -38.016 
L 301.002077 -38.016 
L 301.038951 -38.016 
L 306.256553 -38.016 
L 306.459358 -38.016 
L 306.477795 -38.016 
L 306.533105 -38.016 
L 309.243308 -38.016 
L 310.20202 -38.016 
L 314.848083 -38.016 
L 317.466102 -38.016 
L 317.779527 -38.016 
L 319.881318 -38.016 
L 320.065685 -38.016 
L 320.710972 -38.016 
L 320.950649 -38.016 
L 321.356258 -38.016 
L 322.683705 -38.016 
L 322.739015 -38.016 
L 322.960256 -38.016 
L 323.10775 -38.016 
L 323.550232 -38.016 
L 323.826784 -38.016 
L 329.118133 -38.016 
L 329.19188 -38.016 
L 329.302501 -38.016 
L 329.320938 -38.016 
L 329.357811 -38.016 
L 329.357811 -38.016 
L 330.685258 -38.016 
L 331.533348 -38.016 
L 332.455186 -38.016 
L 337.912467 -38.016 
L 337.930903 -38.016 
L 337.94934 -38.016 
L 343.683172 -38.016 
L 344.475953 -38.016 
L 344.807814 -38.016 
L 344.807814 -38.016 
L 345.748089 -38.016 
L 346.07995 -38.016 
L 348.956085 -38.016 
L 349.048268 -38.016 
L 352.661873 -38.016 
L 352.772494 -38.016 
L 353.602148 -38.016 
L 354.09994 -38.016 
L 354.413365 -38.016 
L 354.450239 -38.016 
L 356.293914 -38.016 
L 359.520347 -38.016 
L 359.925956 -38.016 
L 359.944392 -38.016 
L 361.216529 -38.016 
L 362.875837 -38.016 
L 362.894274 -38.016 
L 363.59487 -38.016 
L 363.889859 -38.016 
L 364.682639 -38.016 
L 364.701076 -38.016 
L 366.010086 -38.016 
L 366.581625 -38.016 
L 367.982819 -38.016 
L 368.019692 -38.016 
L 369.918678 -38.016 
L 370.268977 -38.016 
L 370.895827 -38.016 
L 371.098631 -38.016 
L 373.937892 -38.016 
L 374.435684 -38.016 
L 375.670947 -38.016 
L 377.182761 -38.016 
L 377.256508 -38.016 
L 377.64368 -38.016 
L 377.809611 -38.016 
L 377.993978 -38.016 
L 386.806749 -38.016 
L 387.396725 -38.016 
L 388.060448 -38.016 
L 388.244816 -38.016 
L 388.336999 -38.016 
L 390.014744 -38.016 
L 391.250007 -38.016 
L 391.637179 -38.016 
L 392.227155 -38.016 
L 394.107705 -38.016 
L 394.384256 -38.016 
L 394.494877 -38.016 
L 394.937359 -38.016 
L 395.121726 -38.016 
L 395.398278 -38.016 
L 396.52292 -38.016 
L 397.14977 -38.016 
L 397.88724 -38.016 
L 398.661584 -38.016 
L 414.72 -38.016 
z
" id="ma2d5420a83" style="stroke:#0000ff;stroke-opacity:0.2;"/>
    </defs>
    <g clip-path="url(#pa6adb528bf)">
     <use style="fill:#0000ff;fill-opacity:0.2;stroke:#0000ff;stroke-opacity:0.2;" x="0" xlink:href="#ma2d5420a83" y="345.6"/>
    </g>
   </g>
   <g id="matplotlib.axis_1">
    <g id="xtick_1">
     <g id="line2d_1">
      <defs>
       <path d="M 0 0 
L 0 3.5 
" id="m0d130fc155" style="stroke:#000000;stroke-width:0.8;"/>
      </defs>
      <g>
       <use style="stroke:#000000;stroke-width:0.8;" x="57.6" xlink:href="#m0d130fc155" y="307.584"/>
      </g>
     </g>
     <g id="text_1">
      <!-- 0.0 -->
      <defs>
       <path d="M 31.78125 66.40625 
Q 24.171875 66.40625 20.328125 58.90625 
Q 16.5 51.421875 16.5 36.375 
Q 16.5 21.390625 20.328125 13.890625 
Q 24.171875 6.390625 31.78125 6.390625 
Q 39.453125 6.390625 43.28125 13.890625 
Q 47.125 21.390625 47.125 36.375 
Q 47.125 51.421875 43.28125 58.90625 
Q 39.453125 66.40625 31.78125 66.40625 
z
M 31.78125 74.21875 
Q 44.046875 74.21875 50.515625 64.515625 
Q 56.984375 54.828125 56.984375 36.375 
Q 56.984375 17.96875 50.515625 8.265625 
Q 44.046875 -1.421875 31.78125 -1.421875 
Q 19.53125 -1.421875 13.0625 8.265625 
Q 6.59375 17.96875 6.59375 36.375 
Q 6.59375 54.828125 13.0625 64.515625 
Q 19.53125 74.21875 31.78125 74.21875 
z
" id="DejaVuSans-48"/>
       <path d="M 10.6875 12.40625 
L 21 12.40625 
L 21 0 
L 10.6875 0 
z
" id="DejaVuSans-46"/>
      </defs>
      <g transform="translate(49.648438 322.182437)scale(0.1 -0.1)">
       <use xlink:href="#DejaVuSans-48"/>
       <use x="63.623047" xlink:href="#DejaVuSans-46"/>
       <use x="95.410156" xlink:href="#DejaVuSans-48"/>
      </g>
     </g>
    </g>
    <g id="xtick_2">
     <g id="line2d_2">
      <g>
       <use style="stroke:#000000;stroke-width:0.8;" x="129.024" xlink:href="#m0d130fc155" y="307.584"/>
      </g>
     </g>
     <g id="text_2">
      <!-- 0.2 -->
      <defs>
       <path d="M 19.1875 8.296875 
L 53.609375 8.296875 
L 53.609375 0 
L 7.328125 0 
L 7.328125 8.296875 
Q 12.9375 14.109375 22.625 23.890625 
Q 32.328125 33.6875 34.8125 36.53125 
Q 39.546875 41.84375 41.421875 45.53125 
Q 43.3125 49.21875 43.3125 52.78125 
Q 43.3125 58.59375 39.234375 62.25 
Q 35.15625 65.921875 28.609375 65.921875 
Q 23.96875 65.921875 18.8125 64.3125 
Q 13.671875 62.703125 7.8125 59.421875 
L 7.8125 69.390625 
Q 13.765625 71.78125 18.9375 73 
Q 24.125 74.21875 28.421875 74.21875 
Q 39.75 74.21875 46.484375 68.546875 
Q 53.21875 62.890625 53.21875 53.421875 
Q 53.21875 48.921875 51.53125 44.890625 
Q 49.859375 40.875 45.40625 35.40625 
Q 44.1875 33.984375 37.640625 27.21875 
Q 31.109375 20.453125 19.1875 8.296875 
z
" id="DejaVuSans-50"/>
      </defs>
      <g transform="translate(121.072438 322.182437)scale(0.1 -0.1)">
       <use xlink:href="#DejaVuSans-48"/>
       <use x="63.623047" xlink:href="#DejaVuSans-46"/>
       <use x="95.410156" xlink:href="#DejaVuSans-50"/>
      </g>
     </g>
    </g>
    <g id="xtick_3">
     <g id="line2d_3">
      <g>
       <use style="stroke:#000000;stroke-width:0.8;" x="200.448" xlink:href="#m0d130fc155" y="307.584"/>
      </g>
     </g>
     <g id="text_3">
      <!-- 0.4 -->
      <defs>
       <path d="M 37.796875 64.3125 
L 12.890625 25.390625 
L 37.796875 25.390625 
z
M 35.203125 72.90625 
L 47.609375 72.90625 
L 47.609375 25.390625 
L 58.015625 25.390625 
L 58.015625 17.1875 
L 47.609375 17.1875 
L 47.609375 0 
L 37.796875 0 
L 37.796875 17.1875 
L 4.890625 17.1875 
L 4.890625 26.703125 
z
" id="DejaVuSans-52"/>
      </defs>
      <g transform="translate(192.496438 322.182437)scale(0.1 -0.1)">
       <use xlink:href="#DejaVuSans-48"/>
       <use x="63.623047" xlink:href="#DejaVuSans-46"/>
       <use x="95.410156" xlink:href="#DejaVuSans-52"/>
      </g>
     </g>
    </g>
    <g id="xtick_4">
     <g id="line2d_4">
      <g>
       <use style="stroke:#000000;stroke-width:0.8;" x="271.872" xlink:href="#m0d130fc155" y="307.584"/>
      </g>
     </g>
     <g id="text_4">
      <!-- 0.6 -->
      <defs>
       <path d="M 33.015625 40.375 
Q 26.375 40.375 22.484375 35.828125 
Q 18.609375 31.296875 18.609375 23.390625 
Q 18.609375 15.53125 22.484375 10.953125 
Q 26.375 6.390625 33.015625 6.390625 
Q 39.65625 6.390625 43.53125 10.953125 
Q 47.40625 15.53125 47.40625 23.390625 
Q 47.40625 31.296875 43.53125 35.828125 
Q 39.65625 40.375 33.015625 40.375 
z
M 52.59375 71.296875 
L 52.59375 62.3125 
Q 48.875 64.0625 45.09375 64.984375 
Q 41.3125 65.921875 37.59375 65.921875 
Q 27.828125 65.921875 22.671875 59.328125 
Q 17.53125 52.734375 16.796875 39.40625 
Q 19.671875 43.65625 24.015625 45.921875 
Q 28.375 48.1875 33.59375 48.1875 
Q 44.578125 48.1875 50.953125 41.515625 
Q 57.328125 34.859375 57.328125 23.390625 
Q 57.328125 12.15625 50.6875 5.359375 
Q 44.046875 -1.421875 33.015625 -1.421875 
Q 20.359375 -1.421875 13.671875 8.265625 
Q 6.984375 17.96875 6.984375 36.375 
Q 6.984375 53.65625 15.1875 63.9375 
Q 23.390625 74.21875 37.203125 74.21875 
Q 40.921875 74.21875 44.703125 73.484375 
Q 48.484375 72.75 52.59375 71.296875 
z
" id="DejaVuSans-54"/>
      </defs>
      <g transform="translate(263.920438 322.182437)scale(0.1 -0.1)">
       <use xlink:href="#DejaVuSans-48"/>
       <use x="63.623047" xlink:href="#DejaVuSans-46"/>
       <use x="95.410156" xlink:href="#DejaVuSans-54"/>
      </g>
     </g>
    </g>
    <g id="xtick_5">
     <g id="line2d_5">
      <g>
       <use style="stroke:#000000;stroke-width:0.8;" x="343.296" xlink:href="#m0d130fc155" y="307.584"/>
      </g>
     </g>
     <g id="text_5">
      <!-- 0.8 -->
      <defs>
       <path d="M 31.78125 34.625 
Q 24.75 34.625 20.71875 30.859375 
Q 16.703125 27.09375 16.703125 20.515625 
Q 16.703125 13.921875 20.71875 10.15625 
Q 24.75 6.390625 31.78125 6.390625 
Q 38.8125 6.390625 42.859375 10.171875 
Q 46.921875 13.96875 46.921875 20.515625 
Q 46.921875 27.09375 42.890625 30.859375 
Q 38.875 34.625 31.78125 34.625 
z
M 21.921875 38.8125 
Q 15.578125 40.375 12.03125 44.71875 
Q 8.5 49.078125 8.5 55.328125 
Q 8.5 64.0625 14.71875 69.140625 
Q 20.953125 74.21875 31.78125 74.21875 
Q 42.671875 74.21875 48.875 69.140625 
Q 55.078125 64.0625 55.078125 55.328125 
Q 55.078125 49.078125 51.53125 44.71875 
Q 48 40.375 41.703125 38.8125 
Q 48.828125 37.15625 52.796875 32.3125 
Q 56.78125 27.484375 56.78125 20.515625 
Q 56.78125 9.90625 50.3125 4.234375 
Q 43.84375 -1.421875 31.78125 -1.421875 
Q 19.734375 -1.421875 13.25 4.234375 
Q 6.78125 9.90625 6.78125 20.515625 
Q 6.78125 27.484375 10.78125 32.3125 
Q 14.796875 37.15625 21.921875 38.8125 
z
M 18.3125 54.390625 
Q 18.3125 48.734375 21.84375 45.5625 
Q 25.390625 42.390625 31.78125 42.390625 
Q 38.140625 42.390625 41.71875 45.5625 
Q 45.3125 48.734375 45.3125 54.390625 
Q 45.3125 60.0625 41.71875 63.234375 
Q 38.140625 66.40625 31.78125 66.40625 
Q 25.390625 66.40625 21.84375 63.234375 
Q 18.3125 60.0625 18.3125 54.390625 
z
" id="DejaVuSans-56"/>
      </defs>
      <g transform="translate(335.344438 322.182437)scale(0.1 -0.1)">
       <use xlink:href="#DejaVuSans-48"/>
       <use x="63.623047" xlink:href="#DejaVuSans-46"/>
       <use x="95.410156" xlink:href="#DejaVuSans-56"/>
      </g>
     </g>
    </g>
    <g id="xtick_6">
     <g id="line2d_6">
      <g>
       <use style="stroke:#000000;stroke-width:0.8;" x="414.72" xlink:href="#m0d130fc155" y="307.584"/>
      </g>
     </g>
     <g id="text_6">
      <!-- 1.0 -->
      <defs>
       <path d="M 12.40625 8.296875 
L 28.515625 8.296875 
L 28.515625 63.921875 
L 10.984375 60.40625 
L 10.984375 69.390625 
L 28.421875 72.90625 
L 38.28125 72.90625 
L 38.28125 8.296875 
L 54.390625 8.296875 
L 54.390625 0 
L 12.40625 0 
z
" id="DejaVuSans-49"/>
      </defs>
      <g transform="translate(406.768438 322.182437)scale(0.1 -0.1)">
       <use xlink:href="#DejaVuSans-49"/>
       <use x="63.623047" xlink:href="#DejaVuSans-46"/>
       <use x="95.410156" xlink:href="#DejaVuSans-48"/>
      </g>
     </g>
    </g>
    <g id="text_7">
     <!-- Recall -->
     <defs>
      <path d="M 44.390625 34.1875 
Q 47.5625 33.109375 50.5625 29.59375 
Q 53.5625 26.078125 56.59375 19.921875 
L 66.609375 0 
L 56 0 
L 46.6875 18.703125 
Q 43.0625 26.03125 39.671875 28.421875 
Q 36.28125 30.8125 30.421875 30.8125 
L 19.671875 30.8125 
L 19.671875 0 
L 9.8125 0 
L 9.8125 72.90625 
L 32.078125 72.90625 
Q 44.578125 72.90625 50.734375 67.671875 
Q 56.890625 62.453125 56.890625 51.90625 
Q 56.890625 45.015625 53.6875 40.46875 
Q 50.484375 35.9375 44.390625 34.1875 
z
M 19.671875 64.796875 
L 19.671875 38.921875 
L 32.078125 38.921875 
Q 39.203125 38.921875 42.84375 42.21875 
Q 46.484375 45.515625 46.484375 51.90625 
Q 46.484375 58.296875 42.84375 61.546875 
Q 39.203125 64.796875 32.078125 64.796875 
z
" id="DejaVuSans-82"/>
      <path d="M 56.203125 29.59375 
L 56.203125 25.203125 
L 14.890625 25.203125 
Q 15.484375 15.921875 20.484375 11.0625 
Q 25.484375 6.203125 34.421875 6.203125 
Q 39.59375 6.203125 44.453125 7.46875 
Q 49.3125 8.734375 54.109375 11.28125 
L 54.109375 2.78125 
Q 49.265625 0.734375 44.1875 -0.34375 
Q 39.109375 -1.421875 33.890625 -1.421875 
Q 20.796875 -1.421875 13.15625 6.1875 
Q 5.515625 13.8125 5.515625 26.8125 
Q 5.515625 40.234375 12.765625 48.109375 
Q 20.015625 56 32.328125 56 
Q 43.359375 56 49.78125 48.890625 
Q 56.203125 41.796875 56.203125 29.59375 
z
M 47.21875 32.234375 
Q 47.125 39.59375 43.09375 43.984375 
Q 39.0625 48.390625 32.421875 48.390625 
Q 24.90625 48.390625 20.390625 44.140625 
Q 15.875 39.890625 15.1875 32.171875 
z
" id="DejaVuSans-101"/>
      <path d="M 48.78125 52.59375 
L 48.78125 44.1875 
Q 44.96875 46.296875 41.140625 47.34375 
Q 37.3125 48.390625 33.40625 48.390625 
Q 24.65625 48.390625 19.8125 42.84375 
Q 14.984375 37.3125 14.984375 27.296875 
Q 14.984375 17.28125 19.8125 11.734375 
Q 24.65625 6.203125 33.40625 6.203125 
Q 37.3125 6.203125 41.140625 7.25 
Q 44.96875 8.296875 48.78125 10.40625 
L 48.78125 2.09375 
Q 45.015625 0.34375 40.984375 -0.53125 
Q 36.96875 -1.421875 32.421875 -1.421875 
Q 20.0625 -1.421875 12.78125 6.34375 
Q 5.515625 14.109375 5.515625 27.296875 
Q 5.515625 40.671875 12.859375 48.328125 
Q 20.21875 56 33.015625 56 
Q 37.15625 56 41.109375 55.140625 
Q 45.0625 54.296875 48.78125 52.59375 
z
" id="DejaVuSans-99"/>
      <path d="M 34.28125 27.484375 
Q 23.390625 27.484375 19.1875 25 
Q 14.984375 22.515625 14.984375 16.5 
Q 14.984375 11.71875 18.140625 8.90625 
Q 21.296875 6.109375 26.703125 6.109375 
Q 34.1875 6.109375 38.703125 11.40625 
Q 43.21875 16.703125 43.21875 25.484375 
L 43.21875 27.484375 
z
M 52.203125 31.203125 
L 52.203125 0 
L 43.21875 0 
L 43.21875 8.296875 
Q 40.140625 3.328125 35.546875 0.953125 
Q 30.953125 -1.421875 24.3125 -1.421875 
Q 15.921875 -1.421875 10.953125 3.296875 
Q 6 8.015625 6 15.921875 
Q 6 25.140625 12.171875 29.828125 
Q 18.359375 34.515625 30.609375 34.515625 
L 43.21875 34.515625 
L 43.21875 35.40625 
Q 43.21875 41.609375 39.140625 45 
Q 35.0625 48.390625 27.6875 48.390625 
Q 23 48.390625 18.546875 47.265625 
Q 14.109375 46.140625 10.015625 43.890625 
L 10.015625 52.203125 
Q 14.9375 54.109375 19.578125 55.046875 
Q 24.21875 56 28.609375 56 
Q 40.484375 56 46.34375 49.84375 
Q 52.203125 43.703125 52.203125 31.203125 
z
" id="DejaVuSans-97"/>
      <path d="M 9.421875 75.984375 
L 18.40625 75.984375 
L 18.40625 0 
L 9.421875 0 
z
" id="DejaVuSans-108"/>
     </defs>
     <g transform="translate(221.020938 335.860562)scale(0.1 -0.1)">
      <use xlink:href="#DejaVuSans-82"/>
      <use x="69.419922" xlink:href="#DejaVuSans-101"/>
      <use x="130.943359" xlink:href="#DejaVuSans-99"/>
      <use x="185.923828" xlink:href="#DejaVuSans-97"/>
      <use x="247.203125" xlink:href="#DejaVuSans-108"/>
      <use x="274.986328" xlink:href="#DejaVuSans-108"/>
     </g>
    </g>
   </g>
   <g id="matplotlib.axis_2">
    <g id="ytick_1">
     <g id="line2d_7">
      <defs>
       <path d="M 0 0 
L -3.5 0 
" id="m3406e26799" style="stroke:#000000;stroke-width:0.8;"/>
      </defs>
      <g>
       <use style="stroke:#000000;stroke-width:0.8;" x="57.6" xlink:href="#m3406e26799" y="307.584"/>
      </g>
     </g>
     <g id="text_8">
      <!-- 0.0 -->
      <g transform="translate(34.696875 311.383219)scale(0.1 -0.1)">
       <use xlink:href="#DejaVuSans-48"/>
       <use x="63.623047" xlink:href="#DejaVuSans-46"/>
       <use x="95.410156" xlink:href="#DejaVuSans-48"/>
      </g>
     </g>
    </g>
    <g id="ytick_2">
     <g id="line2d_8">
      <g>
       <use style="stroke:#000000;stroke-width:0.8;" x="57.6" xlink:href="#m3406e26799" y="256.896"/>
      </g>
     </g>
     <g id="text_9">
      <!-- 0.2 -->
      <g transform="translate(34.696875 260.695219)scale(0.1 -0.1)">
       <use xlink:href="#DejaVuSans-48"/>
       <use x="63.623047" xlink:href="#DejaVuSans-46"/>
       <use x="95.410156" xlink:href="#DejaVuSans-50"/>
      </g>
     </g>
    </g>
    <g id="ytick_3">
     <g id="line2d_9">
      <g>
       <use style="stroke:#000000;stroke-width:0.8;" x="57.6" xlink:href="#m3406e26799" y="206.208"/>
      </g>
     </g>
     <g id="text_10">
      <!-- 0.4 -->
      <g transform="translate(34.696875 210.007219)scale(0.1 -0.1)">
       <use xlink:href="#DejaVuSans-48"/>
       <use x="63.623047" xlink:href="#DejaVuSans-46"/>
       <use x="95.410156" xlink:href="#DejaVuSans-52"/>
      </g>
     </g>
    </g>
    <g id="ytick_4">
     <g id="line2d_10">
      <g>
       <use style="stroke:#000000;stroke-width:0.8;" x="57.6" xlink:href="#m3406e26799" y="155.52"/>
      </g>
     </g>
     <g id="text_11">
      <!-- 0.6 -->
      <g transform="translate(34.696875 159.319219)scale(0.1 -0.1)">
       <use xlink:href="#DejaVuSans-48"/>
       <use x="63.623047" xlink:href="#DejaVuSans-46"/>
       <use x="95.410156" xlink:href="#DejaVuSans-54"/>
      </g>
     </g>
    </g>
    <g id="ytick_5">
     <g id="line2d_11">
      <g>
       <use style="stroke:#000000;stroke-width:0.8;" x="57.6" xlink:href="#m3406e26799" y="104.832"/>
      </g>
     </g>
     <g id="text_12">
      <!-- 0.8 -->
      <g transform="translate(34.696875 108.631219)scale(0.1 -0.1)">
       <use xlink:href="#DejaVuSans-48"/>
       <use x="63.623047" xlink:href="#DejaVuSans-46"/>
       <use x="95.410156" xlink:href="#DejaVuSans-56"/>
      </g>
     </g>
    </g>
    <g id="ytick_6">
     <g id="line2d_12">
      <g>
       <use style="stroke:#000000;stroke-width:0.8;" x="57.6" xlink:href="#m3406e26799" y="54.144"/>
      </g>
     </g>
     <g id="text_13">
      <!-- 1.0 -->
      <g transform="translate(34.696875 57.943219)scale(0.1 -0.1)">
       <use xlink:href="#DejaVuSans-49"/>
       <use x="63.623047" xlink:href="#DejaVuSans-46"/>
       <use x="95.410156" xlink:href="#DejaVuSans-48"/>
      </g>
     </g>
    </g>
    <g id="text_14">
     <!-- Precision -->
     <defs>
      <path d="M 19.671875 64.796875 
L 19.671875 37.40625 
L 32.078125 37.40625 
Q 38.96875 37.40625 42.71875 40.96875 
Q 46.484375 44.53125 46.484375 51.125 
Q 46.484375 57.671875 42.71875 61.234375 
Q 38.96875 64.796875 32.078125 64.796875 
z
M 9.8125 72.90625 
L 32.078125 72.90625 
Q 44.34375 72.90625 50.609375 67.359375 
Q 56.890625 61.8125 56.890625 51.125 
Q 56.890625 40.328125 50.609375 34.8125 
Q 44.34375 29.296875 32.078125 29.296875 
L 19.671875 29.296875 
L 19.671875 0 
L 9.8125 0 
z
" id="DejaVuSans-80"/>
      <path d="M 41.109375 46.296875 
Q 39.59375 47.171875 37.8125 47.578125 
Q 36.03125 48 33.890625 48 
Q 26.265625 48 22.1875 43.046875 
Q 18.109375 38.09375 18.109375 28.8125 
L 18.109375 0 
L 9.078125 0 
L 9.078125 54.6875 
L 18.109375 54.6875 
L 18.109375 46.1875 
Q 20.953125 51.171875 25.484375 53.578125 
Q 30.03125 56 36.53125 56 
Q 37.453125 56 38.578125 55.875 
Q 39.703125 55.765625 41.0625 55.515625 
z
" id="DejaVuSans-114"/>
      <path d="M 9.421875 54.6875 
L 18.40625 54.6875 
L 18.40625 0 
L 9.421875 0 
z
M 9.421875 75.984375 
L 18.40625 75.984375 
L 18.40625 64.59375 
L 9.421875 64.59375 
z
" id="DejaVuSans-105"/>
      <path d="M 44.28125 53.078125 
L 44.28125 44.578125 
Q 40.484375 46.53125 36.375 47.5 
Q 32.28125 48.484375 27.875 48.484375 
Q 21.1875 48.484375 17.84375 46.4375 
Q 14.5 44.390625 14.5 40.28125 
Q 14.5 37.15625 16.890625 35.375 
Q 19.28125 33.59375 26.515625 31.984375 
L 29.59375 31.296875 
Q 39.15625 29.25 43.1875 25.515625 
Q 47.21875 21.78125 47.21875 15.09375 
Q 47.21875 7.46875 41.1875 3.015625 
Q 35.15625 -1.421875 24.609375 -1.421875 
Q 20.21875 -1.421875 15.453125 -0.5625 
Q 10.6875 0.296875 5.421875 2 
L 5.421875 11.28125 
Q 10.40625 8.6875 15.234375 7.390625 
Q 20.0625 6.109375 24.8125 6.109375 
Q 31.15625 6.109375 34.5625 8.28125 
Q 37.984375 10.453125 37.984375 14.40625 
Q 37.984375 18.0625 35.515625 20.015625 
Q 33.0625 21.96875 24.703125 23.78125 
L 21.578125 24.515625 
Q 13.234375 26.265625 9.515625 29.90625 
Q 5.8125 33.546875 5.8125 39.890625 
Q 5.8125 47.609375 11.28125 51.796875 
Q 16.75 56 26.8125 56 
Q 31.78125 56 36.171875 55.265625 
Q 40.578125 54.546875 44.28125 53.078125 
z
" id="DejaVuSans-115"/>
      <path d="M 30.609375 48.390625 
Q 23.390625 48.390625 19.1875 42.75 
Q 14.984375 37.109375 14.984375 27.296875 
Q 14.984375 17.484375 19.15625 11.84375 
Q 23.34375 6.203125 30.609375 6.203125 
Q 37.796875 6.203125 41.984375 11.859375 
Q 46.1875 17.53125 46.1875 27.296875 
Q 46.1875 37.015625 41.984375 42.703125 
Q 37.796875 48.390625 30.609375 48.390625 
z
M 30.609375 56 
Q 42.328125 56 49.015625 48.375 
Q 55.71875 40.765625 55.71875 27.296875 
Q 55.71875 13.875 49.015625 6.21875 
Q 42.328125 -1.421875 30.609375 -1.421875 
Q 18.84375 -1.421875 12.171875 6.21875 
Q 5.515625 13.875 5.515625 27.296875 
Q 5.515625 40.765625 12.171875 48.375 
Q 18.84375 56 30.609375 56 
z
" id="DejaVuSans-111"/>
      <path d="M 54.890625 33.015625 
L 54.890625 0 
L 45.90625 0 
L 45.90625 32.71875 
Q 45.90625 40.484375 42.875 44.328125 
Q 39.84375 48.1875 33.796875 48.1875 
Q 26.515625 48.1875 22.3125 43.546875 
Q 18.109375 38.921875 18.109375 30.90625 
L 18.109375 0 
L 9.078125 0 
L 9.078125 54.6875 
L 18.109375 54.6875 
L 18.109375 46.1875 
Q 21.34375 51.125 25.703125 53.5625 
Q 30.078125 56 35.796875 56 
Q 45.21875 56 50.046875 50.171875 
Q 54.890625 44.34375 54.890625 33.015625 
z
" id="DejaVuSans-110"/>
     </defs>
     <g transform="translate(28.617187 197.032688)rotate(-90)scale(0.1 -0.1)">
      <use xlink:href="#DejaVuSans-80"/>
      <use x="60.287109" xlink:href="#DejaVuSans-114"/>
      <use x="101.369141" xlink:href="#DejaVuSans-101"/>
      <use x="162.892578" xlink:href="#DejaVuSans-99"/>
      <use x="217.873047" xlink:href="#DejaVuSans-105"/>
      <use x="245.65625" xlink:href="#DejaVuSans-115"/>
      <use x="297.755859" xlink:href="#DejaVuSans-105"/>
      <use x="325.539062" xlink:href="#DejaVuSans-111"/>
      <use x="386.720703" xlink:href="#DejaVuSans-110"/>
     </g>
    </g>
   </g>
   <g id="line2d_13">
    <path clip-path="url(#pa6adb528bf)" d="M 414.72 232.922654 
L 398.661584 232.922654 
L 398.661584 230.142488 
L 397.88724 230.142488 
L 397.88724 229.573526 
L 397.14977 229.573526 
L 397.14977 229.458559 
L 396.52292 229.458559 
L 396.52292 229.219788 
L 395.398278 229.219788 
L 395.398278 228.930799 
L 394.494877 228.866119 
L 394.494877 228.776732 
L 394.384256 228.782494 
L 392.227155 228.755963 
L 392.227155 228.273391 
L 390.014744 228.205259 
L 390.014744 228.079464 
L 388.336999 228.079464 
L 388.244816 227.731699 
L 387.396725 227.680768 
L 387.396725 226.89315 
L 377.993978 226.847815 
L 377.993978 222.552717 
L 375.670947 222.450791 
L 375.670947 221.373324 
L 371.098631 221.288361 
L 371.098631 220.833718 
L 368.019692 220.838933 
L 368.019692 220.626687 
L 367.982819 220.628156 
L 363.889859 220.624054 
L 363.889859 220.358006 
L 361.216529 220.256004 
L 361.216529 219.717686 
L 356.293914 219.720222 
L 356.293914 219.03195 
L 354.450239 219.03195 
L 354.450239 218.533777 
L 354.413365 218.535122 
L 353.602148 218.459928 
L 353.602148 218.261894 
L 352.772494 218.261894 
L 352.661873 217.959337 
L 349.048268 217.959337 
L 348.956085 217.767165 
L 346.07995 217.767165 
L 346.07995 216.979547 
L 345.748089 216.979547 
L 345.748089 216.861988 
L 337.94934 216.840807 
L 337.912467 215.6 
L 332.455186 215.6 
L 332.455186 214.550327 
L 331.533348 214.550327 
L 331.533348 214.207068 
L 329.357811 214.127685 
L 329.320938 213.892508 
L 329.302501 213.896515 
L 323.826784 213.903691 
L 323.826784 213.245496 
L 321.356258 213.21511 
L 321.356258 213.009238 
L 320.710972 213.038767 
L 320.710972 212.835297 
L 317.779527 212.788884 
L 317.779527 212.622226 
L 310.20202 212.625667 
L 310.20202 212.387667 
L 309.243308 212.387667 
L 309.243308 212.226117 
L 306.533105 212.226117 
L 306.459358 212.364997 
L 301.038951 212.254201 
L 301.002077 211.753701 
L 300.92833 211.76627 
L 297.628151 211.76627 
L 297.628151 211.480095 
L 289.018185 211.480095 
L 288.944438 210.840111 
L 287.727612 210.840111 
L 287.727612 210.697593 
L 277.200223 210.621017 
L 277.200223 210.465838 
L 275.135306 210.465838 
L 275.135306 210.327729 
L 272.830711 210.261448 
L 272.830711 210.051165 
L 272.443539 210.011858 
L 272.443539 209.898149 
L 268.239959 209.915639 
L 268.239959 209.393081 
L 266.930949 209.393081 
L 266.930949 209.138644 
L 259.574682 209.07069 
L 259.574682 208.305047 
L 257.251651 208.251915 
L 257.251651 208.167143 
L 253.250875 208.167143 
L 253.250875 207.913629 
L 252.900576 207.913629 
L 252.900576 207.796239 
L 251.978738 207.796239 
L 251.978738 207.523413 
L 248.991983 207.523413 
L 248.991983 207.23077 
L 248.973547 207.232781 
L 243.792818 207.291708 
L 243.792818 206.788877 
L 242.446934 206.720121 
L 242.446934 206.490328 
L 242.391624 206.496447 
L 240.474201 206.398077 
L 240.474201 206.136407 
L 237.303079 206.185465 
L 237.303079 206.30152 
L 234.887864 206.274995 
L 234.887864 206.182692 
L 227.107552 206.118509 
L 227.070678 205.600001 
L 223.973303 205.600001 
L 223.973303 205.301238 
L 218.479149 205.301238 
L 218.479149 204.799215 
L 218.423839 204.820224 
L 216.469543 204.877856 
L 216.469543 204.652743 
L 214.128074 204.633764 
L 214.128074 204.523094 
L 208.799851 204.48997 
L 208.799851 204.664394 
L 206.974612 204.664394 
L 206.974612 204.492782 
L 203.711306 204.448215 
L 203.711306 204.29736 
L 201.775447 204.29736 
L 201.775447 204.063457 
L 195.801937 204.114768 
L 195.801937 204.486033 
L 195.654443 204.486033 
L 195.654443 204.338327 
L 189.865301 204.366399 
L 189.773117 202.723876 
L 180.812853 202.773394 
L 180.812853 202.147028 
L 177.973592 202.147028 
L 177.973592 200.309461 
L 173.272219 200.417988 
L 173.272219 200.507733 
L 171.686658 200.471155 
L 171.686658 200.29937 
L 168.09149 200.255442 
L 168.09149 199.52581 
L 163.629795 199.52581 
L 163.537611 200.237233 
L 162.247038 200.305818 
L 162.247038 199.998521 
L 162.136417 200.007656 
L 156.808194 199.944851 
L 156.808194 199.776835 
L 156.789757 199.788348 
L 150.447513 199.871494 
L 150.447513 198.821849 
L 150.152525 198.821849 
L 150.152525 198.610227 
L 149.027882 198.620943 
L 149.027882 198.372238 
L 144.068394 198.372238 
L 144.068394 198.123313 
L 139.920124 198.115816 
L 139.920124 198.006233 
L 139.698883 198.006233 
L 139.698883 197.84379 
L 138.924539 197.84379 
L 138.924539 197.400298 
L 135.8456 197.39051 
L 135.8456 197.750511 
L 134.573464 197.750511 
L 134.573464 197.61601 
L 128.894943 197.646237 
L 128.894943 198.483201 
L 128.784322 198.397229 
L 127.991542 198.342131 
L 127.991542 198.259187 
L 126.000372 198.238557 
L 126.000372 197.945194 
L 119.953115 197.945194 
L 119.953115 199.017302 
L 119.897805 198.934703 
L 116.763556 198.878517 
L 116.763556 198.300345 
L 116.652935 198.313799 
L 116.302637 198.313799 
L 116.302637 198.447814 
L 114.624892 198.447814 
L 114.624892 198.178568 
L 101.903529 198.178568 
L 101.903529 204.378387 
L 101.774472 204.378387 
L 101.774472 204.258793 
L 101.479484 204.258793 
L 101.424173 204.428712 
L 100.391715 204.428712 
L 100.391715 204.221807 
L 96.261881 204.221807 
L 96.261881 206.756134 
L 96.225008 206.699181 
L 90.749291 206.699181 
L 90.749291 210.006887 
L 90.048694 210.006887 
L 89.95651 209.764075 
L 89.21904 209.764075 
L 89.21904 210.019556 
L 88.112834 210.019556 
L 88.112834 210.647739 
L 87.522858 210.647739 
L 87.522858 210.93618 
L 87.467548 210.933153 
L 86.840698 210.9671 
L 86.840698 211.514249 
L 85.162953 211.514249 
L 85.162953 212.072833 
L 83.87238 212.072833 
L 83.87238 213.115781 
L 82.415876 213.115781 
L 82.415876 214.379016 
L 82.397439 214.320854 
L 82.194635 214.320854 
L 82.194635 214.446545 
L 82.010267 214.446545 
L 82.010267 214.08872 
L 81.8259 214.08872 
L 81.8259 214.327164 
L 80.480017 214.327164 
L 80.369396 215.172308 
L 79.89004 215.172308 
L 79.89004 214.985342 
L 79.373811 214.985342 
L 79.373811 215.572737 
L 78.765398 215.572737 
L 78.765398 216.00417 
L 78.027928 216.00417 
L 78.027928 214.968063 
L 77.972617 214.974476 
L 77.659193 215.018177 
L 77.659193 215.145944 
L 77.474825 215.145944 
L 77.474825 215.439541 
L 71.888487 215.439541 
L 71.888487 227.414204 
L 71.040396 227.414204 
L 71.040396 229.163898 
L 70.911339 229.163898 
L 70.911339 229.050232 
L 69.602329 229.087845 
L 69.602329 231.022775 
L 68.809549 231.022775 
L 68.754239 233.151379 
L 68.625181 233.151379 
L 68.625181 233.364059 
L 67.72178 233.372287 
L 67.72178 234.545386 
L 67.445229 234.545386 
L 67.445229 233.911186 
L 67.426792 233.969003 
L 66.707758 233.969003 
L 66.615575 236.112166 
L 66.486517 236.074568 
L 66.375897 236.6208 
L 65.988725 236.6208 
L 65.951851 238.588615 
L 65.822794 238.588615 
L 65.822794 238.702684 
L 65.804357 238.647081 
L 65.583116 238.649576 
L 65.490932 239.576276 
L 57.6 239.638475 
L 57.6 54.144 
L 57.6 54.144 
" style="fill:none;stroke:#0000ff;stroke-linecap:square;stroke-opacity:0.2;stroke-width:1.5;"/>
   </g>
   <g id="patch_3">
    <path d="M 57.6 307.584 
L 57.6 41.472 
" style="fill:none;stroke:#000000;stroke-linecap:square;stroke-linejoin:miter;stroke-width:0.8;"/>
   </g>
   <g id="patch_4">
    <path d="M 414.72 307.584 
L 414.72 41.472 
" style="fill:none;stroke:#000000;stroke-linecap:square;stroke-linejoin:miter;stroke-width:0.8;"/>
   </g>
   <g id="patch_5">
    <path d="M 57.6 307.584 
L 414.72 307.584 
" style="fill:none;stroke:#000000;stroke-linecap:square;stroke-linejoin:miter;stroke-width:0.8;"/>
   </g>
   <g id="patch_6">
    <path d="M 57.6 41.472 
L 414.72 41.472 
" style="fill:none;stroke:#000000;stroke-linecap:square;stroke-linejoin:miter;stroke-width:0.8;"/>
   </g>
   <g id="text_15">
    <!-- 2-class Precision-Recall curve -->
    <defs>
     <path d="M 4.890625 31.390625 
L 31.203125 31.390625 
L 31.203125 23.390625 
L 4.890625 23.390625 
z
" id="DejaVuSans-45"/>
     <path id="DejaVuSans-32"/>
     <path d="M 8.5 21.578125 
L 8.5 54.6875 
L 17.484375 54.6875 
L 17.484375 21.921875 
Q 17.484375 14.15625 20.5 10.265625 
Q 23.53125 6.390625 29.59375 6.390625 
Q 36.859375 6.390625 41.078125 11.03125 
Q 45.3125 15.671875 45.3125 23.6875 
L 45.3125 54.6875 
L 54.296875 54.6875 
L 54.296875 0 
L 45.3125 0 
L 45.3125 8.40625 
Q 42.046875 3.421875 37.71875 1 
Q 33.40625 -1.421875 27.6875 -1.421875 
Q 18.265625 -1.421875 13.375 4.4375 
Q 8.5 10.296875 8.5 21.578125 
z
M 31.109375 56 
z
" id="DejaVuSans-117"/>
     <path d="M 2.984375 54.6875 
L 12.5 54.6875 
L 29.59375 8.796875 
L 46.6875 54.6875 
L 56.203125 54.6875 
L 35.6875 0 
L 23.484375 0 
z
" id="DejaVuSans-118"/>
    </defs>
    <g transform="translate(147.321562 35.472)scale(0.12 -0.12)">
     <use xlink:href="#DejaVuSans-50"/>
     <use x="63.623047" xlink:href="#DejaVuSans-45"/>
     <use x="99.707031" xlink:href="#DejaVuSans-99"/>
     <use x="154.6875" xlink:href="#DejaVuSans-108"/>
     <use x="182.470703" xlink:href="#DejaVuSans-97"/>
     <use x="243.75" xlink:href="#DejaVuSans-115"/>
     <use x="295.849609" xlink:href="#DejaVuSans-115"/>
     <use x="347.949219" xlink:href="#DejaVuSans-32"/>
     <use x="379.736328" xlink:href="#DejaVuSans-80"/>
     <use x="440.023438" xlink:href="#DejaVuSans-114"/>
     <use x="481.105469" xlink:href="#DejaVuSans-101"/>
     <use x="542.628906" xlink:href="#DejaVuSans-99"/>
     <use x="597.609375" xlink:href="#DejaVuSans-105"/>
     <use x="625.392578" xlink:href="#DejaVuSans-115"/>
     <use x="677.492188" xlink:href="#DejaVuSans-105"/>
     <use x="705.275391" xlink:href="#DejaVuSans-111"/>
     <use x="766.457031" xlink:href="#DejaVuSans-110"/>
     <use x="829.835938" xlink:href="#DejaVuSans-45"/>
     <use x="865.919922" xlink:href="#DejaVuSans-82"/>
     <use x="935.339844" xlink:href="#DejaVuSans-101"/>
     <use x="996.863281" xlink:href="#DejaVuSans-99"/>
     <use x="1051.84375" xlink:href="#DejaVuSans-97"/>
     <use x="1113.123047" xlink:href="#DejaVuSans-108"/>
     <use x="1140.90625" xlink:href="#DejaVuSans-108"/>
     <use x="1168.689453" xlink:href="#DejaVuSans-32"/>
     <use x="1200.476562" xlink:href="#DejaVuSans-99"/>
     <use x="1255.457031" xlink:href="#DejaVuSans-117"/>
     <use x="1318.835938" xlink:href="#DejaVuSans-114"/>
     <use x="1359.949219" xlink:href="#DejaVuSans-118"/>
     <use x="1419.128906" xlink:href="#DejaVuSans-101"/>
    </g>
   </g>
  </g>
 </g>
 <defs>
  <clipPath id="pa6adb528bf">
   <rect height="266.112" width="357.12" x="57.6" y="41.472"/>
  </clipPath>
 </defs>
</svg>
