<?xml version="1.0" encoding="utf-8" standalone="no"?>
<!DOCTYPE svg PUBLIC "-//W3C//DTD SVG 1.1//EN"
  "http://www.w3.org/Graphics/SVG/1.1/DTD/svg11.dtd">
<!-- Created with matplotlib (https://matplotlib.org/) -->
<svg height="345.6pt" version="1.1" viewBox="0 0 460.8 345.6" width="460.8pt" xmlns="http://www.w3.org/2000/svg" xmlns:xlink="http://www.w3.org/1999/xlink">
 <defs>
  <style type="text/css">
*{stroke-linecap:butt;stroke-linejoin:round;}
  </style>
 </defs>
 <g id="figure_1">
  <g id="patch_1">
   <path d="M 0 345.6 
L 460.8 345.6 
L 460.8 0 
L 0 0 
z
" style="fill:#ffffff;"/>
  </g>
  <g id="axes_1">
   <g id="patch_2">
    <path d="M 57.6 307.584 
L 414.72 307.584 
L 414.72 41.472 
L 57.6 41.472 
z
" style="fill:#ffffff;"/>
   </g>
   <g id="PolyCollection_1">
    <defs>
     <path d="M 414.72 -38.016 
L 414.72 -104.270455 
L 413.557878 -106.047671 
L 413.557878 -106.20903 
L 413.480404 -106.462755 
L 413.441666 -106.554031 
L 413.286717 -106.606977 
L 413.209242 -106.713529 
L 413.170504 -106.811675 
L 413.170504 -106.91355 
L 413.131767 -106.955045 
L 413.131767 -107.014348 
L 413.131767 -107.077854 
L 413.015555 -107.118883 
L 412.628181 -107.274083 
L 412.550706 -107.453589 
L 412.511969 -107.470932 
L 412.473231 -107.521563 
L 412.395757 -107.579276 
L 411.930908 -108.084481 
L 411.853433 -108.083985 
L 411.388584 -108.059803 
L 411.233635 -108.16711 
L 410.962473 -108.168623 
L 410.962473 -108.206961 
L 410.42015 -109.017554 
L 410.110251 -109.235591 
L 410.032776 -109.241933 
L 409.877826 -109.382569 
L 409.877826 -109.417944 
L 409.490452 -109.58109 
L 409.412978 -109.62098 
L 409.412978 -109.685638 
L 409.141816 -109.791309 
L 409.141816 -109.806992 
L 409.025604 -109.870731 
L 409.025604 -109.895441 
L 408.831917 -109.932267 
L 408.793179 -109.949099 
L 408.250856 -110.370334 
L 407.74727 -110.543201 
L 407.514845 -110.621484 
L 407.282421 -110.776324 
L 407.049997 -110.834493 
L 406.275249 -111.129472 
L 405.96535 -111.172345 
L 405.96535 -111.174693 
L 405.732925 -111.215167 
L 404.958178 -111.952834 
L 404.841966 -112.014767 
L 404.454592 -112.122909 
L 403.021308 -112.776147 
L 402.982571 -112.780129 
L 402.478985 -112.986141 
L 402.362773 -113.108083 
L 401.975399 -113.3699 
L 401.897924 -113.375631 
L 401.6655 -113.582621 
L 401.161913 -113.659929 
L 400.735802 -113.875009 
L 400.735802 -113.936579 
L 400.348428 -114.01536 
L 400.193479 -114.184939 
L 399.999792 -114.276635 
L 399.961054 -114.283586 
L 399.186307 -114.266773 
L 397.520599 -115.024761 
L 397.05575 -115.253766 
L 395.699941 -116.146274 
L 394.499082 -116.598754 
L 394.344133 -116.677594 
L 394.305395 -116.679779 
L 393.956759 -116.848868 
L 393.64686 -116.94022 
L 393.49191 -117.008748 
L 393.375698 -117.021176 
L 392.910849 -117.293849 
L 392.639688 -117.370254 
L 392.446001 -117.376093 
L 389.347009 -118.018217 
L 389.19206 -118.019186 
L 389.03711 -118.040823 
L 388.533524 -118.102478 
L 388.378575 -118.177654 
L 388.339837 -118.194995 
L 388.223625 -118.238163 
L 387.603827 -118.364903 
L 387.565089 -118.367432 
L 385.860644 -118.867205 
L 385.666957 -118.859064 
L 385.47327 -118.905783 
L 384.117462 -119.362703 
L 384.00125 -119.405033 
L 381.522057 -119.961143 
L 379.740137 -120.3637 
L 379.236551 -120.389457 
L 378.849177 -120.435431 
L 377.493368 -120.67101 
L 377.338418 -120.673411 
L 376.021347 -120.88961 
L 374.433114 -121.254395 
L 374.316902 -121.260634 
L 373.619629 -121.368692 
L 369.823365 -122.269512 
L 369.668415 -122.311142 
L 368.312607 -122.422338 
L 367.537859 -122.619364 
L 366.414474 -122.897052 
L 364.361393 -123.19516 
L 362.77316 -123.41379 
L 359.635431 -124.250854 
L 359.557956 -124.307814 
L 359.170582 -124.363063 
L 358.473309 -124.46229 
L 358.31836 -124.566005 
L 356.575177 -124.651217 
L 355.80043 -124.880698 
L 355.49053 -124.918109 
L 354.75452 -125.064368 
L 354.59957 -125.171168 
L 354.367146 -125.216388 
L 352.08164 -125.475752 
L 351.461842 -125.617761 
L 349.253811 -126.058715 
L 348.401588 -126.298404 
L 347.510628 -126.487709 
L 346.968305 -126.66541 
L 345.418809 -126.810228 
L 339.065877 -127.985466 
L 338.794715 -128.004308 
L 333.913804 -128.691002 
L 333.758855 -128.717494 
L 332.248096 -129.117683 
L 330.814813 -129.322754 
L 330.659863 -129.368964 
L 328.141933 -129.869916 
L 327.909509 -129.962778 
L 327.793296 -130.124378 
L 327.715822 -130.126764 
L 327.367185 -130.180813 
L 327.134761 -130.303812 
L 325.236629 -130.868739 
L 324.694305 -130.917053 
L 324.500618 -130.968284 
L 320.355718 -131.561384 
L 320.084556 -131.617648 
L 317.992737 -131.760769 
L 316.869352 -131.867606 
L 316.481979 -131.930029 
L 315.978392 -132.034065 
L 311.523593 -133.159417 
L 310.865057 -133.223465 
L 309.315561 -133.419379 
L 306.836368 -133.958161 
L 303.54369 -134.2132 
L 301.02576 -134.661243 
L 300.057325 -134.793558 
L 299.398789 -134.808247 
L 299.398789 -134.820093 
L 299.08889 -134.873832 
L 298.042981 -135.103088 
L 294.905252 -135.662128 
L 291.806261 -136.00783 
L 289.636967 -136.122863 
L 289.017169 -136.222562 
L 288.862219 -136.265143 
L 286.615451 -136.364361 
L 281.540853 -136.884793 
L 281.192216 -136.891004 
L 279.875145 -137.14611 
L 278.75176 -137.084056 
L 278.635548 -137.113419 
L 277.628376 -137.12369 
L 272.088929 -137.674922 
L 272.088929 -137.689079 
L 271.546606 -137.649363 
L 268.060241 -137.982569 
L 266.704432 -138.174805 
L 264.612613 -138.55667 
L 263.682916 -138.72565 
L 260.312763 -139.17935 
L 259.421803 -139.290919 
L 258.453368 -139.294335 
L 257.872307 -139.848968 
L 255.16069 -140.460638 
L 254.037306 -140.528103 
L 253.688669 -140.608026 
L 250.667153 -140.777549 
L 250.318516 -140.775902 
L 247.374474 -141.267772 
L 247.025838 -141.430686 
L 246.40604 -141.541525 
L 239.859421 -142.624755 
L 239.27836 -142.796818 
L 237.961289 -142.776 
L 237.65139 -142.884612 
L 235.482096 -143.051783 
L 234.746085 -143.310914 
L 233.9326 -143.450005 
L 232.964165 -143.633498 
L 231.220983 -143.800884 
L 230.794871 -143.86656 
L 230.639922 -143.930162 
L 222.117696 -144.50192 
L 219.715978 -145.227806 
L 219.444816 -145.287028 
L 219.328604 -145.307827 
L 215.338653 -145.5168 
L 214.873804 -145.569716 
L 212.665773 -145.737419 
L 211.619863 -145.777463 
L 209.721731 -146.102325 
L 198.332938 -148.483609 
L 198.139252 -148.543746 
L 197.984302 -148.581374 
L 196.047432 -148.748831 
L 195.001523 -148.710703 
L 194.30425 -148.844967 
L 192.832229 -149.138713 
L 192.251168 -149.276096 
L 183.225356 -149.6425 
L 183.109144 -149.630191 
L 177.221061 -151.079092 
L 176.136414 -151.430215 
L 175.516616 -151.400974 
L 175.245454 -151.473736 
L 171.29424 -152.137878 
L 153.707465 -158.959381 
L 153.010192 -159.177242 
L 152.777768 -159.305848 
L 152.506606 -159.291 
L 145.7663 -161.322849 
L 119.773511 -167.519725 
L 119.579824 -167.445939 
L 117.797904 -168.601464 
L 117.216843 -168.509195 
L 114.350277 -170.572087 
L 112.839518 -172.068463 
L 112.607094 -172.151222 
L 111.793609 -172.728219 
L 110.166638 -173.898292 
L 109.818002 -174.018038 
L 109.043254 -174.223333 
L 103.193908 -176.953531 
L 102.767797 -177.473782 
L 102.41916 -177.516514 
L 101.721887 -177.536619 
L 101.5282 -177.395709 
L 101.257039 -177.550382 
L 100.985877 -178.121035 
L 100.94714 -178.203523 
L 99.707543 -178.85919 
L 99.630068 -178.960336 
L 97.848148 -178.156585 
L 96.531077 -179.914162 
L 95.950016 -180.172147 
L 95.252743 -180.658548 
L 79.331676 -191.392311 
L 75.457937 -191.545356 
L 74.799401 -193.871069 
L 74.489502 -193.430684 
L 74.295815 -193.176 
L 73.598542 -193.083733 
L 72.320208 -200.422745 
L 71.080612 -201.64702 
L 70.886925 -201.418105 
L 70.770713 -201.216 
L 70.112177 -205.07951 
L 69.531116 -207.710609 
L 69.221217 -208.491336 
L 68.911318 -216.770783 
L 68.795106 -216.660293 
L 68.407732 -219.323077 
L 68.13657 -219.904338 
L 67.206873 -238.82469 
L 66.819499 -247.456 
L 66.742024 -247.882105 
L 66.587075 -248.761806 
L 66.315913 -250.00113 
L 65.967276 -251.023938 
L 65.773589 -251.067155 
L 65.347478 -251.889418 
L 64.805155 -252.288 
L 64.57273 -251.189832 
L 64.224094 -254.7072 
L 63.643033 -252.889043 
L 63.371871 -252.576 
L 57.6 -291.456 
L 57.6 -38.016 
L 57.6 -38.016 
L 63.371871 -38.016 
L 63.643033 -38.016 
L 64.224094 -38.016 
L 64.57273 -38.016 
L 64.805155 -38.016 
L 65.347478 -38.016 
L 65.773589 -38.016 
L 65.967276 -38.016 
L 66.315913 -38.016 
L 66.587075 -38.016 
L 66.742024 -38.016 
L 66.819499 -38.016 
L 67.206873 -38.016 
L 68.13657 -38.016 
L 68.407732 -38.016 
L 68.795106 -38.016 
L 68.911318 -38.016 
L 69.221217 -38.016 
L 69.531116 -38.016 
L 70.112177 -38.016 
L 70.770713 -38.016 
L 70.886925 -38.016 
L 71.080612 -38.016 
L 72.320208 -38.016 
L 73.598542 -38.016 
L 74.295815 -38.016 
L 74.489502 -38.016 
L 74.799401 -38.016 
L 75.457937 -38.016 
L 79.331676 -38.016 
L 95.252743 -38.016 
L 95.950016 -38.016 
L 96.531077 -38.016 
L 97.848148 -38.016 
L 99.630068 -38.016 
L 99.707543 -38.016 
L 100.94714 -38.016 
L 100.985877 -38.016 
L 101.257039 -38.016 
L 101.5282 -38.016 
L 101.721887 -38.016 
L 102.41916 -38.016 
L 102.767797 -38.016 
L 103.193908 -38.016 
L 109.043254 -38.016 
L 109.818002 -38.016 
L 110.166638 -38.016 
L 111.793609 -38.016 
L 112.607094 -38.016 
L 112.839518 -38.016 
L 114.350277 -38.016 
L 117.216843 -38.016 
L 117.797904 -38.016 
L 119.579824 -38.016 
L 119.773511 -38.016 
L 145.7663 -38.016 
L 152.506606 -38.016 
L 152.777768 -38.016 
L 153.010192 -38.016 
L 153.707465 -38.016 
L 171.29424 -38.016 
L 175.245454 -38.016 
L 175.516616 -38.016 
L 176.136414 -38.016 
L 177.221061 -38.016 
L 183.109144 -38.016 
L 183.225356 -38.016 
L 192.251168 -38.016 
L 192.832229 -38.016 
L 194.30425 -38.016 
L 195.001523 -38.016 
L 196.047432 -38.016 
L 197.984302 -38.016 
L 198.139252 -38.016 
L 198.332938 -38.016 
L 209.721731 -38.016 
L 211.619863 -38.016 
L 212.665773 -38.016 
L 214.873804 -38.016 
L 215.338653 -38.016 
L 219.328604 -38.016 
L 219.444816 -38.016 
L 219.715978 -38.016 
L 222.117696 -38.016 
L 230.639922 -38.016 
L 230.794871 -38.016 
L 231.220983 -38.016 
L 232.964165 -38.016 
L 233.9326 -38.016 
L 234.746085 -38.016 
L 235.482096 -38.016 
L 237.65139 -38.016 
L 237.961289 -38.016 
L 239.27836 -38.016 
L 239.859421 -38.016 
L 246.40604 -38.016 
L 247.025838 -38.016 
L 247.374474 -38.016 
L 250.318516 -38.016 
L 250.667153 -38.016 
L 253.688669 -38.016 
L 254.037306 -38.016 
L 255.16069 -38.016 
L 257.872307 -38.016 
L 258.453368 -38.016 
L 259.421803 -38.016 
L 260.312763 -38.016 
L 263.682916 -38.016 
L 264.612613 -38.016 
L 266.704432 -38.016 
L 268.060241 -38.016 
L 271.546606 -38.016 
L 272.088929 -38.016 
L 272.088929 -38.016 
L 277.628376 -38.016 
L 278.635548 -38.016 
L 278.75176 -38.016 
L 279.875145 -38.016 
L 281.192216 -38.016 
L 281.540853 -38.016 
L 286.615451 -38.016 
L 288.862219 -38.016 
L 289.017169 -38.016 
L 289.636967 -38.016 
L 291.806261 -38.016 
L 294.905252 -38.016 
L 298.042981 -38.016 
L 299.08889 -38.016 
L 299.398789 -38.016 
L 299.398789 -38.016 
L 300.057325 -38.016 
L 301.02576 -38.016 
L 303.54369 -38.016 
L 306.836368 -38.016 
L 309.315561 -38.016 
L 310.865057 -38.016 
L 311.523593 -38.016 
L 315.978392 -38.016 
L 316.481979 -38.016 
L 316.869352 -38.016 
L 317.992737 -38.016 
L 320.084556 -38.016 
L 320.355718 -38.016 
L 324.500618 -38.016 
L 324.694305 -38.016 
L 325.236629 -38.016 
L 327.134761 -38.016 
L 327.367185 -38.016 
L 327.715822 -38.016 
L 327.793296 -38.016 
L 327.909509 -38.016 
L 328.141933 -38.016 
L 330.659863 -38.016 
L 330.814813 -38.016 
L 332.248096 -38.016 
L 333.758855 -38.016 
L 333.913804 -38.016 
L 338.794715 -38.016 
L 339.065877 -38.016 
L 345.418809 -38.016 
L 346.968305 -38.016 
L 347.510628 -38.016 
L 348.401588 -38.016 
L 349.253811 -38.016 
L 351.461842 -38.016 
L 352.08164 -38.016 
L 354.367146 -38.016 
L 354.59957 -38.016 
L 354.75452 -38.016 
L 355.49053 -38.016 
L 355.80043 -38.016 
L 356.575177 -38.016 
L 358.31836 -38.016 
L 358.473309 -38.016 
L 359.170582 -38.016 
L 359.557956 -38.016 
L 359.635431 -38.016 
L 362.77316 -38.016 
L 364.361393 -38.016 
L 366.414474 -38.016 
L 367.537859 -38.016 
L 368.312607 -38.016 
L 369.668415 -38.016 
L 369.823365 -38.016 
L 373.619629 -38.016 
L 374.316902 -38.016 
L 374.433114 -38.016 
L 376.021347 -38.016 
L 377.338418 -38.016 
L 377.493368 -38.016 
L 378.849177 -38.016 
L 379.236551 -38.016 
L 379.740137 -38.016 
L 381.522057 -38.016 
L 384.00125 -38.016 
L 384.117462 -38.016 
L 385.47327 -38.016 
L 385.666957 -38.016 
L 385.860644 -38.016 
L 387.565089 -38.016 
L 387.603827 -38.016 
L 388.223625 -38.016 
L 388.339837 -38.016 
L 388.378575 -38.016 
L 388.533524 -38.016 
L 389.03711 -38.016 
L 389.19206 -38.016 
L 389.347009 -38.016 
L 392.446001 -38.016 
L 392.639688 -38.016 
L 392.910849 -38.016 
L 393.375698 -38.016 
L 393.49191 -38.016 
L 393.64686 -38.016 
L 393.956759 -38.016 
L 394.305395 -38.016 
L 394.344133 -38.016 
L 394.499082 -38.016 
L 395.699941 -38.016 
L 397.05575 -38.016 
L 397.520599 -38.016 
L 399.186307 -38.016 
L 399.961054 -38.016 
L 399.999792 -38.016 
L 400.193479 -38.016 
L 400.348428 -38.016 
L 400.735802 -38.016 
L 400.735802 -38.016 
L 401.161913 -38.016 
L 401.6655 -38.016 
L 401.897924 -38.016 
L 401.975399 -38.016 
L 402.362773 -38.016 
L 402.478985 -38.016 
L 402.982571 -38.016 
L 403.021308 -38.016 
L 404.454592 -38.016 
L 404.841966 -38.016 
L 404.958178 -38.016 
L 405.732925 -38.016 
L 405.96535 -38.016 
L 405.96535 -38.016 
L 406.275249 -38.016 
L 407.049997 -38.016 
L 407.282421 -38.016 
L 407.514845 -38.016 
L 407.74727 -38.016 
L 408.250856 -38.016 
L 408.793179 -38.016 
L 408.831917 -38.016 
L 409.025604 -38.016 
L 409.025604 -38.016 
L 409.141816 -38.016 
L 409.141816 -38.016 
L 409.412978 -38.016 
L 409.412978 -38.016 
L 409.490452 -38.016 
L 409.877826 -38.016 
L 409.877826 -38.016 
L 410.032776 -38.016 
L 410.110251 -38.016 
L 410.42015 -38.016 
L 410.962473 -38.016 
L 410.962473 -38.016 
L 411.233635 -38.016 
L 411.388584 -38.016 
L 411.853433 -38.016 
L 411.930908 -38.016 
L 412.395757 -38.016 
L 412.473231 -38.016 
L 412.511969 -38.016 
L 412.550706 -38.016 
L 412.628181 -38.016 
L 413.015555 -38.016 
L 413.131767 -38.016 
L 413.131767 -38.016 
L 413.131767 -38.016 
L 413.170504 -38.016 
L 413.170504 -38.016 
L 413.209242 -38.016 
L 413.286717 -38.016 
L 413.441666 -38.016 
L 413.480404 -38.016 
L 413.557878 -38.016 
L 413.557878 -38.016 
L 414.72 -38.016 
z
" id="md05bb63f2c" style="stroke:#0000ff;stroke-opacity:0.2;"/>
    </defs>
    <g clip-path="url(#pd08a2de49d)">
     <use style="fill:#0000ff;fill-opacity:0.2;stroke:#0000ff;stroke-opacity:0.2;" x="0" xlink:href="#md05bb63f2c" y="345.6"/>
    </g>
   </g>
   <g id="matplotlib.axis_1">
    <g id="xtick_1">
     <g id="line2d_1">
      <defs>
       <path d="M 0 0 
L 0 3.5 
" id="m6e85efeef7" style="stroke:#000000;stroke-width:0.8;"/>
      </defs>
      <g>
       <use style="stroke:#000000;stroke-width:0.8;" x="57.6" xlink:href="#m6e85efeef7" y="307.584"/>
      </g>
     </g>
     <g id="text_1">
      <!-- 0.0 -->
      <defs>
       <path d="M 31.78125 66.40625 
Q 24.171875 66.40625 20.328125 58.90625 
Q 16.5 51.421875 16.5 36.375 
Q 16.5 21.390625 20.328125 13.890625 
Q 24.171875 6.390625 31.78125 6.390625 
Q 39.453125 6.390625 43.28125 13.890625 
Q 47.125 21.390625 47.125 36.375 
Q 47.125 51.421875 43.28125 58.90625 
Q 39.453125 66.40625 31.78125 66.40625 
z
M 31.78125 74.21875 
Q 44.046875 74.21875 50.515625 64.515625 
Q 56.984375 54.828125 56.984375 36.375 
Q 56.984375 17.96875 50.515625 8.265625 
Q 44.046875 -1.421875 31.78125 -1.421875 
Q 19.53125 -1.421875 13.0625 8.265625 
Q 6.59375 17.96875 6.59375 36.375 
Q 6.59375 54.828125 13.0625 64.515625 
Q 19.53125 74.21875 31.78125 74.21875 
z
" id="DejaVuSans-48"/>
       <path d="M 10.6875 12.40625 
L 21 12.40625 
L 21 0 
L 10.6875 0 
z
" id="DejaVuSans-46"/>
      </defs>
      <g transform="translate(49.648438 322.182437)scale(0.1 -0.1)">
       <use xlink:href="#DejaVuSans-48"/>
       <use x="63.623047" xlink:href="#DejaVuSans-46"/>
       <use x="95.410156" xlink:href="#DejaVuSans-48"/>
      </g>
     </g>
    </g>
    <g id="xtick_2">
     <g id="line2d_2">
      <g>
       <use style="stroke:#000000;stroke-width:0.8;" x="129.024" xlink:href="#m6e85efeef7" y="307.584"/>
      </g>
     </g>
     <g id="text_2">
      <!-- 0.2 -->
      <defs>
       <path d="M 19.1875 8.296875 
L 53.609375 8.296875 
L 53.609375 0 
L 7.328125 0 
L 7.328125 8.296875 
Q 12.9375 14.109375 22.625 23.890625 
Q 32.328125 33.6875 34.8125 36.53125 
Q 39.546875 41.84375 41.421875 45.53125 
Q 43.3125 49.21875 43.3125 52.78125 
Q 43.3125 58.59375 39.234375 62.25 
Q 35.15625 65.921875 28.609375 65.921875 
Q 23.96875 65.921875 18.8125 64.3125 
Q 13.671875 62.703125 7.8125 59.421875 
L 7.8125 69.390625 
Q 13.765625 71.78125 18.9375 73 
Q 24.125 74.21875 28.421875 74.21875 
Q 39.75 74.21875 46.484375 68.546875 
Q 53.21875 62.890625 53.21875 53.421875 
Q 53.21875 48.921875 51.53125 44.890625 
Q 49.859375 40.875 45.40625 35.40625 
Q 44.1875 33.984375 37.640625 27.21875 
Q 31.109375 20.453125 19.1875 8.296875 
z
" id="DejaVuSans-50"/>
      </defs>
      <g transform="translate(121.072438 322.182437)scale(0.1 -0.1)">
       <use xlink:href="#DejaVuSans-48"/>
       <use x="63.623047" xlink:href="#DejaVuSans-46"/>
       <use x="95.410156" xlink:href="#DejaVuSans-50"/>
      </g>
     </g>
    </g>
    <g id="xtick_3">
     <g id="line2d_3">
      <g>
       <use style="stroke:#000000;stroke-width:0.8;" x="200.448" xlink:href="#m6e85efeef7" y="307.584"/>
      </g>
     </g>
     <g id="text_3">
      <!-- 0.4 -->
      <defs>
       <path d="M 37.796875 64.3125 
L 12.890625 25.390625 
L 37.796875 25.390625 
z
M 35.203125 72.90625 
L 47.609375 72.90625 
L 47.609375 25.390625 
L 58.015625 25.390625 
L 58.015625 17.1875 
L 47.609375 17.1875 
L 47.609375 0 
L 37.796875 0 
L 37.796875 17.1875 
L 4.890625 17.1875 
L 4.890625 26.703125 
z
" id="DejaVuSans-52"/>
      </defs>
      <g transform="translate(192.496438 322.182437)scale(0.1 -0.1)">
       <use xlink:href="#DejaVuSans-48"/>
       <use x="63.623047" xlink:href="#DejaVuSans-46"/>
       <use x="95.410156" xlink:href="#DejaVuSans-52"/>
      </g>
     </g>
    </g>
    <g id="xtick_4">
     <g id="line2d_4">
      <g>
       <use style="stroke:#000000;stroke-width:0.8;" x="271.872" xlink:href="#m6e85efeef7" y="307.584"/>
      </g>
     </g>
     <g id="text_4">
      <!-- 0.6 -->
      <defs>
       <path d="M 33.015625 40.375 
Q 26.375 40.375 22.484375 35.828125 
Q 18.609375 31.296875 18.609375 23.390625 
Q 18.609375 15.53125 22.484375 10.953125 
Q 26.375 6.390625 33.015625 6.390625 
Q 39.65625 6.390625 43.53125 10.953125 
Q 47.40625 15.53125 47.40625 23.390625 
Q 47.40625 31.296875 43.53125 35.828125 
Q 39.65625 40.375 33.015625 40.375 
z
M 52.59375 71.296875 
L 52.59375 62.3125 
Q 48.875 64.0625 45.09375 64.984375 
Q 41.3125 65.921875 37.59375 65.921875 
Q 27.828125 65.921875 22.671875 59.328125 
Q 17.53125 52.734375 16.796875 39.40625 
Q 19.671875 43.65625 24.015625 45.921875 
Q 28.375 48.1875 33.59375 48.1875 
Q 44.578125 48.1875 50.953125 41.515625 
Q 57.328125 34.859375 57.328125 23.390625 
Q 57.328125 12.15625 50.6875 5.359375 
Q 44.046875 -1.421875 33.015625 -1.421875 
Q 20.359375 -1.421875 13.671875 8.265625 
Q 6.984375 17.96875 6.984375 36.375 
Q 6.984375 53.65625 15.1875 63.9375 
Q 23.390625 74.21875 37.203125 74.21875 
Q 40.921875 74.21875 44.703125 73.484375 
Q 48.484375 72.75 52.59375 71.296875 
z
" id="DejaVuSans-54"/>
      </defs>
      <g transform="translate(263.920438 322.182437)scale(0.1 -0.1)">
       <use xlink:href="#DejaVuSans-48"/>
       <use x="63.623047" xlink:href="#DejaVuSans-46"/>
       <use x="95.410156" xlink:href="#DejaVuSans-54"/>
      </g>
     </g>
    </g>
    <g id="xtick_5">
     <g id="line2d_5">
      <g>
       <use style="stroke:#000000;stroke-width:0.8;" x="343.296" xlink:href="#m6e85efeef7" y="307.584"/>
      </g>
     </g>
     <g id="text_5">
      <!-- 0.8 -->
      <defs>
       <path d="M 31.78125 34.625 
Q 24.75 34.625 20.71875 30.859375 
Q 16.703125 27.09375 16.703125 20.515625 
Q 16.703125 13.921875 20.71875 10.15625 
Q 24.75 6.390625 31.78125 6.390625 
Q 38.8125 6.390625 42.859375 10.171875 
Q 46.921875 13.96875 46.921875 20.515625 
Q 46.921875 27.09375 42.890625 30.859375 
Q 38.875 34.625 31.78125 34.625 
z
M 21.921875 38.8125 
Q 15.578125 40.375 12.03125 44.71875 
Q 8.5 49.078125 8.5 55.328125 
Q 8.5 64.0625 14.71875 69.140625 
Q 20.953125 74.21875 31.78125 74.21875 
Q 42.671875 74.21875 48.875 69.140625 
Q 55.078125 64.0625 55.078125 55.328125 
Q 55.078125 49.078125 51.53125 44.71875 
Q 48 40.375 41.703125 38.8125 
Q 48.828125 37.15625 52.796875 32.3125 
Q 56.78125 27.484375 56.78125 20.515625 
Q 56.78125 9.90625 50.3125 4.234375 
Q 43.84375 -1.421875 31.78125 -1.421875 
Q 19.734375 -1.421875 13.25 4.234375 
Q 6.78125 9.90625 6.78125 20.515625 
Q 6.78125 27.484375 10.78125 32.3125 
Q 14.796875 37.15625 21.921875 38.8125 
z
M 18.3125 54.390625 
Q 18.3125 48.734375 21.84375 45.5625 
Q 25.390625 42.390625 31.78125 42.390625 
Q 38.140625 42.390625 41.71875 45.5625 
Q 45.3125 48.734375 45.3125 54.390625 
Q 45.3125 60.0625 41.71875 63.234375 
Q 38.140625 66.40625 31.78125 66.40625 
Q 25.390625 66.40625 21.84375 63.234375 
Q 18.3125 60.0625 18.3125 54.390625 
z
" id="DejaVuSans-56"/>
      </defs>
      <g transform="translate(335.344438 322.182437)scale(0.1 -0.1)">
       <use xlink:href="#DejaVuSans-48"/>
       <use x="63.623047" xlink:href="#DejaVuSans-46"/>
       <use x="95.410156" xlink:href="#DejaVuSans-56"/>
      </g>
     </g>
    </g>
    <g id="xtick_6">
     <g id="line2d_6">
      <g>
       <use style="stroke:#000000;stroke-width:0.8;" x="414.72" xlink:href="#m6e85efeef7" y="307.584"/>
      </g>
     </g>
     <g id="text_6">
      <!-- 1.0 -->
      <defs>
       <path d="M 12.40625 8.296875 
L 28.515625 8.296875 
L 28.515625 63.921875 
L 10.984375 60.40625 
L 10.984375 69.390625 
L 28.421875 72.90625 
L 38.28125 72.90625 
L 38.28125 8.296875 
L 54.390625 8.296875 
L 54.390625 0 
L 12.40625 0 
z
" id="DejaVuSans-49"/>
      </defs>
      <g transform="translate(406.768438 322.182437)scale(0.1 -0.1)">
       <use xlink:href="#DejaVuSans-49"/>
       <use x="63.623047" xlink:href="#DejaVuSans-46"/>
       <use x="95.410156" xlink:href="#DejaVuSans-48"/>
      </g>
     </g>
    </g>
    <g id="text_7">
     <!-- Recall -->
     <defs>
      <path d="M 44.390625 34.1875 
Q 47.5625 33.109375 50.5625 29.59375 
Q 53.5625 26.078125 56.59375 19.921875 
L 66.609375 0 
L 56 0 
L 46.6875 18.703125 
Q 43.0625 26.03125 39.671875 28.421875 
Q 36.28125 30.8125 30.421875 30.8125 
L 19.671875 30.8125 
L 19.671875 0 
L 9.8125 0 
L 9.8125 72.90625 
L 32.078125 72.90625 
Q 44.578125 72.90625 50.734375 67.671875 
Q 56.890625 62.453125 56.890625 51.90625 
Q 56.890625 45.015625 53.6875 40.46875 
Q 50.484375 35.9375 44.390625 34.1875 
z
M 19.671875 64.796875 
L 19.671875 38.921875 
L 32.078125 38.921875 
Q 39.203125 38.921875 42.84375 42.21875 
Q 46.484375 45.515625 46.484375 51.90625 
Q 46.484375 58.296875 42.84375 61.546875 
Q 39.203125 64.796875 32.078125 64.796875 
z
" id="DejaVuSans-82"/>
      <path d="M 56.203125 29.59375 
L 56.203125 25.203125 
L 14.890625 25.203125 
Q 15.484375 15.921875 20.484375 11.0625 
Q 25.484375 6.203125 34.421875 6.203125 
Q 39.59375 6.203125 44.453125 7.46875 
Q 49.3125 8.734375 54.109375 11.28125 
L 54.109375 2.78125 
Q 49.265625 0.734375 44.1875 -0.34375 
Q 39.109375 -1.421875 33.890625 -1.421875 
Q 20.796875 -1.421875 13.15625 6.1875 
Q 5.515625 13.8125 5.515625 26.8125 
Q 5.515625 40.234375 12.765625 48.109375 
Q 20.015625 56 32.328125 56 
Q 43.359375 56 49.78125 48.890625 
Q 56.203125 41.796875 56.203125 29.59375 
z
M 47.21875 32.234375 
Q 47.125 39.59375 43.09375 43.984375 
Q 39.0625 48.390625 32.421875 48.390625 
Q 24.90625 48.390625 20.390625 44.140625 
Q 15.875 39.890625 15.1875 32.171875 
z
" id="DejaVuSans-101"/>
      <path d="M 48.78125 52.59375 
L 48.78125 44.1875 
Q 44.96875 46.296875 41.140625 47.34375 
Q 37.3125 48.390625 33.40625 48.390625 
Q 24.65625 48.390625 19.8125 42.84375 
Q 14.984375 37.3125 14.984375 27.296875 
Q 14.984375 17.28125 19.8125 11.734375 
Q 24.65625 6.203125 33.40625 6.203125 
Q 37.3125 6.203125 41.140625 7.25 
Q 44.96875 8.296875 48.78125 10.40625 
L 48.78125 2.09375 
Q 45.015625 0.34375 40.984375 -0.53125 
Q 36.96875 -1.421875 32.421875 -1.421875 
Q 20.0625 -1.421875 12.78125 6.34375 
Q 5.515625 14.109375 5.515625 27.296875 
Q 5.515625 40.671875 12.859375 48.328125 
Q 20.21875 56 33.015625 56 
Q 37.15625 56 41.109375 55.140625 
Q 45.0625 54.296875 48.78125 52.59375 
z
" id="DejaVuSans-99"/>
      <path d="M 34.28125 27.484375 
Q 23.390625 27.484375 19.1875 25 
Q 14.984375 22.515625 14.984375 16.5 
Q 14.984375 11.71875 18.140625 8.90625 
Q 21.296875 6.109375 26.703125 6.109375 
Q 34.1875 6.109375 38.703125 11.40625 
Q 43.21875 16.703125 43.21875 25.484375 
L 43.21875 27.484375 
z
M 52.203125 31.203125 
L 52.203125 0 
L 43.21875 0 
L 43.21875 8.296875 
Q 40.140625 3.328125 35.546875 0.953125 
Q 30.953125 -1.421875 24.3125 -1.421875 
Q 15.921875 -1.421875 10.953125 3.296875 
Q 6 8.015625 6 15.921875 
Q 6 25.140625 12.171875 29.828125 
Q 18.359375 34.515625 30.609375 34.515625 
L 43.21875 34.515625 
L 43.21875 35.40625 
Q 43.21875 41.609375 39.140625 45 
Q 35.0625 48.390625 27.6875 48.390625 
Q 23 48.390625 18.546875 47.265625 
Q 14.109375 46.140625 10.015625 43.890625 
L 10.015625 52.203125 
Q 14.9375 54.109375 19.578125 55.046875 
Q 24.21875 56 28.609375 56 
Q 40.484375 56 46.34375 49.84375 
Q 52.203125 43.703125 52.203125 31.203125 
z
" id="DejaVuSans-97"/>
      <path d="M 9.421875 75.984375 
L 18.40625 75.984375 
L 18.40625 0 
L 9.421875 0 
z
" id="DejaVuSans-108"/>
     </defs>
     <g transform="translate(221.020938 335.860562)scale(0.1 -0.1)">
      <use xlink:href="#DejaVuSans-82"/>
      <use x="69.419922" xlink:href="#DejaVuSans-101"/>
      <use x="130.943359" xlink:href="#DejaVuSans-99"/>
      <use x="185.923828" xlink:href="#DejaVuSans-97"/>
      <use x="247.203125" xlink:href="#DejaVuSans-108"/>
      <use x="274.986328" xlink:href="#DejaVuSans-108"/>
     </g>
    </g>
   </g>
   <g id="matplotlib.axis_2">
    <g id="ytick_1">
     <g id="line2d_7">
      <defs>
       <path d="M 0 0 
L -3.5 0 
" id="m7d5d675b96" style="stroke:#000000;stroke-width:0.8;"/>
      </defs>
      <g>
       <use style="stroke:#000000;stroke-width:0.8;" x="57.6" xlink:href="#m7d5d675b96" y="307.584"/>
      </g>
     </g>
     <g id="text_8">
      <!-- 0.0 -->
      <g transform="translate(34.696875 311.383219)scale(0.1 -0.1)">
       <use xlink:href="#DejaVuSans-48"/>
       <use x="63.623047" xlink:href="#DejaVuSans-46"/>
       <use x="95.410156" xlink:href="#DejaVuSans-48"/>
      </g>
     </g>
    </g>
    <g id="ytick_2">
     <g id="line2d_8">
      <g>
       <use style="stroke:#000000;stroke-width:0.8;" x="57.6" xlink:href="#m7d5d675b96" y="256.896"/>
      </g>
     </g>
     <g id="text_9">
      <!-- 0.2 -->
      <g transform="translate(34.696875 260.695219)scale(0.1 -0.1)">
       <use xlink:href="#DejaVuSans-48"/>
       <use x="63.623047" xlink:href="#DejaVuSans-46"/>
       <use x="95.410156" xlink:href="#DejaVuSans-50"/>
      </g>
     </g>
    </g>
    <g id="ytick_3">
     <g id="line2d_9">
      <g>
       <use style="stroke:#000000;stroke-width:0.8;" x="57.6" xlink:href="#m7d5d675b96" y="206.208"/>
      </g>
     </g>
     <g id="text_10">
      <!-- 0.4 -->
      <g transform="translate(34.696875 210.007219)scale(0.1 -0.1)">
       <use xlink:href="#DejaVuSans-48"/>
       <use x="63.623047" xlink:href="#DejaVuSans-46"/>
       <use x="95.410156" xlink:href="#DejaVuSans-52"/>
      </g>
     </g>
    </g>
    <g id="ytick_4">
     <g id="line2d_10">
      <g>
       <use style="stroke:#000000;stroke-width:0.8;" x="57.6" xlink:href="#m7d5d675b96" y="155.52"/>
      </g>
     </g>
     <g id="text_11">
      <!-- 0.6 -->
      <g transform="translate(34.696875 159.319219)scale(0.1 -0.1)">
       <use xlink:href="#DejaVuSans-48"/>
       <use x="63.623047" xlink:href="#DejaVuSans-46"/>
       <use x="95.410156" xlink:href="#DejaVuSans-54"/>
      </g>
     </g>
    </g>
    <g id="ytick_5">
     <g id="line2d_11">
      <g>
       <use style="stroke:#000000;stroke-width:0.8;" x="57.6" xlink:href="#m7d5d675b96" y="104.832"/>
      </g>
     </g>
     <g id="text_12">
      <!-- 0.8 -->
      <g transform="translate(34.696875 108.631219)scale(0.1 -0.1)">
       <use xlink:href="#DejaVuSans-48"/>
       <use x="63.623047" xlink:href="#DejaVuSans-46"/>
       <use x="95.410156" xlink:href="#DejaVuSans-56"/>
      </g>
     </g>
    </g>
    <g id="ytick_6">
     <g id="line2d_12">
      <g>
       <use style="stroke:#000000;stroke-width:0.8;" x="57.6" xlink:href="#m7d5d675b96" y="54.144"/>
      </g>
     </g>
     <g id="text_13">
      <!-- 1.0 -->
      <g transform="translate(34.696875 57.943219)scale(0.1 -0.1)">
       <use xlink:href="#DejaVuSans-49"/>
       <use x="63.623047" xlink:href="#DejaVuSans-46"/>
       <use x="95.410156" xlink:href="#DejaVuSans-48"/>
      </g>
     </g>
    </g>
    <g id="text_14">
     <!-- Precision -->
     <defs>
      <path d="M 19.671875 64.796875 
L 19.671875 37.40625 
L 32.078125 37.40625 
Q 38.96875 37.40625 42.71875 40.96875 
Q 46.484375 44.53125 46.484375 51.125 
Q 46.484375 57.671875 42.71875 61.234375 
Q 38.96875 64.796875 32.078125 64.796875 
z
M 9.8125 72.90625 
L 32.078125 72.90625 
Q 44.34375 72.90625 50.609375 67.359375 
Q 56.890625 61.8125 56.890625 51.125 
Q 56.890625 40.328125 50.609375 34.8125 
Q 44.34375 29.296875 32.078125 29.296875 
L 19.671875 29.296875 
L 19.671875 0 
L 9.8125 0 
z
" id="DejaVuSans-80"/>
      <path d="M 41.109375 46.296875 
Q 39.59375 47.171875 37.8125 47.578125 
Q 36.03125 48 33.890625 48 
Q 26.265625 48 22.1875 43.046875 
Q 18.109375 38.09375 18.109375 28.8125 
L 18.109375 0 
L 9.078125 0 
L 9.078125 54.6875 
L 18.109375 54.6875 
L 18.109375 46.1875 
Q 20.953125 51.171875 25.484375 53.578125 
Q 30.03125 56 36.53125 56 
Q 37.453125 56 38.578125 55.875 
Q 39.703125 55.765625 41.0625 55.515625 
z
" id="DejaVuSans-114"/>
      <path d="M 9.421875 54.6875 
L 18.40625 54.6875 
L 18.40625 0 
L 9.421875 0 
z
M 9.421875 75.984375 
L 18.40625 75.984375 
L 18.40625 64.59375 
L 9.421875 64.59375 
z
" id="DejaVuSans-105"/>
      <path d="M 44.28125 53.078125 
L 44.28125 44.578125 
Q 40.484375 46.53125 36.375 47.5 
Q 32.28125 48.484375 27.875 48.484375 
Q 21.1875 48.484375 17.84375 46.4375 
Q 14.5 44.390625 14.5 40.28125 
Q 14.5 37.15625 16.890625 35.375 
Q 19.28125 33.59375 26.515625 31.984375 
L 29.59375 31.296875 
Q 39.15625 29.25 43.1875 25.515625 
Q 47.21875 21.78125 47.21875 15.09375 
Q 47.21875 7.46875 41.1875 3.015625 
Q 35.15625 -1.421875 24.609375 -1.421875 
Q 20.21875 -1.421875 15.453125 -0.5625 
Q 10.6875 0.296875 5.421875 2 
L 5.421875 11.28125 
Q 10.40625 8.6875 15.234375 7.390625 
Q 20.0625 6.109375 24.8125 6.109375 
Q 31.15625 6.109375 34.5625 8.28125 
Q 37.984375 10.453125 37.984375 14.40625 
Q 37.984375 18.0625 35.515625 20.015625 
Q 33.0625 21.96875 24.703125 23.78125 
L 21.578125 24.515625 
Q 13.234375 26.265625 9.515625 29.90625 
Q 5.8125 33.546875 5.8125 39.890625 
Q 5.8125 47.609375 11.28125 51.796875 
Q 16.75 56 26.8125 56 
Q 31.78125 56 36.171875 55.265625 
Q 40.578125 54.546875 44.28125 53.078125 
z
" id="DejaVuSans-115"/>
      <path d="M 30.609375 48.390625 
Q 23.390625 48.390625 19.1875 42.75 
Q 14.984375 37.109375 14.984375 27.296875 
Q 14.984375 17.484375 19.15625 11.84375 
Q 23.34375 6.203125 30.609375 6.203125 
Q 37.796875 6.203125 41.984375 11.859375 
Q 46.1875 17.53125 46.1875 27.296875 
Q 46.1875 37.015625 41.984375 42.703125 
Q 37.796875 48.390625 30.609375 48.390625 
z
M 30.609375 56 
Q 42.328125 56 49.015625 48.375 
Q 55.71875 40.765625 55.71875 27.296875 
Q 55.71875 13.875 49.015625 6.21875 
Q 42.328125 -1.421875 30.609375 -1.421875 
Q 18.84375 -1.421875 12.171875 6.21875 
Q 5.515625 13.875 5.515625 27.296875 
Q 5.515625 40.765625 12.171875 48.375 
Q 18.84375 56 30.609375 56 
z
" id="DejaVuSans-111"/>
      <path d="M 54.890625 33.015625 
L 54.890625 0 
L 45.90625 0 
L 45.90625 32.71875 
Q 45.90625 40.484375 42.875 44.328125 
Q 39.84375 48.1875 33.796875 48.1875 
Q 26.515625 48.1875 22.3125 43.546875 
Q 18.109375 38.921875 18.109375 30.90625 
L 18.109375 0 
L 9.078125 0 
L 9.078125 54.6875 
L 18.109375 54.6875 
L 18.109375 46.1875 
Q 21.34375 51.125 25.703125 53.5625 
Q 30.078125 56 35.796875 56 
Q 45.21875 56 50.046875 50.171875 
Q 54.890625 44.34375 54.890625 33.015625 
z
" id="DejaVuSans-110"/>
     </defs>
     <g transform="translate(28.617187 197.032688)rotate(-90)scale(0.1 -0.1)">
      <use xlink:href="#DejaVuSans-80"/>
      <use x="60.287109" xlink:href="#DejaVuSans-114"/>
      <use x="101.369141" xlink:href="#DejaVuSans-101"/>
      <use x="162.892578" xlink:href="#DejaVuSans-99"/>
      <use x="217.873047" xlink:href="#DejaVuSans-105"/>
      <use x="245.65625" xlink:href="#DejaVuSans-115"/>
      <use x="297.755859" xlink:href="#DejaVuSans-105"/>
      <use x="325.539062" xlink:href="#DejaVuSans-111"/>
      <use x="386.720703" xlink:href="#DejaVuSans-110"/>
     </g>
    </g>
   </g>
   <g id="line2d_13">
    <path clip-path="url(#pd08a2de49d)" d="M 414.72 241.329545 
L 413.557878 241.329545 
L 413.480404 239.137245 
L 413.286717 239.045969 
L 413.209242 238.886471 
L 413.170504 238.886471 
L 413.170504 238.788325 
L 413.131767 238.522146 
L 412.628181 238.481117 
L 412.550706 238.146411 
L 412.395757 238.078437 
L 412.395757 238.020724 
L 411.930908 238.020724 
L 411.930908 237.515519 
L 411.853433 237.516015 
L 410.962473 237.43289 
L 410.962473 237.431377 
L 410.962473 237.393039 
L 410.42015 237.393039 
L 410.42015 236.582446 
L 410.110251 236.582446 
L 410.032776 236.358067 
L 409.877826 236.358067 
L 409.877826 236.182056 
L 409.490452 236.182056 
L 409.412978 235.914362 
L 409.141816 235.914362 
L 409.141816 235.808691 
L 409.141816 235.793008 
L 408.831917 235.704559 
L 408.793179 235.650901 
L 408.250856 235.650901 
L 408.250856 235.229666 
L 407.74727 235.229666 
L 407.74727 235.056799 
L 407.282421 234.978516 
L 407.282421 234.823676 
L 406.275249 234.765507 
L 406.275249 234.470528 
L 404.958178 234.384833 
L 404.958178 233.647166 
L 404.454592 233.585233 
L 404.454592 233.477091 
L 403.021308 233.477091 
L 402.982571 232.819871 
L 402.478985 232.819871 
L 402.478985 232.613859 
L 402.362773 232.613859 
L 402.362773 232.491917 
L 401.975399 232.491917 
L 401.897924 232.224369 
L 401.6655 232.224369 
L 401.6655 232.017379 
L 400.735802 231.940071 
L 400.735802 231.663421 
L 400.193479 231.58464 
L 400.193479 231.415061 
L 397.520599 231.333227 
L 397.520599 230.575239 
L 397.05575 230.575239 
L 397.05575 230.346234 
L 395.699941 230.346234 
L 395.699941 229.453726 
L 394.499082 229.453726 
L 394.499082 229.001246 
L 393.956759 228.920221 
L 393.956759 228.751132 
L 393.49191 228.65978 
L 393.49191 228.591252 
L 392.910849 228.578824 
L 392.910849 228.306151 
L 389.347009 228.223907 
L 389.347009 227.581783 
L 388.378575 227.497522 
L 388.339837 227.405005 
L 387.603827 227.361837 
L 387.565089 227.232568 
L 385.860644 227.232568 
L 385.860644 226.732795 
L 384.117462 226.694217 
L 384.117462 226.237297 
L 381.522057 226.194967 
L 381.522057 225.638857 
L 379.740137 225.638857 
L 379.740137 225.2363 
L 377.493368 225.164569 
L 377.493368 224.92899 
L 376.021347 224.926589 
L 376.021347 224.71039 
L 374.433114 224.71039 
L 374.433114 224.345605 
L 373.619629 224.339366 
L 373.619629 224.231308 
L 369.823365 224.231308 
L 369.823365 223.330488 
L 368.312607 223.288858 
L 368.312607 223.177662 
L 367.537859 223.177662 
L 367.537859 222.980636 
L 366.414474 222.980636 
L 366.414474 222.702948 
L 364.361393 222.702948 
L 364.361393 222.40484 
L 362.77316 222.40484 
L 362.77316 222.18621 
L 359.635431 222.18621 
L 359.557956 221.292186 
L 358.473309 221.236937 
L 358.473309 221.13771 
L 356.575177 221.033995 
L 356.575177 220.948783 
L 355.80043 220.948783 
L 355.80043 220.719302 
L 354.75452 220.681891 
L 354.75452 220.535632 
L 354.367146 220.428832 
L 354.367146 220.383612 
L 352.08164 220.383612 
L 352.08164 220.124248 
L 351.461842 220.124248 
L 351.461842 219.982239 
L 349.253811 219.982239 
L 349.253811 219.541285 
L 348.401588 219.541285 
L 348.401588 219.301596 
L 347.510628 219.301596 
L 347.510628 219.112291 
L 346.968305 219.112291 
L 346.968305 218.93459 
L 345.418809 218.93459 
L 345.418809 218.789772 
L 339.065877 218.789772 
L 339.065877 217.614534 
L 333.913804 217.595692 
L 333.913804 216.908998 
L 332.248096 216.882506 
L 332.248096 216.482317 
L 330.814813 216.482317 
L 330.814813 216.277246 
L 328.141933 216.231036 
L 328.141933 215.730084 
L 327.793296 215.637222 
L 327.715822 215.473236 
L 327.134761 215.419187 
L 327.134761 215.296188 
L 325.236629 215.296188 
L 325.236629 214.731261 
L 320.355718 214.631716 
L 320.355718 214.038616 
L 317.992737 213.982352 
L 317.992737 213.839231 
L 316.481979 213.732394 
L 316.481979 213.669971 
L 311.523593 213.565935 
L 311.523593 212.440583 
L 309.315561 212.376535 
L 309.315561 212.180621 
L 306.836368 212.180621 
L 306.836368 211.641839 
L 303.54369 211.641839 
L 303.54369 211.3868 
L 301.02576 211.3868 
L 301.02576 210.938757 
L 300.057325 210.938757 
L 300.057325 210.806442 
L 298.042981 210.726168 
L 298.042981 210.496912 
L 294.905252 210.496912 
L 294.905252 209.937872 
L 291.806261 209.937872 
L 291.806261 209.59217 
L 289.636967 209.59217 
L 289.636967 209.477137 
L 288.862219 209.377438 
L 288.862219 209.334857 
L 281.540853 209.235639 
L 281.540853 208.715207 
L 279.875145 208.708996 
L 279.875145 208.45389 
L 272.088929 208.47631 
L 272.088929 207.910921 
L 268.060241 207.950637 
L 268.060241 207.617431 
L 266.704432 207.617431 
L 266.704432 207.425195 
L 264.612613 207.425195 
L 264.612613 207.04333 
L 263.682916 207.04333 
L 263.682916 206.87435 
L 260.312763 206.87435 
L 260.312763 206.42065 
L 259.421803 206.42065 
L 259.421803 206.309081 
L 257.872307 206.305665 
L 257.872307 205.751032 
L 255.16069 205.751032 
L 255.16069 205.139362 
L 253.688669 205.071897 
L 253.688669 204.991974 
L 250.667153 204.991974 
L 250.667153 204.822451 
L 247.374474 204.824098 
L 247.374474 204.332228 
L 247.025838 204.332228 
L 247.025838 204.169314 
L 239.859421 204.058475 
L 239.859421 202.975245 
L 239.27836 202.975245 
L 239.27836 202.803182 
L 235.482096 202.715388 
L 235.482096 202.548217 
L 234.746085 202.548217 
L 234.746085 202.289086 
L 233.9326 202.289086 
L 233.9326 202.149995 
L 232.964165 202.149995 
L 232.964165 201.966502 
L 231.220983 201.966502 
L 231.220983 201.799116 
L 230.639922 201.73344 
L 230.639922 201.669838 
L 222.117696 201.669838 
L 222.117696 201.09808 
L 219.715978 201.09808 
L 219.715978 200.372194 
L 215.338653 200.292173 
L 215.338653 200.0832 
L 212.665773 200.030284 
L 212.665773 199.862581 
L 209.721731 199.822537 
L 209.721731 199.497675 
L 198.332938 199.497675 
L 198.332938 197.116391 
L 196.047432 197.018626 
L 196.047432 196.851169 
L 192.832229 196.755033 
L 192.832229 196.461287 
L 192.251168 196.461287 
L 192.251168 196.323904 
L 183.225356 196.323904 
L 183.225356 195.9575 
L 177.221061 195.969809 
L 177.221061 194.520908 
L 176.136414 194.520908 
L 176.136414 194.169785 
L 171.29424 194.126264 
L 171.29424 193.462122 
L 153.707465 193.462122 
L 153.707465 186.640619 
L 153.010192 186.640619 
L 153.010192 186.422758 
L 152.777768 186.422758 
L 152.777768 186.294152 
L 145.7663 186.309 
L 145.7663 184.277151 
L 119.773511 184.277151 
L 119.773511 178.080275 
L 117.797904 178.154061 
L 117.797904 176.998536 
L 114.350277 177.090805 
L 114.350277 175.027913 
L 112.839518 175.027913 
L 112.839518 173.531537 
L 111.793609 173.448778 
L 111.793609 172.871781 
L 110.166638 172.871781 
L 110.166638 171.701708 
L 109.818002 171.701708 
L 109.818002 171.581962 
L 109.043254 171.581962 
L 109.043254 171.376667 
L 103.193908 171.376667 
L 103.193908 168.646469 
L 102.767797 168.646469 
L 102.767797 168.126218 
L 100.985877 168.049618 
L 100.94714 167.396477 
L 99.707543 167.396477 
L 99.630068 166.639664 
L 97.848148 166.639664 
L 97.848148 167.443415 
L 96.531077 167.443415 
L 96.531077 165.685838 
L 95.950016 165.685838 
L 95.950016 165.427853 
L 95.252743 165.427853 
L 95.252743 164.941452 
L 79.331676 164.941452 
L 79.331676 154.207689 
L 75.457937 154.207689 
L 75.457937 154.054644 
L 74.799401 154.054644 
L 74.799401 151.728931 
L 74.489502 151.728931 
L 74.489502 152.169316 
L 74.295815 152.169316 
L 74.295815 152.424 
L 72.320208 152.516267 
L 72.320208 145.177255 
L 71.080612 145.177255 
L 71.080612 143.95298 
L 70.886925 143.95298 
L 70.886925 144.181895 
L 70.770713 144.181895 
L 70.770713 144.384 
L 70.112177 144.384 
L 70.112177 140.52049 
L 69.531116 140.52049 
L 69.531116 137.889391 
L 69.221217 137.889391 
L 69.221217 137.108664 
L 68.911318 137.108664 
L 68.911318 128.829217 
L 68.407732 128.939707 
L 68.407732 126.276923 
L 68.13657 126.276923 
L 68.13657 125.695662 
L 67.206873 125.695662 
L 67.206873 106.77531 
L 66.819499 106.77531 
L 66.742024 97.717895 
L 66.587075 97.717895 
L 66.587075 96.838194 
L 66.315913 96.838194 
L 66.315913 95.59887 
L 65.967276 95.59887 
L 65.967276 94.576062 
L 65.347478 94.532845 
L 65.347478 93.710582 
L 64.805155 93.710582 
L 64.805155 93.312 
L 64.57273 93.312 
L 64.57273 94.410168 
L 64.224094 94.410168 
L 64.224094 90.8928 
L 63.643033 90.8928 
L 63.643033 92.710957 
L 63.371871 92.710957 
L 63.371871 93.024 
L 57.6 93.024 
L 57.6 54.144 
L 57.6 54.144 
" style="fill:none;stroke:#0000ff;stroke-linecap:square;stroke-opacity:0.2;stroke-width:1.5;"/>
   </g>
   <g id="patch_3">
    <path d="M 57.6 307.584 
L 57.6 41.472 
" style="fill:none;stroke:#000000;stroke-linecap:square;stroke-linejoin:miter;stroke-width:0.8;"/>
   </g>
   <g id="patch_4">
    <path d="M 414.72 307.584 
L 414.72 41.472 
" style="fill:none;stroke:#000000;stroke-linecap:square;stroke-linejoin:miter;stroke-width:0.8;"/>
   </g>
   <g id="patch_5">
    <path d="M 57.6 307.584 
L 414.72 307.584 
" style="fill:none;stroke:#000000;stroke-linecap:square;stroke-linejoin:miter;stroke-width:0.8;"/>
   </g>
   <g id="patch_6">
    <path d="M 57.6 41.472 
L 414.72 41.472 
" style="fill:none;stroke:#000000;stroke-linecap:square;stroke-linejoin:miter;stroke-width:0.8;"/>
   </g>
   <g id="text_15">
    <!-- 2-class Precision-Recall curve -->
    <defs>
     <path d="M 4.890625 31.390625 
L 31.203125 31.390625 
L 31.203125 23.390625 
L 4.890625 23.390625 
z
" id="DejaVuSans-45"/>
     <path id="DejaVuSans-32"/>
     <path d="M 8.5 21.578125 
L 8.5 54.6875 
L 17.484375 54.6875 
L 17.484375 21.921875 
Q 17.484375 14.15625 20.5 10.265625 
Q 23.53125 6.390625 29.59375 6.390625 
Q 36.859375 6.390625 41.078125 11.03125 
Q 45.3125 15.671875 45.3125 23.6875 
L 45.3125 54.6875 
L 54.296875 54.6875 
L 54.296875 0 
L 45.3125 0 
L 45.3125 8.40625 
Q 42.046875 3.421875 37.71875 1 
Q 33.40625 -1.421875 27.6875 -1.421875 
Q 18.265625 -1.421875 13.375 4.4375 
Q 8.5 10.296875 8.5 21.578125 
z
M 31.109375 56 
z
" id="DejaVuSans-117"/>
     <path d="M 2.984375 54.6875 
L 12.5 54.6875 
L 29.59375 8.796875 
L 46.6875 54.6875 
L 56.203125 54.6875 
L 35.6875 0 
L 23.484375 0 
z
" id="DejaVuSans-118"/>
    </defs>
    <g transform="translate(147.321562 35.472)scale(0.12 -0.12)">
     <use xlink:href="#DejaVuSans-50"/>
     <use x="63.623047" xlink:href="#DejaVuSans-45"/>
     <use x="99.707031" xlink:href="#DejaVuSans-99"/>
     <use x="154.6875" xlink:href="#DejaVuSans-108"/>
     <use x="182.470703" xlink:href="#DejaVuSans-97"/>
     <use x="243.75" xlink:href="#DejaVuSans-115"/>
     <use x="295.849609" xlink:href="#DejaVuSans-115"/>
     <use x="347.949219" xlink:href="#DejaVuSans-32"/>
     <use x="379.736328" xlink:href="#DejaVuSans-80"/>
     <use x="440.023438" xlink:href="#DejaVuSans-114"/>
     <use x="481.105469" xlink:href="#DejaVuSans-101"/>
     <use x="542.628906" xlink:href="#DejaVuSans-99"/>
     <use x="597.609375" xlink:href="#DejaVuSans-105"/>
     <use x="625.392578" xlink:href="#DejaVuSans-115"/>
     <use x="677.492188" xlink:href="#DejaVuSans-105"/>
     <use x="705.275391" xlink:href="#DejaVuSans-111"/>
     <use x="766.457031" xlink:href="#DejaVuSans-110"/>
     <use x="829.835938" xlink:href="#DejaVuSans-45"/>
     <use x="865.919922" xlink:href="#DejaVuSans-82"/>
     <use x="935.339844" xlink:href="#DejaVuSans-101"/>
     <use x="996.863281" xlink:href="#DejaVuSans-99"/>
     <use x="1051.84375" xlink:href="#DejaVuSans-97"/>
     <use x="1113.123047" xlink:href="#DejaVuSans-108"/>
     <use x="1140.90625" xlink:href="#DejaVuSans-108"/>
     <use x="1168.689453" xlink:href="#DejaVuSans-32"/>
     <use x="1200.476562" xlink:href="#DejaVuSans-99"/>
     <use x="1255.457031" xlink:href="#DejaVuSans-117"/>
     <use x="1318.835938" xlink:href="#DejaVuSans-114"/>
     <use x="1359.949219" xlink:href="#DejaVuSans-118"/>
     <use x="1419.128906" xlink:href="#DejaVuSans-101"/>
    </g>
   </g>
  </g>
 </g>
 <defs>
  <clipPath id="pd08a2de49d">
   <rect height="266.112" width="357.12" x="57.6" y="41.472"/>
  </clipPath>
 </defs>
</svg>
