<?xml version="1.0" encoding="utf-8" standalone="no"?>
<!DOCTYPE svg PUBLIC "-//W3C//DTD SVG 1.1//EN"
  "http://www.w3.org/Graphics/SVG/1.1/DTD/svg11.dtd">
<!-- Created with matplotlib (https://matplotlib.org/) -->
<svg height="345.6pt" version="1.1" viewBox="0 0 460.8 345.6" width="460.8pt" xmlns="http://www.w3.org/2000/svg" xmlns:xlink="http://www.w3.org/1999/xlink">
 <defs>
  <style type="text/css">
*{stroke-linecap:butt;stroke-linejoin:round;}
  </style>
 </defs>
 <g id="figure_1">
  <g id="patch_1">
   <path d="M 0 345.6 
L 460.8 345.6 
L 460.8 0 
L 0 0 
z
" style="fill:#ffffff;"/>
  </g>
  <g id="axes_1">
   <g id="patch_2">
    <path d="M 57.6 307.584 
L 414.72 307.584 
L 414.72 41.472 
L 57.6 41.472 
z
" style="fill:#ffffff;"/>
   </g>
   <g id="PolyCollection_1">
    <defs>
     <path d="M 414.72 -38.016 
L 414.72 -104.270455 
L 413.557878 -106.053634 
L 413.557878 -106.215021 
L 413.480404 -106.468792 
L 413.441666 -106.560085 
L 413.286717 -106.613043 
L 413.209242 -106.719614 
L 413.170504 -106.817779 
L 413.170504 -106.919672 
L 413.131767 -106.961175 
L 413.131767 -107.020489 
L 413.131767 -107.084006 
L 413.015555 -107.125044 
L 412.628181 -107.280279 
L 412.550706 -107.459818 
L 412.511969 -107.477165 
L 412.473231 -107.527806 
L 412.395757 -107.585531 
L 411.930908 -108.090835 
L 411.853433 -108.09034 
L 411.388584 -108.066163 
L 411.233635 -108.173492 
L 410.962473 -108.175009 
L 410.962473 -108.213355 
L 410.42015 -109.024106 
L 410.110251 -109.242189 
L 410.032776 -109.248534 
L 409.877826 -109.3892 
L 409.877826 -109.424581 
L 409.490452 -109.587765 
L 409.412978 -109.627663 
L 409.412978 -109.692333 
L 409.141816 -109.798029 
L 409.141816 -109.813715 
L 409.025604 -109.877468 
L 409.025604 -109.902183 
L 408.831917 -109.93902 
L 408.793179 -109.955855 
L 408.250856 -110.377181 
L 407.74727 -110.55009 
L 407.514845 -110.628393 
L 407.282421 -110.783267 
L 407.049997 -110.841452 
L 406.275249 -111.136503 
L 405.96535 -111.17939 
L 405.96535 -111.181738 
L 405.732925 -111.222225 
L 404.958178 -111.960052 
L 404.841966 -112.021999 
L 404.454592 -112.13017 
L 403.021308 -112.783567 
L 402.982571 -112.787551 
L 402.478985 -112.993614 
L 402.362773 -113.115584 
L 401.975399 -113.377461 
L 401.897924 -113.383195 
L 401.6655 -113.590232 
L 401.161913 -113.667567 
L 400.735802 -113.8827 
L 400.735802 -113.944282 
L 400.348428 -114.023088 
L 400.193479 -114.192705 
L 399.999792 -114.284424 
L 399.961054 -114.291377 
L 399.186307 -114.274579 
L 397.520599 -115.032761 
L 397.05575 -115.261825 
L 395.699941 -116.154554 
L 394.499082 -116.60716 
L 394.344133 -116.68602 
L 394.305395 -116.688207 
L 393.956759 -116.857341 
L 393.64686 -116.948721 
L 393.49191 -117.017267 
L 393.375698 -117.029701 
L 392.910849 -117.302445 
L 392.639688 -117.378873 
L 392.446001 -117.384718 
L 389.347009 -118.027065 
L 389.19206 -118.028038 
L 389.03711 -118.049684 
L 388.533524 -118.111365 
L 388.378575 -118.186562 
L 388.339837 -118.203909 
L 388.223625 -118.247089 
L 387.603827 -118.373874 
L 387.565089 -118.376405 
L 385.899382 -118.888924 
L 385.705695 -118.880793 
L 385.512008 -118.927544 
L 384.156199 -119.384747 
L 384.039987 -119.427103 
L 381.560794 -119.98362 
L 379.778874 -120.386476 
L 379.275288 -120.412279 
L 378.887914 -120.458301 
L 377.532105 -120.69408 
L 377.377156 -120.696493 
L 376.060085 -120.912882 
L 374.471852 -121.277946 
L 374.433114 -121.291179 
L 373.735841 -121.399344 
L 369.939577 -122.300872 
L 369.784627 -122.342533 
L 368.428819 -122.453907 
L 367.654071 -122.651087 
L 366.530687 -122.928994 
L 364.477605 -123.227429 
L 362.889372 -123.44631 
L 359.751643 -124.284034 
L 359.674169 -124.341025 
L 359.286795 -124.396338 
L 358.589522 -124.49568 
L 358.434572 -124.599452 
L 356.69139 -124.684892 
L 355.916642 -124.91455 
L 355.606743 -124.952011 
L 354.870732 -125.098411 
L 354.715783 -125.205271 
L 354.483358 -125.250535 
L 352.197852 -125.510267 
L 351.578054 -125.652404 
L 349.370023 -126.093796 
L 348.5178 -126.333684 
L 347.62684 -126.523173 
L 347.084517 -126.701012 
L 345.535021 -126.846081 
L 339.182089 -128.022613 
L 338.910927 -128.041498 
L 334.030016 -128.729138 
L 333.875067 -128.755663 
L 332.364308 -129.156231 
L 330.931025 -129.361591 
L 330.776075 -129.407843 
L 328.258145 -129.909372 
L 328.025721 -130.002308 
L 327.909509 -130.163995 
L 327.832034 -130.166393 
L 327.483397 -130.220516 
L 327.250973 -130.343603 
L 325.352841 -130.909058 
L 324.61683 -130.934564 
L 324.423144 -130.985842 
L 320.278243 -131.579624 
L 320.007081 -131.635945 
L 317.915262 -131.779312 
L 316.791878 -131.886304 
L 316.365766 -131.93995 
L 315.86218 -132.044073 
L 311.40738 -133.170368 
L 310.748845 -133.234489 
L 309.199349 -133.430607 
L 306.720156 -133.969882 
L 303.427478 -134.225262 
L 300.909548 -134.673759 
L 300.057325 -134.787654 
L 299.398789 -134.802325 
L 299.398789 -134.814169 
L 299.08889 -134.867895 
L 298.042981 -135.097096 
L 294.905252 -135.655987 
L 291.806261 -136.001563 
L 289.636967 -136.116523 
L 289.017169 -136.216192 
L 288.862219 -136.258763 
L 286.615451 -136.357906 
L 281.540853 -136.878121 
L 281.192216 -136.884321 
L 279.875145 -137.139354 
L 278.75176 -137.077273 
L 278.635548 -137.106629 
L 277.628376 -137.116867 
L 272.088929 -137.667845 
L 272.088929 -137.682 
L 271.546606 -137.642272 
L 268.060241 -137.975312 
L 266.704432 -138.167473 
L 264.612613 -138.549207 
L 263.682916 -138.718129 
L 260.312763 -139.171634 
L 259.421803 -139.283152 
L 258.453368 -139.28653 
L 257.872307 -139.841054 
L 255.16069 -140.452519 
L 254.037306 -140.519927 
L 253.688669 -140.599822 
L 250.667153 -140.76919 
L 250.318516 -140.767528 
L 247.374474 -141.259186 
L 247.025838 -141.422058 
L 246.40604 -141.532849 
L 239.859421 -142.615579 
L 239.27836 -142.787582 
L 237.961289 -142.7667 
L 237.65139 -142.875277 
L 235.482096 -143.042304 
L 234.746085 -143.301349 
L 233.9326 -143.44037 
L 232.964165 -143.623776 
L 231.220983 -143.791033 
L 230.794871 -143.856673 
L 230.639922 -143.920254 
L 222.117696 -144.491386 
L 219.715978 -145.21697 
L 219.444816 -145.276162 
L 219.328604 -145.296949 
L 215.338653 -145.505603 
L 214.873804 -145.558475 
L 212.665773 -145.725982 
L 211.619863 -145.76594 
L 209.721731 -146.090588 
L 198.332938 -148.470357 
L 198.139252 -148.530462 
L 197.984302 -148.568065 
L 196.047432 -148.735296 
L 195.001523 -148.697074 
L 194.30425 -148.831235 
L 192.832229 -149.124758 
L 192.251168 -149.262046 
L 183.225356 -149.627342 
L 183.109144 -149.615021 
L 177.221061 -151.06276 
L 176.136414 -151.413631 
L 175.59409 -151.408808 
L 175.322929 -151.481551 
L 171.371715 -152.145604 
L 153.78494 -158.963822 
L 153.087667 -159.181555 
L 152.855242 -159.310076 
L 152.584081 -159.295251 
L 145.843775 -161.325765 
L 119.850986 -167.516184 
L 119.657299 -167.442484 
L 117.875379 -168.596344 
L 117.294318 -168.504152 
L 114.427751 -170.563765 
L 112.916993 -172.0576 
L 112.684569 -172.140183 
L 111.871084 -172.716091 
L 110.244113 -173.883834 
L 109.895477 -174.003281 
L 109.120729 -174.208 
L 103.232646 -176.748491 
L 102.806534 -177.264814 
L 102.457898 -177.305758 
L 101.760625 -177.322461 
L 101.566938 -177.181167 
L 101.295776 -177.333895 
L 101.024614 -177.900904 
L 100.985877 -177.982864 
L 99.746281 -178.62932 
L 99.668806 -178.72962 
L 97.886886 -177.919185 
L 96.569815 -179.6608 
L 95.988754 -179.913763 
L 95.291481 -180.39309 
L 79.370413 -190.841408 
L 75.496674 -190.874068 
L 74.838139 -193.147774 
L 74.450765 -192.856449 
L 74.257078 -192.596426 
L 73.559805 -192.479432 
L 72.281471 -199.722667 
L 71.041874 -200.874667 
L 70.848187 -200.636038 
L 70.731975 -200.428401 
L 70.07344 -204.223088 
L 69.492379 -206.792746 
L 69.18248 -207.54298 
L 68.872581 -215.729349 
L 68.756368 -215.608993 
L 68.368994 -218.211192 
L 68.097833 -218.758737 
L 67.168135 -237.378038 
L 66.703287 -246.262154 
L 66.625812 -246.678615 
L 66.470862 -247.538599 
L 66.199701 -248.741393 
L 65.851064 -249.712941 
L 65.347478 -249.216 
L 64.921367 -249.963611 
L 64.379043 -250.226526 
L 64.146619 -249.007921 
L 63.797982 -252.568381 
L 63.216922 -250.436809 
L 62.94576 -249.984 
L 57.6 -291.456 
L 57.6 -38.016 
L 57.6 -38.016 
L 62.94576 -38.016 
L 63.216922 -38.016 
L 63.797982 -38.016 
L 64.146619 -38.016 
L 64.379043 -38.016 
L 64.921367 -38.016 
L 65.347478 -38.016 
L 65.851064 -38.016 
L 66.199701 -38.016 
L 66.470862 -38.016 
L 66.625812 -38.016 
L 66.703287 -38.016 
L 67.168135 -38.016 
L 68.097833 -38.016 
L 68.368994 -38.016 
L 68.756368 -38.016 
L 68.872581 -38.016 
L 69.18248 -38.016 
L 69.492379 -38.016 
L 70.07344 -38.016 
L 70.731975 -38.016 
L 70.848187 -38.016 
L 71.041874 -38.016 
L 72.281471 -38.016 
L 73.559805 -38.016 
L 74.257078 -38.016 
L 74.450765 -38.016 
L 74.838139 -38.016 
L 75.496674 -38.016 
L 79.370413 -38.016 
L 95.291481 -38.016 
L 95.988754 -38.016 
L 96.569815 -38.016 
L 97.886886 -38.016 
L 99.668806 -38.016 
L 99.746281 -38.016 
L 100.985877 -38.016 
L 101.024614 -38.016 
L 101.295776 -38.016 
L 101.566938 -38.016 
L 101.760625 -38.016 
L 102.457898 -38.016 
L 102.806534 -38.016 
L 103.232646 -38.016 
L 109.120729 -38.016 
L 109.895477 -38.016 
L 110.244113 -38.016 
L 111.871084 -38.016 
L 112.684569 -38.016 
L 112.916993 -38.016 
L 114.427751 -38.016 
L 117.294318 -38.016 
L 117.875379 -38.016 
L 119.657299 -38.016 
L 119.850986 -38.016 
L 145.843775 -38.016 
L 152.584081 -38.016 
L 152.855242 -38.016 
L 153.087667 -38.016 
L 153.78494 -38.016 
L 171.371715 -38.016 
L 175.322929 -38.016 
L 175.59409 -38.016 
L 176.136414 -38.016 
L 177.221061 -38.016 
L 183.109144 -38.016 
L 183.225356 -38.016 
L 192.251168 -38.016 
L 192.832229 -38.016 
L 194.30425 -38.016 
L 195.001523 -38.016 
L 196.047432 -38.016 
L 197.984302 -38.016 
L 198.139252 -38.016 
L 198.332938 -38.016 
L 209.721731 -38.016 
L 211.619863 -38.016 
L 212.665773 -38.016 
L 214.873804 -38.016 
L 215.338653 -38.016 
L 219.328604 -38.016 
L 219.444816 -38.016 
L 219.715978 -38.016 
L 222.117696 -38.016 
L 230.639922 -38.016 
L 230.794871 -38.016 
L 231.220983 -38.016 
L 232.964165 -38.016 
L 233.9326 -38.016 
L 234.746085 -38.016 
L 235.482096 -38.016 
L 237.65139 -38.016 
L 237.961289 -38.016 
L 239.27836 -38.016 
L 239.859421 -38.016 
L 246.40604 -38.016 
L 247.025838 -38.016 
L 247.374474 -38.016 
L 250.318516 -38.016 
L 250.667153 -38.016 
L 253.688669 -38.016 
L 254.037306 -38.016 
L 255.16069 -38.016 
L 257.872307 -38.016 
L 258.453368 -38.016 
L 259.421803 -38.016 
L 260.312763 -38.016 
L 263.682916 -38.016 
L 264.612613 -38.016 
L 266.704432 -38.016 
L 268.060241 -38.016 
L 271.546606 -38.016 
L 272.088929 -38.016 
L 272.088929 -38.016 
L 277.628376 -38.016 
L 278.635548 -38.016 
L 278.75176 -38.016 
L 279.875145 -38.016 
L 281.192216 -38.016 
L 281.540853 -38.016 
L 286.615451 -38.016 
L 288.862219 -38.016 
L 289.017169 -38.016 
L 289.636967 -38.016 
L 291.806261 -38.016 
L 294.905252 -38.016 
L 298.042981 -38.016 
L 299.08889 -38.016 
L 299.398789 -38.016 
L 299.398789 -38.016 
L 300.057325 -38.016 
L 300.909548 -38.016 
L 303.427478 -38.016 
L 306.720156 -38.016 
L 309.199349 -38.016 
L 310.748845 -38.016 
L 311.40738 -38.016 
L 315.86218 -38.016 
L 316.365766 -38.016 
L 316.791878 -38.016 
L 317.915262 -38.016 
L 320.007081 -38.016 
L 320.278243 -38.016 
L 324.423144 -38.016 
L 324.61683 -38.016 
L 325.352841 -38.016 
L 327.250973 -38.016 
L 327.483397 -38.016 
L 327.832034 -38.016 
L 327.909509 -38.016 
L 328.025721 -38.016 
L 328.258145 -38.016 
L 330.776075 -38.016 
L 330.931025 -38.016 
L 332.364308 -38.016 
L 333.875067 -38.016 
L 334.030016 -38.016 
L 338.910927 -38.016 
L 339.182089 -38.016 
L 345.535021 -38.016 
L 347.084517 -38.016 
L 347.62684 -38.016 
L 348.5178 -38.016 
L 349.370023 -38.016 
L 351.578054 -38.016 
L 352.197852 -38.016 
L 354.483358 -38.016 
L 354.715783 -38.016 
L 354.870732 -38.016 
L 355.606743 -38.016 
L 355.916642 -38.016 
L 356.69139 -38.016 
L 358.434572 -38.016 
L 358.589522 -38.016 
L 359.286795 -38.016 
L 359.674169 -38.016 
L 359.751643 -38.016 
L 362.889372 -38.016 
L 364.477605 -38.016 
L 366.530687 -38.016 
L 367.654071 -38.016 
L 368.428819 -38.016 
L 369.784627 -38.016 
L 369.939577 -38.016 
L 373.735841 -38.016 
L 374.433114 -38.016 
L 374.471852 -38.016 
L 376.060085 -38.016 
L 377.377156 -38.016 
L 377.532105 -38.016 
L 378.887914 -38.016 
L 379.275288 -38.016 
L 379.778874 -38.016 
L 381.560794 -38.016 
L 384.039987 -38.016 
L 384.156199 -38.016 
L 385.512008 -38.016 
L 385.705695 -38.016 
L 385.899382 -38.016 
L 387.565089 -38.016 
L 387.603827 -38.016 
L 388.223625 -38.016 
L 388.339837 -38.016 
L 388.378575 -38.016 
L 388.533524 -38.016 
L 389.03711 -38.016 
L 389.19206 -38.016 
L 389.347009 -38.016 
L 392.446001 -38.016 
L 392.639688 -38.016 
L 392.910849 -38.016 
L 393.375698 -38.016 
L 393.49191 -38.016 
L 393.64686 -38.016 
L 393.956759 -38.016 
L 394.305395 -38.016 
L 394.344133 -38.016 
L 394.499082 -38.016 
L 395.699941 -38.016 
L 397.05575 -38.016 
L 397.520599 -38.016 
L 399.186307 -38.016 
L 399.961054 -38.016 
L 399.999792 -38.016 
L 400.193479 -38.016 
L 400.348428 -38.016 
L 400.735802 -38.016 
L 400.735802 -38.016 
L 401.161913 -38.016 
L 401.6655 -38.016 
L 401.897924 -38.016 
L 401.975399 -38.016 
L 402.362773 -38.016 
L 402.478985 -38.016 
L 402.982571 -38.016 
L 403.021308 -38.016 
L 404.454592 -38.016 
L 404.841966 -38.016 
L 404.958178 -38.016 
L 405.732925 -38.016 
L 405.96535 -38.016 
L 405.96535 -38.016 
L 406.275249 -38.016 
L 407.049997 -38.016 
L 407.282421 -38.016 
L 407.514845 -38.016 
L 407.74727 -38.016 
L 408.250856 -38.016 
L 408.793179 -38.016 
L 408.831917 -38.016 
L 409.025604 -38.016 
L 409.025604 -38.016 
L 409.141816 -38.016 
L 409.141816 -38.016 
L 409.412978 -38.016 
L 409.412978 -38.016 
L 409.490452 -38.016 
L 409.877826 -38.016 
L 409.877826 -38.016 
L 410.032776 -38.016 
L 410.110251 -38.016 
L 410.42015 -38.016 
L 410.962473 -38.016 
L 410.962473 -38.016 
L 411.233635 -38.016 
L 411.388584 -38.016 
L 411.853433 -38.016 
L 411.930908 -38.016 
L 412.395757 -38.016 
L 412.473231 -38.016 
L 412.511969 -38.016 
L 412.550706 -38.016 
L 412.628181 -38.016 
L 413.015555 -38.016 
L 413.131767 -38.016 
L 413.131767 -38.016 
L 413.131767 -38.016 
L 413.170504 -38.016 
L 413.170504 -38.016 
L 413.209242 -38.016 
L 413.286717 -38.016 
L 413.441666 -38.016 
L 413.480404 -38.016 
L 413.557878 -38.016 
L 413.557878 -38.016 
L 414.72 -38.016 
z
" id="m1344e4e8ce" style="stroke:#0000ff;stroke-opacity:0.2;"/>
    </defs>
    <g clip-path="url(#p047bfaeaf1)">
     <use style="fill:#0000ff;fill-opacity:0.2;stroke:#0000ff;stroke-opacity:0.2;" x="0" xlink:href="#m1344e4e8ce" y="345.6"/>
    </g>
   </g>
   <g id="matplotlib.axis_1">
    <g id="xtick_1">
     <g id="line2d_1">
      <defs>
       <path d="M 0 0 
L 0 3.5 
" id="mae102fdcf9" style="stroke:#000000;stroke-width:0.8;"/>
      </defs>
      <g>
       <use style="stroke:#000000;stroke-width:0.8;" x="57.6" xlink:href="#mae102fdcf9" y="307.584"/>
      </g>
     </g>
     <g id="text_1">
      <!-- 0.0 -->
      <defs>
       <path d="M 31.78125 66.40625 
Q 24.171875 66.40625 20.328125 58.90625 
Q 16.5 51.421875 16.5 36.375 
Q 16.5 21.390625 20.328125 13.890625 
Q 24.171875 6.390625 31.78125 6.390625 
Q 39.453125 6.390625 43.28125 13.890625 
Q 47.125 21.390625 47.125 36.375 
Q 47.125 51.421875 43.28125 58.90625 
Q 39.453125 66.40625 31.78125 66.40625 
z
M 31.78125 74.21875 
Q 44.046875 74.21875 50.515625 64.515625 
Q 56.984375 54.828125 56.984375 36.375 
Q 56.984375 17.96875 50.515625 8.265625 
Q 44.046875 -1.421875 31.78125 -1.421875 
Q 19.53125 -1.421875 13.0625 8.265625 
Q 6.59375 17.96875 6.59375 36.375 
Q 6.59375 54.828125 13.0625 64.515625 
Q 19.53125 74.21875 31.78125 74.21875 
z
" id="DejaVuSans-48"/>
       <path d="M 10.6875 12.40625 
L 21 12.40625 
L 21 0 
L 10.6875 0 
z
" id="DejaVuSans-46"/>
      </defs>
      <g transform="translate(49.648438 322.182437)scale(0.1 -0.1)">
       <use xlink:href="#DejaVuSans-48"/>
       <use x="63.623047" xlink:href="#DejaVuSans-46"/>
       <use x="95.410156" xlink:href="#DejaVuSans-48"/>
      </g>
     </g>
    </g>
    <g id="xtick_2">
     <g id="line2d_2">
      <g>
       <use style="stroke:#000000;stroke-width:0.8;" x="129.024" xlink:href="#mae102fdcf9" y="307.584"/>
      </g>
     </g>
     <g id="text_2">
      <!-- 0.2 -->
      <defs>
       <path d="M 19.1875 8.296875 
L 53.609375 8.296875 
L 53.609375 0 
L 7.328125 0 
L 7.328125 8.296875 
Q 12.9375 14.109375 22.625 23.890625 
Q 32.328125 33.6875 34.8125 36.53125 
Q 39.546875 41.84375 41.421875 45.53125 
Q 43.3125 49.21875 43.3125 52.78125 
Q 43.3125 58.59375 39.234375 62.25 
Q 35.15625 65.921875 28.609375 65.921875 
Q 23.96875 65.921875 18.8125 64.3125 
Q 13.671875 62.703125 7.8125 59.421875 
L 7.8125 69.390625 
Q 13.765625 71.78125 18.9375 73 
Q 24.125 74.21875 28.421875 74.21875 
Q 39.75 74.21875 46.484375 68.546875 
Q 53.21875 62.890625 53.21875 53.421875 
Q 53.21875 48.921875 51.53125 44.890625 
Q 49.859375 40.875 45.40625 35.40625 
Q 44.1875 33.984375 37.640625 27.21875 
Q 31.109375 20.453125 19.1875 8.296875 
z
" id="DejaVuSans-50"/>
      </defs>
      <g transform="translate(121.072438 322.182437)scale(0.1 -0.1)">
       <use xlink:href="#DejaVuSans-48"/>
       <use x="63.623047" xlink:href="#DejaVuSans-46"/>
       <use x="95.410156" xlink:href="#DejaVuSans-50"/>
      </g>
     </g>
    </g>
    <g id="xtick_3">
     <g id="line2d_3">
      <g>
       <use style="stroke:#000000;stroke-width:0.8;" x="200.448" xlink:href="#mae102fdcf9" y="307.584"/>
      </g>
     </g>
     <g id="text_3">
      <!-- 0.4 -->
      <defs>
       <path d="M 37.796875 64.3125 
L 12.890625 25.390625 
L 37.796875 25.390625 
z
M 35.203125 72.90625 
L 47.609375 72.90625 
L 47.609375 25.390625 
L 58.015625 25.390625 
L 58.015625 17.1875 
L 47.609375 17.1875 
L 47.609375 0 
L 37.796875 0 
L 37.796875 17.1875 
L 4.890625 17.1875 
L 4.890625 26.703125 
z
" id="DejaVuSans-52"/>
      </defs>
      <g transform="translate(192.496438 322.182437)scale(0.1 -0.1)">
       <use xlink:href="#DejaVuSans-48"/>
       <use x="63.623047" xlink:href="#DejaVuSans-46"/>
       <use x="95.410156" xlink:href="#DejaVuSans-52"/>
      </g>
     </g>
    </g>
    <g id="xtick_4">
     <g id="line2d_4">
      <g>
       <use style="stroke:#000000;stroke-width:0.8;" x="271.872" xlink:href="#mae102fdcf9" y="307.584"/>
      </g>
     </g>
     <g id="text_4">
      <!-- 0.6 -->
      <defs>
       <path d="M 33.015625 40.375 
Q 26.375 40.375 22.484375 35.828125 
Q 18.609375 31.296875 18.609375 23.390625 
Q 18.609375 15.53125 22.484375 10.953125 
Q 26.375 6.390625 33.015625 6.390625 
Q 39.65625 6.390625 43.53125 10.953125 
Q 47.40625 15.53125 47.40625 23.390625 
Q 47.40625 31.296875 43.53125 35.828125 
Q 39.65625 40.375 33.015625 40.375 
z
M 52.59375 71.296875 
L 52.59375 62.3125 
Q 48.875 64.0625 45.09375 64.984375 
Q 41.3125 65.921875 37.59375 65.921875 
Q 27.828125 65.921875 22.671875 59.328125 
Q 17.53125 52.734375 16.796875 39.40625 
Q 19.671875 43.65625 24.015625 45.921875 
Q 28.375 48.1875 33.59375 48.1875 
Q 44.578125 48.1875 50.953125 41.515625 
Q 57.328125 34.859375 57.328125 23.390625 
Q 57.328125 12.15625 50.6875 5.359375 
Q 44.046875 -1.421875 33.015625 -1.421875 
Q 20.359375 -1.421875 13.671875 8.265625 
Q 6.984375 17.96875 6.984375 36.375 
Q 6.984375 53.65625 15.1875 63.9375 
Q 23.390625 74.21875 37.203125 74.21875 
Q 40.921875 74.21875 44.703125 73.484375 
Q 48.484375 72.75 52.59375 71.296875 
z
" id="DejaVuSans-54"/>
      </defs>
      <g transform="translate(263.920438 322.182437)scale(0.1 -0.1)">
       <use xlink:href="#DejaVuSans-48"/>
       <use x="63.623047" xlink:href="#DejaVuSans-46"/>
       <use x="95.410156" xlink:href="#DejaVuSans-54"/>
      </g>
     </g>
    </g>
    <g id="xtick_5">
     <g id="line2d_5">
      <g>
       <use style="stroke:#000000;stroke-width:0.8;" x="343.296" xlink:href="#mae102fdcf9" y="307.584"/>
      </g>
     </g>
     <g id="text_5">
      <!-- 0.8 -->
      <defs>
       <path d="M 31.78125 34.625 
Q 24.75 34.625 20.71875 30.859375 
Q 16.703125 27.09375 16.703125 20.515625 
Q 16.703125 13.921875 20.71875 10.15625 
Q 24.75 6.390625 31.78125 6.390625 
Q 38.8125 6.390625 42.859375 10.171875 
Q 46.921875 13.96875 46.921875 20.515625 
Q 46.921875 27.09375 42.890625 30.859375 
Q 38.875 34.625 31.78125 34.625 
z
M 21.921875 38.8125 
Q 15.578125 40.375 12.03125 44.71875 
Q 8.5 49.078125 8.5 55.328125 
Q 8.5 64.0625 14.71875 69.140625 
Q 20.953125 74.21875 31.78125 74.21875 
Q 42.671875 74.21875 48.875 69.140625 
Q 55.078125 64.0625 55.078125 55.328125 
Q 55.078125 49.078125 51.53125 44.71875 
Q 48 40.375 41.703125 38.8125 
Q 48.828125 37.15625 52.796875 32.3125 
Q 56.78125 27.484375 56.78125 20.515625 
Q 56.78125 9.90625 50.3125 4.234375 
Q 43.84375 -1.421875 31.78125 -1.421875 
Q 19.734375 -1.421875 13.25 4.234375 
Q 6.78125 9.90625 6.78125 20.515625 
Q 6.78125 27.484375 10.78125 32.3125 
Q 14.796875 37.15625 21.921875 38.8125 
z
M 18.3125 54.390625 
Q 18.3125 48.734375 21.84375 45.5625 
Q 25.390625 42.390625 31.78125 42.390625 
Q 38.140625 42.390625 41.71875 45.5625 
Q 45.3125 48.734375 45.3125 54.390625 
Q 45.3125 60.0625 41.71875 63.234375 
Q 38.140625 66.40625 31.78125 66.40625 
Q 25.390625 66.40625 21.84375 63.234375 
Q 18.3125 60.0625 18.3125 54.390625 
z
" id="DejaVuSans-56"/>
      </defs>
      <g transform="translate(335.344438 322.182437)scale(0.1 -0.1)">
       <use xlink:href="#DejaVuSans-48"/>
       <use x="63.623047" xlink:href="#DejaVuSans-46"/>
       <use x="95.410156" xlink:href="#DejaVuSans-56"/>
      </g>
     </g>
    </g>
    <g id="xtick_6">
     <g id="line2d_6">
      <g>
       <use style="stroke:#000000;stroke-width:0.8;" x="414.72" xlink:href="#mae102fdcf9" y="307.584"/>
      </g>
     </g>
     <g id="text_6">
      <!-- 1.0 -->
      <defs>
       <path d="M 12.40625 8.296875 
L 28.515625 8.296875 
L 28.515625 63.921875 
L 10.984375 60.40625 
L 10.984375 69.390625 
L 28.421875 72.90625 
L 38.28125 72.90625 
L 38.28125 8.296875 
L 54.390625 8.296875 
L 54.390625 0 
L 12.40625 0 
z
" id="DejaVuSans-49"/>
      </defs>
      <g transform="translate(406.768438 322.182437)scale(0.1 -0.1)">
       <use xlink:href="#DejaVuSans-49"/>
       <use x="63.623047" xlink:href="#DejaVuSans-46"/>
       <use x="95.410156" xlink:href="#DejaVuSans-48"/>
      </g>
     </g>
    </g>
    <g id="text_7">
     <!-- Recall -->
     <defs>
      <path d="M 44.390625 34.1875 
Q 47.5625 33.109375 50.5625 29.59375 
Q 53.5625 26.078125 56.59375 19.921875 
L 66.609375 0 
L 56 0 
L 46.6875 18.703125 
Q 43.0625 26.03125 39.671875 28.421875 
Q 36.28125 30.8125 30.421875 30.8125 
L 19.671875 30.8125 
L 19.671875 0 
L 9.8125 0 
L 9.8125 72.90625 
L 32.078125 72.90625 
Q 44.578125 72.90625 50.734375 67.671875 
Q 56.890625 62.453125 56.890625 51.90625 
Q 56.890625 45.015625 53.6875 40.46875 
Q 50.484375 35.9375 44.390625 34.1875 
z
M 19.671875 64.796875 
L 19.671875 38.921875 
L 32.078125 38.921875 
Q 39.203125 38.921875 42.84375 42.21875 
Q 46.484375 45.515625 46.484375 51.90625 
Q 46.484375 58.296875 42.84375 61.546875 
Q 39.203125 64.796875 32.078125 64.796875 
z
" id="DejaVuSans-82"/>
      <path d="M 56.203125 29.59375 
L 56.203125 25.203125 
L 14.890625 25.203125 
Q 15.484375 15.921875 20.484375 11.0625 
Q 25.484375 6.203125 34.421875 6.203125 
Q 39.59375 6.203125 44.453125 7.46875 
Q 49.3125 8.734375 54.109375 11.28125 
L 54.109375 2.78125 
Q 49.265625 0.734375 44.1875 -0.34375 
Q 39.109375 -1.421875 33.890625 -1.421875 
Q 20.796875 -1.421875 13.15625 6.1875 
Q 5.515625 13.8125 5.515625 26.8125 
Q 5.515625 40.234375 12.765625 48.109375 
Q 20.015625 56 32.328125 56 
Q 43.359375 56 49.78125 48.890625 
Q 56.203125 41.796875 56.203125 29.59375 
z
M 47.21875 32.234375 
Q 47.125 39.59375 43.09375 43.984375 
Q 39.0625 48.390625 32.421875 48.390625 
Q 24.90625 48.390625 20.390625 44.140625 
Q 15.875 39.890625 15.1875 32.171875 
z
" id="DejaVuSans-101"/>
      <path d="M 48.78125 52.59375 
L 48.78125 44.1875 
Q 44.96875 46.296875 41.140625 47.34375 
Q 37.3125 48.390625 33.40625 48.390625 
Q 24.65625 48.390625 19.8125 42.84375 
Q 14.984375 37.3125 14.984375 27.296875 
Q 14.984375 17.28125 19.8125 11.734375 
Q 24.65625 6.203125 33.40625 6.203125 
Q 37.3125 6.203125 41.140625 7.25 
Q 44.96875 8.296875 48.78125 10.40625 
L 48.78125 2.09375 
Q 45.015625 0.34375 40.984375 -0.53125 
Q 36.96875 -1.421875 32.421875 -1.421875 
Q 20.0625 -1.421875 12.78125 6.34375 
Q 5.515625 14.109375 5.515625 27.296875 
Q 5.515625 40.671875 12.859375 48.328125 
Q 20.21875 56 33.015625 56 
Q 37.15625 56 41.109375 55.140625 
Q 45.0625 54.296875 48.78125 52.59375 
z
" id="DejaVuSans-99"/>
      <path d="M 34.28125 27.484375 
Q 23.390625 27.484375 19.1875 25 
Q 14.984375 22.515625 14.984375 16.5 
Q 14.984375 11.71875 18.140625 8.90625 
Q 21.296875 6.109375 26.703125 6.109375 
Q 34.1875 6.109375 38.703125 11.40625 
Q 43.21875 16.703125 43.21875 25.484375 
L 43.21875 27.484375 
z
M 52.203125 31.203125 
L 52.203125 0 
L 43.21875 0 
L 43.21875 8.296875 
Q 40.140625 3.328125 35.546875 0.953125 
Q 30.953125 -1.421875 24.3125 -1.421875 
Q 15.921875 -1.421875 10.953125 3.296875 
Q 6 8.015625 6 15.921875 
Q 6 25.140625 12.171875 29.828125 
Q 18.359375 34.515625 30.609375 34.515625 
L 43.21875 34.515625 
L 43.21875 35.40625 
Q 43.21875 41.609375 39.140625 45 
Q 35.0625 48.390625 27.6875 48.390625 
Q 23 48.390625 18.546875 47.265625 
Q 14.109375 46.140625 10.015625 43.890625 
L 10.015625 52.203125 
Q 14.9375 54.109375 19.578125 55.046875 
Q 24.21875 56 28.609375 56 
Q 40.484375 56 46.34375 49.84375 
Q 52.203125 43.703125 52.203125 31.203125 
z
" id="DejaVuSans-97"/>
      <path d="M 9.421875 75.984375 
L 18.40625 75.984375 
L 18.40625 0 
L 9.421875 0 
z
" id="DejaVuSans-108"/>
     </defs>
     <g transform="translate(221.020938 335.860562)scale(0.1 -0.1)">
      <use xlink:href="#DejaVuSans-82"/>
      <use x="69.419922" xlink:href="#DejaVuSans-101"/>
      <use x="130.943359" xlink:href="#DejaVuSans-99"/>
      <use x="185.923828" xlink:href="#DejaVuSans-97"/>
      <use x="247.203125" xlink:href="#DejaVuSans-108"/>
      <use x="274.986328" xlink:href="#DejaVuSans-108"/>
     </g>
    </g>
   </g>
   <g id="matplotlib.axis_2">
    <g id="ytick_1">
     <g id="line2d_7">
      <defs>
       <path d="M 0 0 
L -3.5 0 
" id="mfbece32c54" style="stroke:#000000;stroke-width:0.8;"/>
      </defs>
      <g>
       <use style="stroke:#000000;stroke-width:0.8;" x="57.6" xlink:href="#mfbece32c54" y="307.584"/>
      </g>
     </g>
     <g id="text_8">
      <!-- 0.0 -->
      <g transform="translate(34.696875 311.383219)scale(0.1 -0.1)">
       <use xlink:href="#DejaVuSans-48"/>
       <use x="63.623047" xlink:href="#DejaVuSans-46"/>
       <use x="95.410156" xlink:href="#DejaVuSans-48"/>
      </g>
     </g>
    </g>
    <g id="ytick_2">
     <g id="line2d_8">
      <g>
       <use style="stroke:#000000;stroke-width:0.8;" x="57.6" xlink:href="#mfbece32c54" y="256.896"/>
      </g>
     </g>
     <g id="text_9">
      <!-- 0.2 -->
      <g transform="translate(34.696875 260.695219)scale(0.1 -0.1)">
       <use xlink:href="#DejaVuSans-48"/>
       <use x="63.623047" xlink:href="#DejaVuSans-46"/>
       <use x="95.410156" xlink:href="#DejaVuSans-50"/>
      </g>
     </g>
    </g>
    <g id="ytick_3">
     <g id="line2d_9">
      <g>
       <use style="stroke:#000000;stroke-width:0.8;" x="57.6" xlink:href="#mfbece32c54" y="206.208"/>
      </g>
     </g>
     <g id="text_10">
      <!-- 0.4 -->
      <g transform="translate(34.696875 210.007219)scale(0.1 -0.1)">
       <use xlink:href="#DejaVuSans-48"/>
       <use x="63.623047" xlink:href="#DejaVuSans-46"/>
       <use x="95.410156" xlink:href="#DejaVuSans-52"/>
      </g>
     </g>
    </g>
    <g id="ytick_4">
     <g id="line2d_10">
      <g>
       <use style="stroke:#000000;stroke-width:0.8;" x="57.6" xlink:href="#mfbece32c54" y="155.52"/>
      </g>
     </g>
     <g id="text_11">
      <!-- 0.6 -->
      <g transform="translate(34.696875 159.319219)scale(0.1 -0.1)">
       <use xlink:href="#DejaVuSans-48"/>
       <use x="63.623047" xlink:href="#DejaVuSans-46"/>
       <use x="95.410156" xlink:href="#DejaVuSans-54"/>
      </g>
     </g>
    </g>
    <g id="ytick_5">
     <g id="line2d_11">
      <g>
       <use style="stroke:#000000;stroke-width:0.8;" x="57.6" xlink:href="#mfbece32c54" y="104.832"/>
      </g>
     </g>
     <g id="text_12">
      <!-- 0.8 -->
      <g transform="translate(34.696875 108.631219)scale(0.1 -0.1)">
       <use xlink:href="#DejaVuSans-48"/>
       <use x="63.623047" xlink:href="#DejaVuSans-46"/>
       <use x="95.410156" xlink:href="#DejaVuSans-56"/>
      </g>
     </g>
    </g>
    <g id="ytick_6">
     <g id="line2d_12">
      <g>
       <use style="stroke:#000000;stroke-width:0.8;" x="57.6" xlink:href="#mfbece32c54" y="54.144"/>
      </g>
     </g>
     <g id="text_13">
      <!-- 1.0 -->
      <g transform="translate(34.696875 57.943219)scale(0.1 -0.1)">
       <use xlink:href="#DejaVuSans-49"/>
       <use x="63.623047" xlink:href="#DejaVuSans-46"/>
       <use x="95.410156" xlink:href="#DejaVuSans-48"/>
      </g>
     </g>
    </g>
    <g id="text_14">
     <!-- Precision -->
     <defs>
      <path d="M 19.671875 64.796875 
L 19.671875 37.40625 
L 32.078125 37.40625 
Q 38.96875 37.40625 42.71875 40.96875 
Q 46.484375 44.53125 46.484375 51.125 
Q 46.484375 57.671875 42.71875 61.234375 
Q 38.96875 64.796875 32.078125 64.796875 
z
M 9.8125 72.90625 
L 32.078125 72.90625 
Q 44.34375 72.90625 50.609375 67.359375 
Q 56.890625 61.8125 56.890625 51.125 
Q 56.890625 40.328125 50.609375 34.8125 
Q 44.34375 29.296875 32.078125 29.296875 
L 19.671875 29.296875 
L 19.671875 0 
L 9.8125 0 
z
" id="DejaVuSans-80"/>
      <path d="M 41.109375 46.296875 
Q 39.59375 47.171875 37.8125 47.578125 
Q 36.03125 48 33.890625 48 
Q 26.265625 48 22.1875 43.046875 
Q 18.109375 38.09375 18.109375 28.8125 
L 18.109375 0 
L 9.078125 0 
L 9.078125 54.6875 
L 18.109375 54.6875 
L 18.109375 46.1875 
Q 20.953125 51.171875 25.484375 53.578125 
Q 30.03125 56 36.53125 56 
Q 37.453125 56 38.578125 55.875 
Q 39.703125 55.765625 41.0625 55.515625 
z
" id="DejaVuSans-114"/>
      <path d="M 9.421875 54.6875 
L 18.40625 54.6875 
L 18.40625 0 
L 9.421875 0 
z
M 9.421875 75.984375 
L 18.40625 75.984375 
L 18.40625 64.59375 
L 9.421875 64.59375 
z
" id="DejaVuSans-105"/>
      <path d="M 44.28125 53.078125 
L 44.28125 44.578125 
Q 40.484375 46.53125 36.375 47.5 
Q 32.28125 48.484375 27.875 48.484375 
Q 21.1875 48.484375 17.84375 46.4375 
Q 14.5 44.390625 14.5 40.28125 
Q 14.5 37.15625 16.890625 35.375 
Q 19.28125 33.59375 26.515625 31.984375 
L 29.59375 31.296875 
Q 39.15625 29.25 43.1875 25.515625 
Q 47.21875 21.78125 47.21875 15.09375 
Q 47.21875 7.46875 41.1875 3.015625 
Q 35.15625 -1.421875 24.609375 -1.421875 
Q 20.21875 -1.421875 15.453125 -0.5625 
Q 10.6875 0.296875 5.421875 2 
L 5.421875 11.28125 
Q 10.40625 8.6875 15.234375 7.390625 
Q 20.0625 6.109375 24.8125 6.109375 
Q 31.15625 6.109375 34.5625 8.28125 
Q 37.984375 10.453125 37.984375 14.40625 
Q 37.984375 18.0625 35.515625 20.015625 
Q 33.0625 21.96875 24.703125 23.78125 
L 21.578125 24.515625 
Q 13.234375 26.265625 9.515625 29.90625 
Q 5.8125 33.546875 5.8125 39.890625 
Q 5.8125 47.609375 11.28125 51.796875 
Q 16.75 56 26.8125 56 
Q 31.78125 56 36.171875 55.265625 
Q 40.578125 54.546875 44.28125 53.078125 
z
" id="DejaVuSans-115"/>
      <path d="M 30.609375 48.390625 
Q 23.390625 48.390625 19.1875 42.75 
Q 14.984375 37.109375 14.984375 27.296875 
Q 14.984375 17.484375 19.15625 11.84375 
Q 23.34375 6.203125 30.609375 6.203125 
Q 37.796875 6.203125 41.984375 11.859375 
Q 46.1875 17.53125 46.1875 27.296875 
Q 46.1875 37.015625 41.984375 42.703125 
Q 37.796875 48.390625 30.609375 48.390625 
z
M 30.609375 56 
Q 42.328125 56 49.015625 48.375 
Q 55.71875 40.765625 55.71875 27.296875 
Q 55.71875 13.875 49.015625 6.21875 
Q 42.328125 -1.421875 30.609375 -1.421875 
Q 18.84375 -1.421875 12.171875 6.21875 
Q 5.515625 13.875 5.515625 27.296875 
Q 5.515625 40.765625 12.171875 48.375 
Q 18.84375 56 30.609375 56 
z
" id="DejaVuSans-111"/>
      <path d="M 54.890625 33.015625 
L 54.890625 0 
L 45.90625 0 
L 45.90625 32.71875 
Q 45.90625 40.484375 42.875 44.328125 
Q 39.84375 48.1875 33.796875 48.1875 
Q 26.515625 48.1875 22.3125 43.546875 
Q 18.109375 38.921875 18.109375 30.90625 
L 18.109375 0 
L 9.078125 0 
L 9.078125 54.6875 
L 18.109375 54.6875 
L 18.109375 46.1875 
Q 21.34375 51.125 25.703125 53.5625 
Q 30.078125 56 35.796875 56 
Q 45.21875 56 50.046875 50.171875 
Q 54.890625 44.34375 54.890625 33.015625 
z
" id="DejaVuSans-110"/>
     </defs>
     <g transform="translate(28.617187 197.032688)rotate(-90)scale(0.1 -0.1)">
      <use xlink:href="#DejaVuSans-80"/>
      <use x="60.287109" xlink:href="#DejaVuSans-114"/>
      <use x="101.369141" xlink:href="#DejaVuSans-101"/>
      <use x="162.892578" xlink:href="#DejaVuSans-99"/>
      <use x="217.873047" xlink:href="#DejaVuSans-105"/>
      <use x="245.65625" xlink:href="#DejaVuSans-115"/>
      <use x="297.755859" xlink:href="#DejaVuSans-105"/>
      <use x="325.539062" xlink:href="#DejaVuSans-111"/>
      <use x="386.720703" xlink:href="#DejaVuSans-110"/>
     </g>
    </g>
   </g>
   <g id="line2d_13">
    <path clip-path="url(#p047bfaeaf1)" d="M 414.72 241.329545 
L 413.557878 241.329545 
L 413.480404 239.131208 
L 413.286717 239.039915 
L 413.209242 238.880386 
L 413.170504 238.880386 
L 413.170504 238.782221 
L 413.131767 238.515994 
L 412.628181 238.474956 
L 412.550706 238.140182 
L 412.395757 238.072194 
L 412.395757 238.014469 
L 411.930908 238.014469 
L 411.930908 237.509165 
L 411.853433 237.50966 
L 410.962473 237.426508 
L 410.962473 237.424991 
L 410.962473 237.386645 
L 410.42015 237.386645 
L 410.42015 236.575894 
L 410.110251 236.575894 
L 410.032776 236.351466 
L 409.877826 236.351466 
L 409.877826 236.175419 
L 409.490452 236.175419 
L 409.412978 235.907667 
L 409.141816 235.907667 
L 409.141816 235.801971 
L 409.141816 235.786285 
L 408.831917 235.697817 
L 408.793179 235.644145 
L 408.250856 235.644145 
L 408.250856 235.222819 
L 407.74727 235.222819 
L 407.74727 235.04991 
L 407.282421 234.971607 
L 407.282421 234.816733 
L 406.275249 234.758548 
L 406.275249 234.463497 
L 404.958178 234.377775 
L 404.958178 233.639948 
L 404.454592 233.578001 
L 404.454592 233.46983 
L 403.021308 233.46983 
L 402.982571 232.812449 
L 402.478985 232.812449 
L 402.478985 232.606386 
L 402.362773 232.606386 
L 402.362773 232.484416 
L 401.975399 232.484416 
L 401.897924 232.216805 
L 401.6655 232.216805 
L 401.6655 232.009768 
L 400.735802 231.932433 
L 400.735802 231.655718 
L 400.193479 231.576912 
L 400.193479 231.407295 
L 397.520599 231.325421 
L 397.520599 230.567239 
L 397.05575 230.567239 
L 397.05575 230.338175 
L 395.699941 230.338175 
L 395.699941 229.445446 
L 394.499082 229.445446 
L 394.499082 228.99284 
L 393.956759 228.911793 
L 393.956759 228.742659 
L 393.49191 228.651279 
L 393.49191 228.582733 
L 392.910849 228.570299 
L 392.910849 228.297555 
L 389.347009 228.215282 
L 389.347009 227.572935 
L 388.378575 227.488635 
L 388.339837 227.396091 
L 387.603827 227.352911 
L 387.565089 227.223595 
L 385.899382 227.223595 
L 385.899382 226.711076 
L 384.156199 226.672456 
L 384.156199 226.215253 
L 381.560794 226.172897 
L 381.560794 225.61638 
L 379.778874 225.61638 
L 379.778874 225.213524 
L 377.532105 225.141699 
L 377.532105 224.90592 
L 376.060085 224.903507 
L 376.060085 224.687118 
L 374.471852 224.687118 
L 374.433114 224.308821 
L 369.939577 224.200656 
L 369.939577 223.299128 
L 368.428819 223.257467 
L 368.428819 223.146093 
L 367.654071 223.146093 
L 367.654071 222.948913 
L 366.530687 222.948913 
L 366.530687 222.671006 
L 364.477605 222.671006 
L 364.477605 222.372571 
L 362.889372 222.372571 
L 362.889372 222.15369 
L 359.751643 222.15369 
L 359.674169 221.258975 
L 358.589522 221.203662 
L 358.589522 221.10432 
L 356.69139 221.000548 
L 356.69139 220.915108 
L 355.916642 220.915108 
L 355.916642 220.68545 
L 354.870732 220.647989 
L 354.870732 220.501589 
L 354.483358 220.394729 
L 354.483358 220.349465 
L 352.197852 220.349465 
L 352.197852 220.089733 
L 351.578054 220.089733 
L 351.578054 219.947596 
L 349.370023 219.947596 
L 349.370023 219.506204 
L 348.5178 219.506204 
L 348.5178 219.266316 
L 347.62684 219.266316 
L 347.62684 219.076827 
L 347.084517 219.076827 
L 347.084517 218.898988 
L 345.535021 218.898988 
L 345.535021 218.753919 
L 339.182089 218.753919 
L 339.182089 217.577387 
L 334.030016 217.558502 
L 334.030016 216.870862 
L 332.364308 216.844337 
L 332.364308 216.443769 
L 330.931025 216.443769 
L 330.931025 216.238409 
L 328.258145 216.192157 
L 328.258145 215.690628 
L 327.909509 215.597692 
L 327.832034 215.433607 
L 327.250973 215.379484 
L 327.250973 215.256397 
L 325.352841 215.256397 
L 325.352841 214.690942 
L 320.278243 214.614158 
L 320.278243 214.020376 
L 317.915262 213.964055 
L 317.915262 213.820688 
L 316.365766 213.713696 
L 316.365766 213.66005 
L 311.40738 213.555927 
L 311.40738 212.429632 
L 309.199349 212.365511 
L 309.199349 212.169393 
L 306.720156 212.169393 
L 306.720156 211.630118 
L 303.427478 211.630118 
L 303.427478 211.374738 
L 300.909548 211.374738 
L 300.909548 210.926241 
L 300.057325 210.926241 
L 300.057325 210.812346 
L 298.042981 210.732105 
L 298.042981 210.502904 
L 294.905252 210.502904 
L 294.905252 209.944013 
L 291.806261 209.944013 
L 291.806261 209.598437 
L 289.636967 209.598437 
L 289.636967 209.483477 
L 288.862219 209.383808 
L 288.862219 209.341237 
L 281.540853 209.242094 
L 281.540853 208.721879 
L 279.875145 208.715679 
L 279.875145 208.460646 
L 272.088929 208.483133 
L 272.088929 207.918 
L 268.060241 207.957728 
L 268.060241 207.624688 
L 266.704432 207.624688 
L 266.704432 207.432527 
L 264.612613 207.432527 
L 264.612613 207.050793 
L 263.682916 207.050793 
L 263.682916 206.881871 
L 260.312763 206.881871 
L 260.312763 206.428366 
L 259.421803 206.428366 
L 259.421803 206.316848 
L 257.872307 206.31347 
L 257.872307 205.758946 
L 255.16069 205.758946 
L 255.16069 205.147481 
L 253.688669 205.080073 
L 253.688669 205.000178 
L 250.667153 205.000178 
L 250.667153 204.83081 
L 247.374474 204.832472 
L 247.374474 204.340814 
L 247.025838 204.340814 
L 247.025838 204.177942 
L 239.859421 204.067151 
L 239.859421 202.984421 
L 239.27836 202.984421 
L 239.27836 202.812418 
L 235.482096 202.724723 
L 235.482096 202.557696 
L 234.746085 202.557696 
L 234.746085 202.298651 
L 233.9326 202.298651 
L 233.9326 202.15963 
L 232.964165 202.15963 
L 232.964165 201.976224 
L 231.220983 201.976224 
L 231.220983 201.808967 
L 230.639922 201.743327 
L 230.639922 201.679746 
L 222.117696 201.679746 
L 222.117696 201.108614 
L 219.715978 201.108614 
L 219.715978 200.38303 
L 215.338653 200.303051 
L 215.338653 200.094397 
L 212.665773 200.041525 
L 212.665773 199.874018 
L 209.721731 199.83406 
L 209.721731 199.509412 
L 198.332938 199.509412 
L 198.332938 197.129643 
L 196.047432 197.031935 
L 196.047432 196.864704 
L 192.832229 196.768765 
L 192.832229 196.475242 
L 192.251168 196.475242 
L 192.251168 196.337954 
L 183.225356 196.337954 
L 183.225356 195.972658 
L 177.221061 195.984979 
L 177.221061 194.53724 
L 176.136414 194.53724 
L 176.136414 194.186369 
L 171.371715 194.118449 
L 171.371715 193.454396 
L 153.78494 193.454396 
L 153.78494 186.636178 
L 153.087667 186.636178 
L 153.087667 186.418445 
L 152.855242 186.418445 
L 152.855242 186.289924 
L 145.843775 186.304749 
L 145.843775 184.274235 
L 119.850986 184.274235 
L 119.850986 178.083816 
L 117.875379 178.157516 
L 117.875379 177.003656 
L 114.427751 177.095848 
L 114.427751 175.036235 
L 112.916993 175.036235 
L 112.916993 173.5424 
L 111.871084 173.459817 
L 111.871084 172.883909 
L 110.244113 172.883909 
L 110.244113 171.716166 
L 109.895477 171.716166 
L 109.895477 171.596719 
L 109.120729 171.596719 
L 109.120729 171.392 
L 103.232646 171.392 
L 103.232646 168.851509 
L 102.806534 168.851509 
L 102.806534 168.335186 
L 101.024614 168.266105 
L 100.985877 167.617136 
L 99.746281 167.617136 
L 99.668806 166.87038 
L 97.886886 166.87038 
L 97.886886 167.680815 
L 96.569815 167.680815 
L 96.569815 165.9392 
L 95.988754 165.9392 
L 95.988754 165.686237 
L 95.291481 165.686237 
L 95.291481 165.20691 
L 79.370413 165.20691 
L 79.370413 154.758592 
L 74.838139 154.725932 
L 74.838139 152.452226 
L 74.450765 152.452226 
L 74.450765 152.743551 
L 74.257078 152.743551 
L 74.257078 153.003574 
L 73.559805 153.003574 
L 73.559805 153.120568 
L 72.281471 153.120568 
L 72.281471 145.877333 
L 71.041874 145.877333 
L 71.041874 144.725333 
L 70.848187 144.725333 
L 70.848187 144.963962 
L 70.731975 144.963962 
L 70.731975 145.171599 
L 70.07344 145.171599 
L 70.07344 141.376912 
L 69.492379 141.376912 
L 69.492379 138.807254 
L 69.18248 138.807254 
L 69.18248 138.05702 
L 68.872581 138.05702 
L 68.872581 129.870651 
L 68.756368 129.870651 
L 68.756368 129.991007 
L 68.368994 129.991007 
L 68.368994 127.388808 
L 68.097833 127.388808 
L 68.097833 126.841263 
L 67.168135 126.841263 
L 67.168135 108.221962 
L 66.703287 108.221962 
L 66.625812 98.921385 
L 66.470862 98.921385 
L 66.470862 98.061401 
L 66.199701 98.061401 
L 66.199701 96.858607 
L 65.851064 96.858607 
L 65.851064 95.887059 
L 65.347478 95.887059 
L 65.347478 96.384 
L 64.921367 96.384 
L 64.921367 95.636389 
L 64.379043 95.636389 
L 64.379043 95.373474 
L 64.146619 95.373474 
L 64.146619 96.592079 
L 63.797982 96.592079 
L 63.797982 93.031619 
L 63.216922 93.031619 
L 63.216922 95.163191 
L 62.94576 95.163191 
L 62.94576 95.616 
L 57.6 95.616 
L 57.6 54.144 
L 57.6 54.144 
" style="fill:none;stroke:#0000ff;stroke-linecap:square;stroke-opacity:0.2;stroke-width:1.5;"/>
   </g>
   <g id="patch_3">
    <path d="M 57.6 307.584 
L 57.6 41.472 
" style="fill:none;stroke:#000000;stroke-linecap:square;stroke-linejoin:miter;stroke-width:0.8;"/>
   </g>
   <g id="patch_4">
    <path d="M 414.72 307.584 
L 414.72 41.472 
" style="fill:none;stroke:#000000;stroke-linecap:square;stroke-linejoin:miter;stroke-width:0.8;"/>
   </g>
   <g id="patch_5">
    <path d="M 57.6 307.584 
L 414.72 307.584 
" style="fill:none;stroke:#000000;stroke-linecap:square;stroke-linejoin:miter;stroke-width:0.8;"/>
   </g>
   <g id="patch_6">
    <path d="M 57.6 41.472 
L 414.72 41.472 
" style="fill:none;stroke:#000000;stroke-linecap:square;stroke-linejoin:miter;stroke-width:0.8;"/>
   </g>
   <g id="text_15">
    <!-- 2-class Precision-Recall curve -->
    <defs>
     <path d="M 4.890625 31.390625 
L 31.203125 31.390625 
L 31.203125 23.390625 
L 4.890625 23.390625 
z
" id="DejaVuSans-45"/>
     <path id="DejaVuSans-32"/>
     <path d="M 8.5 21.578125 
L 8.5 54.6875 
L 17.484375 54.6875 
L 17.484375 21.921875 
Q 17.484375 14.15625 20.5 10.265625 
Q 23.53125 6.390625 29.59375 6.390625 
Q 36.859375 6.390625 41.078125 11.03125 
Q 45.3125 15.671875 45.3125 23.6875 
L 45.3125 54.6875 
L 54.296875 54.6875 
L 54.296875 0 
L 45.3125 0 
L 45.3125 8.40625 
Q 42.046875 3.421875 37.71875 1 
Q 33.40625 -1.421875 27.6875 -1.421875 
Q 18.265625 -1.421875 13.375 4.4375 
Q 8.5 10.296875 8.5 21.578125 
z
M 31.109375 56 
z
" id="DejaVuSans-117"/>
     <path d="M 2.984375 54.6875 
L 12.5 54.6875 
L 29.59375 8.796875 
L 46.6875 54.6875 
L 56.203125 54.6875 
L 35.6875 0 
L 23.484375 0 
z
" id="DejaVuSans-118"/>
    </defs>
    <g transform="translate(147.321562 35.472)scale(0.12 -0.12)">
     <use xlink:href="#DejaVuSans-50"/>
     <use x="63.623047" xlink:href="#DejaVuSans-45"/>
     <use x="99.707031" xlink:href="#DejaVuSans-99"/>
     <use x="154.6875" xlink:href="#DejaVuSans-108"/>
     <use x="182.470703" xlink:href="#DejaVuSans-97"/>
     <use x="243.75" xlink:href="#DejaVuSans-115"/>
     <use x="295.849609" xlink:href="#DejaVuSans-115"/>
     <use x="347.949219" xlink:href="#DejaVuSans-32"/>
     <use x="379.736328" xlink:href="#DejaVuSans-80"/>
     <use x="440.023438" xlink:href="#DejaVuSans-114"/>
     <use x="481.105469" xlink:href="#DejaVuSans-101"/>
     <use x="542.628906" xlink:href="#DejaVuSans-99"/>
     <use x="597.609375" xlink:href="#DejaVuSans-105"/>
     <use x="625.392578" xlink:href="#DejaVuSans-115"/>
     <use x="677.492188" xlink:href="#DejaVuSans-105"/>
     <use x="705.275391" xlink:href="#DejaVuSans-111"/>
     <use x="766.457031" xlink:href="#DejaVuSans-110"/>
     <use x="829.835938" xlink:href="#DejaVuSans-45"/>
     <use x="865.919922" xlink:href="#DejaVuSans-82"/>
     <use x="935.339844" xlink:href="#DejaVuSans-101"/>
     <use x="996.863281" xlink:href="#DejaVuSans-99"/>
     <use x="1051.84375" xlink:href="#DejaVuSans-97"/>
     <use x="1113.123047" xlink:href="#DejaVuSans-108"/>
     <use x="1140.90625" xlink:href="#DejaVuSans-108"/>
     <use x="1168.689453" xlink:href="#DejaVuSans-32"/>
     <use x="1200.476562" xlink:href="#DejaVuSans-99"/>
     <use x="1255.457031" xlink:href="#DejaVuSans-117"/>
     <use x="1318.835938" xlink:href="#DejaVuSans-114"/>
     <use x="1359.949219" xlink:href="#DejaVuSans-118"/>
     <use x="1419.128906" xlink:href="#DejaVuSans-101"/>
    </g>
   </g>
  </g>
 </g>
 <defs>
  <clipPath id="p047bfaeaf1">
   <rect height="266.112" width="357.12" x="57.6" y="41.472"/>
  </clipPath>
 </defs>
</svg>
